%TF.GenerationSoftware,KiCad,Pcbnew,10.0.1*%
%TF.CreationDate,2026-05-04T19:45:20+09:00*%
%TF.ProjectId,MAPS-010143,4d415053-2d30-4313-9031-34332e6b6963,rev?*%
%TF.SameCoordinates,Original*%
%TF.FileFunction,Paste,Top*%
%TF.FilePolarity,Positive*%
%FSLAX46Y46*%
G04 Gerber Fmt 4.6, Leading zero omitted, Abs format (unit mm)*
G04 Created by KiCad (PCBNEW 10.0.1) date 2026-05-04 19:45:20*
%MOMM*%
%LPD*%
G01*
G04 APERTURE LIST*
G04 Aperture macros list*
%AMRoundRect*
0 Rectangle with rounded corners*
0 $1 Rounding radius*
0 $2 $3 $4 $5 $6 $7 $8 $9 X,Y pos of 4 corners*
0 Add a 4 corners polygon primitive as box body*
4,1,4,$2,$3,$4,$5,$6,$7,$8,$9,$2,$3,0*
0 Add four circle primitives for the rounded corners*
1,1,$1+$1,$2,$3*
1,1,$1+$1,$4,$5*
1,1,$1+$1,$6,$7*
1,1,$1+$1,$8,$9*
0 Add four rect primitives between the rounded corners*
20,1,$1+$1,$2,$3,$4,$5,0*
20,1,$1+$1,$4,$5,$6,$7,0*
20,1,$1+$1,$6,$7,$8,$9,0*
20,1,$1+$1,$8,$9,$2,$3,0*%
G04 Aperture macros list end*
%ADD10RoundRect,0.155000X-0.212500X-0.155000X0.212500X-0.155000X0.212500X0.155000X-0.212500X0.155000X0*%
%ADD11RoundRect,0.155000X0.212500X0.155000X-0.212500X0.155000X-0.212500X-0.155000X0.212500X-0.155000X0*%
%ADD12RoundRect,0.237500X0.250000X0.237500X-0.250000X0.237500X-0.250000X-0.237500X0.250000X-0.237500X0*%
%ADD13RoundRect,0.237500X0.237500X-0.250000X0.237500X0.250000X-0.237500X0.250000X-0.237500X-0.250000X0*%
%ADD14RoundRect,0.237500X-0.237500X0.287500X-0.237500X-0.287500X0.237500X-0.287500X0.237500X0.287500X0*%
%ADD15RoundRect,0.250000X0.337500X0.475000X-0.337500X0.475000X-0.337500X-0.475000X0.337500X-0.475000X0*%
%ADD16RoundRect,0.237500X-0.250000X-0.237500X0.250000X-0.237500X0.250000X0.237500X-0.250000X0.237500X0*%
%ADD17RoundRect,0.237500X-0.237500X0.250000X-0.237500X-0.250000X0.237500X-0.250000X0.237500X0.250000X0*%
%ADD18RoundRect,0.250000X-0.337500X-0.475000X0.337500X-0.475000X0.337500X0.475000X-0.337500X0.475000X0*%
%ADD19R,0.250000X0.250000*%
%ADD20R,1.200000X1.100000*%
%ADD21R,1.000000X0.300000*%
%ADD22R,0.300000X1.000000*%
%ADD23R,2.000000X2.000000*%
%ADD24R,0.850000X0.300000*%
%ADD25R,0.300000X0.850000*%
%ADD26R,2.550000X2.550000*%
G04 APERTURE END LIST*
D10*
%TO.C,C8*%
X148425000Y-114700000D03*
X149560000Y-114700000D03*
%TD*%
D11*
%TO.C,C14*%
X127125000Y-94125000D03*
X125990000Y-94125000D03*
%TD*%
D12*
%TO.C,R21*%
X147075000Y-66100000D03*
X145250000Y-66100000D03*
%TD*%
D11*
%TO.C,C30*%
X143567500Y-108925000D03*
X142432500Y-108925000D03*
%TD*%
D13*
%TO.C,R6*%
X146460000Y-107942000D03*
X146460000Y-106117000D03*
%TD*%
D10*
%TO.C,C28*%
X134990000Y-108925000D03*
X136125000Y-108925000D03*
%TD*%
D14*
%TO.C,L4*%
X129400000Y-108125000D03*
X129400000Y-109875000D03*
%TD*%
%TO.C,L2*%
X129450000Y-93325000D03*
X129450000Y-95075000D03*
%TD*%
D10*
%TO.C,C4*%
X131307500Y-96050000D03*
X132442500Y-96050000D03*
%TD*%
D12*
%TO.C,R8*%
X147075000Y-68625000D03*
X145250000Y-68625000D03*
%TD*%
D15*
%TO.C,C26*%
X144825000Y-92300000D03*
X142750000Y-92300000D03*
%TD*%
D11*
%TO.C,C13*%
X127167500Y-109225000D03*
X126032500Y-109225000D03*
%TD*%
D16*
%TO.C,R3*%
X126112500Y-92900000D03*
X127937500Y-92900000D03*
%TD*%
%TO.C,R1*%
X150412500Y-87575000D03*
X152237500Y-87575000D03*
%TD*%
%TO.C,R12*%
X142400000Y-115175000D03*
X144225000Y-115175000D03*
%TD*%
D10*
%TO.C,C6*%
X131300000Y-111075000D03*
X132435000Y-111075000D03*
%TD*%
D17*
%TO.C,R14*%
X153975000Y-111825000D03*
X153975000Y-113650000D03*
%TD*%
D10*
%TO.C,C3*%
X119695000Y-96075000D03*
X120830000Y-96075000D03*
%TD*%
D12*
%TO.C,R19*%
X147025000Y-61000000D03*
X145200000Y-61000000D03*
%TD*%
D10*
%TO.C,C25*%
X134990000Y-93925000D03*
X136125000Y-93925000D03*
%TD*%
D15*
%TO.C,C29*%
X144837500Y-107475000D03*
X142762500Y-107475000D03*
%TD*%
D11*
%TO.C,C15*%
X125530000Y-106350000D03*
X124395000Y-106350000D03*
%TD*%
D17*
%TO.C,R22*%
X134725000Y-79350000D03*
X134725000Y-81175000D03*
%TD*%
D14*
%TO.C,L3*%
X124625000Y-108250000D03*
X124625000Y-110000000D03*
%TD*%
D18*
%TO.C,C24*%
X133725000Y-92475000D03*
X135800000Y-92475000D03*
%TD*%
D19*
%TO.C,IC3*%
X125725000Y-95075000D03*
X125725000Y-95575000D03*
X125725000Y-96075000D03*
X127425000Y-96075000D03*
X127425000Y-95575000D03*
X127425000Y-95075000D03*
D20*
X126575000Y-95575000D03*
%TD*%
D21*
%TO.C,IC6*%
X147225000Y-110575000D03*
X147225000Y-111075000D03*
X147225000Y-111575000D03*
X147225000Y-112075000D03*
X147225000Y-112575000D03*
D22*
X148125000Y-113475000D03*
X148625000Y-113475000D03*
X149125000Y-113475000D03*
X149625000Y-113475000D03*
X150125000Y-113475000D03*
D21*
X151025000Y-112575000D03*
X151025000Y-112075000D03*
X151025000Y-111575000D03*
X151025000Y-111075000D03*
X151025000Y-110575000D03*
D22*
X150125000Y-109675000D03*
X149625000Y-109675000D03*
X149125000Y-109675000D03*
X148625000Y-109675000D03*
X148125000Y-109675000D03*
D23*
X149125000Y-111575000D03*
%TD*%
D11*
%TO.C,C16*%
X125205000Y-90825000D03*
X124070000Y-90825000D03*
%TD*%
D24*
%TO.C,IC9*%
X137325000Y-109075000D03*
X137325000Y-109575000D03*
X137325000Y-110075000D03*
X137325000Y-110575000D03*
X137325000Y-111075000D03*
X137325000Y-111575000D03*
D25*
X138025000Y-112275000D03*
X138525000Y-112275000D03*
X139025000Y-112275000D03*
X139525000Y-112275000D03*
X140025000Y-112275000D03*
X140525000Y-112275000D03*
D24*
X141225000Y-111575000D03*
X141225000Y-111075000D03*
X141225000Y-110575000D03*
X141225000Y-110075000D03*
X141225000Y-109575000D03*
X141225000Y-109075000D03*
D25*
X140525000Y-108375000D03*
X140025000Y-108375000D03*
X139525000Y-108375000D03*
X139025000Y-108375000D03*
X138525000Y-108375000D03*
X138025000Y-108375000D03*
D26*
X139275000Y-110325000D03*
%TD*%
D10*
%TO.C,C5*%
X119725000Y-111075000D03*
X120860000Y-111075000D03*
%TD*%
D17*
%TO.C,R10*%
X154250000Y-100900000D03*
X154250000Y-102725000D03*
%TD*%
%TO.C,R11*%
X152750000Y-100900000D03*
X152750000Y-102725000D03*
%TD*%
D24*
%TO.C,IC11*%
X137322000Y-94076000D03*
X137322000Y-94576000D03*
X137322000Y-95076000D03*
X137322000Y-95576000D03*
X137322000Y-96076000D03*
X137322000Y-96576000D03*
D25*
X138022000Y-97276000D03*
X138522000Y-97276000D03*
X139022000Y-97276000D03*
X139522000Y-97276000D03*
X140022000Y-97276000D03*
X140522000Y-97276000D03*
D24*
X141222000Y-96576000D03*
X141222000Y-96076000D03*
X141222000Y-95576000D03*
X141222000Y-95076000D03*
X141222000Y-94576000D03*
X141222000Y-94076000D03*
D25*
X140522000Y-93376000D03*
X140022000Y-93376000D03*
X139522000Y-93376000D03*
X139022000Y-93376000D03*
X138522000Y-93376000D03*
X138022000Y-93376000D03*
D26*
X139272000Y-95326000D03*
%TD*%
D17*
%TO.C,R13*%
X154025000Y-96825000D03*
X154025000Y-98650000D03*
%TD*%
D18*
%TO.C,C2*%
X133725000Y-107475000D03*
X135800000Y-107475000D03*
%TD*%
D17*
%TO.C,R9*%
X151250000Y-100900000D03*
X151250000Y-102725000D03*
%TD*%
D12*
%TO.C,R20*%
X147025000Y-63550000D03*
X145200000Y-63550000D03*
%TD*%
D16*
%TO.C,R17*%
X134075000Y-105750000D03*
X135900000Y-105750000D03*
%TD*%
D12*
%TO.C,R2*%
X144350000Y-98675000D03*
X142525000Y-98675000D03*
%TD*%
D17*
%TO.C,R18*%
X155750000Y-100900000D03*
X155750000Y-102725000D03*
%TD*%
D10*
%TO.C,C1*%
X148494500Y-99697000D03*
X149629500Y-99697000D03*
%TD*%
D11*
%TO.C,C27*%
X143550000Y-93750000D03*
X142415000Y-93750000D03*
%TD*%
D14*
%TO.C,L1*%
X124475000Y-93450000D03*
X124475000Y-95200000D03*
%TD*%
D12*
%TO.C,R5*%
X144237500Y-113675000D03*
X142412500Y-113675000D03*
%TD*%
D16*
%TO.C,R16*%
X134070500Y-90771000D03*
X135895500Y-90771000D03*
%TD*%
D19*
%TO.C,IC4*%
X125725000Y-110075000D03*
X125725000Y-110575000D03*
X125725000Y-111075000D03*
X127425000Y-111075000D03*
X127425000Y-110575000D03*
X127425000Y-110075000D03*
D20*
X126575000Y-110575000D03*
%TD*%
D16*
%TO.C,R4*%
X126103500Y-108013000D03*
X127928500Y-108013000D03*
%TD*%
D21*
%TO.C,IC2*%
X147225000Y-95575000D03*
X147225000Y-96075000D03*
X147225000Y-96575000D03*
X147225000Y-97075000D03*
X147225000Y-97575000D03*
D22*
X148125000Y-98475000D03*
X148625000Y-98475000D03*
X149125000Y-98475000D03*
X149625000Y-98475000D03*
X150125000Y-98475000D03*
D21*
X151025000Y-97575000D03*
X151025000Y-97075000D03*
X151025000Y-96575000D03*
X151025000Y-96075000D03*
X151025000Y-95575000D03*
D22*
X150125000Y-94675000D03*
X149625000Y-94675000D03*
X149125000Y-94675000D03*
X148625000Y-94675000D03*
X148125000Y-94675000D03*
D23*
X149125000Y-96575000D03*
%TD*%
D16*
%TO.C,R7*%
X142512500Y-100175000D03*
X144337500Y-100175000D03*
%TD*%
M02*
