M48
; DRILL file KiCad 10.0.1 date 2026-05-04T19:45:24
; FORMAT={-:-/ absolute / metric / decimal}
; #@! TF.CreationDate,2026-05-04T19:45:24+09:00
; #@! TF.GenerationSoftware,Kicad,Pcbnew,10.0.1
; #@! TF.FileFunction,Plated,1,4,PTH
FMAT,2
METRIC
; #@! TA.AperFunction,Plated,PTH,ViaDrill
T1C0.300
; #@! TA.AperFunction,Plated,PTH,ComponentDrill
T2C0.850
; #@! TA.AperFunction,Plated,PTH,ComponentDrill
T3C1.000
%
G90
G05
T1
X112.425Y-94.975
X112.425Y-97.175
X112.425Y-100.275
X112.425Y-101.675
X112.425Y-103.625
X112.425Y-105.575
X112.425Y-106.925
X112.425Y-109.975
X112.425Y-112.175
X112.425Y-113.025
X112.45Y-77.325
X112.475Y-55.175
X112.475Y-56.325
X112.475Y-57.725
X112.475Y-59.275
X112.475Y-60.875
X112.475Y-62.475
X112.475Y-64.275
X112.475Y-65.325
X112.475Y-66.425
X112.475Y-69.175
X112.475Y-71.375
X112.475Y-73.775
X112.475Y-75.925
X112.475Y-78.775
X112.475Y-79.975
X112.475Y-81.175
X112.475Y-82.85
X112.475Y-84.575
X112.475Y-87.025
X112.475Y-88.3
X112.475Y-89.425
X112.475Y-91.275
X112.475Y-102.65
X112.475Y-104.6
X112.475Y-109.175
X112.475Y-115.15
X112.475Y-117.425
X112.475Y-122.025
X112.475Y-123.225
X112.475Y-124.975
X112.475Y-127.175
X112.475Y-128.925
X112.475Y-130.275
X112.5Y-67.675
X112.525Y-72.475
X112.525Y-93.225
X112.525Y-98.875
X112.525Y-108.225
X112.525Y-113.875
X112.525Y-118.475
X112.525Y-119.825
X112.525Y-121.075
X112.525Y-131.525
X112.55Y-74.7
X112.55Y-85.95
X112.575Y-70.225
X112.575Y-116.325
X112.625Y-133.325
X112.625Y-134.875
X113.025Y-94.975
X113.025Y-97.175
X113.025Y-109.975
X113.025Y-112.175
X113.075Y-124.975
X113.075Y-127.175
X113.125Y-136.275
X113.475Y-123.225
X113.475Y-128.925
X113.525Y-55.175
X113.525Y-93.225
X113.525Y-98.875
X113.525Y-108.225
X113.525Y-113.875
X113.65Y-61.575
X113.675Y-94.975
X113.675Y-97.175
X113.675Y-109.975
X113.675Y-112.175
X113.725Y-65.0
X113.725Y-69.15
X113.725Y-124.975
X113.725Y-127.175
X113.75Y-73.225
X114.125Y-136.275
X114.275Y-116.525
X114.325Y-89.175
X114.325Y-91.275
X114.325Y-94.975
X114.325Y-97.175
X114.325Y-109.975
X114.325Y-112.175
X114.375Y-76.375
X114.375Y-124.975
X114.375Y-127.175
X114.525Y-123.225
X114.525Y-128.925
X114.575Y-93.225
X114.575Y-98.875
X114.575Y-108.225
X114.575Y-113.875
X114.575Y-131.825
X114.6Y-74.6
X114.65Y-77.5
X114.65Y-78.2
X114.775Y-55.175
X114.925Y-102.575
X114.975Y-94.975
X114.975Y-97.175
X114.975Y-109.975
X114.975Y-112.175
X115.025Y-124.975
X115.025Y-127.175
X115.125Y-85.925
X115.125Y-136.275
X115.175Y-100.575
X115.225Y-61.5
X115.225Y-66.275
X115.225Y-68.625
X115.325Y-59.625
X115.325Y-63.775
X115.325Y-70.025
X115.375Y-104.725
X115.375Y-123.225
X115.375Y-128.925
X115.4Y-72.675
X115.4Y-77.5
X115.4Y-78.2
X115.425Y-56.575
X115.425Y-73.775
X115.425Y-93.225
X115.425Y-98.875
X115.425Y-106.675
X115.425Y-108.225
X115.425Y-113.875
X115.475Y-71.975
X115.525Y-67.725
X115.775Y-126.85
X115.8Y-95.2
X115.8Y-96.9
X115.8Y-110.15
X115.8Y-111.9
X115.8Y-125.3
X115.975Y-80.525
X116.0Y-79.65
X116.125Y-136.275
X116.15Y-77.5
X116.15Y-78.2
X116.175Y-116.425
X116.2Y-73.575
X116.225Y-55.175
X116.225Y-113.325
X116.225Y-119.925
X116.25Y-72.775
X116.275Y-72.025
X116.325Y-74.325
X116.475Y-91.225
X116.675Y-94.325
X116.698Y-110.348
X116.723Y-95.45
X116.725Y-82.575
X116.725Y-96.7
X116.725Y-111.802
X116.746Y-79.091
X116.75Y-69.25
X116.775Y-125.423
X116.775Y-126.727
X116.8Y-61.4
X116.825Y-89.175
X116.85Y-64.9
X116.9Y-77.5
X116.9Y-78.2
X116.925Y-98.475
X117.0Y-57.5
X117.0Y-66.5
X117.075Y-105.875
X117.125Y-136.275
X117.175Y-102.475
X117.2Y-70.2
X117.25Y-63.25
X117.325Y-112.575
X117.325Y-113.925
X117.425Y-55.175
X117.425Y-85.575
X117.5Y-60.0
X117.7Y-110.348
X117.7Y-77.5
X117.7Y-78.2
X117.7Y-95.45
X117.725Y-96.7
X117.725Y-111.802
X117.775Y-125.423
X117.775Y-126.727
X117.825Y-123.725
X117.875Y-108.025
X118.025Y-129.725
X118.025Y-133.925
X118.125Y-136.275
X118.25Y-58.5
X118.25Y-70.2
X118.475Y-101.375
X118.525Y-55.175
X118.525Y-88.925
X118.525Y-91.225
X118.525Y-94.275
X118.575Y-56.225
X118.575Y-92.925
X118.575Y-113.275
X118.625Y-98.925
X118.725Y-110.298
X118.75Y-77.15
X118.75Y-95.45
X118.75Y-96.7
X118.75Y-111.802
X118.775Y-116.725
X118.775Y-125.423
X118.775Y-126.727
X118.975Y-102.925
X119.06Y-97.921
X119.069Y-79.192
X119.075Y-136.275
X119.175Y-120.625
X119.25Y-70.25
X119.35Y-71.05
X119.35Y-71.8
X119.575Y-106.55
X119.643Y-101.373
X119.75Y-110.25
X119.75Y-112.0
X119.775Y-66.775
X119.775Y-125.423
X119.775Y-126.727
X119.8Y-64.775
X119.825Y-60.05
X119.825Y-61.75
X119.9Y-74.7
X119.9Y-75.4
X119.975Y-56.225
X120.0Y-72.7
X120.025Y-73.35
X120.025Y-73.975
X120.025Y-76.0
X120.025Y-76.65
X120.025Y-77.3
X120.025Y-77.975
X120.075Y-136.275
X120.092Y-102.693
X120.125Y-109.225
X120.25Y-70.2
X120.261Y-79.252
X120.65Y-73.35
X120.65Y-73.975
X120.65Y-74.625
X120.65Y-75.35
X120.65Y-76.0
X120.65Y-76.65
X120.65Y-77.3
X120.65Y-77.975
X120.725Y-123.625
X120.75Y-110.25
X120.75Y-112.0
X120.775Y-125.423
X120.775Y-126.727
X120.825Y-117.375
X120.927Y-81.367
X121.0Y-68.55
X121.0Y-72.75
X121.05Y-70.95
X121.05Y-71.8
X121.066Y-85.566
X121.075Y-66.95
X121.075Y-136.275
X121.1Y-64.95
X121.125Y-60.225
X121.125Y-61.925
X121.175Y-55.95
X121.175Y-57.5
X121.175Y-108.075
X121.275Y-73.35
X121.275Y-73.975
X121.275Y-74.625
X121.275Y-75.35
X121.275Y-76.0
X121.275Y-76.65
X121.275Y-77.3
X121.275Y-77.975
X121.275Y-98.625
X121.325Y-90.675
X121.325Y-92.475
X121.325Y-94.175
X121.342Y-101.951
X121.375Y-112.675
X121.425Y-114.475
X121.475Y-104.625
X121.475Y-105.675
X121.499Y-110.398
X121.525Y-95.401
X121.525Y-109.175
X121.525Y-131.925
X121.575Y-96.752
X121.575Y-111.727
X121.775Y-72.625
X121.775Y-125.423
X121.775Y-126.727
X121.9Y-73.35
X121.9Y-73.975
X121.9Y-74.65
X121.9Y-75.35
X121.9Y-76.025
X121.9Y-76.65
X121.9Y-77.325
X121.9Y-78.0
X122.05Y-69.8
X122.075Y-136.275
X122.1Y-71.5
X122.1Y-83.3
X122.125Y-99.975
X122.225Y-66.925
X122.25Y-64.925
X122.275Y-60.2
X122.275Y-61.9
X122.283Y-110.427
X122.308Y-95.402
X122.325Y-55.925
X122.325Y-57.475
X122.386Y-103.269
X122.425Y-106.475
X122.425Y-120.625
X122.475Y-72.625
X122.525Y-73.35
X122.525Y-73.975
X122.525Y-74.65
X122.525Y-75.35
X122.525Y-76.025
X122.525Y-76.65
X122.525Y-77.325
X122.525Y-78.0
X122.575Y-96.752
X122.575Y-111.727
X122.615Y-84.212
X122.625Y-94.175
X122.631Y-80.027
X122.675Y-87.275
X122.675Y-92.475
X122.775Y-125.423
X122.775Y-126.727
X122.927Y-95.402
X123.05Y-110.427
X123.075Y-136.275
X123.175Y-104.675
X123.175Y-112.675
X123.175Y-114.475
X123.225Y-117.475
X123.275Y-90.125
X123.275Y-90.75
X123.375Y-109.175
X123.4Y-58.4
X123.4Y-61.15
X123.4Y-63.4
X123.4Y-66.0
X123.425Y-107.675
X123.45Y-68.8
X123.45Y-74.95
X123.475Y-123.525
X123.5Y-72.0
X123.525Y-73.05
X123.525Y-95.398
X123.575Y-96.752
X123.575Y-111.727
X123.6Y-105.575
X123.6Y-106.125
X123.65Y-73.9
X123.7Y-110.423
X123.7Y-55.9
X123.7Y-75.7
X123.7Y-77.45
X123.725Y-92.475
X123.775Y-125.423
X123.775Y-126.727
X123.802Y-80.73
X123.825Y-94.325
X123.9Y-71.2
X123.9Y-90.1
X123.9Y-90.75
X124.042Y-101.965
X124.075Y-136.275
X124.225Y-105.575
X124.25Y-106.125
X124.475Y-99.175
X124.525Y-104.675
X124.575Y-96.752
X124.575Y-111.727
X124.775Y-125.423
X124.775Y-126.727
X124.975Y-92.175
X124.975Y-129.625
X124.975Y-133.975
X125.075Y-112.675
X125.075Y-114.475
X125.075Y-136.275
X125.325Y-79.0
X125.35Y-62.3
X125.35Y-64.8
X125.4Y-57.25
X125.4Y-67.35
X125.4Y-90.15
X125.4Y-90.725
X125.428Y-96.752
X125.428Y-111.727
X125.45Y-59.75
X125.5Y-69.925
X125.55Y-72.475
X125.55Y-74.95
X125.625Y-83.25
X125.65Y-58.35
X125.665Y-103.675
X125.775Y-125.423
X125.775Y-126.727
X125.975Y-117.375
X126.0Y-90.125
X126.0Y-90.725
X126.075Y-136.275
X126.125Y-100.075
X126.225Y-96.475
X126.225Y-111.475
X126.55Y-95.175
X126.55Y-95.8
X126.575Y-91.975
X126.575Y-110.225
X126.575Y-110.8
X126.575Y-120.475
X126.725Y-98.525
X126.775Y-125.423
X126.775Y-126.727
X126.784Y-84.407
X126.925Y-96.475
X126.925Y-111.475
X127.022Y-107.469
X127.025Y-93.425
X127.075Y-136.275
X127.125Y-114.525
X127.148Y-79.61
X127.225Y-90.825
X127.284Y-109.398
X127.299Y-81.317
X127.3Y-57.2
X127.3Y-59.7
X127.349Y-105.112
X127.382Y-102.089
X127.4Y-67.35
X127.4Y-72.45
X127.4Y-74.95
X127.4Y-91.975
X127.425Y-123.475
X127.45Y-69.85
X127.467Y-96.875
X127.467Y-111.875
X127.471Y-86.76
X127.5Y-64.8
X127.55Y-62.3
X127.55Y-94.45
X127.625Y-105.9
X127.775Y-89.975
X127.775Y-125.423
X127.775Y-126.727
X128.075Y-136.275
X128.15Y-111.751
X128.2Y-96.7
X128.225Y-77.175
X128.225Y-100.275
X128.289Y-85.973
X128.325Y-117.325
X128.35Y-76.15
X128.391Y-109.0
X128.65Y-84.075
X128.7Y-94.225
X128.745Y-103.605
X128.775Y-125.423
X128.775Y-126.727
X128.875Y-131.825
X128.95Y-96.7
X129.075Y-136.275
X129.1Y-111.751
X129.107Y-85.134
X129.127Y-83.094
X129.275Y-120.525
X129.475Y-114.475
X129.497Y-84.094
X129.55Y-101.425
X129.725Y-98.475
X129.725Y-100.175
X129.75Y-96.65
X129.775Y-125.423
X129.775Y-126.727
X129.95Y-111.751
X130.075Y-136.275
X130.125Y-94.2
X130.125Y-109.025
X130.2Y-106.875
X130.249Y-84.087
X130.333Y-101.431
X130.374Y-104.084
X130.389Y-81.216
X130.425Y-95.45
X130.425Y-110.374
X130.75Y-96.85
X130.775Y-92.2
X130.775Y-125.423
X130.775Y-126.727
X130.8Y-89.175
X130.824Y-111.834
X130.875Y-78.125
X130.9Y-76.2
X130.969Y-84.08
X130.975Y-117.375
X130.975Y-123.475
X131.064Y-101.421
X131.075Y-94.575
X131.075Y-136.275
X131.18Y-100.327
X131.225Y-102.875
X131.359Y-86.962
X131.425Y-98.525
X131.429Y-109.014
X131.447Y-110.285
X131.647Y-111.855
X131.675Y-93.075
X131.775Y-107.525
X131.775Y-125.423
X131.775Y-126.727
X131.783Y-83.064
X131.8Y-91.9
X131.826Y-101.43
X131.875Y-95.35
X131.875Y-96.8
X131.875Y-114.525
X132.075Y-94.325
X132.075Y-103.55
X132.075Y-120.425
X132.075Y-136.275
X132.143Y-106.158
X132.38Y-110.275
X132.405Y-111.875
X132.575Y-108.825
X132.65Y-96.9
X132.675Y-93.225
X132.675Y-95.25
X132.725Y-129.575
X132.725Y-133.975
X132.775Y-125.423
X132.775Y-126.727
X133.0Y-89.55
X133.0Y-90.225
X133.0Y-90.925
X133.0Y-104.525
X133.0Y-105.2
X133.0Y-105.9
X133.0Y-107.45
X133.075Y-136.275
X133.207Y-113.123
X133.225Y-98.475
X133.274Y-102.475
X133.275Y-94.15
X133.325Y-78.175
X133.4Y-110.424
X133.4Y-111.751
X133.45Y-76.15
X133.591Y-88.699
X133.591Y-100.341
X133.625Y-89.55
X133.625Y-90.225
X133.625Y-90.925
X133.625Y-104.525
X133.625Y-105.2
X133.625Y-105.9
X133.648Y-95.414
X133.65Y-96.753
X133.662Y-79.64
X133.675Y-117.375
X133.775Y-125.423
X133.775Y-126.727
X133.8Y-93.1
X133.825Y-123.575
X133.95Y-94.55
X134.025Y-114.525
X134.055Y-83.044
X134.075Y-108.9
X134.075Y-136.275
X134.25Y-89.55
X134.25Y-90.225
X134.25Y-104.525
X134.25Y-105.2
X134.298Y-85.276
X134.3Y-91.9
X134.4Y-110.424
X134.4Y-111.776
X134.675Y-106.725
X134.675Y-108.075
X134.725Y-98.525
X134.775Y-125.423
X134.775Y-126.727
X134.823Y-95.364
X134.825Y-96.778
X134.975Y-102.575
X135.075Y-115.6
X135.075Y-136.275
X135.077Y-104.63
X135.169Y-89.811
X135.325Y-103.025
X135.348Y-82.913
X135.4Y-110.399
X135.4Y-111.776
X135.476Y-113.089
X135.526Y-109.628
X135.588Y-94.591
X135.61Y-100.348
X135.775Y-125.423
X135.775Y-126.727
X135.823Y-95.364
X135.825Y-96.778
X135.875Y-78.125
X136.0Y-76.15
X136.025Y-120.375
X136.045Y-79.731
X136.075Y-114.525
X136.075Y-136.275
X136.375Y-98.375
X136.375Y-117.475
X136.4Y-110.424
X136.4Y-111.751
X136.56Y-84.145
X136.56Y-87.548
X136.639Y-95.418
X136.775Y-125.423
X136.775Y-126.727
X136.825Y-96.778
X136.825Y-131.825
X136.947Y-92.82
X137.001Y-91.65
X137.075Y-136.275
X137.1Y-105.875
X137.135Y-106.611
X137.146Y-100.314
X137.175Y-123.575
X137.368Y-97.715
X137.375Y-110.45
X137.5Y-99.0
X137.525Y-115.7
X137.6Y-113.525
X137.775Y-125.423
X137.775Y-126.727
X137.822Y-85.296
X138.075Y-136.275
X138.109Y-105.611
X138.134Y-102.5
X138.25Y-100.0
X138.333Y-95.453
X138.335Y-109.361
X138.337Y-96.202
X138.342Y-94.546
X138.35Y-110.5
X138.35Y-111.275
X138.479Y-81.66
X138.5Y-76.15
X138.525Y-78.075
X138.526Y-92.235
X138.775Y-125.423
X138.775Y-126.727
X139.0Y-97.5
X139.025Y-110.5
X139.025Y-111.275
X139.075Y-136.275
X139.076Y-109.402
X139.118Y-91.692
X139.145Y-96.225
X139.167Y-94.537
X139.172Y-95.439
X139.176Y-86.922
X139.3Y-100.127
X139.525Y-120.875
X139.678Y-113.123
X139.736Y-109.819
X139.775Y-110.525
X139.775Y-111.275
X139.775Y-125.423
X139.775Y-126.727
X139.825Y-117.475
X140.0Y-90.5
X140.075Y-136.275
X140.125Y-123.375
X140.378Y-115.096
X140.775Y-125.423
X140.775Y-126.727
X140.775Y-129.575
X140.775Y-133.925
X141.075Y-136.275
X141.175Y-119.275
X141.343Y-98.062
X141.394Y-97.123
X141.399Y-92.182
X141.475Y-77.725
X141.484Y-100.5
X141.625Y-117.325
X141.775Y-125.423
X141.775Y-126.727
X141.812Y-112.793
X141.88Y-88.909
X141.925Y-81.725
X141.95Y-59.65
X141.95Y-62.2
X141.95Y-64.8
X141.95Y-67.35
X141.975Y-94.576
X142.0Y-57.15
X142.0Y-69.9
X142.0Y-72.4
X142.0Y-74.95
X142.075Y-136.275
X142.175Y-107.875
X142.2Y-106.675
X142.429Y-92.687
X142.454Y-91.487
X142.469Y-110.388
X142.475Y-111.735
X142.559Y-96.772
X142.612Y-95.408
X142.625Y-107.275
X142.675Y-84.175
X142.775Y-125.423
X142.775Y-126.727
X142.879Y-92.087
X143.025Y-107.875
X143.05Y-106.675
X143.075Y-120.475
X143.075Y-136.275
X143.279Y-92.687
X143.304Y-91.487
X143.389Y-96.799
X143.4Y-102.3
X143.424Y-95.402
X143.459Y-111.76
X143.475Y-114.425
X143.475Y-117.325
X143.478Y-110.378
X143.759Y-90.384
X143.775Y-125.423
X143.775Y-126.727
X143.825Y-79.6
X143.85Y-67.35
X143.9Y-62.2
X143.9Y-64.8
X143.9Y-72.45
X143.95Y-57.2
X143.95Y-59.7
X143.95Y-69.8
X144.075Y-136.275
X144.125Y-112.725
X144.155Y-105.601
X144.275Y-97.675
X144.405Y-86.782
X144.408Y-96.772
X144.434Y-95.388
X144.475Y-74.975
X144.525Y-123.325
X144.526Y-111.735
X144.545Y-110.388
X144.566Y-109.608
X144.775Y-125.423
X144.775Y-126.727
X144.85Y-112.55
X144.975Y-131.725
X145.031Y-88.505
X145.075Y-136.275
X145.334Y-90.121
X145.39Y-95.453
X145.409Y-110.388
X145.412Y-97.625
X145.44Y-96.774
X145.525Y-111.735
X145.575Y-82.025
X145.575Y-113.075
X145.747Y-101.286
X145.772Y-105.038
X145.775Y-72.7
X145.775Y-125.423
X145.775Y-126.727
X145.786Y-102.533
X145.813Y-103.779
X145.875Y-117.325
X146.075Y-136.275
X146.1Y-88.75
X146.12Y-110.413
X146.177Y-95.428
X146.202Y-109.728
X146.275Y-119.725
X146.288Y-100.219
X146.475Y-93.275
X146.546Y-90.182
X146.775Y-125.423
X146.775Y-126.727
X146.925Y-64.725
X146.975Y-82.775
X147.075Y-136.275
X147.093Y-103.159
X147.1Y-114.725
X147.1Y-115.35
X147.1Y-115.975
X147.143Y-101.826
X147.176Y-99.71
X147.176Y-100.335
X147.176Y-100.96
X147.2Y-97.705
X147.225Y-112.875
X147.25Y-113.75
X147.252Y-108.708
X147.325Y-79.725
X147.415Y-106.35
X147.525Y-117.325
X147.775Y-114.725
X147.775Y-115.35
X147.775Y-115.975
X147.775Y-125.423
X147.775Y-126.727
X147.851Y-99.71
X147.851Y-100.335
X147.851Y-100.96
X147.975Y-88.575
X148.006Y-61.951
X148.062Y-104.26
X148.075Y-136.275
X148.1Y-108.65
X148.275Y-123.475
X148.425Y-77.725
X148.45Y-95.975
X148.45Y-96.575
X148.45Y-97.225
X148.475Y-110.9
X148.475Y-111.575
X148.475Y-112.225
X148.475Y-114.725
X148.475Y-115.35
X148.475Y-115.975
X148.551Y-99.71
X148.551Y-100.335
X148.551Y-100.96
X148.723Y-88.522
X148.775Y-80.325
X148.775Y-118.325
X148.775Y-125.423
X148.775Y-126.727
X148.925Y-116.925
X148.941Y-101.735
X148.951Y-103.331
X148.991Y-105.22
X149.075Y-90.525
X149.075Y-91.175
X149.075Y-91.975
X149.075Y-92.575
X149.075Y-95.925
X149.075Y-136.275
X149.078Y-93.678
X149.125Y-96.575
X149.125Y-97.225
X149.125Y-110.925
X149.125Y-111.575
X149.125Y-112.225
X149.175Y-60.175
X149.175Y-82.775
X149.225Y-75.275
X149.275Y-133.975
X149.325Y-129.475
X149.375Y-77.225
X149.425Y-67.075
X149.473Y-88.526
X149.575Y-62.725
X149.75Y-95.975
X149.75Y-96.575
X149.75Y-97.225
X149.775Y-110.925
X149.775Y-111.575
X149.775Y-112.2
X149.775Y-125.423
X149.775Y-126.727
X149.825Y-118.175
X149.975Y-71.775
X149.991Y-99.389
X150.075Y-136.275
X150.203Y-103.291
X150.213Y-101.008
X150.226Y-105.242
X150.275Y-112.725
X150.325Y-88.525
X150.47Y-68.675
X150.725Y-114.675
X150.775Y-125.423
X150.775Y-126.727
X150.875Y-113.325
X150.975Y-76.225
X150.975Y-78.825
X150.975Y-80.875
X150.975Y-119.325
X150.975Y-120.325
X151.025Y-82.775
X151.025Y-116.725
X151.075Y-136.275
X151.125Y-88.525
X151.25Y-99.425
X151.296Y-107.484
X151.35Y-98.525
X151.375Y-65.825
X151.425Y-112.725
X151.578Y-109.949
X151.775Y-125.423
X151.775Y-126.727
X151.977Y-110.456
X152.0Y-95.373
X152.025Y-86.275
X152.025Y-115.325
X152.07Y-111.709
X152.075Y-113.375
X152.075Y-117.025
X152.075Y-119.45
X152.075Y-136.275
X152.125Y-123.775
X152.146Y-96.647
X152.179Y-103.775
X152.185Y-105.042
X152.225Y-82.125
X152.275Y-77.425
X152.4Y-99.125
X152.725Y-97.575
X152.775Y-71.375
X152.775Y-125.423
X152.775Y-126.727
X152.8Y-106.275
X152.84Y-94.434
X152.925Y-87.575
X152.925Y-91.7
X152.925Y-95.398
X152.925Y-96.751
X153.01Y-111.735
X153.025Y-110.449
X153.075Y-131.675
X153.075Y-136.275
X153.125Y-78.375
X153.325Y-117.475
X153.343Y-105.06
X153.35Y-119.5
X153.375Y-81.725
X153.375Y-114.625
X153.575Y-66.025
X153.625Y-55.175
X153.625Y-56.925
X153.625Y-58.825
X153.675Y-60.125
X153.775Y-125.423
X153.775Y-126.727
X153.875Y-62.725
X153.875Y-64.875
X153.9Y-68.225
X154.025Y-98.675
X154.025Y-110.449
X154.075Y-95.403
X154.075Y-136.275
X154.15Y-85.55
X154.225Y-86.925
X154.285Y-103.6
X154.475Y-82.275
X154.561Y-105.808
X154.625Y-97.725
X154.711Y-93.801
X154.711Y-108.854
X154.775Y-125.423
X154.775Y-126.727
X154.8Y-86.225
X154.825Y-79.825
X154.904Y-111.735
X154.975Y-95.398
X154.975Y-96.726
X155.006Y-104.021
X155.025Y-110.449
X155.069Y-101.84
X155.075Y-136.275
X155.154Y-98.721
X155.275Y-93.2
X155.325Y-57.075
X155.326Y-109.756
X155.344Y-107.733
X155.475Y-123.625
X155.625Y-71.675
X155.625Y-95.398
X155.625Y-96.726
X155.675Y-55.125
X155.7Y-103.4
X155.75Y-100.35
X155.775Y-125.423
X155.775Y-126.727
X155.825Y-80.775
X155.854Y-111.735
X155.875Y-110.449
X156.058Y-88.24
X156.075Y-136.275
X156.125Y-68.625
X156.209Y-97.545
X156.275Y-95.373
X156.275Y-96.726
X156.325Y-81.875
X156.325Y-83.875
X156.325Y-86.125
X156.325Y-129.375
X156.325Y-134.075
X156.379Y-99.129
X156.6Y-125.25
X156.6Y-126.9
X156.625Y-90.225
X156.65Y-110.3
X156.675Y-111.95
X156.775Y-58.775
X156.775Y-91.725
X156.775Y-116.025
X156.825Y-60.775
X156.825Y-63.225
X156.825Y-66.575
X156.825Y-118.825
X156.825Y-121.325
X156.925Y-93.225
X156.975Y-79.875
X156.975Y-123.225
X156.975Y-128.925
X157.025Y-113.875
X157.075Y-136.275
X157.425Y-94.975
X157.425Y-97.175
X157.425Y-109.975
X157.425Y-112.175
X157.425Y-124.975
X157.425Y-127.175
X157.498Y-105.525
X157.575Y-55.125
X157.707Y-101.969
X157.925Y-93.225
X157.975Y-98.875
X157.975Y-108.225
X157.975Y-123.225
X157.975Y-128.925
X158.025Y-113.875
X158.075Y-94.975
X158.075Y-97.175
X158.075Y-109.975
X158.075Y-112.175
X158.075Y-124.975
X158.075Y-127.175
X158.075Y-136.275
X158.225Y-65.525
X158.275Y-57.125
X158.425Y-73.225
X158.425Y-91.125
X158.575Y-80.175
X158.625Y-77.075
X158.725Y-61.025
X158.725Y-94.975
X158.725Y-97.175
X158.725Y-109.975
X158.725Y-112.175
X158.725Y-124.975
X158.725Y-127.175
X158.775Y-55.175
X158.775Y-69.225
X158.775Y-131.875
X158.925Y-82.725
X158.975Y-93.225
X159.025Y-98.875
X159.025Y-108.225
X159.025Y-123.225
X159.025Y-128.925
X159.075Y-113.875
X159.075Y-136.275
X159.375Y-94.975
X159.375Y-97.175
X159.375Y-109.975
X159.375Y-112.175
X159.375Y-124.975
X159.375Y-127.175
X159.825Y-93.225
X159.875Y-98.875
X159.875Y-99.625
X159.875Y-100.625
X159.875Y-101.625
X159.875Y-102.625
X159.875Y-103.625
X159.875Y-104.625
X159.875Y-105.625
X159.875Y-106.625
X159.875Y-107.625
X159.875Y-108.225
X159.875Y-123.225
X159.875Y-128.925
X159.925Y-113.875
X159.975Y-55.175
X159.975Y-56.175
X159.975Y-57.175
X159.975Y-58.175
X159.975Y-59.175
X159.975Y-60.175
X159.975Y-61.175
X159.975Y-62.175
X159.975Y-63.175
X159.975Y-64.175
X159.975Y-65.175
X159.975Y-66.175
X159.975Y-67.175
X159.975Y-68.175
X159.975Y-69.175
X159.975Y-70.175
X159.975Y-71.175
X159.975Y-72.175
X159.975Y-73.175
X159.975Y-74.175
X159.975Y-75.175
X159.975Y-76.175
X159.975Y-77.175
X159.975Y-78.175
X159.975Y-79.175
X159.975Y-80.175
X159.975Y-81.175
X159.975Y-82.175
X159.975Y-83.175
X159.975Y-84.175
X159.975Y-85.175
X159.975Y-86.175
X159.975Y-87.175
X159.975Y-88.175
X159.975Y-89.175
X159.975Y-90.175
X159.975Y-91.175
X159.975Y-92.075
X159.975Y-114.625
X159.975Y-115.625
X159.975Y-116.625
X159.975Y-117.625
X159.975Y-118.625
X159.975Y-119.625
X159.975Y-120.625
X159.975Y-121.625
X159.975Y-122.625
X159.975Y-136.275
X160.0Y-135.5
X160.025Y-94.975
X160.025Y-97.175
X160.025Y-109.975
X160.025Y-112.175
X160.025Y-124.975
X160.025Y-127.175
X160.025Y-129.775
X160.025Y-130.775
X160.025Y-131.775
X160.025Y-132.775
X160.025Y-133.775
X160.025Y-134.775
T2
X127.055Y-55.915
X127.055Y-58.455
X127.055Y-60.995
X127.055Y-63.535
X127.055Y-66.075
X127.055Y-68.615
X127.055Y-71.155
X127.055Y-73.695
X127.055Y-76.235
X129.645Y-76.285
X132.185Y-76.285
X134.725Y-76.285
X137.265Y-76.285
X139.805Y-76.285
X142.395Y-55.915
X142.395Y-58.455
X142.395Y-60.995
X142.395Y-63.535
X142.395Y-66.075
X142.395Y-68.615
X142.395Y-71.155
X142.395Y-73.695
X142.395Y-76.235
T3
X150.135Y-121.4
X151.875Y-56.255
X151.875Y-58.795
X151.875Y-61.335
X151.875Y-63.875
X152.675Y-121.4
X157.925Y-85.285
X157.925Y-87.825
M30
