M48
; DRILL file {KiCad 9.0.7} date 2026-04-04T22:02:35+0900
; FORMAT={3:3/ absolute / metric / suppress leading zeros}
; #@! TF.CreationDate,2026-04-04T22:02:35+09:00
; #@! TF.GenerationSoftware,Kicad,Pcbnew,9.0.7
; #@! TF.FileFunction,MixedPlating,1,4
FMAT,2
METRIC,TZ
; #@! TA.AperFunction,Plated,PTH,ViaDrill
T1C0.300
; #@! TA.AperFunction,Plated,PTH,ComponentDrill
T2C0.850
; #@! TA.AperFunction,Plated,PTH,ComponentDrill
T3C1.000
%
G90
G05
T1
X112425Y-94975
X112425Y-97175
X112425Y-100275
X112425Y-101675
X112425Y-103625
X112425Y-105575
X112425Y-106925
X112425Y-109975
X112425Y-112175
X112425Y-113025
X112450Y-77325
X112475Y-55175
X112475Y-56325
X112475Y-57725
X112475Y-59275
X112475Y-60875
X112475Y-62475
X112475Y-64275
X112475Y-65325
X112475Y-66425
X112475Y-69175
X112475Y-71375
X112475Y-73775
X112475Y-75925
X112475Y-78775
X112475Y-79975
X112475Y-81175
X112475Y-82850
X112475Y-84575
X112475Y-87025
X112475Y-88300
X112475Y-89425
X112475Y-91275
X112475Y-102650
X112475Y-104600
X112475Y-109175
X112475Y-115150
X112475Y-117425
X112475Y-122025
X112475Y-123225
X112475Y-124975
X112475Y-127175
X112475Y-128925
X112475Y-130275
X112500Y-67675
X112525Y-72475
X112525Y-93225
X112525Y-98875
X112525Y-108225
X112525Y-113875
X112525Y-118475
X112525Y-119825
X112525Y-121075
X112525Y-131525
X112550Y-74700
X112550Y-85950
X112575Y-70225
X112575Y-116325
X112625Y-133325
X112625Y-134875
X113025Y-94975
X113025Y-97175
X113025Y-109975
X113025Y-112175
X113075Y-124975
X113075Y-127175
X113125Y-136275
X113475Y-123225
X113475Y-128925
X113525Y-55175
X113525Y-93225
X113525Y-98875
X113525Y-108225
X113525Y-113875
X113650Y-61575
X113675Y-94975
X113675Y-97175
X113675Y-109975
X113675Y-112175
X113725Y-65000
X113725Y-69150
X113725Y-124975
X113725Y-127175
X113750Y-73225
X114125Y-136275
X114275Y-116525
X114325Y-89175
X114325Y-91275
X114325Y-94975
X114325Y-97175
X114325Y-109975
X114325Y-112175
X114375Y-76375
X114375Y-124975
X114375Y-127175
X114525Y-123225
X114525Y-128925
X114575Y-93225
X114575Y-98875
X114575Y-108225
X114575Y-113875
X114575Y-131825
X114650Y-77500
X114650Y-78200
X114775Y-55175
X114925Y-102575
X114975Y-94975
X114975Y-97175
X114975Y-109975
X114975Y-112175
X115025Y-124975
X115025Y-127175
X115125Y-85925
X115125Y-136275
X115175Y-100575
X115225Y-61500
X115225Y-66275
X115225Y-68625
X115325Y-59625
X115325Y-63775
X115325Y-70025
X115375Y-104725
X115375Y-123225
X115375Y-128925
X115400Y-72675
X115400Y-77500
X115400Y-78200
X115425Y-56575
X115425Y-73775
X115425Y-93225
X115425Y-98875
X115425Y-106675
X115425Y-108225
X115425Y-113875
X115475Y-71975
X115525Y-67725
X115775Y-125525
X115775Y-126625
X115800Y-95450
X115800Y-96700
X115800Y-110400
X115800Y-111700
X115975Y-80525
X116000Y-79650
X116125Y-136275
X116150Y-77500
X116150Y-78200
X116175Y-116425
X116200Y-73575
X116225Y-55175
X116225Y-113325
X116225Y-119925
X116250Y-72775
X116275Y-72025
X116325Y-74325
X116475Y-91225
X116550Y-75900
X116675Y-67675
X116675Y-94325
X116723Y-95450
X116723Y-110450
X116725Y-82575
X116725Y-96700
X116725Y-111700
X116746Y-79091
X116775Y-125525
X116775Y-126625
X116800Y-61400
X116825Y-89175
X116850Y-64900
X116900Y-77500
X116900Y-78200
X116925Y-98475
X117025Y-72075
X117025Y-72725
X117025Y-73375
X117075Y-105875
X117125Y-136275
X117175Y-69775
X117175Y-70400
X117175Y-102475
X117325Y-112575
X117325Y-113925
X117425Y-55175
X117425Y-85575
X117550Y-72075
X117550Y-72725
X117550Y-73375
X117625Y-67725
X117700Y-77500
X117700Y-78200
X117700Y-95450
X117725Y-96700
X117725Y-110450
X117725Y-111700
X117775Y-125525
X117775Y-126625
X117825Y-123725
X117850Y-69775
X117850Y-70400
X117875Y-108025
X118000Y-76000
X118025Y-129725
X118025Y-133925
X118125Y-136275
X118225Y-72100
X118225Y-72725
X118225Y-73375
X118300Y-71225
X118425Y-74475
X118475Y-67675
X118475Y-101375
X118500Y-69775
X118500Y-70400
X118525Y-55175
X118525Y-62825
X118525Y-88925
X118525Y-91225
X118525Y-94275
X118575Y-56225
X118575Y-57325
X118575Y-59175
X118575Y-60925
X118575Y-64725
X118575Y-66575
X118575Y-92925
X118575Y-113275
X118625Y-98925
X118750Y-77150
X118750Y-95450
X118750Y-96700
X118750Y-110400
X118750Y-111700
X118775Y-116725
X118775Y-125525
X118775Y-126625
X118825Y-73375
X118975Y-102925
X119060Y-97921
X119069Y-79192
X119075Y-136275
X119175Y-120625
X119575Y-106550
X119643Y-101373
X119750Y-110250
X119750Y-112000
X119775Y-66775
X119775Y-125525
X119775Y-126625
X119800Y-64775
X119825Y-60050
X119825Y-61750
X119900Y-67850
X119975Y-56225
X120025Y-73350
X120025Y-73975
X120025Y-76000
X120025Y-76650
X120025Y-77300
X120025Y-77975
X120075Y-136275
X120092Y-102693
X120125Y-109225
X120261Y-79252
X120425Y-72625
X120650Y-73350
X120650Y-73975
X120650Y-74625
X120650Y-75350
X120650Y-76000
X120650Y-76650
X120650Y-77300
X120650Y-77975
X120725Y-123625
X120750Y-110250
X120750Y-112000
X120775Y-72075
X120775Y-125525
X120775Y-126625
X120825Y-117375
X120927Y-81367
X121050Y-68550
X121066Y-85566
X121075Y-66950
X121075Y-136275
X121100Y-64950
X121125Y-60225
X121125Y-61925
X121125Y-72625
X121175Y-55950
X121175Y-57500
X121175Y-108075
X121225Y-71175
X121275Y-73350
X121275Y-73975
X121275Y-74625
X121275Y-75350
X121275Y-76000
X121275Y-76650
X121275Y-77300
X121275Y-77975
X121275Y-98625
X121325Y-90675
X121325Y-92475
X121325Y-94175
X121342Y-101951
X121375Y-112675
X121425Y-114475
X121475Y-72075
X121475Y-104625
X121475Y-105675
X121524Y-110500
X121525Y-95528
X121525Y-109175
X121525Y-131925
X121575Y-96625
X121575Y-111625
X121750Y-69600
X121775Y-72625
X121775Y-125525
X121775Y-126625
X121900Y-73350
X121900Y-73975
X121900Y-74650
X121900Y-75350
X121900Y-76025
X121900Y-76650
X121900Y-77325
X121900Y-78000
X122075Y-136275
X122100Y-83300
X122125Y-72075
X122125Y-99975
X122200Y-68525
X122225Y-66925
X122250Y-64925
X122275Y-60200
X122275Y-61900
X122308Y-95529
X122308Y-110529
X122325Y-55925
X122325Y-57475
X122386Y-103269
X122425Y-106475
X122425Y-120625
X122475Y-72625
X122525Y-73350
X122525Y-73975
X122525Y-74650
X122525Y-75350
X122525Y-76025
X122525Y-76650
X122525Y-77325
X122525Y-78000
X122550Y-70400
X122575Y-96625
X122575Y-111625
X122615Y-84212
X122625Y-94175
X122631Y-80027
X122675Y-87275
X122675Y-92475
X122775Y-125525
X122775Y-126625
X122927Y-95529
X123075Y-110529
X123075Y-136275
X123175Y-104675
X123175Y-112675
X123175Y-114475
X123225Y-117475
X123275Y-90125
X123275Y-90750
X123375Y-109175
X123400Y-58400
X123400Y-61150
X123400Y-63400
X123400Y-66000
X123425Y-107675
X123450Y-68800
X123450Y-74950
X123475Y-123525
X123500Y-72000
X123525Y-73050
X123525Y-95525
X123575Y-96625
X123575Y-111625
X123600Y-105575
X123600Y-106125
X123650Y-73900
X123700Y-55900
X123700Y-70525
X123700Y-75700
X123700Y-77450
X123725Y-92475
X123725Y-110525
X123775Y-125525
X123775Y-126625
X123802Y-80730
X123825Y-94325
X123900Y-90100
X123900Y-90750
X124042Y-101965
X124075Y-136275
X124225Y-105575
X124250Y-106125
X124475Y-99175
X124525Y-104675
X124575Y-96625
X124575Y-111625
X124775Y-125525
X124775Y-126625
X124975Y-92175
X124975Y-129625
X124975Y-133975
X125075Y-112675
X125075Y-114475
X125075Y-136275
X125325Y-79000
X125400Y-90150
X125400Y-90725
X125428Y-96625
X125428Y-111625
X125500Y-69925
X125550Y-72475
X125625Y-83250
X125650Y-58350
X125665Y-103675
X125775Y-125525
X125775Y-126625
X125975Y-117375
X126000Y-90125
X126000Y-90725
X126075Y-136275
X126125Y-100075
X126225Y-96475
X126225Y-111475
X126550Y-95175
X126550Y-95800
X126575Y-91975
X126575Y-110225
X126575Y-110800
X126575Y-120475
X126725Y-98525
X126775Y-125525
X126775Y-126625
X126784Y-84407
X126925Y-96475
X126925Y-111475
X127022Y-107469
X127025Y-93425
X127075Y-136275
X127125Y-114525
X127148Y-79610
X127225Y-90825
X127284Y-109398
X127299Y-81317
X127349Y-105112
X127382Y-102089
X127400Y-91975
X127425Y-123475
X127467Y-96875
X127467Y-111875
X127471Y-86760
X127550Y-94450
X127625Y-105900
X127775Y-89975
X127775Y-125525
X127775Y-126625
X128075Y-136275
X128150Y-111675
X128200Y-96700
X128225Y-77175
X128225Y-100275
X128289Y-85973
X128325Y-117325
X128391Y-109000
X128650Y-84075
X128700Y-94225
X128745Y-103605
X128775Y-125525
X128775Y-126625
X128850Y-92375
X128875Y-131825
X128950Y-96700
X129075Y-136275
X129100Y-111675
X129107Y-85134
X129127Y-83094
X129275Y-120525
X129475Y-114475
X129497Y-84094
X129550Y-101425
X129725Y-98475
X129725Y-100175
X129750Y-96650
X129775Y-125525
X129775Y-126625
X129950Y-111675
X130075Y-136275
X130125Y-94200
X130125Y-109025
X130200Y-106875
X130249Y-84087
X130333Y-101431
X130374Y-104084
X130389Y-81216
X130425Y-95450
X130425Y-110425
X130750Y-96850
X130775Y-92200
X130775Y-125525
X130775Y-126625
X130800Y-89175
X130824Y-111834
X130875Y-78125
X130969Y-84080
X130975Y-117375
X130975Y-123475
X131064Y-101421
X131075Y-94575
X131075Y-136275
X131180Y-100327
X131225Y-102875
X131359Y-86962
X131425Y-98525
X131429Y-109014
X131447Y-110285
X131647Y-111855
X131675Y-93075
X131775Y-107525
X131775Y-125525
X131775Y-126625
X131783Y-83064
X131800Y-91900
X131826Y-101430
X131875Y-95350
X131875Y-96800
X131875Y-114525
X132075Y-94325
X132075Y-103550
X132075Y-120425
X132075Y-136275
X132143Y-106158
X132380Y-110275
X132405Y-111875
X132575Y-108825
X132650Y-96900
X132675Y-93225
X132675Y-95250
X132725Y-129575
X132725Y-133975
X132775Y-125525
X132775Y-126625
X133000Y-89550
X133000Y-90225
X133000Y-90925
X133000Y-104525
X133000Y-105200
X133000Y-105900
X133000Y-107450
X133075Y-136275
X133207Y-113123
X133225Y-98475
X133274Y-102475
X133275Y-94150
X133325Y-78175
X133400Y-110475
X133400Y-111675
X133591Y-88699
X133591Y-100341
X133625Y-89550
X133625Y-90225
X133625Y-90925
X133625Y-104525
X133625Y-105200
X133625Y-105900
X133650Y-95500
X133650Y-96675
X133662Y-79640
X133675Y-117375
X133775Y-125525
X133775Y-126625
X133800Y-93100
X133825Y-123575
X133950Y-94550
X134025Y-114525
X134055Y-83044
X134075Y-108900
X134075Y-136275
X134250Y-89550
X134250Y-90225
X134250Y-104525
X134250Y-105200
X134298Y-85276
X134300Y-91900
X134400Y-110475
X134400Y-111700
X134675Y-106725
X134675Y-108075
X134725Y-98525
X134775Y-125525
X134775Y-126625
X134825Y-95450
X134825Y-96700
X134975Y-102575
X135075Y-115600
X135075Y-136275
X135077Y-104630
X135169Y-89811
X135325Y-103025
X135348Y-82913
X135400Y-110450
X135400Y-111700
X135476Y-113089
X135526Y-109628
X135588Y-94591
X135610Y-100348
X135775Y-125525
X135775Y-126625
X135825Y-95450
X135825Y-96700
X135875Y-78125
X136025Y-120375
X136045Y-79731
X136075Y-114525
X136075Y-136275
X136375Y-98375
X136375Y-117475
X136400Y-110475
X136400Y-111675
X136560Y-84145
X136560Y-87548
X136641Y-95504
X136775Y-125525
X136775Y-126625
X136825Y-96700
X136825Y-131825
X136947Y-92820
X137001Y-91386
X137075Y-136275
X137100Y-105875
X137135Y-106611
X137146Y-100314
X137175Y-123575
X137368Y-97715
X137375Y-110450
X137500Y-99000
X137525Y-115700
X137600Y-113525
X137775Y-125525
X137775Y-126625
X137822Y-85296
X138075Y-136275
X138109Y-105611
X138134Y-102500
X138250Y-100000
X138333Y-95453
X138335Y-109361
X138337Y-96202
X138342Y-94546
X138350Y-110500
X138350Y-111275
X138479Y-81660
X138525Y-78075
X138526Y-92235
X138775Y-125525
X138775Y-126625
X139000Y-97500
X139025Y-110500
X139025Y-111275
X139075Y-136275
X139076Y-109402
X139118Y-91692
X139145Y-96225
X139167Y-94537
X139172Y-95439
X139176Y-86922
X139300Y-100127
X139525Y-120875
X139678Y-113123
X139736Y-109819
X139775Y-110525
X139775Y-111275
X139775Y-125525
X139775Y-126625
X139825Y-117475
X140000Y-90500
X140075Y-136275
X140125Y-123375
X140378Y-115096
X140775Y-125525
X140775Y-126625
X140775Y-129575
X140775Y-133925
X141075Y-136275
X141175Y-119275
X141343Y-98062
X141394Y-97123
X141399Y-92182
X141475Y-77725
X141484Y-100500
X141625Y-117325
X141775Y-125525
X141775Y-126625
X141812Y-112793
X141880Y-88909
X141925Y-81725
X141975Y-94576
X142075Y-136275
X142175Y-107875
X142200Y-106675
X142429Y-92687
X142454Y-91487
X142475Y-110450
X142475Y-111675
X142594Y-96673
X142612Y-95532
X142625Y-107275
X142675Y-84175
X142775Y-125525
X142775Y-126625
X142879Y-92087
X143025Y-107875
X143050Y-106675
X143075Y-120475
X143075Y-136275
X143279Y-92687
X143304Y-91487
X143400Y-102300
X143424Y-95502
X143424Y-96700
X143475Y-114425
X143475Y-117325
X143675Y-110450
X143675Y-111675
X143759Y-90384
X143775Y-125525
X143775Y-126625
X143825Y-79600
X143900Y-72450
X144075Y-136275
X144125Y-112725
X144155Y-105601
X144275Y-97675
X144405Y-86782
X144434Y-95511
X144443Y-96673
X144475Y-74975
X144525Y-123325
X144566Y-109608
X144575Y-110450
X144575Y-111675
X144625Y-59775
X144625Y-67275
X144625Y-69925
X144775Y-125525
X144775Y-126625
X144850Y-112550
X144975Y-131725
X145031Y-88505
X145075Y-136275
X145334Y-90121
X145412Y-97625
X145475Y-96675
X145525Y-110450
X145525Y-111675
X145575Y-82025
X145575Y-113075
X145747Y-101286
X145772Y-105038
X145775Y-72700
X145775Y-125525
X145775Y-126625
X145786Y-102533
X145813Y-103779
X145875Y-117325
X146025Y-95475
X146075Y-136275
X146100Y-88750
X146200Y-110475
X146275Y-119725
X146288Y-100219
X146315Y-109908
X146475Y-93275
X146546Y-90182
X146775Y-125525
X146775Y-126625
X146925Y-64725
X146975Y-82775
X147075Y-136275
X147093Y-103159
X147100Y-114725
X147100Y-115350
X147100Y-115975
X147143Y-101826
X147176Y-99710
X147176Y-100335
X147176Y-100960
X147200Y-97705
X147225Y-112875
X147250Y-113750
X147252Y-108708
X147325Y-79725
X147415Y-106350
X147500Y-61000
X147525Y-117325
X147775Y-114725
X147775Y-115350
X147775Y-115975
X147775Y-125525
X147775Y-126625
X147851Y-99710
X147851Y-100335
X147851Y-100960
X147975Y-88575
X148062Y-104260
X148075Y-136275
X148275Y-123475
X148425Y-77725
X148450Y-95975
X148450Y-96575
X148450Y-97225
X148475Y-110900
X148475Y-111575
X148475Y-112225
X148475Y-114725
X148475Y-115350
X148475Y-115975
X148551Y-99710
X148551Y-100335
X148551Y-100960
X148723Y-88522
X148775Y-80325
X148775Y-118325
X148775Y-125525
X148775Y-126625
X148925Y-116925
X148941Y-101735
X148951Y-103331
X148991Y-105220
X149075Y-90525
X149075Y-91175
X149075Y-91975
X149075Y-92575
X149075Y-95925
X149075Y-136275
X149078Y-93678
X149125Y-96575
X149125Y-97225
X149125Y-110475
X149125Y-110925
X149125Y-111575
X149125Y-112225
X149175Y-60175
X149175Y-82775
X149225Y-75275
X149275Y-133975
X149325Y-129475
X149375Y-77225
X149425Y-67075
X149473Y-88526
X149525Y-68675
X149575Y-62725
X149750Y-95975
X149750Y-96575
X149750Y-97225
X149775Y-110925
X149775Y-111575
X149775Y-112200
X149775Y-125525
X149775Y-126625
X149825Y-118175
X149975Y-71775
X149991Y-99389
X150075Y-136275
X150203Y-103291
X150213Y-101008
X150226Y-105242
X150275Y-112725
X150325Y-88525
X150725Y-114675
X150775Y-125525
X150775Y-126625
X150875Y-113325
X150975Y-76225
X150975Y-78825
X150975Y-80875
X150975Y-119325
X150975Y-120325
X151025Y-82775
X151025Y-116725
X151075Y-136275
X151125Y-88525
X151250Y-99425
X151296Y-107484
X151350Y-98525
X151375Y-65825
X151425Y-112725
X151578Y-109949
X151775Y-125525
X151775Y-126625
X151975Y-111625
X151977Y-110532
X152000Y-95475
X152025Y-86275
X152025Y-115325
X152075Y-96625
X152075Y-113375
X152075Y-117025
X152075Y-119725
X152075Y-136275
X152125Y-123775
X152179Y-103775
X152185Y-105042
X152225Y-82125
X152275Y-77425
X152400Y-99125
X152725Y-97575
X152775Y-71375
X152775Y-125525
X152775Y-126625
X152800Y-106275
X152840Y-94434
X152925Y-87575
X152925Y-91700
X152925Y-95500
X152925Y-96675
X153025Y-110525
X153025Y-111625
X153075Y-131675
X153075Y-136275
X153125Y-78375
X153275Y-119725
X153325Y-117475
X153343Y-105060
X153375Y-81725
X153375Y-114625
X153575Y-66025
X153625Y-55175
X153625Y-56925
X153625Y-58825
X153675Y-60125
X153775Y-125525
X153775Y-126625
X153875Y-62725
X153875Y-64875
X153900Y-68225
X154025Y-98675
X154025Y-110525
X154075Y-95504
X154075Y-136275
X154150Y-85550
X154225Y-86925
X154285Y-99750
X154285Y-103600
X154475Y-82275
X154561Y-105808
X154625Y-97725
X154711Y-93801
X154711Y-108854
X154775Y-125525
X154775Y-126625
X154800Y-86225
X154825Y-79825
X154925Y-111625
X154975Y-95500
X154975Y-96650
X155006Y-104021
X155025Y-110525
X155069Y-101840
X155075Y-136275
X155154Y-98721
X155275Y-93200
X155325Y-57075
X155326Y-109756
X155344Y-107733
X155475Y-123625
X155625Y-71675
X155625Y-95500
X155625Y-96650
X155675Y-55125
X155700Y-103400
X155750Y-100350
X155775Y-125525
X155775Y-126625
X155825Y-80775
X155875Y-110525
X155875Y-111625
X156075Y-136275
X156125Y-68625
X156209Y-97545
X156275Y-95475
X156275Y-96650
X156325Y-81875
X156325Y-83875
X156325Y-86125
X156325Y-88525
X156325Y-129375
X156325Y-134075
X156379Y-99129
X156625Y-90225
X156675Y-110525
X156675Y-111625
X156675Y-125525
X156675Y-126625
X156775Y-58775
X156775Y-91725
X156775Y-116025
X156825Y-60775
X156825Y-63225
X156825Y-66575
X156825Y-118825
X156825Y-121325
X156925Y-93225
X156975Y-79875
X156975Y-123225
X156975Y-128925
X157025Y-113875
X157075Y-136275
X157425Y-94975
X157425Y-97175
X157425Y-109975
X157425Y-112175
X157425Y-124975
X157425Y-127175
X157498Y-105525
X157575Y-55125
X157707Y-101969
X157925Y-93225
X157975Y-98875
X157975Y-108225
X157975Y-123225
X157975Y-128925
X158025Y-113875
X158075Y-94975
X158075Y-97175
X158075Y-109975
X158075Y-112175
X158075Y-124975
X158075Y-127175
X158075Y-136275
X158225Y-65525
X158275Y-57125
X158425Y-73225
X158425Y-91125
X158575Y-80175
X158625Y-77075
X158725Y-61025
X158725Y-94975
X158725Y-97175
X158725Y-109975
X158725Y-112175
X158725Y-124975
X158725Y-127175
X158775Y-55175
X158775Y-69225
X158775Y-131875
X158925Y-82725
X158975Y-93225
X159025Y-98875
X159025Y-108225
X159025Y-123225
X159025Y-128925
X159075Y-113875
X159075Y-136275
X159375Y-94975
X159375Y-97175
X159375Y-109975
X159375Y-112175
X159375Y-124975
X159375Y-127175
X159825Y-93225
X159875Y-98875
X159875Y-99625
X159875Y-100625
X159875Y-101625
X159875Y-102625
X159875Y-103625
X159875Y-104625
X159875Y-105625
X159875Y-106625
X159875Y-107625
X159875Y-108225
X159875Y-123225
X159875Y-128925
X159925Y-113875
X159975Y-55175
X159975Y-56175
X159975Y-57175
X159975Y-58175
X159975Y-59175
X159975Y-60175
X159975Y-61175
X159975Y-62175
X159975Y-63175
X159975Y-64175
X159975Y-65175
X159975Y-66175
X159975Y-67175
X159975Y-68175
X159975Y-69175
X159975Y-70175
X159975Y-71175
X159975Y-72175
X159975Y-73175
X159975Y-74175
X159975Y-75175
X159975Y-76175
X159975Y-77175
X159975Y-78175
X159975Y-79175
X159975Y-80175
X159975Y-81175
X159975Y-82175
X159975Y-83175
X159975Y-84175
X159975Y-85175
X159975Y-86175
X159975Y-87175
X159975Y-88175
X159975Y-89175
X159975Y-90175
X159975Y-91175
X159975Y-92075
X159975Y-114625
X159975Y-115625
X159975Y-116625
X159975Y-117625
X159975Y-118625
X159975Y-119625
X159975Y-120625
X159975Y-121625
X159975Y-122625
X159975Y-136275
X160025Y-94975
X160025Y-97175
X160025Y-109975
X160025Y-112175
X160025Y-124975
X160025Y-127175
X160025Y-129775
X160025Y-130775
X160025Y-131775
X160025Y-132775
X160025Y-133775
X160025Y-134775
X160025Y-135775
T2
X127055Y-55915
X127055Y-58455
X127055Y-60995
X127055Y-63535
X127055Y-66075
X127055Y-68615
X127055Y-71155
X127055Y-73695
X127055Y-76235
X129645Y-76285
X132185Y-76285
X134725Y-76285
X137265Y-76285
X139805Y-76285
X142395Y-55915
X142395Y-58455
X142395Y-60995
X142395Y-63535
X142395Y-66075
X142395Y-68615
X142395Y-71155
X142395Y-73695
X142395Y-76235
T3
X150135Y-121400
X151875Y-56255
X151875Y-58795
X151875Y-61335
X151875Y-63875
X152675Y-121400
X157925Y-85285
X157925Y-87825
M30
