%TF.GenerationSoftware,KiCad,Pcbnew,9.0.7*%
%TF.CreationDate,2026-04-04T22:02:40+09:00*%
%TF.ProjectId,MAPS-010143,4d415053-2d30-4313-9031-34332e6b6963,rev?*%
%TF.SameCoordinates,Original*%
%TF.FileFunction,Legend,Bot*%
%TF.FilePolarity,Positive*%
%FSLAX46Y46*%
G04 Gerber Fmt 4.6, Leading zero omitted, Abs format (unit mm)*
G04 Created by KiCad (PCBNEW 9.0.7) date 2026-04-04 22:02:40*
%MOMM*%
%LPD*%
G01*
G04 APERTURE LIST*
%ADD10C,0.150000*%
%ADD11C,0.254000*%
%ADD12C,0.120000*%
%ADD13C,0.250000*%
%ADD14C,0.200000*%
G04 APERTURE END LIST*
D10*
X137476792Y-79508319D02*
X137933935Y-79508319D01*
X137705363Y-79508319D02*
X137705363Y-78508319D01*
X137705363Y-78508319D02*
X137781554Y-78651176D01*
X137781554Y-78651176D02*
X137857744Y-78746414D01*
X137857744Y-78746414D02*
X137933935Y-78794033D01*
X136981553Y-78508319D02*
X136905363Y-78508319D01*
X136905363Y-78508319D02*
X136829172Y-78555938D01*
X136829172Y-78555938D02*
X136791077Y-78603557D01*
X136791077Y-78603557D02*
X136752982Y-78698795D01*
X136752982Y-78698795D02*
X136714887Y-78889271D01*
X136714887Y-78889271D02*
X136714887Y-79127366D01*
X136714887Y-79127366D02*
X136752982Y-79317842D01*
X136752982Y-79317842D02*
X136791077Y-79413080D01*
X136791077Y-79413080D02*
X136829172Y-79460700D01*
X136829172Y-79460700D02*
X136905363Y-79508319D01*
X136905363Y-79508319D02*
X136981553Y-79508319D01*
X136981553Y-79508319D02*
X137057744Y-79460700D01*
X137057744Y-79460700D02*
X137095839Y-79413080D01*
X137095839Y-79413080D02*
X137133934Y-79317842D01*
X137133934Y-79317842D02*
X137172030Y-79127366D01*
X137172030Y-79127366D02*
X137172030Y-78889271D01*
X137172030Y-78889271D02*
X137133934Y-78698795D01*
X137133934Y-78698795D02*
X137095839Y-78603557D01*
X137095839Y-78603557D02*
X137057744Y-78555938D01*
X137057744Y-78555938D02*
X136981553Y-78508319D01*
X129843697Y-79508319D02*
X130300840Y-79508319D01*
X130072268Y-79508319D02*
X130072268Y-78508319D01*
X130072268Y-78508319D02*
X130148459Y-78651176D01*
X130148459Y-78651176D02*
X130224649Y-78746414D01*
X130224649Y-78746414D02*
X130300840Y-78794033D01*
X129577030Y-78508319D02*
X129081792Y-78508319D01*
X129081792Y-78508319D02*
X129348458Y-78889271D01*
X129348458Y-78889271D02*
X129234173Y-78889271D01*
X129234173Y-78889271D02*
X129157982Y-78936890D01*
X129157982Y-78936890D02*
X129119887Y-78984509D01*
X129119887Y-78984509D02*
X129081792Y-79079747D01*
X129081792Y-79079747D02*
X129081792Y-79317842D01*
X129081792Y-79317842D02*
X129119887Y-79413080D01*
X129119887Y-79413080D02*
X129157982Y-79460700D01*
X129157982Y-79460700D02*
X129234173Y-79508319D01*
X129234173Y-79508319D02*
X129462744Y-79508319D01*
X129462744Y-79508319D02*
X129538935Y-79460700D01*
X129538935Y-79460700D02*
X129577030Y-79413080D01*
X145152982Y-65879902D02*
X145152982Y-66546569D01*
X145343458Y-65498950D02*
X145533935Y-66213235D01*
X145533935Y-66213235D02*
X145038696Y-66213235D01*
X145381554Y-76135140D02*
X145457744Y-76087521D01*
X145457744Y-76087521D02*
X145495839Y-76039902D01*
X145495839Y-76039902D02*
X145533935Y-75944664D01*
X145533935Y-75944664D02*
X145533935Y-75897045D01*
X145533935Y-75897045D02*
X145495839Y-75801807D01*
X145495839Y-75801807D02*
X145457744Y-75754188D01*
X145457744Y-75754188D02*
X145381554Y-75706569D01*
X145381554Y-75706569D02*
X145229173Y-75706569D01*
X145229173Y-75706569D02*
X145152982Y-75754188D01*
X145152982Y-75754188D02*
X145114887Y-75801807D01*
X145114887Y-75801807D02*
X145076792Y-75897045D01*
X145076792Y-75897045D02*
X145076792Y-75944664D01*
X145076792Y-75944664D02*
X145114887Y-76039902D01*
X145114887Y-76039902D02*
X145152982Y-76087521D01*
X145152982Y-76087521D02*
X145229173Y-76135140D01*
X145229173Y-76135140D02*
X145381554Y-76135140D01*
X145381554Y-76135140D02*
X145457744Y-76182759D01*
X145457744Y-76182759D02*
X145495839Y-76230378D01*
X145495839Y-76230378D02*
X145533935Y-76325616D01*
X145533935Y-76325616D02*
X145533935Y-76516092D01*
X145533935Y-76516092D02*
X145495839Y-76611330D01*
X145495839Y-76611330D02*
X145457744Y-76658950D01*
X145457744Y-76658950D02*
X145381554Y-76706569D01*
X145381554Y-76706569D02*
X145229173Y-76706569D01*
X145229173Y-76706569D02*
X145152982Y-76658950D01*
X145152982Y-76658950D02*
X145114887Y-76611330D01*
X145114887Y-76611330D02*
X145076792Y-76516092D01*
X145076792Y-76516092D02*
X145076792Y-76325616D01*
X145076792Y-76325616D02*
X145114887Y-76230378D01*
X145114887Y-76230378D02*
X145152982Y-76182759D01*
X145152982Y-76182759D02*
X145229173Y-76135140D01*
X124580125Y-60466569D02*
X124084887Y-60466569D01*
X124084887Y-60466569D02*
X124351553Y-60847521D01*
X124351553Y-60847521D02*
X124237268Y-60847521D01*
X124237268Y-60847521D02*
X124161077Y-60895140D01*
X124161077Y-60895140D02*
X124122982Y-60942759D01*
X124122982Y-60942759D02*
X124084887Y-61037997D01*
X124084887Y-61037997D02*
X124084887Y-61276092D01*
X124084887Y-61276092D02*
X124122982Y-61371330D01*
X124122982Y-61371330D02*
X124161077Y-61418950D01*
X124161077Y-61418950D02*
X124237268Y-61466569D01*
X124237268Y-61466569D02*
X124465839Y-61466569D01*
X124465839Y-61466569D02*
X124542030Y-61418950D01*
X124542030Y-61418950D02*
X124580125Y-61371330D01*
X123856315Y-60466569D02*
X123589648Y-61466569D01*
X123589648Y-61466569D02*
X123322982Y-60466569D01*
X123132506Y-60466569D02*
X122637268Y-60466569D01*
X122637268Y-60466569D02*
X122903934Y-60847521D01*
X122903934Y-60847521D02*
X122789649Y-60847521D01*
X122789649Y-60847521D02*
X122713458Y-60895140D01*
X122713458Y-60895140D02*
X122675363Y-60942759D01*
X122675363Y-60942759D02*
X122637268Y-61037997D01*
X122637268Y-61037997D02*
X122637268Y-61276092D01*
X122637268Y-61276092D02*
X122675363Y-61371330D01*
X122675363Y-61371330D02*
X122713458Y-61418950D01*
X122713458Y-61418950D02*
X122789649Y-61466569D01*
X122789649Y-61466569D02*
X123018220Y-61466569D01*
X123018220Y-61466569D02*
X123094411Y-61418950D01*
X123094411Y-61418950D02*
X123132506Y-61371330D01*
X124542030Y-65641807D02*
X124503934Y-65594188D01*
X124503934Y-65594188D02*
X124427744Y-65546569D01*
X124427744Y-65546569D02*
X124237268Y-65546569D01*
X124237268Y-65546569D02*
X124161077Y-65594188D01*
X124161077Y-65594188D02*
X124122982Y-65641807D01*
X124122982Y-65641807D02*
X124084887Y-65737045D01*
X124084887Y-65737045D02*
X124084887Y-65832283D01*
X124084887Y-65832283D02*
X124122982Y-65975140D01*
X124122982Y-65975140D02*
X124580125Y-66546569D01*
X124580125Y-66546569D02*
X124084887Y-66546569D01*
X123627744Y-65975140D02*
X123703934Y-65927521D01*
X123703934Y-65927521D02*
X123742029Y-65879902D01*
X123742029Y-65879902D02*
X123780125Y-65784664D01*
X123780125Y-65784664D02*
X123780125Y-65737045D01*
X123780125Y-65737045D02*
X123742029Y-65641807D01*
X123742029Y-65641807D02*
X123703934Y-65594188D01*
X123703934Y-65594188D02*
X123627744Y-65546569D01*
X123627744Y-65546569D02*
X123475363Y-65546569D01*
X123475363Y-65546569D02*
X123399172Y-65594188D01*
X123399172Y-65594188D02*
X123361077Y-65641807D01*
X123361077Y-65641807D02*
X123322982Y-65737045D01*
X123322982Y-65737045D02*
X123322982Y-65784664D01*
X123322982Y-65784664D02*
X123361077Y-65879902D01*
X123361077Y-65879902D02*
X123399172Y-65927521D01*
X123399172Y-65927521D02*
X123475363Y-65975140D01*
X123475363Y-65975140D02*
X123627744Y-65975140D01*
X123627744Y-65975140D02*
X123703934Y-66022759D01*
X123703934Y-66022759D02*
X123742029Y-66070378D01*
X123742029Y-66070378D02*
X123780125Y-66165616D01*
X123780125Y-66165616D02*
X123780125Y-66356092D01*
X123780125Y-66356092D02*
X123742029Y-66451330D01*
X123742029Y-66451330D02*
X123703934Y-66498950D01*
X123703934Y-66498950D02*
X123627744Y-66546569D01*
X123627744Y-66546569D02*
X123475363Y-66546569D01*
X123475363Y-66546569D02*
X123399172Y-66498950D01*
X123399172Y-66498950D02*
X123361077Y-66451330D01*
X123361077Y-66451330D02*
X123322982Y-66356092D01*
X123322982Y-66356092D02*
X123322982Y-66165616D01*
X123322982Y-66165616D02*
X123361077Y-66070378D01*
X123361077Y-66070378D02*
X123399172Y-66022759D01*
X123399172Y-66022759D02*
X123475363Y-65975140D01*
X140003697Y-79508319D02*
X139851316Y-79508319D01*
X139851316Y-79508319D02*
X139775126Y-79460700D01*
X139775126Y-79460700D02*
X139737030Y-79413080D01*
X139737030Y-79413080D02*
X139660840Y-79270223D01*
X139660840Y-79270223D02*
X139622745Y-79079747D01*
X139622745Y-79079747D02*
X139622745Y-78698795D01*
X139622745Y-78698795D02*
X139660840Y-78603557D01*
X139660840Y-78603557D02*
X139698935Y-78555938D01*
X139698935Y-78555938D02*
X139775126Y-78508319D01*
X139775126Y-78508319D02*
X139927507Y-78508319D01*
X139927507Y-78508319D02*
X140003697Y-78555938D01*
X140003697Y-78555938D02*
X140041792Y-78603557D01*
X140041792Y-78603557D02*
X140079888Y-78698795D01*
X140079888Y-78698795D02*
X140079888Y-78936890D01*
X140079888Y-78936890D02*
X140041792Y-79032128D01*
X140041792Y-79032128D02*
X140003697Y-79079747D01*
X140003697Y-79079747D02*
X139927507Y-79127366D01*
X139927507Y-79127366D02*
X139775126Y-79127366D01*
X139775126Y-79127366D02*
X139698935Y-79079747D01*
X139698935Y-79079747D02*
X139660840Y-79032128D01*
X139660840Y-79032128D02*
X139622745Y-78936890D01*
X124084887Y-74166569D02*
X124542030Y-74166569D01*
X124313458Y-74166569D02*
X124313458Y-73166569D01*
X124313458Y-73166569D02*
X124389649Y-73309426D01*
X124389649Y-73309426D02*
X124465839Y-73404664D01*
X124465839Y-73404664D02*
X124542030Y-73452283D01*
X123361077Y-73166569D02*
X123742029Y-73166569D01*
X123742029Y-73166569D02*
X123780125Y-73642759D01*
X123780125Y-73642759D02*
X123742029Y-73595140D01*
X123742029Y-73595140D02*
X123665839Y-73547521D01*
X123665839Y-73547521D02*
X123475363Y-73547521D01*
X123475363Y-73547521D02*
X123399172Y-73595140D01*
X123399172Y-73595140D02*
X123361077Y-73642759D01*
X123361077Y-73642759D02*
X123322982Y-73737997D01*
X123322982Y-73737997D02*
X123322982Y-73976092D01*
X123322982Y-73976092D02*
X123361077Y-74071330D01*
X123361077Y-74071330D02*
X123399172Y-74118950D01*
X123399172Y-74118950D02*
X123475363Y-74166569D01*
X123475363Y-74166569D02*
X123665839Y-74166569D01*
X123665839Y-74166569D02*
X123742029Y-74118950D01*
X123742029Y-74118950D02*
X123780125Y-74071330D01*
X134936792Y-79508319D02*
X135393935Y-79508319D01*
X135165363Y-79508319D02*
X135165363Y-78508319D01*
X135165363Y-78508319D02*
X135241554Y-78651176D01*
X135241554Y-78651176D02*
X135317744Y-78746414D01*
X135317744Y-78746414D02*
X135393935Y-78794033D01*
X134174887Y-79508319D02*
X134632030Y-79508319D01*
X134403458Y-79508319D02*
X134403458Y-78508319D01*
X134403458Y-78508319D02*
X134479649Y-78651176D01*
X134479649Y-78651176D02*
X134555839Y-78746414D01*
X134555839Y-78746414D02*
X134632030Y-78794033D01*
X145572030Y-63006569D02*
X145076792Y-63006569D01*
X145076792Y-63006569D02*
X145343458Y-63387521D01*
X145343458Y-63387521D02*
X145229173Y-63387521D01*
X145229173Y-63387521D02*
X145152982Y-63435140D01*
X145152982Y-63435140D02*
X145114887Y-63482759D01*
X145114887Y-63482759D02*
X145076792Y-63577997D01*
X145076792Y-63577997D02*
X145076792Y-63816092D01*
X145076792Y-63816092D02*
X145114887Y-63911330D01*
X145114887Y-63911330D02*
X145152982Y-63958950D01*
X145152982Y-63958950D02*
X145229173Y-64006569D01*
X145229173Y-64006569D02*
X145457744Y-64006569D01*
X145457744Y-64006569D02*
X145533935Y-63958950D01*
X145533935Y-63958950D02*
X145572030Y-63911330D01*
X124084887Y-76706569D02*
X124542030Y-76706569D01*
X124313458Y-76706569D02*
X124313458Y-75706569D01*
X124313458Y-75706569D02*
X124389649Y-75849426D01*
X124389649Y-75849426D02*
X124465839Y-75944664D01*
X124465839Y-75944664D02*
X124542030Y-75992283D01*
X123399172Y-76039902D02*
X123399172Y-76706569D01*
X123589648Y-75658950D02*
X123780125Y-76373235D01*
X123780125Y-76373235D02*
X123284886Y-76373235D01*
X145152982Y-70626569D02*
X145305363Y-70626569D01*
X145305363Y-70626569D02*
X145381554Y-70674188D01*
X145381554Y-70674188D02*
X145419649Y-70721807D01*
X145419649Y-70721807D02*
X145495839Y-70864664D01*
X145495839Y-70864664D02*
X145533935Y-71055140D01*
X145533935Y-71055140D02*
X145533935Y-71436092D01*
X145533935Y-71436092D02*
X145495839Y-71531330D01*
X145495839Y-71531330D02*
X145457744Y-71578950D01*
X145457744Y-71578950D02*
X145381554Y-71626569D01*
X145381554Y-71626569D02*
X145229173Y-71626569D01*
X145229173Y-71626569D02*
X145152982Y-71578950D01*
X145152982Y-71578950D02*
X145114887Y-71531330D01*
X145114887Y-71531330D02*
X145076792Y-71436092D01*
X145076792Y-71436092D02*
X145076792Y-71197997D01*
X145076792Y-71197997D02*
X145114887Y-71102759D01*
X145114887Y-71102759D02*
X145152982Y-71055140D01*
X145152982Y-71055140D02*
X145229173Y-71007521D01*
X145229173Y-71007521D02*
X145381554Y-71007521D01*
X145381554Y-71007521D02*
X145457744Y-71055140D01*
X145457744Y-71055140D02*
X145495839Y-71102759D01*
X145495839Y-71102759D02*
X145533935Y-71197997D01*
X145533935Y-60561807D02*
X145495839Y-60514188D01*
X145495839Y-60514188D02*
X145419649Y-60466569D01*
X145419649Y-60466569D02*
X145229173Y-60466569D01*
X145229173Y-60466569D02*
X145152982Y-60514188D01*
X145152982Y-60514188D02*
X145114887Y-60561807D01*
X145114887Y-60561807D02*
X145076792Y-60657045D01*
X145076792Y-60657045D02*
X145076792Y-60752283D01*
X145076792Y-60752283D02*
X145114887Y-60895140D01*
X145114887Y-60895140D02*
X145572030Y-61466569D01*
X145572030Y-61466569D02*
X145076792Y-61466569D01*
X145076792Y-58926569D02*
X145533935Y-58926569D01*
X145305363Y-58926569D02*
X145305363Y-57926569D01*
X145305363Y-57926569D02*
X145381554Y-58069426D01*
X145381554Y-58069426D02*
X145457744Y-58164664D01*
X145457744Y-58164664D02*
X145533935Y-58212283D01*
X145343458Y-55386569D02*
X145267268Y-55386569D01*
X145267268Y-55386569D02*
X145191077Y-55434188D01*
X145191077Y-55434188D02*
X145152982Y-55481807D01*
X145152982Y-55481807D02*
X145114887Y-55577045D01*
X145114887Y-55577045D02*
X145076792Y-55767521D01*
X145076792Y-55767521D02*
X145076792Y-56005616D01*
X145076792Y-56005616D02*
X145114887Y-56196092D01*
X145114887Y-56196092D02*
X145152982Y-56291330D01*
X145152982Y-56291330D02*
X145191077Y-56338950D01*
X145191077Y-56338950D02*
X145267268Y-56386569D01*
X145267268Y-56386569D02*
X145343458Y-56386569D01*
X145343458Y-56386569D02*
X145419649Y-56338950D01*
X145419649Y-56338950D02*
X145457744Y-56291330D01*
X145457744Y-56291330D02*
X145495839Y-56196092D01*
X145495839Y-56196092D02*
X145533935Y-56005616D01*
X145533935Y-56005616D02*
X145533935Y-55767521D01*
X145533935Y-55767521D02*
X145495839Y-55577045D01*
X145495839Y-55577045D02*
X145457744Y-55481807D01*
X145457744Y-55481807D02*
X145419649Y-55434188D01*
X145419649Y-55434188D02*
X145343458Y-55386569D01*
X124122982Y-55386569D02*
X124503934Y-55386569D01*
X124503934Y-55386569D02*
X124542030Y-55862759D01*
X124542030Y-55862759D02*
X124503934Y-55815140D01*
X124503934Y-55815140D02*
X124427744Y-55767521D01*
X124427744Y-55767521D02*
X124237268Y-55767521D01*
X124237268Y-55767521D02*
X124161077Y-55815140D01*
X124161077Y-55815140D02*
X124122982Y-55862759D01*
X124122982Y-55862759D02*
X124084887Y-55957997D01*
X124084887Y-55957997D02*
X124084887Y-56196092D01*
X124084887Y-56196092D02*
X124122982Y-56291330D01*
X124122982Y-56291330D02*
X124161077Y-56338950D01*
X124161077Y-56338950D02*
X124237268Y-56386569D01*
X124237268Y-56386569D02*
X124427744Y-56386569D01*
X124427744Y-56386569D02*
X124503934Y-56338950D01*
X124503934Y-56338950D02*
X124542030Y-56291330D01*
X123856315Y-55386569D02*
X123589648Y-56386569D01*
X123589648Y-56386569D02*
X123322982Y-55386569D01*
X145572030Y-73166569D02*
X145038696Y-73166569D01*
X145038696Y-73166569D02*
X145381554Y-74166569D01*
X124084887Y-57974188D02*
X124161077Y-57926569D01*
X124161077Y-57926569D02*
X124275363Y-57926569D01*
X124275363Y-57926569D02*
X124389649Y-57974188D01*
X124389649Y-57974188D02*
X124465839Y-58069426D01*
X124465839Y-58069426D02*
X124503934Y-58164664D01*
X124503934Y-58164664D02*
X124542030Y-58355140D01*
X124542030Y-58355140D02*
X124542030Y-58497997D01*
X124542030Y-58497997D02*
X124503934Y-58688473D01*
X124503934Y-58688473D02*
X124465839Y-58783711D01*
X124465839Y-58783711D02*
X124389649Y-58878950D01*
X124389649Y-58878950D02*
X124275363Y-58926569D01*
X124275363Y-58926569D02*
X124199172Y-58926569D01*
X124199172Y-58926569D02*
X124084887Y-58878950D01*
X124084887Y-58878950D02*
X124046791Y-58831330D01*
X124046791Y-58831330D02*
X124046791Y-58497997D01*
X124046791Y-58497997D02*
X124199172Y-58497997D01*
X123703934Y-58926569D02*
X123703934Y-57926569D01*
X123703934Y-57926569D02*
X123246791Y-58926569D01*
X123246791Y-58926569D02*
X123246791Y-57926569D01*
X122865839Y-58926569D02*
X122865839Y-57926569D01*
X122865839Y-57926569D02*
X122675363Y-57926569D01*
X122675363Y-57926569D02*
X122561077Y-57974188D01*
X122561077Y-57974188D02*
X122484887Y-58069426D01*
X122484887Y-58069426D02*
X122446792Y-58164664D01*
X122446792Y-58164664D02*
X122408696Y-58355140D01*
X122408696Y-58355140D02*
X122408696Y-58497997D01*
X122408696Y-58497997D02*
X122446792Y-58688473D01*
X122446792Y-58688473D02*
X122484887Y-58783711D01*
X122484887Y-58783711D02*
X122561077Y-58878950D01*
X122561077Y-58878950D02*
X122675363Y-58926569D01*
X122675363Y-58926569D02*
X122865839Y-58926569D01*
X124542030Y-70721807D02*
X124503934Y-70674188D01*
X124503934Y-70674188D02*
X124427744Y-70626569D01*
X124427744Y-70626569D02*
X124237268Y-70626569D01*
X124237268Y-70626569D02*
X124161077Y-70674188D01*
X124161077Y-70674188D02*
X124122982Y-70721807D01*
X124122982Y-70721807D02*
X124084887Y-70817045D01*
X124084887Y-70817045D02*
X124084887Y-70912283D01*
X124084887Y-70912283D02*
X124122982Y-71055140D01*
X124122982Y-71055140D02*
X124580125Y-71626569D01*
X124580125Y-71626569D02*
X124084887Y-71626569D01*
X123399172Y-70626569D02*
X123551553Y-70626569D01*
X123551553Y-70626569D02*
X123627744Y-70674188D01*
X123627744Y-70674188D02*
X123665839Y-70721807D01*
X123665839Y-70721807D02*
X123742029Y-70864664D01*
X123742029Y-70864664D02*
X123780125Y-71055140D01*
X123780125Y-71055140D02*
X123780125Y-71436092D01*
X123780125Y-71436092D02*
X123742029Y-71531330D01*
X123742029Y-71531330D02*
X123703934Y-71578950D01*
X123703934Y-71578950D02*
X123627744Y-71626569D01*
X123627744Y-71626569D02*
X123475363Y-71626569D01*
X123475363Y-71626569D02*
X123399172Y-71578950D01*
X123399172Y-71578950D02*
X123361077Y-71531330D01*
X123361077Y-71531330D02*
X123322982Y-71436092D01*
X123322982Y-71436092D02*
X123322982Y-71197997D01*
X123322982Y-71197997D02*
X123361077Y-71102759D01*
X123361077Y-71102759D02*
X123399172Y-71055140D01*
X123399172Y-71055140D02*
X123475363Y-71007521D01*
X123475363Y-71007521D02*
X123627744Y-71007521D01*
X123627744Y-71007521D02*
X123703934Y-71055140D01*
X123703934Y-71055140D02*
X123742029Y-71102759D01*
X123742029Y-71102759D02*
X123780125Y-71197997D01*
X132396792Y-79508319D02*
X132853935Y-79508319D01*
X132625363Y-79508319D02*
X132625363Y-78508319D01*
X132625363Y-78508319D02*
X132701554Y-78651176D01*
X132701554Y-78651176D02*
X132777744Y-78746414D01*
X132777744Y-78746414D02*
X132853935Y-78794033D01*
X132092030Y-78603557D02*
X132053934Y-78555938D01*
X132053934Y-78555938D02*
X131977744Y-78508319D01*
X131977744Y-78508319D02*
X131787268Y-78508319D01*
X131787268Y-78508319D02*
X131711077Y-78555938D01*
X131711077Y-78555938D02*
X131672982Y-78603557D01*
X131672982Y-78603557D02*
X131634887Y-78698795D01*
X131634887Y-78698795D02*
X131634887Y-78794033D01*
X131634887Y-78794033D02*
X131672982Y-78936890D01*
X131672982Y-78936890D02*
X132130125Y-79508319D01*
X132130125Y-79508319D02*
X131634887Y-79508319D01*
X124542030Y-68181807D02*
X124503934Y-68134188D01*
X124503934Y-68134188D02*
X124427744Y-68086569D01*
X124427744Y-68086569D02*
X124237268Y-68086569D01*
X124237268Y-68086569D02*
X124161077Y-68134188D01*
X124161077Y-68134188D02*
X124122982Y-68181807D01*
X124122982Y-68181807D02*
X124084887Y-68277045D01*
X124084887Y-68277045D02*
X124084887Y-68372283D01*
X124084887Y-68372283D02*
X124122982Y-68515140D01*
X124122982Y-68515140D02*
X124580125Y-69086569D01*
X124580125Y-69086569D02*
X124084887Y-69086569D01*
X123818220Y-68086569D02*
X123284886Y-68086569D01*
X123284886Y-68086569D02*
X123627744Y-69086569D01*
X145114887Y-68086569D02*
X145495839Y-68086569D01*
X145495839Y-68086569D02*
X145533935Y-68562759D01*
X145533935Y-68562759D02*
X145495839Y-68515140D01*
X145495839Y-68515140D02*
X145419649Y-68467521D01*
X145419649Y-68467521D02*
X145229173Y-68467521D01*
X145229173Y-68467521D02*
X145152982Y-68515140D01*
X145152982Y-68515140D02*
X145114887Y-68562759D01*
X145114887Y-68562759D02*
X145076792Y-68657997D01*
X145076792Y-68657997D02*
X145076792Y-68896092D01*
X145076792Y-68896092D02*
X145114887Y-68991330D01*
X145114887Y-68991330D02*
X145152982Y-69038950D01*
X145152982Y-69038950D02*
X145229173Y-69086569D01*
X145229173Y-69086569D02*
X145419649Y-69086569D01*
X145419649Y-69086569D02*
X145495839Y-69038950D01*
X145495839Y-69038950D02*
X145533935Y-68991330D01*
X124542030Y-63101807D02*
X124503934Y-63054188D01*
X124503934Y-63054188D02*
X124427744Y-63006569D01*
X124427744Y-63006569D02*
X124237268Y-63006569D01*
X124237268Y-63006569D02*
X124161077Y-63054188D01*
X124161077Y-63054188D02*
X124122982Y-63101807D01*
X124122982Y-63101807D02*
X124084887Y-63197045D01*
X124084887Y-63197045D02*
X124084887Y-63292283D01*
X124084887Y-63292283D02*
X124122982Y-63435140D01*
X124122982Y-63435140D02*
X124580125Y-64006569D01*
X124580125Y-64006569D02*
X124084887Y-64006569D01*
X123703934Y-64006569D02*
X123551553Y-64006569D01*
X123551553Y-64006569D02*
X123475363Y-63958950D01*
X123475363Y-63958950D02*
X123437267Y-63911330D01*
X123437267Y-63911330D02*
X123361077Y-63768473D01*
X123361077Y-63768473D02*
X123322982Y-63577997D01*
X123322982Y-63577997D02*
X123322982Y-63197045D01*
X123322982Y-63197045D02*
X123361077Y-63101807D01*
X123361077Y-63101807D02*
X123399172Y-63054188D01*
X123399172Y-63054188D02*
X123475363Y-63006569D01*
X123475363Y-63006569D02*
X123627744Y-63006569D01*
X123627744Y-63006569D02*
X123703934Y-63054188D01*
X123703934Y-63054188D02*
X123742029Y-63101807D01*
X123742029Y-63101807D02*
X123780125Y-63197045D01*
X123780125Y-63197045D02*
X123780125Y-63435140D01*
X123780125Y-63435140D02*
X123742029Y-63530378D01*
X123742029Y-63530378D02*
X123703934Y-63577997D01*
X123703934Y-63577997D02*
X123627744Y-63625616D01*
X123627744Y-63625616D02*
X123475363Y-63625616D01*
X123475363Y-63625616D02*
X123399172Y-63577997D01*
X123399172Y-63577997D02*
X123361077Y-63530378D01*
X123361077Y-63530378D02*
X123322982Y-63435140D01*
X116805857Y-73619580D02*
X116853476Y-73667200D01*
X116853476Y-73667200D02*
X116996333Y-73714819D01*
X116996333Y-73714819D02*
X117091571Y-73714819D01*
X117091571Y-73714819D02*
X117234428Y-73667200D01*
X117234428Y-73667200D02*
X117329666Y-73571961D01*
X117329666Y-73571961D02*
X117377285Y-73476723D01*
X117377285Y-73476723D02*
X117424904Y-73286247D01*
X117424904Y-73286247D02*
X117424904Y-73143390D01*
X117424904Y-73143390D02*
X117377285Y-72952914D01*
X117377285Y-72952914D02*
X117329666Y-72857676D01*
X117329666Y-72857676D02*
X117234428Y-72762438D01*
X117234428Y-72762438D02*
X117091571Y-72714819D01*
X117091571Y-72714819D02*
X116996333Y-72714819D01*
X116996333Y-72714819D02*
X116853476Y-72762438D01*
X116853476Y-72762438D02*
X116805857Y-72810057D01*
X115853476Y-73714819D02*
X116424904Y-73714819D01*
X116139190Y-73714819D02*
X116139190Y-72714819D01*
X116139190Y-72714819D02*
X116234428Y-72857676D01*
X116234428Y-72857676D02*
X116329666Y-72952914D01*
X116329666Y-72952914D02*
X116424904Y-73000533D01*
X115234428Y-72714819D02*
X115139190Y-72714819D01*
X115139190Y-72714819D02*
X115043952Y-72762438D01*
X115043952Y-72762438D02*
X114996333Y-72810057D01*
X114996333Y-72810057D02*
X114948714Y-72905295D01*
X114948714Y-72905295D02*
X114901095Y-73095771D01*
X114901095Y-73095771D02*
X114901095Y-73333866D01*
X114901095Y-73333866D02*
X114948714Y-73524342D01*
X114948714Y-73524342D02*
X114996333Y-73619580D01*
X114996333Y-73619580D02*
X115043952Y-73667200D01*
X115043952Y-73667200D02*
X115139190Y-73714819D01*
X115139190Y-73714819D02*
X115234428Y-73714819D01*
X115234428Y-73714819D02*
X115329666Y-73667200D01*
X115329666Y-73667200D02*
X115377285Y-73619580D01*
X115377285Y-73619580D02*
X115424904Y-73524342D01*
X115424904Y-73524342D02*
X115472523Y-73333866D01*
X115472523Y-73333866D02*
X115472523Y-73095771D01*
X115472523Y-73095771D02*
X115424904Y-72905295D01*
X115424904Y-72905295D02*
X115377285Y-72810057D01*
X115377285Y-72810057D02*
X115329666Y-72762438D01*
X115329666Y-72762438D02*
X115234428Y-72714819D01*
X114584580Y-78540142D02*
X114632200Y-78492523D01*
X114632200Y-78492523D02*
X114679819Y-78349666D01*
X114679819Y-78349666D02*
X114679819Y-78254428D01*
X114679819Y-78254428D02*
X114632200Y-78111571D01*
X114632200Y-78111571D02*
X114536961Y-78016333D01*
X114536961Y-78016333D02*
X114441723Y-77968714D01*
X114441723Y-77968714D02*
X114251247Y-77921095D01*
X114251247Y-77921095D02*
X114108390Y-77921095D01*
X114108390Y-77921095D02*
X113917914Y-77968714D01*
X113917914Y-77968714D02*
X113822676Y-78016333D01*
X113822676Y-78016333D02*
X113727438Y-78111571D01*
X113727438Y-78111571D02*
X113679819Y-78254428D01*
X113679819Y-78254428D02*
X113679819Y-78349666D01*
X113679819Y-78349666D02*
X113727438Y-78492523D01*
X113727438Y-78492523D02*
X113775057Y-78540142D01*
X113775057Y-78921095D02*
X113727438Y-78968714D01*
X113727438Y-78968714D02*
X113679819Y-79063952D01*
X113679819Y-79063952D02*
X113679819Y-79302047D01*
X113679819Y-79302047D02*
X113727438Y-79397285D01*
X113727438Y-79397285D02*
X113775057Y-79444904D01*
X113775057Y-79444904D02*
X113870295Y-79492523D01*
X113870295Y-79492523D02*
X113965533Y-79492523D01*
X113965533Y-79492523D02*
X114108390Y-79444904D01*
X114108390Y-79444904D02*
X114679819Y-78873476D01*
X114679819Y-78873476D02*
X114679819Y-79492523D01*
X113679819Y-79825857D02*
X113679819Y-80444904D01*
X113679819Y-80444904D02*
X114060771Y-80111571D01*
X114060771Y-80111571D02*
X114060771Y-80254428D01*
X114060771Y-80254428D02*
X114108390Y-80349666D01*
X114108390Y-80349666D02*
X114156009Y-80397285D01*
X114156009Y-80397285D02*
X114251247Y-80444904D01*
X114251247Y-80444904D02*
X114489342Y-80444904D01*
X114489342Y-80444904D02*
X114584580Y-80397285D01*
X114584580Y-80397285D02*
X114632200Y-80349666D01*
X114632200Y-80349666D02*
X114679819Y-80254428D01*
X114679819Y-80254428D02*
X114679819Y-79968714D01*
X114679819Y-79968714D02*
X114632200Y-79873476D01*
X114632200Y-79873476D02*
X114584580Y-79825857D01*
X143759580Y-92607142D02*
X143807200Y-92559523D01*
X143807200Y-92559523D02*
X143854819Y-92416666D01*
X143854819Y-92416666D02*
X143854819Y-92321428D01*
X143854819Y-92321428D02*
X143807200Y-92178571D01*
X143807200Y-92178571D02*
X143711961Y-92083333D01*
X143711961Y-92083333D02*
X143616723Y-92035714D01*
X143616723Y-92035714D02*
X143426247Y-91988095D01*
X143426247Y-91988095D02*
X143283390Y-91988095D01*
X143283390Y-91988095D02*
X143092914Y-92035714D01*
X143092914Y-92035714D02*
X142997676Y-92083333D01*
X142997676Y-92083333D02*
X142902438Y-92178571D01*
X142902438Y-92178571D02*
X142854819Y-92321428D01*
X142854819Y-92321428D02*
X142854819Y-92416666D01*
X142854819Y-92416666D02*
X142902438Y-92559523D01*
X142902438Y-92559523D02*
X142950057Y-92607142D01*
X143854819Y-93559523D02*
X143854819Y-92988095D01*
X143854819Y-93273809D02*
X142854819Y-93273809D01*
X142854819Y-93273809D02*
X142997676Y-93178571D01*
X142997676Y-93178571D02*
X143092914Y-93083333D01*
X143092914Y-93083333D02*
X143140533Y-92988095D01*
X143854819Y-94035714D02*
X143854819Y-94226190D01*
X143854819Y-94226190D02*
X143807200Y-94321428D01*
X143807200Y-94321428D02*
X143759580Y-94369047D01*
X143759580Y-94369047D02*
X143616723Y-94464285D01*
X143616723Y-94464285D02*
X143426247Y-94511904D01*
X143426247Y-94511904D02*
X143045295Y-94511904D01*
X143045295Y-94511904D02*
X142950057Y-94464285D01*
X142950057Y-94464285D02*
X142902438Y-94416666D01*
X142902438Y-94416666D02*
X142854819Y-94321428D01*
X142854819Y-94321428D02*
X142854819Y-94130952D01*
X142854819Y-94130952D02*
X142902438Y-94035714D01*
X142902438Y-94035714D02*
X142950057Y-93988095D01*
X142950057Y-93988095D02*
X143045295Y-93940476D01*
X143045295Y-93940476D02*
X143283390Y-93940476D01*
X143283390Y-93940476D02*
X143378628Y-93988095D01*
X143378628Y-93988095D02*
X143426247Y-94035714D01*
X143426247Y-94035714D02*
X143473866Y-94130952D01*
X143473866Y-94130952D02*
X143473866Y-94321428D01*
X143473866Y-94321428D02*
X143426247Y-94416666D01*
X143426247Y-94416666D02*
X143378628Y-94464285D01*
X143378628Y-94464285D02*
X143283390Y-94511904D01*
X118689857Y-83385580D02*
X118737476Y-83433200D01*
X118737476Y-83433200D02*
X118880333Y-83480819D01*
X118880333Y-83480819D02*
X118975571Y-83480819D01*
X118975571Y-83480819D02*
X119118428Y-83433200D01*
X119118428Y-83433200D02*
X119213666Y-83337961D01*
X119213666Y-83337961D02*
X119261285Y-83242723D01*
X119261285Y-83242723D02*
X119308904Y-83052247D01*
X119308904Y-83052247D02*
X119308904Y-82909390D01*
X119308904Y-82909390D02*
X119261285Y-82718914D01*
X119261285Y-82718914D02*
X119213666Y-82623676D01*
X119213666Y-82623676D02*
X119118428Y-82528438D01*
X119118428Y-82528438D02*
X118975571Y-82480819D01*
X118975571Y-82480819D02*
X118880333Y-82480819D01*
X118880333Y-82480819D02*
X118737476Y-82528438D01*
X118737476Y-82528438D02*
X118689857Y-82576057D01*
X118308904Y-82576057D02*
X118261285Y-82528438D01*
X118261285Y-82528438D02*
X118166047Y-82480819D01*
X118166047Y-82480819D02*
X117927952Y-82480819D01*
X117927952Y-82480819D02*
X117832714Y-82528438D01*
X117832714Y-82528438D02*
X117785095Y-82576057D01*
X117785095Y-82576057D02*
X117737476Y-82671295D01*
X117737476Y-82671295D02*
X117737476Y-82766533D01*
X117737476Y-82766533D02*
X117785095Y-82909390D01*
X117785095Y-82909390D02*
X118356523Y-83480819D01*
X118356523Y-83480819D02*
X117737476Y-83480819D01*
X117356523Y-82576057D02*
X117308904Y-82528438D01*
X117308904Y-82528438D02*
X117213666Y-82480819D01*
X117213666Y-82480819D02*
X116975571Y-82480819D01*
X116975571Y-82480819D02*
X116880333Y-82528438D01*
X116880333Y-82528438D02*
X116832714Y-82576057D01*
X116832714Y-82576057D02*
X116785095Y-82671295D01*
X116785095Y-82671295D02*
X116785095Y-82766533D01*
X116785095Y-82766533D02*
X116832714Y-82909390D01*
X116832714Y-82909390D02*
X117404142Y-83480819D01*
X117404142Y-83480819D02*
X116785095Y-83480819D01*
X117786904Y-70779819D02*
X117786904Y-71589342D01*
X117786904Y-71589342D02*
X117739285Y-71684580D01*
X117739285Y-71684580D02*
X117691666Y-71732200D01*
X117691666Y-71732200D02*
X117596428Y-71779819D01*
X117596428Y-71779819D02*
X117405952Y-71779819D01*
X117405952Y-71779819D02*
X117310714Y-71732200D01*
X117310714Y-71732200D02*
X117263095Y-71684580D01*
X117263095Y-71684580D02*
X117215476Y-71589342D01*
X117215476Y-71589342D02*
X117215476Y-70779819D01*
X116310714Y-71113152D02*
X116310714Y-71779819D01*
X116548809Y-70732200D02*
X116786904Y-71446485D01*
X116786904Y-71446485D02*
X116167857Y-71446485D01*
X140246819Y-82879142D02*
X139770628Y-82545809D01*
X140246819Y-82307714D02*
X139246819Y-82307714D01*
X139246819Y-82307714D02*
X139246819Y-82688666D01*
X139246819Y-82688666D02*
X139294438Y-82783904D01*
X139294438Y-82783904D02*
X139342057Y-82831523D01*
X139342057Y-82831523D02*
X139437295Y-82879142D01*
X139437295Y-82879142D02*
X139580152Y-82879142D01*
X139580152Y-82879142D02*
X139675390Y-82831523D01*
X139675390Y-82831523D02*
X139723009Y-82783904D01*
X139723009Y-82783904D02*
X139770628Y-82688666D01*
X139770628Y-82688666D02*
X139770628Y-82307714D01*
X139342057Y-83260095D02*
X139294438Y-83307714D01*
X139294438Y-83307714D02*
X139246819Y-83402952D01*
X139246819Y-83402952D02*
X139246819Y-83641047D01*
X139246819Y-83641047D02*
X139294438Y-83736285D01*
X139294438Y-83736285D02*
X139342057Y-83783904D01*
X139342057Y-83783904D02*
X139437295Y-83831523D01*
X139437295Y-83831523D02*
X139532533Y-83831523D01*
X139532533Y-83831523D02*
X139675390Y-83783904D01*
X139675390Y-83783904D02*
X140246819Y-83212476D01*
X140246819Y-83212476D02*
X140246819Y-83831523D01*
X139580152Y-84688666D02*
X140246819Y-84688666D01*
X139199200Y-84450571D02*
X139913485Y-84212476D01*
X139913485Y-84212476D02*
X139913485Y-84831523D01*
X123256819Y-78757142D02*
X122780628Y-78423809D01*
X123256819Y-78185714D02*
X122256819Y-78185714D01*
X122256819Y-78185714D02*
X122256819Y-78566666D01*
X122256819Y-78566666D02*
X122304438Y-78661904D01*
X122304438Y-78661904D02*
X122352057Y-78709523D01*
X122352057Y-78709523D02*
X122447295Y-78757142D01*
X122447295Y-78757142D02*
X122590152Y-78757142D01*
X122590152Y-78757142D02*
X122685390Y-78709523D01*
X122685390Y-78709523D02*
X122733009Y-78661904D01*
X122733009Y-78661904D02*
X122780628Y-78566666D01*
X122780628Y-78566666D02*
X122780628Y-78185714D01*
X123256819Y-79709523D02*
X123256819Y-79138095D01*
X123256819Y-79423809D02*
X122256819Y-79423809D01*
X122256819Y-79423809D02*
X122399676Y-79328571D01*
X122399676Y-79328571D02*
X122494914Y-79233333D01*
X122494914Y-79233333D02*
X122542533Y-79138095D01*
X122256819Y-80614285D02*
X122256819Y-80138095D01*
X122256819Y-80138095D02*
X122733009Y-80090476D01*
X122733009Y-80090476D02*
X122685390Y-80138095D01*
X122685390Y-80138095D02*
X122637771Y-80233333D01*
X122637771Y-80233333D02*
X122637771Y-80471428D01*
X122637771Y-80471428D02*
X122685390Y-80566666D01*
X122685390Y-80566666D02*
X122733009Y-80614285D01*
X122733009Y-80614285D02*
X122828247Y-80661904D01*
X122828247Y-80661904D02*
X123066342Y-80661904D01*
X123066342Y-80661904D02*
X123161580Y-80614285D01*
X123161580Y-80614285D02*
X123209200Y-80566666D01*
X123209200Y-80566666D02*
X123256819Y-80471428D01*
X123256819Y-80471428D02*
X123256819Y-80233333D01*
X123256819Y-80233333D02*
X123209200Y-80138095D01*
X123209200Y-80138095D02*
X123161580Y-80090476D01*
X116702857Y-75493580D02*
X116750476Y-75541200D01*
X116750476Y-75541200D02*
X116893333Y-75588819D01*
X116893333Y-75588819D02*
X116988571Y-75588819D01*
X116988571Y-75588819D02*
X117131428Y-75541200D01*
X117131428Y-75541200D02*
X117226666Y-75445961D01*
X117226666Y-75445961D02*
X117274285Y-75350723D01*
X117274285Y-75350723D02*
X117321904Y-75160247D01*
X117321904Y-75160247D02*
X117321904Y-75017390D01*
X117321904Y-75017390D02*
X117274285Y-74826914D01*
X117274285Y-74826914D02*
X117226666Y-74731676D01*
X117226666Y-74731676D02*
X117131428Y-74636438D01*
X117131428Y-74636438D02*
X116988571Y-74588819D01*
X116988571Y-74588819D02*
X116893333Y-74588819D01*
X116893333Y-74588819D02*
X116750476Y-74636438D01*
X116750476Y-74636438D02*
X116702857Y-74684057D01*
X116321904Y-74684057D02*
X116274285Y-74636438D01*
X116274285Y-74636438D02*
X116179047Y-74588819D01*
X116179047Y-74588819D02*
X115940952Y-74588819D01*
X115940952Y-74588819D02*
X115845714Y-74636438D01*
X115845714Y-74636438D02*
X115798095Y-74684057D01*
X115798095Y-74684057D02*
X115750476Y-74779295D01*
X115750476Y-74779295D02*
X115750476Y-74874533D01*
X115750476Y-74874533D02*
X115798095Y-75017390D01*
X115798095Y-75017390D02*
X116369523Y-75588819D01*
X116369523Y-75588819D02*
X115750476Y-75588819D01*
X114798095Y-75588819D02*
X115369523Y-75588819D01*
X115083809Y-75588819D02*
X115083809Y-74588819D01*
X115083809Y-74588819D02*
X115179047Y-74731676D01*
X115179047Y-74731676D02*
X115274285Y-74826914D01*
X115274285Y-74826914D02*
X115369523Y-74874533D01*
X129000357Y-91969580D02*
X129047976Y-92017200D01*
X129047976Y-92017200D02*
X129190833Y-92064819D01*
X129190833Y-92064819D02*
X129286071Y-92064819D01*
X129286071Y-92064819D02*
X129428928Y-92017200D01*
X129428928Y-92017200D02*
X129524166Y-91921961D01*
X129524166Y-91921961D02*
X129571785Y-91826723D01*
X129571785Y-91826723D02*
X129619404Y-91636247D01*
X129619404Y-91636247D02*
X129619404Y-91493390D01*
X129619404Y-91493390D02*
X129571785Y-91302914D01*
X129571785Y-91302914D02*
X129524166Y-91207676D01*
X129524166Y-91207676D02*
X129428928Y-91112438D01*
X129428928Y-91112438D02*
X129286071Y-91064819D01*
X129286071Y-91064819D02*
X129190833Y-91064819D01*
X129190833Y-91064819D02*
X129047976Y-91112438D01*
X129047976Y-91112438D02*
X129000357Y-91160057D01*
X128047976Y-92064819D02*
X128619404Y-92064819D01*
X128333690Y-92064819D02*
X128333690Y-91064819D01*
X128333690Y-91064819D02*
X128428928Y-91207676D01*
X128428928Y-91207676D02*
X128524166Y-91302914D01*
X128524166Y-91302914D02*
X128619404Y-91350533D01*
X127095595Y-92064819D02*
X127667023Y-92064819D01*
X127381309Y-92064819D02*
X127381309Y-91064819D01*
X127381309Y-91064819D02*
X127476547Y-91207676D01*
X127476547Y-91207676D02*
X127571785Y-91302914D01*
X127571785Y-91302914D02*
X127667023Y-91350533D01*
D11*
X150299318Y-86885237D02*
X149029318Y-86885237D01*
X150178365Y-88215714D02*
X150238842Y-88155238D01*
X150238842Y-88155238D02*
X150299318Y-87973809D01*
X150299318Y-87973809D02*
X150299318Y-87852857D01*
X150299318Y-87852857D02*
X150238842Y-87671428D01*
X150238842Y-87671428D02*
X150117889Y-87550476D01*
X150117889Y-87550476D02*
X149996937Y-87489999D01*
X149996937Y-87489999D02*
X149755032Y-87429523D01*
X149755032Y-87429523D02*
X149573603Y-87429523D01*
X149573603Y-87429523D02*
X149331699Y-87489999D01*
X149331699Y-87489999D02*
X149210746Y-87550476D01*
X149210746Y-87550476D02*
X149089794Y-87671428D01*
X149089794Y-87671428D02*
X149029318Y-87852857D01*
X149029318Y-87852857D02*
X149029318Y-87973809D01*
X149029318Y-87973809D02*
X149089794Y-88155238D01*
X149089794Y-88155238D02*
X149150270Y-88215714D01*
X149029318Y-88639047D02*
X149029318Y-89485714D01*
X149029318Y-89485714D02*
X150299318Y-88941428D01*
D10*
X119391666Y-69784580D02*
X119439285Y-69832200D01*
X119439285Y-69832200D02*
X119582142Y-69879819D01*
X119582142Y-69879819D02*
X119677380Y-69879819D01*
X119677380Y-69879819D02*
X119820237Y-69832200D01*
X119820237Y-69832200D02*
X119915475Y-69736961D01*
X119915475Y-69736961D02*
X119963094Y-69641723D01*
X119963094Y-69641723D02*
X120010713Y-69451247D01*
X120010713Y-69451247D02*
X120010713Y-69308390D01*
X120010713Y-69308390D02*
X119963094Y-69117914D01*
X119963094Y-69117914D02*
X119915475Y-69022676D01*
X119915475Y-69022676D02*
X119820237Y-68927438D01*
X119820237Y-68927438D02*
X119677380Y-68879819D01*
X119677380Y-68879819D02*
X119582142Y-68879819D01*
X119582142Y-68879819D02*
X119439285Y-68927438D01*
X119439285Y-68927438D02*
X119391666Y-68975057D01*
X118915475Y-69879819D02*
X118724999Y-69879819D01*
X118724999Y-69879819D02*
X118629761Y-69832200D01*
X118629761Y-69832200D02*
X118582142Y-69784580D01*
X118582142Y-69784580D02*
X118486904Y-69641723D01*
X118486904Y-69641723D02*
X118439285Y-69451247D01*
X118439285Y-69451247D02*
X118439285Y-69070295D01*
X118439285Y-69070295D02*
X118486904Y-68975057D01*
X118486904Y-68975057D02*
X118534523Y-68927438D01*
X118534523Y-68927438D02*
X118629761Y-68879819D01*
X118629761Y-68879819D02*
X118820237Y-68879819D01*
X118820237Y-68879819D02*
X118915475Y-68927438D01*
X118915475Y-68927438D02*
X118963094Y-68975057D01*
X118963094Y-68975057D02*
X119010713Y-69070295D01*
X119010713Y-69070295D02*
X119010713Y-69308390D01*
X119010713Y-69308390D02*
X118963094Y-69403628D01*
X118963094Y-69403628D02*
X118915475Y-69451247D01*
X118915475Y-69451247D02*
X118820237Y-69498866D01*
X118820237Y-69498866D02*
X118629761Y-69498866D01*
X118629761Y-69498866D02*
X118534523Y-69451247D01*
X118534523Y-69451247D02*
X118486904Y-69403628D01*
X118486904Y-69403628D02*
X118439285Y-69308390D01*
X156044580Y-107632142D02*
X156092200Y-107584523D01*
X156092200Y-107584523D02*
X156139819Y-107441666D01*
X156139819Y-107441666D02*
X156139819Y-107346428D01*
X156139819Y-107346428D02*
X156092200Y-107203571D01*
X156092200Y-107203571D02*
X155996961Y-107108333D01*
X155996961Y-107108333D02*
X155901723Y-107060714D01*
X155901723Y-107060714D02*
X155711247Y-107013095D01*
X155711247Y-107013095D02*
X155568390Y-107013095D01*
X155568390Y-107013095D02*
X155377914Y-107060714D01*
X155377914Y-107060714D02*
X155282676Y-107108333D01*
X155282676Y-107108333D02*
X155187438Y-107203571D01*
X155187438Y-107203571D02*
X155139819Y-107346428D01*
X155139819Y-107346428D02*
X155139819Y-107441666D01*
X155139819Y-107441666D02*
X155187438Y-107584523D01*
X155187438Y-107584523D02*
X155235057Y-107632142D01*
X156139819Y-108584523D02*
X156139819Y-108013095D01*
X156139819Y-108298809D02*
X155139819Y-108298809D01*
X155139819Y-108298809D02*
X155282676Y-108203571D01*
X155282676Y-108203571D02*
X155377914Y-108108333D01*
X155377914Y-108108333D02*
X155425533Y-108013095D01*
X155568390Y-109155952D02*
X155520771Y-109060714D01*
X155520771Y-109060714D02*
X155473152Y-109013095D01*
X155473152Y-109013095D02*
X155377914Y-108965476D01*
X155377914Y-108965476D02*
X155330295Y-108965476D01*
X155330295Y-108965476D02*
X155235057Y-109013095D01*
X155235057Y-109013095D02*
X155187438Y-109060714D01*
X155187438Y-109060714D02*
X155139819Y-109155952D01*
X155139819Y-109155952D02*
X155139819Y-109346428D01*
X155139819Y-109346428D02*
X155187438Y-109441666D01*
X155187438Y-109441666D02*
X155235057Y-109489285D01*
X155235057Y-109489285D02*
X155330295Y-109536904D01*
X155330295Y-109536904D02*
X155377914Y-109536904D01*
X155377914Y-109536904D02*
X155473152Y-109489285D01*
X155473152Y-109489285D02*
X155520771Y-109441666D01*
X155520771Y-109441666D02*
X155568390Y-109346428D01*
X155568390Y-109346428D02*
X155568390Y-109155952D01*
X155568390Y-109155952D02*
X155616009Y-109060714D01*
X155616009Y-109060714D02*
X155663628Y-109013095D01*
X155663628Y-109013095D02*
X155758866Y-108965476D01*
X155758866Y-108965476D02*
X155949342Y-108965476D01*
X155949342Y-108965476D02*
X156044580Y-109013095D01*
X156044580Y-109013095D02*
X156092200Y-109060714D01*
X156092200Y-109060714D02*
X156139819Y-109155952D01*
X156139819Y-109155952D02*
X156139819Y-109346428D01*
X156139819Y-109346428D02*
X156092200Y-109441666D01*
X156092200Y-109441666D02*
X156044580Y-109489285D01*
X156044580Y-109489285D02*
X155949342Y-109536904D01*
X155949342Y-109536904D02*
X155758866Y-109536904D01*
X155758866Y-109536904D02*
X155663628Y-109489285D01*
X155663628Y-109489285D02*
X155616009Y-109441666D01*
X155616009Y-109441666D02*
X155568390Y-109346428D01*
X137836819Y-82890142D02*
X137360628Y-82556809D01*
X137836819Y-82318714D02*
X136836819Y-82318714D01*
X136836819Y-82318714D02*
X136836819Y-82699666D01*
X136836819Y-82699666D02*
X136884438Y-82794904D01*
X136884438Y-82794904D02*
X136932057Y-82842523D01*
X136932057Y-82842523D02*
X137027295Y-82890142D01*
X137027295Y-82890142D02*
X137170152Y-82890142D01*
X137170152Y-82890142D02*
X137265390Y-82842523D01*
X137265390Y-82842523D02*
X137313009Y-82794904D01*
X137313009Y-82794904D02*
X137360628Y-82699666D01*
X137360628Y-82699666D02*
X137360628Y-82318714D01*
X136932057Y-83271095D02*
X136884438Y-83318714D01*
X136884438Y-83318714D02*
X136836819Y-83413952D01*
X136836819Y-83413952D02*
X136836819Y-83652047D01*
X136836819Y-83652047D02*
X136884438Y-83747285D01*
X136884438Y-83747285D02*
X136932057Y-83794904D01*
X136932057Y-83794904D02*
X137027295Y-83842523D01*
X137027295Y-83842523D02*
X137122533Y-83842523D01*
X137122533Y-83842523D02*
X137265390Y-83794904D01*
X137265390Y-83794904D02*
X137836819Y-83223476D01*
X137836819Y-83223476D02*
X137836819Y-83842523D01*
X136836819Y-84175857D02*
X136836819Y-84794904D01*
X136836819Y-84794904D02*
X137217771Y-84461571D01*
X137217771Y-84461571D02*
X137217771Y-84604428D01*
X137217771Y-84604428D02*
X137265390Y-84699666D01*
X137265390Y-84699666D02*
X137313009Y-84747285D01*
X137313009Y-84747285D02*
X137408247Y-84794904D01*
X137408247Y-84794904D02*
X137646342Y-84794904D01*
X137646342Y-84794904D02*
X137741580Y-84747285D01*
X137741580Y-84747285D02*
X137789200Y-84699666D01*
X137789200Y-84699666D02*
X137836819Y-84604428D01*
X137836819Y-84604428D02*
X137836819Y-84318714D01*
X137836819Y-84318714D02*
X137789200Y-84223476D01*
X137789200Y-84223476D02*
X137741580Y-84175857D01*
X128867857Y-107934580D02*
X128915476Y-107982200D01*
X128915476Y-107982200D02*
X129058333Y-108029819D01*
X129058333Y-108029819D02*
X129153571Y-108029819D01*
X129153571Y-108029819D02*
X129296428Y-107982200D01*
X129296428Y-107982200D02*
X129391666Y-107886961D01*
X129391666Y-107886961D02*
X129439285Y-107791723D01*
X129439285Y-107791723D02*
X129486904Y-107601247D01*
X129486904Y-107601247D02*
X129486904Y-107458390D01*
X129486904Y-107458390D02*
X129439285Y-107267914D01*
X129439285Y-107267914D02*
X129391666Y-107172676D01*
X129391666Y-107172676D02*
X129296428Y-107077438D01*
X129296428Y-107077438D02*
X129153571Y-107029819D01*
X129153571Y-107029819D02*
X129058333Y-107029819D01*
X129058333Y-107029819D02*
X128915476Y-107077438D01*
X128915476Y-107077438D02*
X128867857Y-107125057D01*
X127915476Y-108029819D02*
X128486904Y-108029819D01*
X128201190Y-108029819D02*
X128201190Y-107029819D01*
X128201190Y-107029819D02*
X128296428Y-107172676D01*
X128296428Y-107172676D02*
X128391666Y-107267914D01*
X128391666Y-107267914D02*
X128486904Y-107315533D01*
X127534523Y-107125057D02*
X127486904Y-107077438D01*
X127486904Y-107077438D02*
X127391666Y-107029819D01*
X127391666Y-107029819D02*
X127153571Y-107029819D01*
X127153571Y-107029819D02*
X127058333Y-107077438D01*
X127058333Y-107077438D02*
X127010714Y-107125057D01*
X127010714Y-107125057D02*
X126963095Y-107220295D01*
X126963095Y-107220295D02*
X126963095Y-107315533D01*
X126963095Y-107315533D02*
X127010714Y-107458390D01*
X127010714Y-107458390D02*
X127582142Y-108029819D01*
X127582142Y-108029819D02*
X126963095Y-108029819D01*
D11*
X150539762Y-104974318D02*
X150539762Y-103704318D01*
X149209285Y-104853365D02*
X149269761Y-104913842D01*
X149269761Y-104913842D02*
X149451190Y-104974318D01*
X149451190Y-104974318D02*
X149572142Y-104974318D01*
X149572142Y-104974318D02*
X149753571Y-104913842D01*
X149753571Y-104913842D02*
X149874523Y-104792889D01*
X149874523Y-104792889D02*
X149935000Y-104671937D01*
X149935000Y-104671937D02*
X149995476Y-104430032D01*
X149995476Y-104430032D02*
X149995476Y-104248603D01*
X149995476Y-104248603D02*
X149935000Y-104006699D01*
X149935000Y-104006699D02*
X149874523Y-103885746D01*
X149874523Y-103885746D02*
X149753571Y-103764794D01*
X149753571Y-103764794D02*
X149572142Y-103704318D01*
X149572142Y-103704318D02*
X149451190Y-103704318D01*
X149451190Y-103704318D02*
X149269761Y-103764794D01*
X149269761Y-103764794D02*
X149209285Y-103825270D01*
X148483571Y-104248603D02*
X148604523Y-104188127D01*
X148604523Y-104188127D02*
X148665000Y-104127651D01*
X148665000Y-104127651D02*
X148725476Y-104006699D01*
X148725476Y-104006699D02*
X148725476Y-103946222D01*
X148725476Y-103946222D02*
X148665000Y-103825270D01*
X148665000Y-103825270D02*
X148604523Y-103764794D01*
X148604523Y-103764794D02*
X148483571Y-103704318D01*
X148483571Y-103704318D02*
X148241666Y-103704318D01*
X148241666Y-103704318D02*
X148120714Y-103764794D01*
X148120714Y-103764794D02*
X148060238Y-103825270D01*
X148060238Y-103825270D02*
X147999761Y-103946222D01*
X147999761Y-103946222D02*
X147999761Y-104006699D01*
X147999761Y-104006699D02*
X148060238Y-104127651D01*
X148060238Y-104127651D02*
X148120714Y-104188127D01*
X148120714Y-104188127D02*
X148241666Y-104248603D01*
X148241666Y-104248603D02*
X148483571Y-104248603D01*
X148483571Y-104248603D02*
X148604523Y-104309080D01*
X148604523Y-104309080D02*
X148665000Y-104369556D01*
X148665000Y-104369556D02*
X148725476Y-104490508D01*
X148725476Y-104490508D02*
X148725476Y-104732413D01*
X148725476Y-104732413D02*
X148665000Y-104853365D01*
X148665000Y-104853365D02*
X148604523Y-104913842D01*
X148604523Y-104913842D02*
X148483571Y-104974318D01*
X148483571Y-104974318D02*
X148241666Y-104974318D01*
X148241666Y-104974318D02*
X148120714Y-104913842D01*
X148120714Y-104913842D02*
X148060238Y-104853365D01*
X148060238Y-104853365D02*
X147999761Y-104732413D01*
X147999761Y-104732413D02*
X147999761Y-104490508D01*
X147999761Y-104490508D02*
X148060238Y-104369556D01*
X148060238Y-104369556D02*
X148120714Y-104309080D01*
X148120714Y-104309080D02*
X148241666Y-104248603D01*
X116525318Y-81167237D02*
X115255318Y-81167237D01*
X116404365Y-82497714D02*
X116464842Y-82437238D01*
X116464842Y-82437238D02*
X116525318Y-82255809D01*
X116525318Y-82255809D02*
X116525318Y-82134857D01*
X116525318Y-82134857D02*
X116464842Y-81953428D01*
X116464842Y-81953428D02*
X116343889Y-81832476D01*
X116343889Y-81832476D02*
X116222937Y-81771999D01*
X116222937Y-81771999D02*
X115981032Y-81711523D01*
X115981032Y-81711523D02*
X115799603Y-81711523D01*
X115799603Y-81711523D02*
X115557699Y-81771999D01*
X115557699Y-81771999D02*
X115436746Y-81832476D01*
X115436746Y-81832476D02*
X115315794Y-81953428D01*
X115315794Y-81953428D02*
X115255318Y-82134857D01*
X115255318Y-82134857D02*
X115255318Y-82255809D01*
X115255318Y-82255809D02*
X115315794Y-82437238D01*
X115315794Y-82437238D02*
X115376270Y-82497714D01*
X116525318Y-83707238D02*
X116525318Y-82981523D01*
X116525318Y-83344380D02*
X115255318Y-83344380D01*
X115255318Y-83344380D02*
X115436746Y-83223428D01*
X115436746Y-83223428D02*
X115557699Y-83102476D01*
X115557699Y-83102476D02*
X115618175Y-82981523D01*
D10*
X116691857Y-76893580D02*
X116739476Y-76941200D01*
X116739476Y-76941200D02*
X116882333Y-76988819D01*
X116882333Y-76988819D02*
X116977571Y-76988819D01*
X116977571Y-76988819D02*
X117120428Y-76941200D01*
X117120428Y-76941200D02*
X117215666Y-76845961D01*
X117215666Y-76845961D02*
X117263285Y-76750723D01*
X117263285Y-76750723D02*
X117310904Y-76560247D01*
X117310904Y-76560247D02*
X117310904Y-76417390D01*
X117310904Y-76417390D02*
X117263285Y-76226914D01*
X117263285Y-76226914D02*
X117215666Y-76131676D01*
X117215666Y-76131676D02*
X117120428Y-76036438D01*
X117120428Y-76036438D02*
X116977571Y-75988819D01*
X116977571Y-75988819D02*
X116882333Y-75988819D01*
X116882333Y-75988819D02*
X116739476Y-76036438D01*
X116739476Y-76036438D02*
X116691857Y-76084057D01*
X116310904Y-76084057D02*
X116263285Y-76036438D01*
X116263285Y-76036438D02*
X116168047Y-75988819D01*
X116168047Y-75988819D02*
X115929952Y-75988819D01*
X115929952Y-75988819D02*
X115834714Y-76036438D01*
X115834714Y-76036438D02*
X115787095Y-76084057D01*
X115787095Y-76084057D02*
X115739476Y-76179295D01*
X115739476Y-76179295D02*
X115739476Y-76274533D01*
X115739476Y-76274533D02*
X115787095Y-76417390D01*
X115787095Y-76417390D02*
X116358523Y-76988819D01*
X116358523Y-76988819D02*
X115739476Y-76988819D01*
X115120428Y-75988819D02*
X115025190Y-75988819D01*
X115025190Y-75988819D02*
X114929952Y-76036438D01*
X114929952Y-76036438D02*
X114882333Y-76084057D01*
X114882333Y-76084057D02*
X114834714Y-76179295D01*
X114834714Y-76179295D02*
X114787095Y-76369771D01*
X114787095Y-76369771D02*
X114787095Y-76607866D01*
X114787095Y-76607866D02*
X114834714Y-76798342D01*
X114834714Y-76798342D02*
X114882333Y-76893580D01*
X114882333Y-76893580D02*
X114929952Y-76941200D01*
X114929952Y-76941200D02*
X115025190Y-76988819D01*
X115025190Y-76988819D02*
X115120428Y-76988819D01*
X115120428Y-76988819D02*
X115215666Y-76941200D01*
X115215666Y-76941200D02*
X115263285Y-76893580D01*
X115263285Y-76893580D02*
X115310904Y-76798342D01*
X115310904Y-76798342D02*
X115358523Y-76607866D01*
X115358523Y-76607866D02*
X115358523Y-76369771D01*
X115358523Y-76369771D02*
X115310904Y-76179295D01*
X115310904Y-76179295D02*
X115263285Y-76084057D01*
X115263285Y-76084057D02*
X115215666Y-76036438D01*
X115215666Y-76036438D02*
X115120428Y-75988819D01*
D12*
%TO.C,C10*%
X119159165Y-72915000D02*
X119390835Y-72915000D01*
X119159165Y-73635000D02*
X119390835Y-73635000D01*
%TO.C,C23*%
X115260361Y-79244787D02*
X115260361Y-78722283D01*
X116730361Y-79244787D02*
X116730361Y-78722283D01*
%TO.C,C19*%
X142966000Y-90814835D02*
X142966000Y-90583165D01*
X143686000Y-90814835D02*
X143686000Y-90583165D01*
%TO.C,C22*%
X118348335Y-81440000D02*
X118116665Y-81440000D01*
X118348335Y-82160000D02*
X118116665Y-82160000D01*
D10*
%TO.C,U4*%
X118374999Y-72450000D02*
X118374999Y-71400000D01*
X120175001Y-72450000D02*
X120175001Y-71400000D01*
D13*
X119725002Y-73149999D02*
G75*
G02*
X119475000Y-73149999I-125001J0D01*
G01*
X119475000Y-73149999D02*
G75*
G02*
X119725002Y-73149999I125001J0D01*
G01*
D12*
%TO.C,R24*%
X139277500Y-80007776D02*
X139277500Y-80517224D01*
X140322500Y-80007776D02*
X140322500Y-80517224D01*
%TO.C,R15*%
X120727500Y-79095276D02*
X120727500Y-79604724D01*
X121772500Y-79095276D02*
X121772500Y-79604724D01*
%TO.C,C21*%
X119063748Y-74415000D02*
X119586252Y-74415000D01*
X119063748Y-75885000D02*
X119586252Y-75885000D01*
%TO.C,C17*%
X119490000Y-82533335D02*
X119490000Y-82301665D01*
X120210000Y-82533335D02*
X120210000Y-82301665D01*
%TO.C,C11*%
X128241665Y-90090000D02*
X128473335Y-90090000D01*
X128241665Y-90810000D02*
X128473335Y-90810000D01*
D14*
%TO.C,IC7*%
X144580000Y-83650000D02*
X144580000Y-85475000D01*
X144625000Y-85825000D02*
X144625000Y-90425000D01*
X144625000Y-90425000D02*
X154825000Y-90425000D01*
X154825000Y-85825000D02*
X144625000Y-85825000D01*
X154825000Y-90425000D02*
X154825000Y-85825000D01*
D12*
%TO.C,C9*%
X119159165Y-70090000D02*
X119390835Y-70090000D01*
X119159165Y-70810000D02*
X119390835Y-70810000D01*
%TO.C,C18*%
X154165000Y-108390835D02*
X154165000Y-108159165D01*
X154885000Y-108390835D02*
X154885000Y-108159165D01*
%TO.C,R23*%
X136727500Y-80007776D02*
X136727500Y-80517224D01*
X137772500Y-80007776D02*
X137772500Y-80517224D01*
%TO.C,C12*%
X128084165Y-105990000D02*
X128315835Y-105990000D01*
X128084165Y-106710000D02*
X128315835Y-106710000D01*
D14*
%TO.C,IC8*%
X144825000Y-109545000D02*
X146650000Y-109545000D01*
X147000000Y-99300000D02*
X147000000Y-109500000D01*
X147000000Y-109500000D02*
X151600000Y-109500000D01*
X151600000Y-99300000D02*
X147000000Y-99300000D01*
X151600000Y-109500000D02*
X151600000Y-99300000D01*
%TO.C,IC1*%
X117150000Y-77350000D02*
X117150000Y-78550000D01*
X117300000Y-78900000D02*
X117300000Y-79500000D01*
X117300000Y-79500000D02*
X120200000Y-79500000D01*
X120200000Y-78900000D02*
X117300000Y-78900000D01*
X120200000Y-79500000D02*
X120200000Y-78900000D01*
D12*
%TO.C,C20*%
X119234165Y-76240000D02*
X119465835Y-76240000D01*
X119234165Y-76960000D02*
X119465835Y-76960000D01*
%TD*%
M02*
