%TF.GenerationSoftware,KiCad,Pcbnew,9.0.7*%
%TF.CreationDate,2026-04-04T22:02:39+09:00*%
%TF.ProjectId,MAPS-010143,4d415053-2d30-4313-9031-34332e6b6963,rev?*%
%TF.SameCoordinates,Original*%
%TF.FileFunction,Copper,L3,Inr*%
%TF.FilePolarity,Positive*%
%FSLAX46Y46*%
G04 Gerber Fmt 4.6, Leading zero omitted, Abs format (unit mm)*
G04 Created by KiCad (PCBNEW 9.0.7) date 2026-04-04 22:02:39*
%MOMM*%
%LPD*%
G01*
G04 APERTURE LIST*
G04 Aperture macros list*
%AMOutline5P*
0 Free polygon, 5 corners , with rotation*
0 The origin of the aperture is its center*
0 number of corners: always 5*
0 $1 to $10 corner X, Y*
0 $11 Rotation angle, in degrees counterclockwise*
0 create outline with 5 corners*
4,1,5,$1,$2,$3,$4,$5,$6,$7,$8,$9,$10,$1,$2,$11*%
%AMOutline6P*
0 Free polygon, 6 corners , with rotation*
0 The origin of the aperture is its center*
0 number of corners: always 6*
0 $1 to $12 corner X, Y*
0 $13 Rotation angle, in degrees counterclockwise*
0 create outline with 6 corners*
4,1,6,$1,$2,$3,$4,$5,$6,$7,$8,$9,$10,$11,$12,$1,$2,$13*%
%AMOutline7P*
0 Free polygon, 7 corners , with rotation*
0 The origin of the aperture is its center*
0 number of corners: always 7*
0 $1 to $14 corner X, Y*
0 $15 Rotation angle, in degrees counterclockwise*
0 create outline with 7 corners*
4,1,7,$1,$2,$3,$4,$5,$6,$7,$8,$9,$10,$11,$12,$13,$14,$1,$2,$15*%
%AMOutline8P*
0 Free polygon, 8 corners , with rotation*
0 The origin of the aperture is its center*
0 number of corners: always 8*
0 $1 to $16 corner X, Y*
0 $17 Rotation angle, in degrees counterclockwise*
0 create outline with 8 corners*
4,1,8,$1,$2,$3,$4,$5,$6,$7,$8,$9,$10,$11,$12,$13,$14,$15,$16,$1,$2,$17*%
G04 Aperture macros list end*
%TA.AperFunction,ComponentPad*%
%ADD10R,1.700000X1.700000*%
%TD*%
%TA.AperFunction,ComponentPad*%
%ADD11C,1.700000*%
%TD*%
%TA.AperFunction,ComponentPad*%
%ADD12O,2.600000X1.500000*%
%TD*%
%TA.AperFunction,ComponentPad*%
%ADD13O,1.500000X2.600000*%
%TD*%
%TA.AperFunction,ComponentPad*%
%ADD14Outline8P,-1.300000X0.450000X-1.000000X0.750000X1.000000X0.750000X1.300000X0.450000X1.300000X-0.450000X1.000000X-0.750000X-1.000000X-0.750000X-1.300000X-0.450000X0.000000*%
%TD*%
%TA.AperFunction,ComponentPad*%
%ADD15R,2.600000X1.500000*%
%TD*%
%TA.AperFunction,ViaPad*%
%ADD16C,0.600000*%
%TD*%
%TA.AperFunction,Conductor*%
%ADD17C,1.000000*%
%TD*%
%TA.AperFunction,Conductor*%
%ADD18C,0.181610*%
%TD*%
G04 APERTURE END LIST*
D10*
%TO.N,Net-(IC6-VSS{slash}GND)*%
%TO.C,J13*%
X152675000Y-121400000D03*
D11*
%TO.N,GND*%
X150135000Y-121400000D03*
%TD*%
D10*
%TO.N,+5V*%
%TO.C,J15*%
X151875000Y-56255000D03*
D11*
%TO.N,UART_TX*%
X151875000Y-58795000D03*
%TO.N,UART_RX*%
X151875000Y-61335000D03*
%TO.N,GND*%
X151875000Y-63875000D03*
%TD*%
D10*
%TO.N,Net-(IC2-VSS{slash}GND)*%
%TO.C,J2*%
X157925000Y-87825000D03*
D11*
%TO.N,GND*%
X157925000Y-85285000D03*
%TD*%
D12*
%TO.N,UART_TX*%
%TO.C,U3*%
X142895000Y-55915000D03*
%TO.N,UART_RX*%
X142895000Y-58455000D03*
%TO.N,Net-(R19-Pad2)*%
X142895000Y-60995000D03*
%TO.N,Net-(R20-Pad2)*%
X142895000Y-63535000D03*
%TO.N,Net-(R21-Pad2)*%
X142895000Y-66075000D03*
%TO.N,Net-(R8-Pad2)*%
X142895000Y-68615000D03*
%TO.N,unconnected-(U3-Pad6)*%
X142895000Y-71155000D03*
%TO.N,unconnected-(U3-Pad7)*%
X142895000Y-73695000D03*
%TO.N,ch1_SRCLR*%
X142895000Y-76235000D03*
D13*
%TO.N,Net-(R24-Pad1)*%
X139805000Y-76785000D03*
%TO.N,Net-(R23-Pad1)*%
X137265000Y-76785000D03*
%TO.N,Net-(R22-Pad1)*%
X134725000Y-76785000D03*
%TO.N,unconnected-(U3-Pad12)*%
X132185000Y-76785000D03*
%TO.N,unconnected-(U3-Pad13)*%
X129645000Y-76785000D03*
D12*
%TO.N,ch1_LNA_ON*%
X126555000Y-76235000D03*
%TO.N,ch2_LNA_ON*%
X126555000Y-73695000D03*
%TO.N,LDO_ENABLE*%
X126555000Y-71155000D03*
%TO.N,unconnected-(U3-Pad27)*%
X126555000Y-68615000D03*
%TO.N,unconnected-(U3-Pad28)*%
X126555000Y-66075000D03*
%TO.N,unconnected-(U3-Pad29)*%
X126555000Y-63535000D03*
D14*
%TO.N,unconnected-(U3-3V3-Pad30)*%
X126555000Y-60995000D03*
D15*
%TO.N,GND*%
X126555000Y-58455000D03*
D14*
%TO.N,+5V*%
X126555000Y-55915000D03*
%TD*%
D16*
%TO.N,GND*%
X123450000Y-74950000D03*
X123525000Y-73050000D03*
X123700000Y-70525000D03*
X112475000Y-65325000D03*
X113725000Y-65000000D03*
X113650000Y-61575000D03*
X115225000Y-61500000D03*
X116800000Y-61400000D03*
X116850000Y-64900000D03*
X113750000Y-73225000D03*
X113725000Y-69150000D03*
X115425000Y-73775000D03*
X115400000Y-72675000D03*
X116200000Y-73575000D03*
X116250000Y-72775000D03*
X112500000Y-67675000D03*
X112575000Y-70225000D03*
X112525000Y-72475000D03*
X112550000Y-74700000D03*
X112450000Y-77325000D03*
X112475000Y-79975000D03*
X112475000Y-88300000D03*
X112550000Y-85950000D03*
X112475000Y-82850000D03*
X112475000Y-115150000D03*
X112425000Y-113025000D03*
X112475000Y-109175000D03*
X112475000Y-104600000D03*
X112475000Y-102650000D03*
X122675000Y-87275000D03*
X130800000Y-89175000D03*
%TO.N,ch1_ATT_C1*%
X148723096Y-88521565D03*
%TO.N,ch1_ATT_LE*%
X146100000Y-88750000D03*
X147200000Y-97705002D03*
X147225000Y-112875000D03*
%TO.N,ch1_ATT_C2*%
X149473086Y-88525845D03*
%TO.N,ch1_ATT_C4*%
X150325000Y-88525000D03*
%TO.N,ch1_ATT_C0.5*%
X147975000Y-88575000D03*
%TO.N,ch1_ATT_C8*%
X151125000Y-88525000D03*
%TO.N,Net-(IC2-VSS{slash}GND)*%
X152725000Y-97575000D03*
%TO.N,ch1_LNA_ON*%
X128700000Y-94225000D03*
X128850000Y-92375000D03*
X125625000Y-83250000D03*
%TO.N,ch2_LNA_ON*%
X122100000Y-83300000D03*
X128390805Y-109000000D03*
%TO.N,+5V*%
X119775000Y-66775000D03*
X123700000Y-55900000D03*
X121125000Y-61925000D03*
X122325000Y-55925000D03*
X119825000Y-60050000D03*
X119975000Y-56225000D03*
X121125000Y-60225000D03*
X121100000Y-64950000D03*
X121750000Y-69600000D03*
X119825000Y-61750000D03*
X121175000Y-55950000D03*
X119900000Y-67850000D03*
X119800000Y-64775000D03*
X121050000Y-68550000D03*
X122325000Y-57475000D03*
X121175000Y-57500000D03*
X121075000Y-66950000D03*
X122200000Y-68525000D03*
X122225000Y-66925000D03*
X122275000Y-60200000D03*
X122275000Y-61900000D03*
X122250000Y-64925000D03*
%TO.N,ch2_ATT_C4*%
X145813000Y-103779000D03*
%TO.N,ch2_ATT_C16*%
X145747000Y-101286000D03*
%TO.N,ch1_ATT_C16*%
X152925000Y-87575000D03*
%TO.N,ch1SRCLK*%
X151350000Y-98525000D03*
X154284673Y-99750000D03*
X154800000Y-86225000D03*
%TO.N,ch2_ATT_C1*%
X147415000Y-106350000D03*
%TO.N,ATT_ch2_SER*%
X152800000Y-106275000D03*
%TO.N,ch2_ATT_C8*%
X145786000Y-102533000D03*
%TO.N,ch2_ATT_C2*%
X145772000Y-105038000D03*
%TO.N,ch2_ATT_C0.5*%
X147252000Y-108708000D03*
%TO.N,ch1_RCLK*%
X152225000Y-82125000D03*
X151250000Y-99425000D03*
%TO.N,ch2_RCLK*%
X152179200Y-103775000D03*
%TO.N,ch1_SRCLR*%
X155750000Y-100350000D03*
X155275000Y-93200000D03*
X152925000Y-91700000D03*
%TO.N,ch1_QH*%
X152400000Y-99124998D03*
%TO.N,ch2_SRCLK*%
X154284673Y-103600000D03*
%TO.N,ATT_SER*%
X143825000Y-79600000D03*
X145775000Y-72700000D03*
X147500000Y-61000000D03*
%TO.N,3V3*%
X126000000Y-90125000D03*
X147100000Y-115350000D03*
X121900000Y-76650000D03*
X147176000Y-99710000D03*
X121900000Y-77325000D03*
X148551000Y-99710000D03*
X122525000Y-78000000D03*
X148475000Y-115350000D03*
X143050000Y-106675000D03*
X148551000Y-100335000D03*
X142175000Y-107875000D03*
X143304000Y-91486810D03*
X121900000Y-78000000D03*
X120025000Y-73350000D03*
X122125000Y-72075000D03*
X121900000Y-73350000D03*
X120650000Y-76000000D03*
X147100000Y-115975000D03*
X125400000Y-90725000D03*
X120025000Y-76650000D03*
X148475000Y-115975000D03*
X120025000Y-76000000D03*
X120650000Y-73975000D03*
X130969000Y-84080000D03*
X125400000Y-90150000D03*
X129497000Y-84094000D03*
X120650000Y-75350000D03*
X142429000Y-92686810D03*
X121275000Y-75350000D03*
X147775000Y-114725000D03*
X142454000Y-91486810D03*
X122525000Y-74650000D03*
X143279000Y-92686810D03*
X120650000Y-77975000D03*
X128650000Y-84075000D03*
X148475000Y-114725000D03*
X120650000Y-76650000D03*
X120650000Y-74625000D03*
X154711000Y-108854000D03*
X121900000Y-74650000D03*
X120025000Y-77300000D03*
X147851000Y-100960000D03*
X121475000Y-72075000D03*
X121275000Y-76650000D03*
X143025000Y-107875000D03*
X130333000Y-101431000D03*
X147775000Y-115350000D03*
X121125000Y-72625000D03*
X122525000Y-73350000D03*
X121275000Y-77975000D03*
X122525000Y-77325000D03*
X122525000Y-75350000D03*
X147176000Y-100960000D03*
X129550000Y-101425000D03*
X142625000Y-107275000D03*
X121900000Y-73975000D03*
X121775000Y-72625000D03*
X147176000Y-100335000D03*
X142200000Y-106675000D03*
X120650000Y-77300000D03*
X121275000Y-76000000D03*
X121900000Y-75350000D03*
X148551000Y-100960000D03*
X121275000Y-73350000D03*
X135588405Y-94591075D03*
X131064000Y-101421000D03*
X122525000Y-76025000D03*
X120775000Y-72075000D03*
X120650000Y-73350000D03*
X121275000Y-74625000D03*
X142879000Y-92086810D03*
X122475000Y-72625000D03*
X147851000Y-100335000D03*
X120425000Y-72625000D03*
X147775000Y-115975000D03*
X131826000Y-101430000D03*
X147851000Y-99710000D03*
X126000000Y-90725000D03*
X120025000Y-77975000D03*
X147100000Y-114725000D03*
X130249000Y-84087000D03*
X121900000Y-76025000D03*
X120025000Y-73975000D03*
X121275000Y-77300000D03*
X121275000Y-73975000D03*
X122525000Y-76650000D03*
X122525000Y-73975000D03*
X135525866Y-109627617D03*
%TO.N,GND*%
X123450000Y-68800000D03*
X125325000Y-79000000D03*
X119575000Y-106550000D03*
X117025000Y-72075000D03*
X151975000Y-111625000D03*
X147093000Y-103159000D03*
X118775000Y-116725000D03*
X145475000Y-96675000D03*
X159975000Y-117625000D03*
X137822000Y-85296000D03*
X123802000Y-80730000D03*
X125650000Y-58350000D03*
X149775000Y-112200000D03*
X118025000Y-129725000D03*
X127775000Y-89975000D03*
X159975000Y-55175000D03*
X146546000Y-90182000D03*
X157425000Y-127175000D03*
X156379000Y-99129000D03*
X154711000Y-93801000D03*
X155154000Y-98721000D03*
X159975000Y-90175000D03*
X133825000Y-123575000D03*
X122425000Y-106475000D03*
X115775000Y-126625000D03*
X134025000Y-114525000D03*
X152275000Y-77425000D03*
X159975000Y-68175000D03*
X147775000Y-125525000D03*
X127625000Y-105900000D03*
X159025000Y-128925000D03*
X134055000Y-83044000D03*
X144850000Y-112550000D03*
X115800000Y-95450000D03*
X118225000Y-72725000D03*
X159025000Y-98875000D03*
X144434000Y-95511000D03*
X142475000Y-111675000D03*
X129127000Y-83094000D03*
X126550000Y-95175000D03*
X115325000Y-59625000D03*
X117025000Y-72725000D03*
X131775000Y-126625000D03*
X137775000Y-125525000D03*
X144775000Y-125525000D03*
X113075000Y-127175000D03*
X139076000Y-109402000D03*
X151977402Y-110531795D03*
X131647000Y-111855000D03*
X138479000Y-81660000D03*
X128950000Y-96700000D03*
X121575000Y-111625000D03*
X134975000Y-102575000D03*
X141775000Y-125525000D03*
X152775000Y-126625000D03*
X146025000Y-95475000D03*
X123650000Y-73900000D03*
X149075000Y-95925000D03*
X124075000Y-136275000D03*
X148450000Y-97225000D03*
X114375000Y-124975000D03*
X157425000Y-97175000D03*
X115425000Y-113875000D03*
X123575000Y-111625000D03*
X148062000Y-104260000D03*
X146315000Y-109908000D03*
X127466805Y-96875000D03*
X150975000Y-76225000D03*
X153875000Y-62725000D03*
X116475000Y-91225000D03*
X116225000Y-55175000D03*
X122550000Y-70400000D03*
X144075000Y-136275000D03*
X151425000Y-112725000D03*
X143475000Y-114425000D03*
X140125000Y-123375000D03*
X121325000Y-92475000D03*
X123475000Y-123525000D03*
X137075000Y-136275000D03*
X127148000Y-79610000D03*
X117850000Y-70400000D03*
X156675000Y-111625000D03*
X159375000Y-127175000D03*
X158775000Y-55175000D03*
X144575000Y-111675000D03*
X112475000Y-64275000D03*
X141925000Y-81725000D03*
X155875000Y-111625000D03*
X133075000Y-136275000D03*
X131429000Y-109014000D03*
X155325000Y-57075000D03*
X112475000Y-69175000D03*
X120075000Y-136275000D03*
X156825000Y-60775000D03*
X138134200Y-102500000D03*
X142675000Y-84175000D03*
X153625000Y-56925000D03*
X133591000Y-100341000D03*
X143424000Y-96700000D03*
X159975000Y-56175000D03*
X157425000Y-112175000D03*
X128225000Y-77175000D03*
X133325000Y-78175000D03*
X118750000Y-95450000D03*
X152925000Y-95500000D03*
X118025000Y-133925000D03*
X116550000Y-75900000D03*
X144625000Y-67275000D03*
X151775000Y-125525000D03*
X118775000Y-125525000D03*
X127471000Y-86760000D03*
X138525000Y-78075000D03*
X117625000Y-67725000D03*
X139025000Y-111275000D03*
X150775000Y-125525000D03*
X129100000Y-111675000D03*
X139775000Y-111275000D03*
X159975000Y-80175000D03*
X139025000Y-110500000D03*
X155075000Y-136275000D03*
X144575000Y-110450000D03*
X132143000Y-106158000D03*
X129107000Y-85134000D03*
X128775000Y-126625000D03*
X136775000Y-126625000D03*
X156325000Y-134075000D03*
X146275000Y-119725000D03*
X149425000Y-67075000D03*
X133275000Y-94150000D03*
X150226000Y-105242000D03*
X121225000Y-71175000D03*
X155326000Y-109756000D03*
X121575000Y-96625000D03*
X123225000Y-117475000D03*
X113125000Y-136275000D03*
X124250000Y-106125000D03*
X152000000Y-95475000D03*
X134400000Y-111700000D03*
X137135000Y-106611000D03*
X159975000Y-74175000D03*
X124042000Y-101965000D03*
X160025000Y-133775000D03*
X134075000Y-136275000D03*
X149825000Y-118175000D03*
X112425000Y-106925000D03*
X156825000Y-66575000D03*
X159975000Y-66175000D03*
X130775000Y-125525000D03*
X118475000Y-101375000D03*
X115375000Y-104725000D03*
X112475000Y-56325000D03*
X159825000Y-93225000D03*
X131875000Y-95350000D03*
X139167000Y-94537000D03*
X152775000Y-125525000D03*
X125500000Y-69925000D03*
X124975000Y-92175000D03*
X121475000Y-104625000D03*
X117325000Y-112575000D03*
X144775000Y-126625000D03*
X112475000Y-71375000D03*
X125975000Y-117375000D03*
X157498000Y-105525000D03*
X115800000Y-111700000D03*
X153625000Y-55175000D03*
X153875000Y-64875000D03*
X116675000Y-67675000D03*
X148425000Y-77725000D03*
X117425000Y-55175000D03*
X130775000Y-126625000D03*
X123900000Y-90100000D03*
X159375000Y-109975000D03*
X152025000Y-115325000D03*
X122575000Y-111625000D03*
X120125000Y-109225000D03*
X128289000Y-85973000D03*
X118575000Y-64725000D03*
X132650000Y-96900000D03*
X158725000Y-127175000D03*
X160025000Y-109975000D03*
X141399000Y-92182000D03*
X155825000Y-80775000D03*
X127284000Y-109398000D03*
X159975000Y-122625000D03*
X141175000Y-119275000D03*
X133950000Y-94550000D03*
X122125000Y-99975000D03*
X159975000Y-88175000D03*
X148775000Y-118325000D03*
X126550000Y-95800000D03*
X156825000Y-63225000D03*
X140775000Y-129575000D03*
X118475000Y-67675000D03*
X149125000Y-96575000D03*
X112475000Y-91275000D03*
X138350000Y-111275000D03*
X118500000Y-69775000D03*
X136075000Y-136275000D03*
X145775000Y-126625000D03*
X137600000Y-113525000D03*
X116746000Y-79091000D03*
X158725000Y-97175000D03*
X139825000Y-117475000D03*
X152025000Y-86275000D03*
X142775000Y-125525000D03*
X112475000Y-84575000D03*
X112425000Y-103625000D03*
X112425000Y-112175000D03*
X114325000Y-91275000D03*
X149125000Y-110475000D03*
X159975000Y-64175000D03*
X114275000Y-116525000D03*
X154025000Y-98675000D03*
X116775000Y-125525000D03*
X112475000Y-73775000D03*
X112475000Y-62475000D03*
X149775000Y-125525000D03*
X134298000Y-85276000D03*
X139775000Y-110525000D03*
X138775000Y-126625000D03*
X159975000Y-70175000D03*
X154561000Y-105808000D03*
X127225000Y-90825000D03*
X143400000Y-102300000D03*
X145775000Y-125525000D03*
X117175000Y-69775000D03*
X149125000Y-110925000D03*
X153675000Y-60125000D03*
X153275000Y-119725000D03*
X132675000Y-95250000D03*
X158975000Y-93225000D03*
X156775000Y-58775000D03*
X118825000Y-73375000D03*
X117325000Y-113925000D03*
X157975000Y-123225000D03*
X150725000Y-114675000D03*
X130374000Y-104084000D03*
X135325000Y-103025000D03*
X118225000Y-72100000D03*
X149275000Y-133975000D03*
X156275000Y-95475000D03*
X149075000Y-91975000D03*
X147143000Y-101826000D03*
X160025000Y-124975000D03*
X118500000Y-70400000D03*
X140775000Y-133925000D03*
X128225000Y-100275000D03*
X141075000Y-136275000D03*
X151025000Y-116725000D03*
X144625000Y-59775000D03*
X144443000Y-96673000D03*
X159975000Y-62175000D03*
X133000000Y-107450000D03*
X134775000Y-125525000D03*
X112525000Y-113875000D03*
X131447000Y-110285000D03*
X159375000Y-97175000D03*
X117775000Y-126625000D03*
X159975000Y-136275000D03*
X115325000Y-70025000D03*
X123375000Y-109175000D03*
X157425000Y-109975000D03*
X129475000Y-114475000D03*
X147775000Y-126625000D03*
X159975000Y-59175000D03*
X125428195Y-96625000D03*
X159875000Y-104625000D03*
X115425000Y-56575000D03*
X117775000Y-125525000D03*
X136025000Y-120375000D03*
X131225000Y-102875000D03*
X160025000Y-130775000D03*
X112525000Y-118475000D03*
X112425000Y-94975000D03*
X154625000Y-97725000D03*
X119075000Y-136275000D03*
X158725000Y-124975000D03*
X145575000Y-113075000D03*
X153325000Y-117475000D03*
X112525000Y-119825000D03*
X159975000Y-115625000D03*
X136400000Y-111675000D03*
X145575000Y-82025000D03*
X125075000Y-114475000D03*
X123600000Y-106125000D03*
X116825000Y-89175000D03*
X129775000Y-125525000D03*
X122775000Y-125525000D03*
X125775000Y-125525000D03*
X134300000Y-91900000D03*
X119750000Y-112000000D03*
X120750000Y-112000000D03*
X159875000Y-101625000D03*
X160025000Y-135775000D03*
X159075000Y-136275000D03*
X153025000Y-110525000D03*
X144125000Y-112725000D03*
X114975000Y-97175000D03*
X158075000Y-97175000D03*
X132075000Y-103550000D03*
X144475000Y-74975000D03*
X153775000Y-126625000D03*
X112475000Y-122025000D03*
X149325000Y-129475000D03*
X135400000Y-110450000D03*
X156675000Y-110525000D03*
X127075000Y-136275000D03*
X147525000Y-117325000D03*
X160025000Y-112175000D03*
X112425000Y-97175000D03*
X112475000Y-124975000D03*
X114375000Y-127175000D03*
X148475000Y-112225000D03*
X130975000Y-117375000D03*
X114575000Y-113875000D03*
X115425000Y-106675000D03*
X117725000Y-96700000D03*
X115025000Y-127175000D03*
X149175000Y-60175000D03*
X133662000Y-79640000D03*
X133675000Y-117375000D03*
X127382000Y-102089000D03*
X119069000Y-79192000D03*
X159975000Y-69175000D03*
X114975000Y-94975000D03*
X129075000Y-136275000D03*
X158725000Y-109975000D03*
X155025000Y-110525000D03*
X159975000Y-85175000D03*
X132725000Y-129575000D03*
X119175000Y-120625000D03*
X123600000Y-105575000D03*
X151025000Y-82775000D03*
X112425000Y-100275000D03*
X115125000Y-85925000D03*
X114975000Y-109975000D03*
X116125000Y-136275000D03*
X128325000Y-117325000D03*
X152185000Y-105042000D03*
X126225000Y-111475000D03*
X125075000Y-136275000D03*
X124975000Y-133975000D03*
X123175000Y-112675000D03*
X153075000Y-131675000D03*
X154075000Y-136275000D03*
X153375000Y-81725000D03*
X114525000Y-128925000D03*
X118775000Y-126625000D03*
X159875000Y-106625000D03*
X153625000Y-58825000D03*
X119750000Y-110250000D03*
X117550000Y-72075000D03*
X118575000Y-56225000D03*
X133225000Y-98475000D03*
X122386000Y-103269000D03*
X154775000Y-125525000D03*
X142775000Y-126625000D03*
X155875000Y-110525000D03*
X152075000Y-113375000D03*
X121375000Y-112675000D03*
X113525000Y-108225000D03*
X123900000Y-90750000D03*
X123725000Y-110525000D03*
X112475000Y-123225000D03*
X127349000Y-105112000D03*
X159375000Y-112175000D03*
X121325000Y-90675000D03*
X115125000Y-136275000D03*
X115800000Y-96700000D03*
X125665000Y-103675000D03*
X159025000Y-108225000D03*
X149575000Y-62725000D03*
X159975000Y-79175000D03*
X123700000Y-77450000D03*
X118525000Y-55175000D03*
X113525000Y-55175000D03*
X136640998Y-95504195D03*
X158725000Y-112175000D03*
X121525000Y-95528000D03*
X115475000Y-71975000D03*
X159975000Y-78175000D03*
X153125000Y-78375000D03*
X156975000Y-128925000D03*
X114325000Y-89175000D03*
X159975000Y-60175000D03*
X115800000Y-110400000D03*
X118525000Y-62825000D03*
X133400000Y-110475000D03*
X136947000Y-92820000D03*
X152925000Y-96675000D03*
X137001000Y-91386000D03*
X138335000Y-109361000D03*
X159975000Y-83175000D03*
X159875000Y-128925000D03*
X118575000Y-60925000D03*
X130875000Y-78125000D03*
X159375000Y-124975000D03*
X121342000Y-101951000D03*
X117125000Y-136275000D03*
X124975000Y-129625000D03*
X147325000Y-79725000D03*
X138337000Y-96202000D03*
X155625000Y-71675000D03*
X116675000Y-94325000D03*
X119775000Y-126625000D03*
X113675000Y-97175000D03*
X160025000Y-131775000D03*
X158775000Y-69225000D03*
X116275000Y-72025000D03*
X128875000Y-131825000D03*
X133800000Y-93100000D03*
X117425000Y-85575000D03*
X127299000Y-81317000D03*
X118525000Y-91225000D03*
X144275000Y-97675000D03*
X140378000Y-115096000D03*
X128775000Y-125525000D03*
X114575000Y-108225000D03*
X155625000Y-96650000D03*
X121775000Y-125525000D03*
X159975000Y-118625000D03*
X123425000Y-107675000D03*
X157075000Y-136275000D03*
X150203000Y-103291000D03*
X127775000Y-125525000D03*
X149225000Y-75275000D03*
X160025000Y-94975000D03*
X135775000Y-126625000D03*
X143475000Y-117325000D03*
X112475000Y-59275000D03*
X123400000Y-61150000D03*
X112625000Y-133325000D03*
X122775000Y-126625000D03*
X137368000Y-97715000D03*
X120725000Y-123625000D03*
X160025000Y-134775000D03*
X137100000Y-105875000D03*
X116225000Y-119925000D03*
X140775000Y-125525000D03*
X122631000Y-80027000D03*
X116175000Y-116425000D03*
X156775000Y-116025000D03*
X114575000Y-93225000D03*
X145525000Y-111675000D03*
X147075000Y-136275000D03*
X155675000Y-55125000D03*
X144155000Y-105601000D03*
X117850000Y-69775000D03*
X143075000Y-136275000D03*
X150213000Y-101008000D03*
X112475000Y-128925000D03*
X112575000Y-116325000D03*
X136825000Y-131825000D03*
X132405000Y-111875000D03*
X149525000Y-68675000D03*
X115225000Y-68625000D03*
X143759000Y-90384000D03*
X154150000Y-85550000D03*
X112475000Y-78775000D03*
X150975000Y-120325000D03*
X121524000Y-110500000D03*
X122575000Y-96625000D03*
X131775000Y-125525000D03*
X132725000Y-133975000D03*
X156675000Y-125525000D03*
X120775000Y-125525000D03*
X117875000Y-108025000D03*
X123500000Y-72000000D03*
X153025000Y-111625000D03*
X115225000Y-66275000D03*
X123775000Y-125525000D03*
X154075000Y-95504195D03*
X118575000Y-113275000D03*
X126075000Y-136275000D03*
X149125000Y-111575000D03*
X125428195Y-111625000D03*
X122625000Y-94175000D03*
X151775000Y-126625000D03*
X149975000Y-71775000D03*
X114925000Y-102575000D03*
X113725000Y-124975000D03*
X158625000Y-77075000D03*
X132775000Y-125525000D03*
X117700000Y-95450000D03*
X149125000Y-97225000D03*
X153775000Y-125525000D03*
X141880000Y-88909000D03*
X135077000Y-104630000D03*
X132075000Y-136275000D03*
X148775000Y-125525000D03*
X114325000Y-109975000D03*
X137775000Y-126625000D03*
X143675000Y-110450000D03*
X135348000Y-82913000D03*
X156625000Y-90225000D03*
X136375000Y-98375000D03*
X158775000Y-131875000D03*
X118575000Y-59175000D03*
X112475000Y-87025000D03*
X145412498Y-97625000D03*
X160025000Y-132775000D03*
X136560000Y-84145000D03*
X149075000Y-91175000D03*
X124525000Y-104675000D03*
X127400000Y-91975000D03*
X113675000Y-112175000D03*
X134675000Y-106725000D03*
X159975000Y-114625000D03*
X134725000Y-98525000D03*
X152075000Y-117025000D03*
X150875000Y-113325000D03*
X116000000Y-79650000D03*
X132380000Y-110275000D03*
X159875000Y-102625000D03*
X136075000Y-114525000D03*
X135169000Y-89811000D03*
X160025000Y-129775000D03*
X144975000Y-131725000D03*
X126775000Y-126625000D03*
X135825000Y-96700000D03*
X159975000Y-120625000D03*
X122425000Y-120625000D03*
X137525000Y-115700000D03*
X126784000Y-84407000D03*
X157925000Y-93225000D03*
X130075000Y-136275000D03*
X118425000Y-74475000D03*
X112425000Y-101675000D03*
X148925000Y-116925000D03*
X148775000Y-126625000D03*
X157975000Y-98875000D03*
X121275000Y-98625000D03*
X149775000Y-126625000D03*
X149750000Y-95975000D03*
X118750000Y-96700000D03*
X117725000Y-110450000D03*
X153575000Y-66025000D03*
X146200000Y-110475000D03*
X146288000Y-100219000D03*
X134400000Y-110475000D03*
X157425000Y-94975000D03*
X118625000Y-98925000D03*
X141475000Y-77725000D03*
X131675000Y-93075000D03*
X122308000Y-110529000D03*
X139176000Y-86922000D03*
X133591000Y-88699000D03*
X117550000Y-72725000D03*
X125775000Y-126625000D03*
X115525000Y-67725000D03*
X158725000Y-61025000D03*
X149078000Y-93678000D03*
X140000000Y-90500000D03*
X121475000Y-105675000D03*
X156325000Y-83875000D03*
X113025000Y-97175000D03*
X159975000Y-71175000D03*
X156075000Y-136275000D03*
X122075000Y-136275000D03*
X123400000Y-63400000D03*
X130425000Y-110425000D03*
X158425000Y-91125000D03*
X156975000Y-79875000D03*
X112525000Y-98875000D03*
X157707000Y-101969000D03*
X114325000Y-94975000D03*
X154025000Y-110525000D03*
X112525000Y-131525000D03*
X129275000Y-120525000D03*
X114575000Y-131825000D03*
X159875000Y-103625000D03*
X143900000Y-72450000D03*
X148450000Y-96575000D03*
X135400000Y-111700000D03*
X138350000Y-110500000D03*
X134825000Y-96700000D03*
X156675000Y-126625000D03*
X116725000Y-111700000D03*
X147250000Y-113750000D03*
X150075000Y-136275000D03*
X114325000Y-97175000D03*
X145875000Y-117325000D03*
X130775000Y-92200000D03*
X135610000Y-100348000D03*
X154925000Y-111625000D03*
X112475000Y-89425000D03*
X136825000Y-96700000D03*
X150975000Y-119325000D03*
X134675000Y-108075000D03*
X112475000Y-57725000D03*
X116325000Y-74325000D03*
X138775000Y-125525000D03*
X114975000Y-112175000D03*
X131075000Y-94575000D03*
X159975000Y-76175000D03*
X156825000Y-118825000D03*
X115175000Y-100575000D03*
X133207000Y-113123000D03*
X118750000Y-77150000D03*
X127425000Y-123475000D03*
X136400000Y-110475000D03*
X149075000Y-136275000D03*
X159875000Y-99625000D03*
X123775000Y-126625000D03*
X126725000Y-98525000D03*
X128200000Y-96700000D03*
X150775000Y-126625000D03*
X156325000Y-129375000D03*
X131180000Y-100327000D03*
X158425000Y-73225000D03*
X116725000Y-82575000D03*
X158075000Y-94975000D03*
X122675000Y-92475000D03*
X124575000Y-111625000D03*
X150975000Y-78825000D03*
X138342000Y-94546000D03*
X159875000Y-123225000D03*
X121325000Y-94175000D03*
X135075000Y-115600000D03*
X121525000Y-131925000D03*
X117825000Y-123725000D03*
X144405000Y-86782000D03*
X131875000Y-114525000D03*
X142075000Y-136275000D03*
X149750000Y-96575000D03*
X130824000Y-111834000D03*
X156325000Y-88525000D03*
X159975000Y-65175000D03*
X148941000Y-101735000D03*
X117550000Y-73375000D03*
X143775000Y-125525000D03*
X118525000Y-94275000D03*
X159975000Y-73175000D03*
X117025000Y-73375000D03*
X158925000Y-82725000D03*
X159875000Y-105625000D03*
X124775000Y-126625000D03*
X124575000Y-96625000D03*
X116725000Y-96700000D03*
X133775000Y-125525000D03*
X148075000Y-136275000D03*
X130389000Y-81216000D03*
X140775000Y-126625000D03*
X156775000Y-91725000D03*
X159975000Y-91175000D03*
X159975000Y-77175000D03*
X114525000Y-123225000D03*
X118000000Y-76000000D03*
X158075000Y-124975000D03*
X133775000Y-126625000D03*
X120775000Y-126625000D03*
X159975000Y-57175000D03*
X135775000Y-125525000D03*
X148450000Y-95975000D03*
X126575000Y-110225000D03*
X159075000Y-113875000D03*
X143775000Y-126625000D03*
X121075000Y-136275000D03*
X150975000Y-80875000D03*
X149375000Y-77225000D03*
X154975000Y-96650000D03*
X122308000Y-95529000D03*
X124475000Y-99175000D03*
X120261000Y-79252000D03*
X129725000Y-98475000D03*
X130200000Y-106875000D03*
X155775000Y-126625000D03*
X148475000Y-110900000D03*
X121425000Y-114475000D03*
X144525000Y-123325000D03*
X121175000Y-108075000D03*
X112525000Y-121075000D03*
X135875000Y-78125000D03*
X159975000Y-58175000D03*
X146925000Y-64725000D03*
X160025000Y-127175000D03*
X139775000Y-125525000D03*
X149991000Y-99389000D03*
X152075000Y-136275000D03*
X112475000Y-117425000D03*
X131075000Y-136275000D03*
X158275000Y-57125000D03*
X123175000Y-114475000D03*
X154475000Y-82275000D03*
X155069000Y-101840000D03*
X145075000Y-136275000D03*
X115425000Y-108225000D03*
X153075000Y-136275000D03*
X149125000Y-112225000D03*
X118525000Y-88925000D03*
X112425000Y-109975000D03*
X146475000Y-93275000D03*
X124775000Y-125525000D03*
X159975000Y-121625000D03*
X127550000Y-94450000D03*
X129950000Y-111675000D03*
X125075000Y-112675000D03*
X159975000Y-116625000D03*
X141343000Y-98062000D03*
X142594000Y-96673000D03*
X135476000Y-113089000D03*
X156825000Y-121325000D03*
X156209000Y-97545000D03*
X152125000Y-123775000D03*
X123275000Y-90125000D03*
X116225000Y-113325000D03*
X148275000Y-123475000D03*
X130125000Y-109025000D03*
X154775000Y-126625000D03*
X152075000Y-96625000D03*
X121066000Y-85566000D03*
X131783000Y-83064000D03*
X146975000Y-82775000D03*
X149775000Y-110925000D03*
X126575000Y-120475000D03*
X125550000Y-72475000D03*
X136775000Y-125525000D03*
X132075000Y-120425000D03*
X127775000Y-126625000D03*
X159975000Y-67175000D03*
X133274000Y-102475000D03*
X158075000Y-127175000D03*
X159975000Y-75175000D03*
X115325000Y-63775000D03*
X145031000Y-88505000D03*
X120092000Y-102693000D03*
X159975000Y-86175000D03*
X155775000Y-125525000D03*
X112475000Y-127175000D03*
X159875000Y-98875000D03*
X112475000Y-60875000D03*
X158075000Y-136275000D03*
X158075000Y-109975000D03*
X141775000Y-126625000D03*
X156925000Y-93225000D03*
X113525000Y-93225000D03*
X118575000Y-66575000D03*
X155625000Y-95500000D03*
X128745000Y-103605000D03*
X137375000Y-110450000D03*
X117175000Y-102475000D03*
X139000000Y-97500000D03*
X129775000Y-126625000D03*
X153900000Y-68225000D03*
X137500000Y-99000000D03*
X135825000Y-95450000D03*
X150275000Y-112725000D03*
X115375000Y-128925000D03*
X117175000Y-70400000D03*
X143424000Y-95502000D03*
X126575000Y-91975000D03*
X139736000Y-109819000D03*
X120927000Y-81367000D03*
X116723000Y-95450000D03*
X133650000Y-95500000D03*
X131359000Y-86962000D03*
X118575000Y-57325000D03*
X141484200Y-100500000D03*
X112475000Y-75925000D03*
X154825000Y-79825000D03*
X127025000Y-93425000D03*
X155475000Y-123625000D03*
X123825000Y-94325000D03*
X132675000Y-93225000D03*
X126575000Y-110800000D03*
X159975000Y-119625000D03*
X129750000Y-96650000D03*
X142475000Y-110450000D03*
X156125000Y-68625000D03*
X157575000Y-55125000D03*
X136045000Y-79731000D03*
X113475000Y-123225000D03*
X144625000Y-69925000D03*
X149750000Y-97225000D03*
X123275000Y-90750000D03*
X132075000Y-94325000D03*
X156325000Y-81875000D03*
X128150000Y-111675000D03*
X152775000Y-71375000D03*
X114325000Y-112175000D03*
X131425000Y-98525000D03*
X143075000Y-120475000D03*
X160025000Y-97175000D03*
X155006000Y-104021000D03*
X123175000Y-104675000D03*
X136375000Y-117475000D03*
X159925000Y-113875000D03*
X148991000Y-105220000D03*
X132575000Y-108825000D03*
X119060000Y-97921000D03*
X137175000Y-123575000D03*
X126925000Y-96475000D03*
X151578000Y-109949000D03*
X115775000Y-125525000D03*
X131875000Y-96800000D03*
X114775000Y-55175000D03*
X159875000Y-100625000D03*
X129725000Y-100175000D03*
X115375000Y-123225000D03*
X138333000Y-95453000D03*
X146775000Y-125525000D03*
X156275000Y-96650000D03*
X127022000Y-107469000D03*
X159025000Y-123225000D03*
X134825000Y-95450000D03*
X152840000Y-94434000D03*
X151296000Y-107484000D03*
X140075000Y-136275000D03*
X119775000Y-125525000D03*
X128075000Y-136275000D03*
X123575000Y-96625000D03*
X157975000Y-128925000D03*
X158225000Y-65525000D03*
X123525000Y-95525000D03*
X159975000Y-87175000D03*
X144566000Y-109608000D03*
X149775000Y-111575000D03*
X113675000Y-94975000D03*
X134075000Y-108900000D03*
X116925000Y-98475000D03*
X157425000Y-124975000D03*
X130750000Y-96850000D03*
X113075000Y-124975000D03*
X141812000Y-112793000D03*
X123075000Y-110529000D03*
X156325000Y-86125000D03*
X126225000Y-96475000D03*
X159975000Y-72175000D03*
X141394000Y-97123000D03*
X133400000Y-111675000D03*
X131775000Y-107525000D03*
X127466805Y-111875000D03*
X159375000Y-94975000D03*
X113025000Y-94975000D03*
X137146000Y-100314000D03*
X130425000Y-95450000D03*
X145334000Y-90121000D03*
X122927000Y-95529000D03*
X118575000Y-92925000D03*
X112525000Y-108225000D03*
X124225000Y-105575000D03*
X121525000Y-109175000D03*
X148475000Y-111575000D03*
X154975000Y-95500000D03*
X158725000Y-94975000D03*
X120825000Y-117375000D03*
X116723000Y-110450000D03*
X112475000Y-130275000D03*
X139145000Y-96225000D03*
X115425000Y-98875000D03*
X159975000Y-63175000D03*
X158075000Y-112175000D03*
X159975000Y-92075000D03*
X126125000Y-100075000D03*
X139075000Y-136275000D03*
X113525000Y-113875000D03*
X159975000Y-84175000D03*
X113725000Y-127175000D03*
X114375000Y-76375000D03*
X113475000Y-128925000D03*
X156975000Y-123225000D03*
X146775000Y-126625000D03*
X112425000Y-105575000D03*
X148951000Y-103331000D03*
X126775000Y-125525000D03*
X118750000Y-110400000D03*
X153375000Y-114625000D03*
X146075000Y-136275000D03*
X118975000Y-102925000D03*
X139775000Y-126625000D03*
X139678000Y-113123000D03*
X112475000Y-66425000D03*
X132775000Y-126625000D03*
X159875000Y-108225000D03*
X114575000Y-98875000D03*
X149075000Y-90525000D03*
X117725000Y-111700000D03*
X153343000Y-105060000D03*
X142612000Y-95531795D03*
X120750000Y-110250000D03*
X133650000Y-96675000D03*
X116775000Y-126625000D03*
X151075000Y-136275000D03*
X141625000Y-117325000D03*
X130975000Y-123475000D03*
X157975000Y-108225000D03*
X159975000Y-61175000D03*
X112625000Y-134875000D03*
X112475000Y-55175000D03*
X113025000Y-109975000D03*
X123400000Y-66000000D03*
X117075000Y-105875000D03*
X149075000Y-92575000D03*
X118225000Y-73375000D03*
X155344000Y-107733000D03*
X159875000Y-107625000D03*
X113675000Y-109975000D03*
X115025000Y-124975000D03*
X114125000Y-136275000D03*
X152075000Y-119725000D03*
X134775000Y-126625000D03*
X118125000Y-136275000D03*
X115975000Y-80525000D03*
X112525000Y-93225000D03*
X121775000Y-126625000D03*
X115425000Y-93225000D03*
X159975000Y-89175000D03*
X123400000Y-58400000D03*
X118750000Y-111700000D03*
X113525000Y-98875000D03*
X126925000Y-111475000D03*
X127125000Y-114525000D03*
X138075000Y-136275000D03*
X131800000Y-91900000D03*
X119643000Y-101373000D03*
X123700000Y-75700000D03*
X151375000Y-65825000D03*
X148775000Y-80325000D03*
X145525000Y-110450000D03*
X113025000Y-112175000D03*
X136560000Y-87548000D03*
X135075000Y-136275000D03*
X149175000Y-82775000D03*
X158025000Y-113875000D03*
X159975000Y-81175000D03*
X154225000Y-86925000D03*
X123725000Y-92475000D03*
X112475000Y-81175000D03*
X157025000Y-113875000D03*
X139525000Y-120875000D03*
X159975000Y-82175000D03*
X143675000Y-111675000D03*
X123075000Y-136275000D03*
X139172000Y-95439000D03*
X158575000Y-80175000D03*
X130125000Y-94200000D03*
X122615000Y-84212000D03*
%TO.N,LDO_ENABLE*%
X118300000Y-71225000D03*
%TO.N,\u30FC3V3*%
X133625000Y-105900000D03*
X133625000Y-104525000D03*
X115400000Y-78200000D03*
X134250000Y-90225000D03*
X116900000Y-77500000D03*
X133000000Y-105200000D03*
X133000000Y-104525000D03*
X116150000Y-78200000D03*
X115400000Y-77500000D03*
X134250000Y-105200000D03*
X117700000Y-77500000D03*
X133625000Y-105200000D03*
X114650000Y-78200000D03*
X114650000Y-77500000D03*
X117700000Y-78200000D03*
X133625000Y-90925000D03*
X134250000Y-89550000D03*
X134250000Y-104525000D03*
X116900000Y-78200000D03*
X133625000Y-89550000D03*
X133000000Y-90925000D03*
X133000000Y-89550000D03*
X116150000Y-77500000D03*
X133625000Y-90225000D03*
X133000000Y-90225000D03*
X133000000Y-105900000D03*
%TO.N,ch2_SRCLR*%
X155700000Y-103400000D03*
%TO.N,CLK_CH1*%
X138250000Y-100000000D03*
X138526000Y-92234586D03*
%TO.N,LE_CH1*%
X139300000Y-100127450D03*
X139118000Y-91692200D03*
%TO.N,SER_OUT_CH1*%
X138109200Y-105611000D03*
X141975484Y-94576000D03*
%TD*%
D17*
%TO.N,3V3*%
X142944438Y-92000000D02*
X134964438Y-84020000D01*
X149764688Y-107301000D02*
X151159688Y-108696000D01*
D18*
X136604480Y-93575000D02*
X141451000Y-93575000D01*
X141451000Y-93575000D02*
X141471000Y-93555000D01*
D17*
X146688016Y-99121704D02*
X148151000Y-100584688D01*
X140225000Y-99183000D02*
X140286296Y-99121704D01*
X151159688Y-108696000D02*
X153097000Y-108696000D01*
X142600000Y-107300000D02*
X142625000Y-107275000D01*
X137379600Y-107564400D02*
X137529912Y-107564400D01*
X137529912Y-107564400D02*
X137786312Y-107308000D01*
X142651000Y-107301000D02*
X149764688Y-107301000D01*
X140225000Y-104825000D02*
X140750000Y-105350000D01*
X148151000Y-100584688D02*
X148151000Y-100690000D01*
X140286296Y-99121704D02*
X146688016Y-99121704D01*
X134964438Y-84020000D02*
X128520000Y-84020000D01*
X135475000Y-109469000D02*
X137379600Y-107564400D01*
X142625000Y-107275000D02*
X142651000Y-107301000D01*
X153212000Y-108811000D02*
X154543000Y-108811000D01*
X143000000Y-92000000D02*
X142944438Y-92000000D01*
X128520000Y-84020000D02*
X122500000Y-78000000D01*
X153097000Y-108696000D02*
X153212000Y-108811000D01*
X140800000Y-113925000D02*
X142575000Y-115700000D01*
X137786312Y-107308000D02*
X140791000Y-107308000D01*
X140286296Y-99121704D02*
X140286296Y-94713704D01*
X129550000Y-101425000D02*
X140175000Y-101425000D01*
X142575000Y-115700000D02*
X148275000Y-115700000D01*
X140225000Y-99183000D02*
X140225000Y-104825000D01*
D18*
X135588405Y-94591075D02*
X136604480Y-93575000D01*
D17*
X140286296Y-94713704D02*
X143000000Y-92000000D01*
X140750000Y-107300000D02*
X140750000Y-113875000D01*
X140750000Y-105350000D02*
X140750000Y-107300000D01*
X140750000Y-107300000D02*
X142600000Y-107300000D01*
%TO.N,\u30FC3V3*%
X132975000Y-105125000D02*
X128781000Y-105125000D01*
X134150000Y-89950000D02*
X134150000Y-90750000D01*
X117700000Y-78200000D02*
X117875000Y-78375000D01*
X133125000Y-89700000D02*
X133900000Y-89700000D01*
X120731000Y-100956000D02*
X120050000Y-100275000D01*
X131450000Y-88025000D02*
X133125000Y-89700000D01*
X124612000Y-100956000D02*
X120731000Y-100956000D01*
X128781000Y-105125000D02*
X124612000Y-100956000D01*
X120050000Y-100275000D02*
X120050000Y-83075000D01*
X125000000Y-88025000D02*
X131450000Y-88025000D01*
X133000000Y-104525000D02*
X133000000Y-105100000D01*
X133900000Y-89700000D02*
X134150000Y-89950000D01*
X133000000Y-105100000D02*
X132975000Y-105125000D01*
X117875000Y-80900000D02*
X125000000Y-88025000D01*
X117875000Y-78375000D02*
X117875000Y-80900000D01*
%TD*%
%TA.AperFunction,Conductor*%
%TO.N,3V3*%
G36*
X143563191Y-91205717D02*
G01*
X143599155Y-91255217D01*
X143604000Y-91285810D01*
X143604000Y-92912810D01*
X143585093Y-92971001D01*
X143535593Y-93006965D01*
X143505000Y-93011810D01*
X142228000Y-93011810D01*
X142169809Y-92992903D01*
X142133845Y-92943403D01*
X142129000Y-92912810D01*
X142129000Y-91285810D01*
X142147907Y-91227619D01*
X142197407Y-91191655D01*
X142228000Y-91186810D01*
X143505000Y-91186810D01*
X143563191Y-91205717D01*
G37*
%TD.AperFunction*%
%TD*%
%TA.AperFunction,Conductor*%
%TO.N,3V3*%
G36*
X148759191Y-114418907D02*
G01*
X148795155Y-114468407D01*
X148800000Y-114499000D01*
X148800000Y-116201000D01*
X148781093Y-116259191D01*
X148731593Y-116295155D01*
X148701000Y-116300000D01*
X146874000Y-116300000D01*
X146815809Y-116281093D01*
X146779845Y-116231593D01*
X146775000Y-116201000D01*
X146775000Y-114499000D01*
X146793907Y-114440809D01*
X146843407Y-114404845D01*
X146874000Y-114400000D01*
X148701000Y-114400000D01*
X148759191Y-114418907D01*
G37*
%TD.AperFunction*%
%TD*%
%TA.AperFunction,Conductor*%
%TO.N,3V3*%
G36*
X143309191Y-106393907D02*
G01*
X143345155Y-106443407D01*
X143350000Y-106474000D01*
X143350000Y-108101000D01*
X143331093Y-108159191D01*
X143281593Y-108195155D01*
X143251000Y-108200000D01*
X141974000Y-108200000D01*
X141915809Y-108181093D01*
X141879845Y-108131593D01*
X141875000Y-108101000D01*
X141875000Y-106474000D01*
X141893907Y-106415809D01*
X141943407Y-106379845D01*
X141974000Y-106375000D01*
X143251000Y-106375000D01*
X143309191Y-106393907D01*
G37*
%TD.AperFunction*%
%TD*%
%TA.AperFunction,Conductor*%
%TO.N,3V3*%
G36*
X148835191Y-99403907D02*
G01*
X148871155Y-99453407D01*
X148876000Y-99484000D01*
X148876000Y-101186000D01*
X148857093Y-101244191D01*
X148807593Y-101280155D01*
X148777000Y-101285000D01*
X146950000Y-101285000D01*
X146891809Y-101266093D01*
X146855845Y-101216593D01*
X146851000Y-101186000D01*
X146851000Y-99484000D01*
X146869907Y-99425809D01*
X146919407Y-99389845D01*
X146950000Y-99385000D01*
X148777000Y-99385000D01*
X148835191Y-99403907D01*
G37*
%TD.AperFunction*%
%TD*%
%TA.AperFunction,Conductor*%
%TO.N,3V3*%
G36*
X126359191Y-89768907D02*
G01*
X126395155Y-89818407D01*
X126400000Y-89849000D01*
X126400000Y-91051000D01*
X126381093Y-91109191D01*
X126331593Y-91145155D01*
X126301000Y-91150000D01*
X124924000Y-91150000D01*
X124865809Y-91131093D01*
X124829845Y-91081593D01*
X124825000Y-91051000D01*
X124825000Y-89849000D01*
X124843907Y-89790809D01*
X124893407Y-89754845D01*
X124924000Y-89750000D01*
X126301000Y-89750000D01*
X126359191Y-89768907D01*
G37*
%TD.AperFunction*%
%TD*%
%TA.AperFunction,Conductor*%
%TO.N,\u30FC3V3*%
G36*
X134534191Y-89243907D02*
G01*
X134570155Y-89293407D01*
X134575000Y-89324000D01*
X134575000Y-91151000D01*
X134556093Y-91209191D01*
X134506593Y-91245155D01*
X134476000Y-91250000D01*
X132774000Y-91250000D01*
X132715809Y-91231093D01*
X132679845Y-91181593D01*
X132675000Y-91151000D01*
X132675000Y-89324000D01*
X132693907Y-89265809D01*
X132743407Y-89229845D01*
X132774000Y-89225000D01*
X134476000Y-89225000D01*
X134534191Y-89243907D01*
G37*
%TD.AperFunction*%
%TD*%
%TA.AperFunction,Conductor*%
%TO.N,\u30FC3V3*%
G36*
X134534191Y-104218907D02*
G01*
X134570155Y-104268407D01*
X134575000Y-104299000D01*
X134575000Y-106126000D01*
X134556093Y-106184191D01*
X134506593Y-106220155D01*
X134476000Y-106225000D01*
X132774000Y-106225000D01*
X132715809Y-106206093D01*
X132679845Y-106156593D01*
X132675000Y-106126000D01*
X132675000Y-104299000D01*
X132693907Y-104240809D01*
X132743407Y-104204845D01*
X132774000Y-104200000D01*
X134476000Y-104200000D01*
X134534191Y-104218907D01*
G37*
%TD.AperFunction*%
%TD*%
%TA.AperFunction,Conductor*%
%TO.N,\u30FC3V3*%
G36*
X118043039Y-77169685D02*
G01*
X118088794Y-77222489D01*
X118100000Y-77274000D01*
X118100000Y-78426000D01*
X118080315Y-78493039D01*
X118027511Y-78538794D01*
X117976000Y-78550000D01*
X114424000Y-78550000D01*
X114356961Y-78530315D01*
X114311206Y-78477511D01*
X114300000Y-78426000D01*
X114300000Y-77274000D01*
X114319685Y-77206961D01*
X114372489Y-77161206D01*
X114424000Y-77150000D01*
X117976000Y-77150000D01*
X118043039Y-77169685D01*
G37*
%TD.AperFunction*%
%TD*%
%TA.AperFunction,Conductor*%
%TO.N,3V3*%
G36*
X122793039Y-71769685D02*
G01*
X122838794Y-71822489D01*
X122850000Y-71874000D01*
X122850000Y-78476000D01*
X122830315Y-78543039D01*
X122777511Y-78588794D01*
X122726000Y-78600000D01*
X119525004Y-78600000D01*
X119457965Y-78580315D01*
X119412210Y-78527511D01*
X119401008Y-78475000D01*
X119449387Y-72475942D01*
X119469612Y-72409066D01*
X119517927Y-72366036D01*
X120723818Y-71763091D01*
X120779272Y-71750000D01*
X122726000Y-71750000D01*
X122793039Y-71769685D01*
G37*
%TD.AperFunction*%
%TD*%
%TA.AperFunction,Conductor*%
%TO.N,GND*%
G36*
X119189787Y-54845185D02*
G01*
X119235542Y-54897989D01*
X119245485Y-54967144D01*
X119245485Y-54967152D01*
X119244500Y-54973999D01*
X119244500Y-67848638D01*
X119245678Y-67870618D01*
X119248511Y-67896965D01*
X119248512Y-67896967D01*
X119272470Y-67973478D01*
X119272471Y-67973483D01*
X119286872Y-67999855D01*
X119305956Y-68034805D01*
X119305958Y-68034808D01*
X119305960Y-68034811D01*
X119340998Y-68081615D01*
X119341002Y-68081619D01*
X119341009Y-68081629D01*
X119341016Y-68081636D01*
X120020541Y-68761161D01*
X121468365Y-70208986D01*
X121468366Y-70208987D01*
X121484716Y-70223674D01*
X121484730Y-70223686D01*
X121484738Y-70223693D01*
X121484958Y-70223870D01*
X121505379Y-70240327D01*
X121576424Y-70277490D01*
X121643456Y-70297173D01*
X121643458Y-70297173D01*
X121643464Y-70297175D01*
X121701362Y-70305500D01*
X121701366Y-70305500D01*
X122090824Y-70305500D01*
X122092887Y-70305389D01*
X122112792Y-70304322D01*
X122139149Y-70301488D01*
X122215662Y-70277531D01*
X122276986Y-70244047D01*
X122323814Y-70208992D01*
X122357325Y-70175479D01*
X122382996Y-70155781D01*
X122421997Y-70133263D01*
X122451905Y-70120877D01*
X122495394Y-70109225D01*
X122527485Y-70105000D01*
X122572513Y-70105000D01*
X122604601Y-70109223D01*
X122648102Y-70120879D01*
X122677999Y-70133263D01*
X122717000Y-70155780D01*
X122742679Y-70175485D01*
X122776186Y-70208992D01*
X122776195Y-70209000D01*
X122776222Y-70209025D01*
X122792540Y-70223683D01*
X122792550Y-70223691D01*
X122792558Y-70223698D01*
X122813200Y-70240331D01*
X122884240Y-70277490D01*
X122920554Y-70288153D01*
X122951271Y-70297173D01*
X122951273Y-70297173D01*
X122951279Y-70297175D01*
X123009177Y-70305500D01*
X123170938Y-70305500D01*
X123211493Y-70312319D01*
X123265043Y-70330854D01*
X123265050Y-70330856D01*
X123265056Y-70330858D01*
X123274301Y-70333436D01*
X123289260Y-70337608D01*
X123380708Y-70336364D01*
X123448609Y-70319891D01*
X123502909Y-70298152D01*
X123571995Y-70258264D01*
X123601890Y-70245881D01*
X123645398Y-70234223D01*
X123677488Y-70230000D01*
X123722513Y-70230000D01*
X123754601Y-70234223D01*
X123798102Y-70245879D01*
X123827999Y-70258263D01*
X123867000Y-70280780D01*
X123892679Y-70300485D01*
X123924513Y-70332319D01*
X123944219Y-70358000D01*
X123966733Y-70396995D01*
X123979119Y-70426898D01*
X123990774Y-70470392D01*
X123995000Y-70502485D01*
X123995000Y-70547510D01*
X123990774Y-70579606D01*
X123979119Y-70623099D01*
X123966733Y-70653002D01*
X123924431Y-70726271D01*
X123924430Y-70726273D01*
X123909426Y-70758368D01*
X123894878Y-70798098D01*
X123894788Y-70798344D01*
X123894137Y-70800146D01*
X123894136Y-70800150D01*
X123883434Y-70890975D01*
X123890902Y-70960430D01*
X123891691Y-70964802D01*
X123891329Y-70964867D01*
X123894500Y-70990107D01*
X123894500Y-73645199D01*
X123901498Y-73698362D01*
X123901502Y-73698384D01*
X123904686Y-73710269D01*
X123904710Y-73710358D01*
X123917963Y-73759982D01*
X123917894Y-73760001D01*
X123940801Y-73845491D01*
X123940798Y-73845574D01*
X123945000Y-73877487D01*
X123945000Y-73922512D01*
X123940775Y-73954606D01*
X123913300Y-74057142D01*
X123912691Y-74059334D01*
X123909011Y-74072122D01*
X123908408Y-74075383D01*
X123904941Y-74088763D01*
X123904797Y-74089003D01*
X123904680Y-74089751D01*
X123901506Y-74101597D01*
X123901501Y-74101619D01*
X123894500Y-74154801D01*
X123894500Y-75358594D01*
X123901501Y-75411776D01*
X123901503Y-75411785D01*
X123918113Y-75473776D01*
X123918118Y-75473791D01*
X123938642Y-75523338D01*
X123938650Y-75523353D01*
X123966734Y-75571998D01*
X123979119Y-75601898D01*
X123990774Y-75645393D01*
X123995000Y-75677485D01*
X123995000Y-75722510D01*
X123990774Y-75754607D01*
X123979118Y-75798103D01*
X123966732Y-75828005D01*
X123938648Y-75876648D01*
X123938647Y-75876650D01*
X123918115Y-75926218D01*
X123918113Y-75926222D01*
X123901502Y-75988215D01*
X123894500Y-76041397D01*
X123894500Y-77108600D01*
X123898175Y-77136508D01*
X123901503Y-77161782D01*
X123917606Y-77221878D01*
X123923667Y-77244498D01*
X123927856Y-77248785D01*
X123931414Y-77255306D01*
X123938557Y-77273194D01*
X123986172Y-77355666D01*
X123986897Y-77356994D01*
X123986945Y-77357218D01*
X123987378Y-77358029D01*
X123992699Y-77367274D01*
X123992701Y-77367277D01*
X124007693Y-77389764D01*
X124011069Y-77394170D01*
X124027485Y-77415594D01*
X124045299Y-77435920D01*
X124045300Y-77435921D01*
X125233843Y-78624463D01*
X125233852Y-78624471D01*
X125276390Y-78657112D01*
X125276402Y-78657121D01*
X125276409Y-78657125D01*
X125276412Y-78657127D01*
X125331977Y-78689209D01*
X125331992Y-78689217D01*
X125381551Y-78709746D01*
X125381552Y-78709746D01*
X125381554Y-78709747D01*
X125400768Y-78714895D01*
X125423094Y-78720877D01*
X125453001Y-78733264D01*
X125491997Y-78755778D01*
X125517679Y-78775485D01*
X125549514Y-78807320D01*
X125569217Y-78832997D01*
X125591734Y-78871997D01*
X125604121Y-78901900D01*
X125615253Y-78943445D01*
X125615257Y-78943458D01*
X125635777Y-78992999D01*
X125635787Y-78993019D01*
X125667872Y-79048591D01*
X125667876Y-79048597D01*
X125694381Y-79083136D01*
X125700533Y-79091153D01*
X125776868Y-79167488D01*
X125818379Y-79208999D01*
X125829669Y-79219141D01*
X125829695Y-79219163D01*
X125834738Y-79223693D01*
X125855380Y-79240327D01*
X125855387Y-79240330D01*
X125860477Y-79243667D01*
X125860320Y-79243905D01*
X125867884Y-79248670D01*
X125868782Y-79249342D01*
X125899013Y-79263148D01*
X125926445Y-79277496D01*
X125929041Y-79278258D01*
X125929402Y-79277026D01*
X125948253Y-79285636D01*
X125966762Y-79289662D01*
X125975310Y-79291844D01*
X125993464Y-79297175D01*
X126051362Y-79305500D01*
X126051366Y-79305500D01*
X143224156Y-79305500D01*
X143291195Y-79325185D01*
X143336950Y-79377989D01*
X143346894Y-79447147D01*
X143343934Y-79461576D01*
X143324500Y-79534108D01*
X143324500Y-79534110D01*
X143324500Y-79665891D01*
X143358608Y-79793187D01*
X143391554Y-79850250D01*
X143424500Y-79907314D01*
X143517686Y-80000500D01*
X143631814Y-80066392D01*
X143759108Y-80100500D01*
X143759110Y-80100500D01*
X143890890Y-80100500D01*
X143890892Y-80100500D01*
X144018186Y-80066392D01*
X144132314Y-80000500D01*
X144225500Y-79907314D01*
X144291392Y-79793186D01*
X144325500Y-79665892D01*
X144325500Y-79534108D01*
X144291392Y-79406814D01*
X144225500Y-79292686D01*
X144132314Y-79199500D01*
X144018186Y-79133608D01*
X143901357Y-79102304D01*
X143841697Y-79065939D01*
X143811168Y-79003092D01*
X143819463Y-78933716D01*
X143845767Y-78894851D01*
X146108991Y-76631629D01*
X146123693Y-76615262D01*
X146140327Y-76594620D01*
X146177490Y-76523575D01*
X146197175Y-76456536D01*
X146205500Y-76398638D01*
X146205500Y-73319466D01*
X146205136Y-73307238D01*
X146204258Y-73292509D01*
X146188025Y-73223831D01*
X146160517Y-73159604D01*
X146157810Y-73154221D01*
X146154819Y-73148270D01*
X146142292Y-73079533D01*
X146168917Y-73014935D01*
X146174015Y-73009249D01*
X146175495Y-73007321D01*
X146175497Y-73007316D01*
X146175500Y-73007314D01*
X146241392Y-72893186D01*
X146275500Y-72765892D01*
X146275500Y-72634108D01*
X146241392Y-72506814D01*
X146236021Y-72497512D01*
X146210024Y-72452484D01*
X146175500Y-72392686D01*
X146175495Y-72392681D01*
X146170553Y-72386240D01*
X146171704Y-72385356D01*
X146142472Y-72331820D01*
X146147456Y-72262128D01*
X146155412Y-72244937D01*
X146177490Y-72205470D01*
X146197175Y-72138431D01*
X146205500Y-72080533D01*
X146205500Y-60934108D01*
X146999500Y-60934108D01*
X146999500Y-61065891D01*
X147033608Y-61193187D01*
X147040200Y-61204604D01*
X147099500Y-61307314D01*
X147192686Y-61400500D01*
X147306814Y-61466392D01*
X147434108Y-61500500D01*
X147434110Y-61500500D01*
X147565890Y-61500500D01*
X147565892Y-61500500D01*
X147693186Y-61466392D01*
X147807314Y-61400500D01*
X147900500Y-61307314D01*
X147944254Y-61231530D01*
X150824500Y-61231530D01*
X150824500Y-61438469D01*
X150864868Y-61641412D01*
X150864870Y-61641420D01*
X150944058Y-61832596D01*
X151059024Y-62004657D01*
X151205342Y-62150975D01*
X151205345Y-62150977D01*
X151377402Y-62265941D01*
X151568580Y-62345130D01*
X151771530Y-62385499D01*
X151771534Y-62385500D01*
X151771535Y-62385500D01*
X151978466Y-62385500D01*
X151978467Y-62385499D01*
X152181420Y-62345130D01*
X152372598Y-62265941D01*
X152544655Y-62150977D01*
X152690977Y-62004655D01*
X152805941Y-61832598D01*
X152885130Y-61641420D01*
X152925500Y-61438465D01*
X152925500Y-61231535D01*
X152885130Y-61028580D01*
X152805941Y-60837402D01*
X152690977Y-60665345D01*
X152690975Y-60665342D01*
X152544657Y-60519024D01*
X152458626Y-60461541D01*
X152372598Y-60404059D01*
X152181420Y-60324870D01*
X152181412Y-60324868D01*
X151978469Y-60284500D01*
X151978465Y-60284500D01*
X151771535Y-60284500D01*
X151771530Y-60284500D01*
X151568587Y-60324868D01*
X151568579Y-60324870D01*
X151377403Y-60404058D01*
X151205342Y-60519024D01*
X151059024Y-60665342D01*
X150944058Y-60837403D01*
X150864870Y-61028579D01*
X150864868Y-61028587D01*
X150824500Y-61231530D01*
X147944254Y-61231530D01*
X147966392Y-61193186D01*
X148000500Y-61065892D01*
X148000500Y-60934108D01*
X147966392Y-60806814D01*
X147900500Y-60692686D01*
X147807314Y-60599500D01*
X147750250Y-60566554D01*
X147693187Y-60533608D01*
X147629539Y-60516554D01*
X147565892Y-60499500D01*
X147434108Y-60499500D01*
X147306812Y-60533608D01*
X147192686Y-60599500D01*
X147192683Y-60599502D01*
X147099502Y-60692683D01*
X147099500Y-60692686D01*
X147033608Y-60806812D01*
X146999500Y-60934108D01*
X146205500Y-60934108D01*
X146205500Y-57629500D01*
X146225185Y-57562461D01*
X146277989Y-57516706D01*
X146329500Y-57505500D01*
X151714075Y-57505500D01*
X151781114Y-57525185D01*
X151826869Y-57577989D01*
X151836813Y-57647147D01*
X151807788Y-57710703D01*
X151749010Y-57748477D01*
X151738266Y-57751117D01*
X151568587Y-57784868D01*
X151568579Y-57784870D01*
X151377403Y-57864058D01*
X151205342Y-57979024D01*
X151059024Y-58125342D01*
X150944058Y-58297403D01*
X150864870Y-58488579D01*
X150864868Y-58488587D01*
X150824500Y-58691530D01*
X150824500Y-58898469D01*
X150864868Y-59101412D01*
X150864870Y-59101420D01*
X150944058Y-59292596D01*
X151059024Y-59464657D01*
X151205342Y-59610975D01*
X151205345Y-59610977D01*
X151377402Y-59725941D01*
X151568580Y-59805130D01*
X151771530Y-59845499D01*
X151771534Y-59845500D01*
X151771535Y-59845500D01*
X151978466Y-59845500D01*
X151978467Y-59845499D01*
X152181420Y-59805130D01*
X152372598Y-59725941D01*
X152544655Y-59610977D01*
X152690977Y-59464655D01*
X152805941Y-59292598D01*
X152885130Y-59101420D01*
X152925500Y-58898465D01*
X152925500Y-58691535D01*
X152885130Y-58488580D01*
X152805941Y-58297402D01*
X152690977Y-58125345D01*
X152690975Y-58125342D01*
X152544657Y-57979024D01*
X152458626Y-57921541D01*
X152372598Y-57864059D01*
X152181420Y-57784870D01*
X152181412Y-57784868D01*
X152011734Y-57751117D01*
X151949823Y-57718732D01*
X151915249Y-57658017D01*
X151918988Y-57588247D01*
X151959855Y-57531575D01*
X152024873Y-57505994D01*
X152035925Y-57505500D01*
X152748639Y-57505500D01*
X152751180Y-57505363D01*
X152770607Y-57504322D01*
X152770614Y-57504321D01*
X152770618Y-57504321D01*
X152796965Y-57501488D01*
X152873482Y-57477529D01*
X152934805Y-57444044D01*
X152981629Y-57408991D01*
X153058991Y-57331629D01*
X153073693Y-57315262D01*
X153090327Y-57294620D01*
X153090330Y-57294612D01*
X153093668Y-57289520D01*
X153093909Y-57289677D01*
X153098680Y-57282100D01*
X153099330Y-57281234D01*
X153113141Y-57250993D01*
X153127502Y-57223535D01*
X153128264Y-57220938D01*
X153127034Y-57220577D01*
X153135636Y-57201745D01*
X153139655Y-57183263D01*
X153141844Y-57174688D01*
X153147175Y-57156538D01*
X153155500Y-57098638D01*
X153155500Y-54974000D01*
X153154291Y-54962755D01*
X153166696Y-54893997D01*
X153214305Y-54842859D01*
X153277580Y-54825500D01*
X160200500Y-54825500D01*
X160267539Y-54845185D01*
X160313294Y-54897989D01*
X160324500Y-54949500D01*
X160324500Y-136550500D01*
X160304815Y-136617539D01*
X160252011Y-136663294D01*
X160200500Y-136674500D01*
X112249500Y-136674500D01*
X112182461Y-136654815D01*
X112136706Y-136602011D01*
X112125500Y-136550500D01*
X112125500Y-120530247D01*
X151624500Y-120530247D01*
X151624500Y-122269752D01*
X151636131Y-122328229D01*
X151636132Y-122328230D01*
X151680447Y-122394552D01*
X151746769Y-122438867D01*
X151746770Y-122438868D01*
X151805247Y-122450499D01*
X151805250Y-122450500D01*
X151805252Y-122450500D01*
X153544750Y-122450500D01*
X153544751Y-122450499D01*
X153559568Y-122447552D01*
X153603229Y-122438868D01*
X153603229Y-122438867D01*
X153603231Y-122438867D01*
X153669552Y-122394552D01*
X153713867Y-122328231D01*
X153713867Y-122328229D01*
X153713868Y-122328229D01*
X153725499Y-122269752D01*
X153725500Y-122269750D01*
X153725500Y-120530249D01*
X153725499Y-120530247D01*
X153713868Y-120471770D01*
X153713867Y-120471769D01*
X153669552Y-120405447D01*
X153603230Y-120361132D01*
X153603229Y-120361131D01*
X153544752Y-120349500D01*
X153544748Y-120349500D01*
X151805252Y-120349500D01*
X151805247Y-120349500D01*
X151746770Y-120361131D01*
X151746769Y-120361132D01*
X151680447Y-120405447D01*
X151636132Y-120471769D01*
X151636131Y-120471770D01*
X151624500Y-120530247D01*
X112125500Y-120530247D01*
X112125500Y-108934108D01*
X127890305Y-108934108D01*
X127890305Y-109065891D01*
X127924413Y-109193187D01*
X127951505Y-109240111D01*
X127990305Y-109307314D01*
X128083491Y-109400500D01*
X128197619Y-109466392D01*
X128324913Y-109500500D01*
X128324915Y-109500500D01*
X128456695Y-109500500D01*
X128456697Y-109500500D01*
X128583991Y-109466392D01*
X128698119Y-109400500D01*
X128791305Y-109307314D01*
X128857197Y-109193186D01*
X128891305Y-109065892D01*
X128891305Y-108934108D01*
X128857197Y-108806814D01*
X128791305Y-108692686D01*
X128698119Y-108599500D01*
X128641055Y-108566554D01*
X128583992Y-108533608D01*
X128513843Y-108514812D01*
X128456697Y-108499500D01*
X128324913Y-108499500D01*
X128197617Y-108533608D01*
X128083491Y-108599500D01*
X128083488Y-108599502D01*
X127990307Y-108692683D01*
X127990305Y-108692686D01*
X127924413Y-108806812D01*
X127890305Y-108934108D01*
X112125500Y-108934108D01*
X112125500Y-77274003D01*
X114094500Y-77274003D01*
X114094500Y-78426007D01*
X114099197Y-78469686D01*
X114110397Y-78521174D01*
X114112890Y-78531372D01*
X114112891Y-78531375D01*
X114155899Y-78612083D01*
X114155901Y-78612086D01*
X114201660Y-78664895D01*
X114219242Y-78682839D01*
X114219246Y-78682843D01*
X114219247Y-78682844D01*
X114219249Y-78682845D01*
X114299059Y-78727488D01*
X114299063Y-78727490D01*
X114366102Y-78747175D01*
X114424000Y-78755500D01*
X117050500Y-78755500D01*
X117117539Y-78775185D01*
X117163294Y-78827989D01*
X117174500Y-78879500D01*
X117174500Y-80831006D01*
X117174500Y-80968994D01*
X117174500Y-80968996D01*
X117174499Y-80968996D01*
X117201418Y-81104322D01*
X117201421Y-81104332D01*
X117254222Y-81231807D01*
X117330887Y-81346545D01*
X117330888Y-81346546D01*
X119313181Y-83328838D01*
X119346666Y-83390161D01*
X119349500Y-83416519D01*
X119349500Y-100206006D01*
X119349500Y-100343994D01*
X119349500Y-100343996D01*
X119349499Y-100343996D01*
X119376418Y-100479322D01*
X119376421Y-100479332D01*
X119429222Y-100606807D01*
X119505887Y-100721545D01*
X119505888Y-100721546D01*
X120186886Y-101402542D01*
X120245879Y-101461535D01*
X120284459Y-101500115D01*
X120399182Y-101576771D01*
X120399186Y-101576773D01*
X120399189Y-101576775D01*
X120439118Y-101593314D01*
X120526671Y-101629580D01*
X120553591Y-101634934D01*
X120647350Y-101653584D01*
X120662006Y-101656500D01*
X120662007Y-101656500D01*
X124270481Y-101656500D01*
X124337520Y-101676185D01*
X124358162Y-101692819D01*
X128236886Y-105571542D01*
X128305501Y-105640157D01*
X128334459Y-105669115D01*
X128449185Y-105745773D01*
X128449187Y-105745773D01*
X128449189Y-105745775D01*
X128518538Y-105774500D01*
X128576671Y-105798580D01*
X128586324Y-105800500D01*
X128659905Y-105815136D01*
X128712004Y-105825500D01*
X128712007Y-105825500D01*
X132345500Y-105825500D01*
X132412539Y-105845185D01*
X132458294Y-105897989D01*
X132469500Y-105949500D01*
X132469500Y-106126005D01*
X132472029Y-106158138D01*
X132476881Y-106188777D01*
X132477646Y-106193282D01*
X132477647Y-106193285D01*
X132477648Y-106193287D01*
X132513592Y-106277383D01*
X132549062Y-106326203D01*
X132549557Y-106326884D01*
X132573797Y-106354628D01*
X132644025Y-106396588D01*
X132652307Y-106401536D01*
X132710498Y-106420443D01*
X132739268Y-106424999D01*
X132773996Y-106430500D01*
X132774000Y-106430500D01*
X134475994Y-106430500D01*
X134476000Y-106430500D01*
X134508144Y-106427970D01*
X134538737Y-106423125D01*
X134541371Y-106422677D01*
X134543282Y-106422353D01*
X134543282Y-106422352D01*
X134543287Y-106422352D01*
X134627383Y-106386408D01*
X134676883Y-106350444D01*
X134704628Y-106326203D01*
X134751536Y-106247693D01*
X134770443Y-106189502D01*
X134776599Y-106150629D01*
X134780500Y-106126004D01*
X134780500Y-105545108D01*
X137608700Y-105545108D01*
X137608700Y-105676891D01*
X137642808Y-105804187D01*
X137666479Y-105845185D01*
X137708700Y-105918314D01*
X137801886Y-106011500D01*
X137916014Y-106077392D01*
X138043308Y-106111500D01*
X138043310Y-106111500D01*
X138175090Y-106111500D01*
X138175092Y-106111500D01*
X138302386Y-106077392D01*
X138416514Y-106011500D01*
X138509700Y-105918314D01*
X138575592Y-105804186D01*
X138609700Y-105676892D01*
X138609700Y-105545108D01*
X138575592Y-105417814D01*
X138509700Y-105303686D01*
X138416514Y-105210500D01*
X138359450Y-105177554D01*
X138302387Y-105144608D01*
X138238739Y-105127554D01*
X138175092Y-105110500D01*
X138043308Y-105110500D01*
X137916012Y-105144608D01*
X137801886Y-105210500D01*
X137801883Y-105210502D01*
X137708702Y-105303683D01*
X137708700Y-105303686D01*
X137642808Y-105417812D01*
X137608700Y-105545108D01*
X134780500Y-105545108D01*
X134780500Y-104299006D01*
X134780500Y-104299000D01*
X134777970Y-104266856D01*
X134773125Y-104236263D01*
X134772352Y-104231713D01*
X134736408Y-104147617D01*
X134700444Y-104098117D01*
X134676203Y-104070372D01*
X134676202Y-104070371D01*
X134597694Y-104023464D01*
X134539504Y-104004557D01*
X134476004Y-103994500D01*
X134476000Y-103994500D01*
X133504532Y-103994500D01*
X133437493Y-103974815D01*
X133435641Y-103973602D01*
X133331817Y-103904228D01*
X133331804Y-103904221D01*
X133204332Y-103851421D01*
X133204322Y-103851418D01*
X133068995Y-103824500D01*
X133068993Y-103824500D01*
X132931007Y-103824500D01*
X132931005Y-103824500D01*
X132795677Y-103851418D01*
X132795667Y-103851421D01*
X132668195Y-103904221D01*
X132668182Y-103904228D01*
X132553458Y-103980885D01*
X132553454Y-103980888D01*
X132455888Y-104078454D01*
X132455885Y-104078458D01*
X132379228Y-104193182D01*
X132379221Y-104193195D01*
X132326421Y-104320667D01*
X132326418Y-104320677D01*
X132325620Y-104324692D01*
X132293235Y-104386603D01*
X132232519Y-104421177D01*
X132204003Y-104424500D01*
X129122518Y-104424500D01*
X129055479Y-104404815D01*
X129034837Y-104388181D01*
X125058546Y-100411888D01*
X125058545Y-100411887D01*
X124943807Y-100335222D01*
X124816332Y-100282421D01*
X124816322Y-100282418D01*
X124680996Y-100255500D01*
X124680994Y-100255500D01*
X124680993Y-100255500D01*
X121072518Y-100255500D01*
X121005479Y-100235815D01*
X120984837Y-100219181D01*
X120786819Y-100021162D01*
X120753334Y-99959839D01*
X120750500Y-99933481D01*
X120750500Y-94159108D01*
X128199500Y-94159108D01*
X128199500Y-94290892D01*
X128216554Y-94354539D01*
X128233608Y-94418187D01*
X128266554Y-94475250D01*
X128299500Y-94532314D01*
X128392686Y-94625500D01*
X128506814Y-94691392D01*
X128634108Y-94725500D01*
X128634110Y-94725500D01*
X128765890Y-94725500D01*
X128765892Y-94725500D01*
X128893186Y-94691392D01*
X129007314Y-94625500D01*
X129100500Y-94532314D01*
X129166392Y-94418186D01*
X129200500Y-94290892D01*
X129200500Y-94159108D01*
X129166392Y-94031814D01*
X129100500Y-93917686D01*
X129007314Y-93824500D01*
X128950250Y-93791554D01*
X128893187Y-93758608D01*
X128829539Y-93741554D01*
X128765892Y-93724500D01*
X128634108Y-93724500D01*
X128506812Y-93758608D01*
X128392686Y-93824500D01*
X128392683Y-93824502D01*
X128299502Y-93917683D01*
X128299500Y-93917686D01*
X128233608Y-94031812D01*
X128211228Y-94115337D01*
X128199500Y-94159108D01*
X120750500Y-94159108D01*
X120750500Y-92309108D01*
X128349500Y-92309108D01*
X128349500Y-92440891D01*
X128383608Y-92568187D01*
X128416554Y-92625250D01*
X128449500Y-92682314D01*
X128542686Y-92775500D01*
X128656814Y-92841392D01*
X128784108Y-92875500D01*
X128784110Y-92875500D01*
X128915890Y-92875500D01*
X128915892Y-92875500D01*
X129043186Y-92841392D01*
X129157314Y-92775500D01*
X129250500Y-92682314D01*
X129316392Y-92568186D01*
X129350500Y-92440892D01*
X129350500Y-92309108D01*
X129316392Y-92181814D01*
X129308817Y-92168694D01*
X138025500Y-92168694D01*
X138025500Y-92300478D01*
X138027813Y-92309110D01*
X138059608Y-92427773D01*
X138092554Y-92484836D01*
X138125500Y-92541900D01*
X138218686Y-92635086D01*
X138332814Y-92700978D01*
X138460108Y-92735086D01*
X138460110Y-92735086D01*
X138591890Y-92735086D01*
X138591892Y-92735086D01*
X138719186Y-92700978D01*
X138833314Y-92635086D01*
X138926500Y-92541900D01*
X138992392Y-92427772D01*
X139026500Y-92300478D01*
X139026500Y-92300476D01*
X139028603Y-92292628D01*
X139029837Y-92292958D01*
X139054762Y-92236618D01*
X139113086Y-92198147D01*
X139149434Y-92192700D01*
X139183890Y-92192700D01*
X139183892Y-92192700D01*
X139311186Y-92158592D01*
X139425314Y-92092700D01*
X139518500Y-91999514D01*
X139584392Y-91885386D01*
X139618500Y-91758092D01*
X139618500Y-91626308D01*
X139584392Y-91499014D01*
X139518500Y-91384886D01*
X139425314Y-91291700D01*
X139359446Y-91253671D01*
X139311187Y-91225808D01*
X139213002Y-91199500D01*
X139183892Y-91191700D01*
X139052108Y-91191700D01*
X138924812Y-91225808D01*
X138810686Y-91291700D01*
X138810683Y-91291702D01*
X138717502Y-91384883D01*
X138717500Y-91384886D01*
X138651608Y-91499012D01*
X138615397Y-91634158D01*
X138614162Y-91633827D01*
X138589238Y-91690168D01*
X138530914Y-91728639D01*
X138494566Y-91734086D01*
X138460108Y-91734086D01*
X138332812Y-91768194D01*
X138218686Y-91834086D01*
X138218683Y-91834088D01*
X138125502Y-91927269D01*
X138125500Y-91927272D01*
X138059608Y-92041398D01*
X138043772Y-92100500D01*
X138025500Y-92168694D01*
X129308817Y-92168694D01*
X129250500Y-92067686D01*
X129157314Y-91974500D01*
X129075508Y-91927269D01*
X129043187Y-91908608D01*
X128956519Y-91885386D01*
X128915892Y-91874500D01*
X128784108Y-91874500D01*
X128656812Y-91908608D01*
X128542686Y-91974500D01*
X128542683Y-91974502D01*
X128449502Y-92067683D01*
X128449500Y-92067686D01*
X128383608Y-92181812D01*
X128349500Y-92309108D01*
X120750500Y-92309108D01*
X120750500Y-89848995D01*
X124619500Y-89848995D01*
X124619500Y-91051005D01*
X124622029Y-91083138D01*
X124626881Y-91113777D01*
X124627646Y-91118282D01*
X124627647Y-91118285D01*
X124627648Y-91118287D01*
X124663592Y-91202383D01*
X124699062Y-91251203D01*
X124699557Y-91251884D01*
X124723797Y-91279628D01*
X124776985Y-91311407D01*
X124802307Y-91326536D01*
X124860498Y-91345443D01*
X124889268Y-91349999D01*
X124923996Y-91355500D01*
X124924000Y-91355500D01*
X126300994Y-91355500D01*
X126301000Y-91355500D01*
X126333144Y-91352970D01*
X126363737Y-91348125D01*
X126366371Y-91347677D01*
X126368282Y-91347353D01*
X126368282Y-91347352D01*
X126368287Y-91347352D01*
X126452383Y-91311408D01*
X126501883Y-91275444D01*
X126529628Y-91251203D01*
X126576536Y-91172693D01*
X126595443Y-91114502D01*
X126604521Y-91057182D01*
X126605500Y-91051004D01*
X126605500Y-89849006D01*
X126605500Y-89849000D01*
X126602970Y-89816856D01*
X126598125Y-89786263D01*
X126597352Y-89781713D01*
X126561408Y-89697617D01*
X126525444Y-89648117D01*
X126501203Y-89620372D01*
X126501202Y-89620371D01*
X126422694Y-89573464D01*
X126364504Y-89554557D01*
X126301004Y-89544500D01*
X126301000Y-89544500D01*
X124924000Y-89544500D01*
X124923994Y-89544500D01*
X124891861Y-89547029D01*
X124861222Y-89551881D01*
X124856717Y-89552646D01*
X124856714Y-89552647D01*
X124772617Y-89588592D01*
X124723115Y-89624557D01*
X124695371Y-89648797D01*
X124648464Y-89727305D01*
X124629557Y-89785494D01*
X124629557Y-89785497D01*
X124619500Y-89848995D01*
X120750500Y-89848995D01*
X120750500Y-85065519D01*
X120770185Y-84998480D01*
X120822989Y-84952725D01*
X120892147Y-84942781D01*
X120955703Y-84971806D01*
X120962181Y-84977838D01*
X124553453Y-88569111D01*
X124553454Y-88569112D01*
X124668192Y-88645777D01*
X124786430Y-88694752D01*
X124795672Y-88698580D01*
X124795676Y-88698580D01*
X124795677Y-88698581D01*
X124931003Y-88725500D01*
X124931006Y-88725500D01*
X124931007Y-88725500D01*
X131108481Y-88725500D01*
X131175520Y-88745185D01*
X131196162Y-88761819D01*
X132433181Y-89998838D01*
X132466666Y-90060161D01*
X132469500Y-90086519D01*
X132469500Y-91151005D01*
X132472029Y-91183138D01*
X132476881Y-91213777D01*
X132477646Y-91218282D01*
X132477647Y-91218285D01*
X132479676Y-91223032D01*
X132513592Y-91302383D01*
X132549062Y-91351203D01*
X132549557Y-91351884D01*
X132573797Y-91379628D01*
X132626985Y-91411407D01*
X132652307Y-91426536D01*
X132710498Y-91445443D01*
X132739268Y-91449999D01*
X132773996Y-91455500D01*
X132774000Y-91455500D01*
X134475994Y-91455500D01*
X134476000Y-91455500D01*
X134508144Y-91452970D01*
X134538737Y-91448125D01*
X134541371Y-91447677D01*
X134543282Y-91447353D01*
X134543282Y-91447352D01*
X134543287Y-91447352D01*
X134627383Y-91411408D01*
X134676883Y-91375444D01*
X134704628Y-91351203D01*
X134751536Y-91272693D01*
X134770443Y-91214502D01*
X134777064Y-91172693D01*
X134780500Y-91151004D01*
X134780500Y-91082997D01*
X134789939Y-91035544D01*
X134800406Y-91010274D01*
X134823580Y-90954328D01*
X134850500Y-90818993D01*
X134850500Y-89881007D01*
X134850500Y-89881004D01*
X134828053Y-89768161D01*
X134826153Y-89758608D01*
X134823580Y-89745671D01*
X134788997Y-89662182D01*
X134788149Y-89659880D01*
X134787696Y-89653178D01*
X134780500Y-89617002D01*
X134780500Y-89324006D01*
X134780500Y-89324000D01*
X134777970Y-89291856D01*
X134773125Y-89261263D01*
X134772352Y-89256713D01*
X134736408Y-89172617D01*
X134700444Y-89123117D01*
X134676203Y-89095372D01*
X134676202Y-89095371D01*
X134597694Y-89048464D01*
X134539504Y-89029557D01*
X134476004Y-89019500D01*
X134476000Y-89019500D01*
X134081751Y-89019500D01*
X134057559Y-89017117D01*
X133968996Y-88999500D01*
X133968994Y-88999500D01*
X133968993Y-88999500D01*
X133466519Y-88999500D01*
X133399480Y-88979815D01*
X133378838Y-88963181D01*
X131896546Y-87480888D01*
X131896545Y-87480887D01*
X131781807Y-87404222D01*
X131654332Y-87351421D01*
X131654322Y-87351418D01*
X131518996Y-87324500D01*
X131518994Y-87324500D01*
X131518993Y-87324500D01*
X125341519Y-87324500D01*
X125274480Y-87304815D01*
X125253838Y-87288181D01*
X121977838Y-84012181D01*
X121944353Y-83950858D01*
X121949337Y-83881166D01*
X121991209Y-83825233D01*
X122056673Y-83800816D01*
X122065519Y-83800500D01*
X122165890Y-83800500D01*
X122165892Y-83800500D01*
X122293186Y-83766392D01*
X122407314Y-83700500D01*
X122500500Y-83607314D01*
X122566392Y-83493186D01*
X122600500Y-83365892D01*
X122600500Y-83234108D01*
X122587103Y-83184108D01*
X125124500Y-83184108D01*
X125124500Y-83315891D01*
X125158608Y-83443187D01*
X125187476Y-83493186D01*
X125224500Y-83557314D01*
X125317686Y-83650500D01*
X125431814Y-83716392D01*
X125559108Y-83750500D01*
X125559110Y-83750500D01*
X125690890Y-83750500D01*
X125690892Y-83750500D01*
X125818186Y-83716392D01*
X125932314Y-83650500D01*
X126025500Y-83557314D01*
X126091392Y-83443186D01*
X126125500Y-83315892D01*
X126125500Y-83184108D01*
X126091392Y-83056814D01*
X126025500Y-82942686D01*
X125932314Y-82849500D01*
X125845712Y-82799500D01*
X125818187Y-82783608D01*
X125754539Y-82766554D01*
X125690892Y-82749500D01*
X125559108Y-82749500D01*
X125431812Y-82783608D01*
X125317686Y-82849500D01*
X125317683Y-82849502D01*
X125224502Y-82942683D01*
X125224500Y-82942686D01*
X125158608Y-83056812D01*
X125124500Y-83184108D01*
X122587103Y-83184108D01*
X122566392Y-83106814D01*
X122500500Y-82992686D01*
X122407314Y-82899500D01*
X122350250Y-82866554D01*
X122293187Y-82833608D01*
X122229539Y-82816554D01*
X122165892Y-82799500D01*
X122034108Y-82799500D01*
X121906812Y-82833608D01*
X121792686Y-82899500D01*
X121792683Y-82899502D01*
X121699502Y-82992683D01*
X121699500Y-82992686D01*
X121633608Y-83106812D01*
X121599500Y-83234108D01*
X121599500Y-83334481D01*
X121579815Y-83401520D01*
X121527011Y-83447275D01*
X121457853Y-83457219D01*
X121394297Y-83428194D01*
X121387819Y-83422162D01*
X118611819Y-80646162D01*
X118578334Y-80584839D01*
X118575500Y-80558481D01*
X118575500Y-78473351D01*
X119195515Y-78473351D01*
X119200029Y-78517870D01*
X119211228Y-78570368D01*
X119213894Y-78581374D01*
X119256903Y-78662083D01*
X119256905Y-78662086D01*
X119302664Y-78714895D01*
X119312666Y-78725103D01*
X119320250Y-78732843D01*
X119320251Y-78732844D01*
X119320253Y-78732845D01*
X119400063Y-78777488D01*
X119400067Y-78777490D01*
X119467106Y-78797175D01*
X119525004Y-78805500D01*
X122263481Y-78805500D01*
X122330520Y-78825185D01*
X122351162Y-78841819D01*
X128073453Y-84564111D01*
X128073454Y-84564112D01*
X128188192Y-84640777D01*
X128315667Y-84693578D01*
X128315672Y-84693580D01*
X128315676Y-84693580D01*
X128315677Y-84693581D01*
X128451003Y-84720500D01*
X128451006Y-84720500D01*
X128451007Y-84720500D01*
X134622919Y-84720500D01*
X134689958Y-84740185D01*
X134710600Y-84756819D01*
X141887181Y-91933400D01*
X141901884Y-91960327D01*
X141918477Y-91986146D01*
X141919368Y-91992346D01*
X141920666Y-91994723D01*
X141923500Y-92021081D01*
X141923500Y-92034481D01*
X141903815Y-92101520D01*
X141887181Y-92122162D01*
X140761967Y-93247376D01*
X140700644Y-93280861D01*
X140674286Y-93283695D01*
X136566129Y-93283695D01*
X136492040Y-93303547D01*
X136492037Y-93303548D01*
X136437063Y-93335288D01*
X136437061Y-93335289D01*
X136425617Y-93341895D01*
X136425612Y-93341899D01*
X135854669Y-93912842D01*
X135817831Y-93938258D01*
X135423927Y-94115336D01*
X135423926Y-94115336D01*
X135414819Y-94119431D01*
X135395219Y-94124683D01*
X135367368Y-94140762D01*
X135361643Y-94143336D01*
X135361640Y-94143336D01*
X135350030Y-94148555D01*
X135334959Y-94156089D01*
X135333282Y-94157016D01*
X135328818Y-94159554D01*
X135322906Y-94163916D01*
X135322838Y-94163824D01*
X135306822Y-94175718D01*
X135281091Y-94190574D01*
X135187905Y-94283761D01*
X135122013Y-94397887D01*
X135116574Y-94418186D01*
X135087905Y-94525183D01*
X135087905Y-94656967D01*
X135097129Y-94691391D01*
X135122013Y-94784262D01*
X135134964Y-94806693D01*
X135187905Y-94898389D01*
X135281091Y-94991575D01*
X135395219Y-95057467D01*
X135522513Y-95091575D01*
X135522515Y-95091575D01*
X135654295Y-95091575D01*
X135654297Y-95091575D01*
X135781591Y-95057467D01*
X135895719Y-94991575D01*
X135988905Y-94898389D01*
X136019238Y-94845849D01*
X136030930Y-94829431D01*
X136038710Y-94812123D01*
X136054797Y-94784261D01*
X136057467Y-94774293D01*
X136064145Y-94755543D01*
X136077651Y-94725500D01*
X136241219Y-94361646D01*
X136266629Y-94324816D01*
X136688825Y-93902621D01*
X136750147Y-93869139D01*
X136776505Y-93866305D01*
X139843675Y-93866305D01*
X139910714Y-93885990D01*
X139956469Y-93938794D01*
X139966413Y-94007952D01*
X139937388Y-94071508D01*
X139931356Y-94077986D01*
X139742184Y-94267157D01*
X139742183Y-94267158D01*
X139679958Y-94360287D01*
X139679956Y-94360290D01*
X139665522Y-94381890D01*
X139665517Y-94381899D01*
X139612717Y-94509371D01*
X139612714Y-94509381D01*
X139585796Y-94644708D01*
X139585796Y-98871016D01*
X139580799Y-98905862D01*
X139578918Y-98912283D01*
X139551420Y-98978672D01*
X139535421Y-99059106D01*
X139534350Y-99064486D01*
X139534350Y-99064489D01*
X139524500Y-99114005D01*
X139524500Y-99507849D01*
X139504815Y-99574888D01*
X139452011Y-99620643D01*
X139382853Y-99630587D01*
X139368414Y-99627626D01*
X139365892Y-99626950D01*
X139234108Y-99626950D01*
X139106812Y-99661058D01*
X138992686Y-99726950D01*
X138902558Y-99817078D01*
X138841234Y-99850562D01*
X138771543Y-99845578D01*
X138715609Y-99803706D01*
X138707490Y-99791396D01*
X138673379Y-99732314D01*
X138650500Y-99692686D01*
X138557314Y-99599500D01*
X138483380Y-99556814D01*
X138443187Y-99533608D01*
X138347051Y-99507849D01*
X138315892Y-99499500D01*
X138184108Y-99499500D01*
X138056812Y-99533608D01*
X137942686Y-99599500D01*
X137942683Y-99599502D01*
X137849502Y-99692683D01*
X137849500Y-99692686D01*
X137783608Y-99806812D01*
X137751807Y-99925499D01*
X137749500Y-99934108D01*
X137749500Y-100065892D01*
X137766554Y-100129539D01*
X137783608Y-100193187D01*
X137797005Y-100216390D01*
X137849500Y-100307314D01*
X137942686Y-100400500D01*
X138056814Y-100466392D01*
X138110307Y-100480725D01*
X138169968Y-100517090D01*
X138200497Y-100579937D01*
X138192202Y-100649312D01*
X138147717Y-100703190D01*
X138081165Y-100724465D01*
X138078214Y-100724500D01*
X129481005Y-100724500D01*
X129345677Y-100751418D01*
X129345667Y-100751421D01*
X129218195Y-100804221D01*
X129218182Y-100804228D01*
X129103458Y-100880885D01*
X129103454Y-100880888D01*
X129005888Y-100978454D01*
X129005885Y-100978458D01*
X128929228Y-101093182D01*
X128929221Y-101093195D01*
X128876421Y-101220667D01*
X128876418Y-101220677D01*
X128849500Y-101356004D01*
X128849500Y-101356007D01*
X128849500Y-101493993D01*
X128849500Y-101493995D01*
X128849499Y-101493995D01*
X128876418Y-101629322D01*
X128876421Y-101629332D01*
X128929221Y-101756804D01*
X128929228Y-101756817D01*
X129005885Y-101871541D01*
X129005888Y-101871545D01*
X129103454Y-101969111D01*
X129103458Y-101969114D01*
X129218182Y-102045771D01*
X129218195Y-102045778D01*
X129268484Y-102066608D01*
X129345672Y-102098580D01*
X129345676Y-102098580D01*
X129345677Y-102098581D01*
X129481004Y-102125500D01*
X129481007Y-102125500D01*
X139400500Y-102125500D01*
X139467539Y-102145185D01*
X139513294Y-102197989D01*
X139524500Y-102249500D01*
X139524500Y-104756006D01*
X139524500Y-104893994D01*
X139524500Y-104893996D01*
X139524499Y-104893996D01*
X139551418Y-105029322D01*
X139551421Y-105029332D01*
X139604222Y-105156807D01*
X139680887Y-105271545D01*
X139680888Y-105271546D01*
X140013181Y-105603838D01*
X140046666Y-105665161D01*
X140049500Y-105691519D01*
X140049500Y-106483500D01*
X140029815Y-106550539D01*
X139977011Y-106596294D01*
X139925500Y-106607500D01*
X137717317Y-106607500D01*
X137624000Y-106626062D01*
X137623996Y-106626063D01*
X137617175Y-106627420D01*
X137581983Y-106634420D01*
X137534170Y-106654225D01*
X137529351Y-106656221D01*
X137529345Y-106656223D01*
X137454503Y-106687223D01*
X137358878Y-106751118D01*
X137358874Y-106751121D01*
X137350247Y-106756886D01*
X137339769Y-106763887D01*
X137247495Y-106856159D01*
X137246153Y-106857425D01*
X137216566Y-106872472D01*
X137187435Y-106888379D01*
X137185273Y-106888830D01*
X137175272Y-106890819D01*
X137047790Y-106943624D01*
X136933054Y-107020287D01*
X134930887Y-109022454D01*
X134854222Y-109137192D01*
X134801421Y-109264667D01*
X134801418Y-109264677D01*
X134774500Y-109400003D01*
X134774500Y-109400006D01*
X134774500Y-109537994D01*
X134774500Y-109537996D01*
X134774499Y-109537996D01*
X134801418Y-109673322D01*
X134801421Y-109673332D01*
X134854222Y-109800807D01*
X134930887Y-109915545D01*
X135028454Y-110013112D01*
X135143192Y-110089777D01*
X135270667Y-110142578D01*
X135270672Y-110142580D01*
X135270676Y-110142580D01*
X135270677Y-110142581D01*
X135406003Y-110169500D01*
X135406006Y-110169500D01*
X135543996Y-110169500D01*
X135635040Y-110151389D01*
X135679328Y-110142580D01*
X135743069Y-110116177D01*
X135806807Y-110089777D01*
X135806808Y-110089776D01*
X135806811Y-110089775D01*
X135921543Y-110013114D01*
X137660752Y-108273903D01*
X137722073Y-108240420D01*
X137724191Y-108239978D01*
X137734240Y-108237980D01*
X137861723Y-108185175D01*
X137976455Y-108108514D01*
X138040151Y-108044817D01*
X138101472Y-108011334D01*
X138127831Y-108008500D01*
X139925500Y-108008500D01*
X139992539Y-108028185D01*
X140038294Y-108080989D01*
X140049500Y-108132500D01*
X140049500Y-113943993D01*
X140049500Y-113943995D01*
X140049499Y-113943995D01*
X140076418Y-114079322D01*
X140076421Y-114079332D01*
X140129221Y-114206804D01*
X140129228Y-114206817D01*
X140205885Y-114321541D01*
X140205888Y-114321545D01*
X140252760Y-114368416D01*
X140252787Y-114368445D01*
X142128454Y-116244112D01*
X142243192Y-116320777D01*
X142370667Y-116373578D01*
X142370672Y-116373580D01*
X142370676Y-116373580D01*
X142370677Y-116373581D01*
X142506003Y-116400500D01*
X142506006Y-116400500D01*
X142506007Y-116400500D01*
X146593950Y-116400500D01*
X146660989Y-116420185D01*
X146673416Y-116429310D01*
X146673797Y-116429628D01*
X146726985Y-116461407D01*
X146752307Y-116476536D01*
X146810498Y-116495443D01*
X146839268Y-116499999D01*
X146873996Y-116505500D01*
X146874000Y-116505500D01*
X148700994Y-116505500D01*
X148701000Y-116505500D01*
X148733144Y-116502970D01*
X148763737Y-116498125D01*
X148766371Y-116497677D01*
X148768282Y-116497353D01*
X148768282Y-116497352D01*
X148768287Y-116497352D01*
X148852383Y-116461408D01*
X148901883Y-116425444D01*
X148929628Y-116401203D01*
X148976536Y-116322693D01*
X148995443Y-116264502D01*
X149001599Y-116225629D01*
X149005500Y-116201004D01*
X149005500Y-114499006D01*
X149005500Y-114499000D01*
X149002970Y-114466856D01*
X148998125Y-114436263D01*
X148997352Y-114431713D01*
X148961408Y-114347617D01*
X148925444Y-114298117D01*
X148901203Y-114270372D01*
X148901202Y-114270371D01*
X148822694Y-114223464D01*
X148764504Y-114204557D01*
X148701004Y-114194500D01*
X148701000Y-114194500D01*
X146874000Y-114194500D01*
X146873994Y-114194500D01*
X146841861Y-114197029D01*
X146811222Y-114201881D01*
X146806717Y-114202646D01*
X146806714Y-114202647D01*
X146722617Y-114238592D01*
X146673115Y-114274557D01*
X146645371Y-114298797D01*
X146598464Y-114377305D01*
X146579557Y-114435494D01*
X146579557Y-114435497D01*
X146569500Y-114498995D01*
X146569500Y-114875500D01*
X146549815Y-114942539D01*
X146497011Y-114988294D01*
X146445500Y-114999500D01*
X142916519Y-114999500D01*
X142849480Y-114979815D01*
X142828838Y-114963181D01*
X141486819Y-113621162D01*
X141453334Y-113559839D01*
X141450500Y-113533481D01*
X141450500Y-112809108D01*
X146724500Y-112809108D01*
X146724500Y-112940891D01*
X146758608Y-113068187D01*
X146791554Y-113125250D01*
X146824500Y-113182314D01*
X146917686Y-113275500D01*
X147031814Y-113341392D01*
X147159108Y-113375500D01*
X147159110Y-113375500D01*
X147290890Y-113375500D01*
X147290892Y-113375500D01*
X147418186Y-113341392D01*
X147532314Y-113275500D01*
X147625500Y-113182314D01*
X147691392Y-113068186D01*
X147725500Y-112940892D01*
X147725500Y-112809108D01*
X147691392Y-112681814D01*
X147625500Y-112567686D01*
X147532314Y-112474500D01*
X147475250Y-112441554D01*
X147418187Y-112408608D01*
X147354539Y-112391554D01*
X147290892Y-112374500D01*
X147159108Y-112374500D01*
X147031812Y-112408608D01*
X146917686Y-112474500D01*
X146917683Y-112474502D01*
X146824502Y-112567683D01*
X146824500Y-112567686D01*
X146758608Y-112681812D01*
X146724500Y-112809108D01*
X141450500Y-112809108D01*
X141450500Y-108242462D01*
X141470185Y-108175423D01*
X141522989Y-108129668D01*
X141592147Y-108119724D01*
X141655703Y-108148749D01*
X141688522Y-108193728D01*
X141713590Y-108252380D01*
X141713591Y-108252381D01*
X141713592Y-108252383D01*
X141724129Y-108266886D01*
X141749557Y-108301884D01*
X141773797Y-108329628D01*
X141826985Y-108361407D01*
X141852307Y-108376536D01*
X141910498Y-108395443D01*
X141939268Y-108399999D01*
X141973996Y-108405500D01*
X141974000Y-108405500D01*
X143250994Y-108405500D01*
X143251000Y-108405500D01*
X143283144Y-108402970D01*
X143313737Y-108398125D01*
X143316371Y-108397677D01*
X143318282Y-108397353D01*
X143318282Y-108397352D01*
X143318287Y-108397352D01*
X143402383Y-108361408D01*
X143451883Y-108325444D01*
X143479628Y-108301203D01*
X143526536Y-108222693D01*
X143545443Y-108164502D01*
X143550511Y-108132500D01*
X143554693Y-108106101D01*
X143584623Y-108042967D01*
X143643934Y-108006036D01*
X143677166Y-108001500D01*
X147015096Y-108001500D01*
X147082135Y-108021185D01*
X147127890Y-108073989D01*
X147137834Y-108143147D01*
X147108809Y-108206703D01*
X147062545Y-108240063D01*
X147058812Y-108241609D01*
X146944686Y-108307500D01*
X146944683Y-108307502D01*
X146851502Y-108400683D01*
X146851500Y-108400686D01*
X146785608Y-108514812D01*
X146751500Y-108642108D01*
X146751500Y-108773891D01*
X146785608Y-108901187D01*
X146818554Y-108958250D01*
X146851500Y-109015314D01*
X146944686Y-109108500D01*
X147058814Y-109174392D01*
X147186108Y-109208500D01*
X147186110Y-109208500D01*
X147317890Y-109208500D01*
X147317892Y-109208500D01*
X147445186Y-109174392D01*
X147559314Y-109108500D01*
X147652500Y-109015314D01*
X147718392Y-108901186D01*
X147752500Y-108773892D01*
X147752500Y-108642108D01*
X147718392Y-108514814D01*
X147652500Y-108400686D01*
X147559314Y-108307500D01*
X147445186Y-108241608D01*
X147445181Y-108241606D01*
X147441455Y-108240063D01*
X147438788Y-108237914D01*
X147438147Y-108237544D01*
X147438204Y-108237443D01*
X147387050Y-108196223D01*
X147364983Y-108129930D01*
X147382260Y-108062230D01*
X147433396Y-108014618D01*
X147488904Y-108001500D01*
X149423169Y-108001500D01*
X149490208Y-108021185D01*
X149510850Y-108037819D01*
X150713141Y-109240111D01*
X150713142Y-109240112D01*
X150827880Y-109316777D01*
X150955355Y-109369578D01*
X150955360Y-109369580D01*
X150955364Y-109369580D01*
X150955365Y-109369581D01*
X151090691Y-109396500D01*
X151090694Y-109396500D01*
X151090695Y-109396500D01*
X152789782Y-109396500D01*
X152856821Y-109416185D01*
X152858674Y-109417399D01*
X152880190Y-109431776D01*
X152963762Y-109466392D01*
X153007672Y-109484580D01*
X153007676Y-109484580D01*
X153007677Y-109484581D01*
X153143003Y-109511500D01*
X153143006Y-109511500D01*
X154611995Y-109511500D01*
X154703041Y-109493389D01*
X154747328Y-109484580D01*
X154874811Y-109431775D01*
X154989542Y-109355114D01*
X155087114Y-109257542D01*
X155163775Y-109142811D01*
X155166103Y-109137192D01*
X155195636Y-109065891D01*
X155216580Y-109015328D01*
X155225389Y-108971041D01*
X155243500Y-108879995D01*
X155243500Y-108742004D01*
X155216581Y-108606677D01*
X155216580Y-108606676D01*
X155216580Y-108606672D01*
X155186316Y-108533608D01*
X155163778Y-108479195D01*
X155163771Y-108479182D01*
X155087114Y-108364458D01*
X155087111Y-108364454D01*
X154989545Y-108266888D01*
X154989541Y-108266885D01*
X154874817Y-108190228D01*
X154874804Y-108190221D01*
X154747332Y-108137421D01*
X154747322Y-108137418D01*
X154611995Y-108110500D01*
X154611993Y-108110500D01*
X153519218Y-108110500D01*
X153452179Y-108090815D01*
X153450326Y-108089601D01*
X153428809Y-108075223D01*
X153301332Y-108022421D01*
X153301322Y-108022418D01*
X153165996Y-107995500D01*
X153165994Y-107995500D01*
X153165993Y-107995500D01*
X151501207Y-107995500D01*
X151434168Y-107975815D01*
X151413526Y-107959181D01*
X150211234Y-106756888D01*
X150096495Y-106680222D01*
X149969020Y-106627421D01*
X149969010Y-106627418D01*
X149833684Y-106600500D01*
X149833682Y-106600500D01*
X149833681Y-106600500D01*
X148027634Y-106600500D01*
X147960595Y-106580815D01*
X147914840Y-106528011D01*
X147904896Y-106458853D01*
X147907856Y-106444418D01*
X147915500Y-106415892D01*
X147915500Y-106284108D01*
X147895404Y-106209108D01*
X152299500Y-106209108D01*
X152299500Y-106340892D01*
X152302558Y-106352304D01*
X152333608Y-106468187D01*
X152366554Y-106525250D01*
X152399500Y-106582314D01*
X152492686Y-106675500D01*
X152606814Y-106741392D01*
X152734108Y-106775500D01*
X152734110Y-106775500D01*
X152865890Y-106775500D01*
X152865892Y-106775500D01*
X152993186Y-106741392D01*
X153107314Y-106675500D01*
X153200500Y-106582314D01*
X153266392Y-106468186D01*
X153300500Y-106340892D01*
X153300500Y-106209108D01*
X153266392Y-106081814D01*
X153200500Y-105967686D01*
X153107314Y-105874500D01*
X153022444Y-105825500D01*
X152993187Y-105808608D01*
X152929539Y-105791554D01*
X152865892Y-105774500D01*
X152734108Y-105774500D01*
X152606812Y-105808608D01*
X152492686Y-105874500D01*
X152492683Y-105874502D01*
X152399502Y-105967683D01*
X152399500Y-105967686D01*
X152333608Y-106081812D01*
X152303740Y-106193285D01*
X152299500Y-106209108D01*
X147895404Y-106209108D01*
X147881392Y-106156814D01*
X147815500Y-106042686D01*
X147722314Y-105949500D01*
X147633095Y-105897989D01*
X147608187Y-105883608D01*
X147544539Y-105866554D01*
X147480892Y-105849500D01*
X147349108Y-105849500D01*
X147221812Y-105883608D01*
X147107686Y-105949500D01*
X147107683Y-105949502D01*
X147014502Y-106042683D01*
X147014500Y-106042686D01*
X146948608Y-106156812D01*
X146917445Y-106273117D01*
X146914500Y-106284108D01*
X146914500Y-106415892D01*
X146922140Y-106444408D01*
X146920478Y-106514256D01*
X146881316Y-106572119D01*
X146817087Y-106599623D01*
X146802366Y-106600500D01*
X143679500Y-106600500D01*
X143612461Y-106580815D01*
X143566706Y-106528011D01*
X143555500Y-106476500D01*
X143555500Y-106474006D01*
X143555500Y-106474000D01*
X143552970Y-106441856D01*
X143548125Y-106411263D01*
X143547352Y-106406713D01*
X143511408Y-106322617D01*
X143475444Y-106273117D01*
X143451203Y-106245372D01*
X143451202Y-106245371D01*
X143372694Y-106198464D01*
X143314504Y-106179557D01*
X143251004Y-106169500D01*
X143251000Y-106169500D01*
X141974000Y-106169500D01*
X141973994Y-106169500D01*
X141941861Y-106172029D01*
X141911222Y-106176881D01*
X141906717Y-106177646D01*
X141906714Y-106177647D01*
X141822617Y-106213592D01*
X141773115Y-106249557D01*
X141745371Y-106273797D01*
X141698464Y-106352304D01*
X141692431Y-106370875D01*
X141652993Y-106428550D01*
X141588634Y-106455748D01*
X141519787Y-106443833D01*
X141468312Y-106396588D01*
X141450500Y-106332556D01*
X141450500Y-105281004D01*
X141423581Y-105145677D01*
X141423580Y-105145676D01*
X141423580Y-105145672D01*
X141423139Y-105144608D01*
X141370777Y-105018192D01*
X141339985Y-104972108D01*
X145271500Y-104972108D01*
X145271500Y-105103892D01*
X145288554Y-105167539D01*
X145305608Y-105231187D01*
X145334372Y-105281007D01*
X145371500Y-105345314D01*
X145464686Y-105438500D01*
X145578814Y-105504392D01*
X145706108Y-105538500D01*
X145706110Y-105538500D01*
X145837890Y-105538500D01*
X145837892Y-105538500D01*
X145965186Y-105504392D01*
X146079314Y-105438500D01*
X146172500Y-105345314D01*
X146238392Y-105231186D01*
X146272500Y-105103892D01*
X146272500Y-104972108D01*
X146238392Y-104844814D01*
X146172500Y-104730686D01*
X146079314Y-104637500D01*
X146022250Y-104604554D01*
X145965187Y-104571608D01*
X145901539Y-104554554D01*
X145837892Y-104537500D01*
X145706108Y-104537500D01*
X145578812Y-104571608D01*
X145464686Y-104637500D01*
X145464683Y-104637502D01*
X145371502Y-104730683D01*
X145371500Y-104730686D01*
X145305608Y-104844812D01*
X145289895Y-104903457D01*
X145271500Y-104972108D01*
X141339985Y-104972108D01*
X141294112Y-104903454D01*
X140961819Y-104571161D01*
X140928334Y-104509838D01*
X140925500Y-104483480D01*
X140925500Y-103713108D01*
X145312500Y-103713108D01*
X145312500Y-103844892D01*
X145329226Y-103907314D01*
X145346608Y-103972187D01*
X145362955Y-104000500D01*
X145412500Y-104086314D01*
X145505686Y-104179500D01*
X145619814Y-104245392D01*
X145747108Y-104279500D01*
X145747110Y-104279500D01*
X145878890Y-104279500D01*
X145878892Y-104279500D01*
X146006186Y-104245392D01*
X146120314Y-104179500D01*
X146213500Y-104086314D01*
X146279392Y-103972186D01*
X146313500Y-103844892D01*
X146313500Y-103713108D01*
X146312428Y-103709108D01*
X151678700Y-103709108D01*
X151678700Y-103840892D01*
X151694672Y-103900500D01*
X151712808Y-103968187D01*
X151733807Y-104004557D01*
X151778700Y-104082314D01*
X151871886Y-104175500D01*
X151986014Y-104241392D01*
X152113308Y-104275500D01*
X152113310Y-104275500D01*
X152245090Y-104275500D01*
X152245092Y-104275500D01*
X152372386Y-104241392D01*
X152486514Y-104175500D01*
X152579700Y-104082314D01*
X152645592Y-103968186D01*
X152679700Y-103840892D01*
X152679700Y-103709108D01*
X152645592Y-103581814D01*
X152645590Y-103581811D01*
X152645591Y-103581811D01*
X152618049Y-103534108D01*
X153784173Y-103534108D01*
X153784173Y-103665892D01*
X153795753Y-103709108D01*
X153818281Y-103793187D01*
X153851227Y-103850250D01*
X153884173Y-103907314D01*
X153977359Y-104000500D01*
X154091487Y-104066392D01*
X154218781Y-104100500D01*
X154218783Y-104100500D01*
X154350563Y-104100500D01*
X154350565Y-104100500D01*
X154477859Y-104066392D01*
X154591987Y-104000500D01*
X154685173Y-103907314D01*
X154751065Y-103793186D01*
X154785173Y-103665892D01*
X154785173Y-103534108D01*
X154751065Y-103406814D01*
X154751062Y-103406808D01*
X154740193Y-103387982D01*
X154740192Y-103387981D01*
X154709088Y-103334108D01*
X155199500Y-103334108D01*
X155199500Y-103465892D01*
X155216554Y-103529539D01*
X155233608Y-103593187D01*
X155266554Y-103650250D01*
X155299500Y-103707314D01*
X155392686Y-103800500D01*
X155506814Y-103866392D01*
X155634108Y-103900500D01*
X155634110Y-103900500D01*
X155765890Y-103900500D01*
X155765892Y-103900500D01*
X155893186Y-103866392D01*
X156007314Y-103800500D01*
X156100500Y-103707314D01*
X156166392Y-103593186D01*
X156200500Y-103465892D01*
X156200500Y-103334108D01*
X156166392Y-103206814D01*
X156100500Y-103092686D01*
X156007314Y-102999500D01*
X155950250Y-102966554D01*
X155893187Y-102933608D01*
X155829539Y-102916554D01*
X155765892Y-102899500D01*
X155634108Y-102899500D01*
X155506812Y-102933608D01*
X155392686Y-102999500D01*
X155392683Y-102999502D01*
X155299502Y-103092683D01*
X155299500Y-103092686D01*
X155233608Y-103206812D01*
X155215472Y-103274500D01*
X155199500Y-103334108D01*
X154709088Y-103334108D01*
X154685173Y-103292686D01*
X154591987Y-103199500D01*
X154534923Y-103166554D01*
X154477860Y-103133608D01*
X154414212Y-103116554D01*
X154350565Y-103099500D01*
X154218781Y-103099500D01*
X154091485Y-103133608D01*
X153977359Y-103199500D01*
X153977356Y-103199502D01*
X153884175Y-103292683D01*
X153884173Y-103292686D01*
X153818281Y-103406812D01*
X153800899Y-103471686D01*
X153784173Y-103534108D01*
X152618049Y-103534108D01*
X152579702Y-103467689D01*
X152579697Y-103467683D01*
X152486516Y-103374502D01*
X152486514Y-103374500D01*
X152416553Y-103334108D01*
X152372387Y-103308608D01*
X152308739Y-103291554D01*
X152245092Y-103274500D01*
X152113308Y-103274500D01*
X151986012Y-103308608D01*
X151871886Y-103374500D01*
X151871883Y-103374502D01*
X151778702Y-103467683D01*
X151778700Y-103467686D01*
X151712808Y-103581812D01*
X151679181Y-103707313D01*
X151678700Y-103709108D01*
X146312428Y-103709108D01*
X146279392Y-103585814D01*
X146277081Y-103581812D01*
X146270563Y-103570521D01*
X146213500Y-103471686D01*
X146120314Y-103378500D01*
X146063250Y-103345554D01*
X146006187Y-103312608D01*
X145902825Y-103284912D01*
X145878892Y-103278500D01*
X145747108Y-103278500D01*
X145737057Y-103281192D01*
X145737055Y-103281193D01*
X145619812Y-103312608D01*
X145505686Y-103378500D01*
X145505683Y-103378502D01*
X145412502Y-103471683D01*
X145412500Y-103471686D01*
X145346608Y-103585812D01*
X145325151Y-103665892D01*
X145312500Y-103713108D01*
X140925500Y-103713108D01*
X140925500Y-102467108D01*
X145285500Y-102467108D01*
X145285500Y-102598891D01*
X145319608Y-102726187D01*
X145352554Y-102783250D01*
X145385500Y-102840314D01*
X145478686Y-102933500D01*
X145592814Y-102999392D01*
X145720108Y-103033500D01*
X145851892Y-103033500D01*
X145979186Y-102999392D01*
X146093314Y-102933500D01*
X146186500Y-102840314D01*
X146252392Y-102726186D01*
X146286500Y-102598892D01*
X146286500Y-102467108D01*
X146252392Y-102339814D01*
X146186500Y-102225686D01*
X146093314Y-102132500D01*
X146034560Y-102098578D01*
X145979187Y-102066608D01*
X145915539Y-102049554D01*
X145851892Y-102032500D01*
X145720108Y-102032500D01*
X145713494Y-102034271D01*
X145713492Y-102034272D01*
X145592812Y-102066608D01*
X145478686Y-102132500D01*
X145478683Y-102132502D01*
X145385502Y-102225683D01*
X145385500Y-102225686D01*
X145319608Y-102339812D01*
X145285500Y-102467108D01*
X140925500Y-102467108D01*
X140925500Y-101220108D01*
X145246500Y-101220108D01*
X145246500Y-101351892D01*
X145262188Y-101410442D01*
X145280608Y-101479187D01*
X145292691Y-101500115D01*
X145346500Y-101593314D01*
X145439686Y-101686500D01*
X145553814Y-101752392D01*
X145681108Y-101786500D01*
X145681110Y-101786500D01*
X145695919Y-101786500D01*
X145812892Y-101786500D01*
X145940186Y-101752392D01*
X146054314Y-101686500D01*
X146147500Y-101593314D01*
X146213392Y-101479186D01*
X146247500Y-101351892D01*
X146247500Y-101220108D01*
X146213392Y-101092814D01*
X146147500Y-100978686D01*
X146054314Y-100885500D01*
X145993691Y-100850499D01*
X145940187Y-100819608D01*
X145876539Y-100802554D01*
X145812892Y-100785500D01*
X145681108Y-100785500D01*
X145553812Y-100819608D01*
X145439686Y-100885500D01*
X145439683Y-100885502D01*
X145346502Y-100978683D01*
X145346500Y-100978686D01*
X145280608Y-101092812D01*
X145255639Y-101186000D01*
X145246500Y-101220108D01*
X140925500Y-101220108D01*
X140925500Y-99946204D01*
X140945185Y-99879165D01*
X140997989Y-99833410D01*
X141049500Y-99822204D01*
X146346497Y-99822204D01*
X146375937Y-99830848D01*
X146405924Y-99837372D01*
X146410939Y-99841126D01*
X146413536Y-99841889D01*
X146434178Y-99858523D01*
X146609181Y-100033526D01*
X146642666Y-100094849D01*
X146645500Y-100121207D01*
X146645500Y-101186005D01*
X146648029Y-101218138D01*
X146652881Y-101248777D01*
X146653646Y-101253282D01*
X146653647Y-101253285D01*
X146653648Y-101253287D01*
X146689592Y-101337383D01*
X146725062Y-101386203D01*
X146725557Y-101386884D01*
X146749797Y-101414628D01*
X146802985Y-101446407D01*
X146828307Y-101461536D01*
X146886498Y-101480443D01*
X146915268Y-101484999D01*
X146949996Y-101490500D01*
X146950000Y-101490500D01*
X148776994Y-101490500D01*
X148777000Y-101490500D01*
X148809144Y-101487970D01*
X148839737Y-101483125D01*
X148842371Y-101482677D01*
X148844282Y-101482353D01*
X148844282Y-101482352D01*
X148844287Y-101482352D01*
X148928383Y-101446408D01*
X148977883Y-101410444D01*
X149005628Y-101386203D01*
X149052536Y-101307693D01*
X149071443Y-101249502D01*
X149077599Y-101210629D01*
X149081500Y-101186004D01*
X149081500Y-100284108D01*
X155249500Y-100284108D01*
X155249500Y-100415891D01*
X155283608Y-100543187D01*
X155302416Y-100575762D01*
X155349500Y-100657314D01*
X155442686Y-100750500D01*
X155556814Y-100816392D01*
X155684108Y-100850500D01*
X155684110Y-100850500D01*
X155815890Y-100850500D01*
X155815892Y-100850500D01*
X155943186Y-100816392D01*
X156057314Y-100750500D01*
X156150500Y-100657314D01*
X156216392Y-100543186D01*
X156250500Y-100415892D01*
X156250500Y-100284108D01*
X156216392Y-100156814D01*
X156150500Y-100042686D01*
X156057314Y-99949500D01*
X156000250Y-99916554D01*
X155943187Y-99883608D01*
X155879539Y-99866554D01*
X155815892Y-99849500D01*
X155684108Y-99849500D01*
X155556812Y-99883608D01*
X155442686Y-99949500D01*
X155442683Y-99949502D01*
X155349502Y-100042683D01*
X155349500Y-100042686D01*
X155283608Y-100156812D01*
X155249500Y-100284108D01*
X149081500Y-100284108D01*
X149081500Y-99484006D01*
X149081500Y-99484000D01*
X149078970Y-99451856D01*
X149074125Y-99421263D01*
X149073352Y-99416713D01*
X149048731Y-99359108D01*
X150749500Y-99359108D01*
X150749500Y-99490892D01*
X150754044Y-99507849D01*
X150783608Y-99618187D01*
X150808360Y-99661058D01*
X150849500Y-99732314D01*
X150942686Y-99825500D01*
X151056814Y-99891392D01*
X151184108Y-99925500D01*
X151184110Y-99925500D01*
X151315890Y-99925500D01*
X151315892Y-99925500D01*
X151443186Y-99891392D01*
X151557314Y-99825500D01*
X151650500Y-99732314D01*
X151678332Y-99684108D01*
X153784173Y-99684108D01*
X153784173Y-99815892D01*
X153791139Y-99841889D01*
X153818281Y-99943187D01*
X153842332Y-99984843D01*
X153884173Y-100057314D01*
X153977359Y-100150500D01*
X154073498Y-100206006D01*
X154091483Y-100216390D01*
X154091487Y-100216392D01*
X154218781Y-100250500D01*
X154218783Y-100250500D01*
X154350563Y-100250500D01*
X154350565Y-100250500D01*
X154477859Y-100216392D01*
X154591987Y-100150500D01*
X154685173Y-100057314D01*
X154751065Y-99943186D01*
X154785173Y-99815892D01*
X154785173Y-99684108D01*
X154751065Y-99556814D01*
X154685173Y-99442686D01*
X154591987Y-99349500D01*
X154534923Y-99316554D01*
X154477860Y-99283608D01*
X154414212Y-99266554D01*
X154350565Y-99249500D01*
X154218781Y-99249500D01*
X154091485Y-99283608D01*
X153977359Y-99349500D01*
X153977356Y-99349502D01*
X153884175Y-99442683D01*
X153884173Y-99442686D01*
X153818281Y-99556812D01*
X153799877Y-99625498D01*
X153784173Y-99684108D01*
X151678332Y-99684108D01*
X151716392Y-99618186D01*
X151750500Y-99490892D01*
X151750500Y-99463805D01*
X151770185Y-99396766D01*
X151822989Y-99351011D01*
X151892147Y-99341067D01*
X151955703Y-99370092D01*
X151981886Y-99401803D01*
X151999500Y-99432312D01*
X152092686Y-99525498D01*
X152206814Y-99591390D01*
X152334108Y-99625498D01*
X152334110Y-99625498D01*
X152465890Y-99625498D01*
X152465892Y-99625498D01*
X152593186Y-99591390D01*
X152707314Y-99525498D01*
X152800500Y-99432312D01*
X152866392Y-99318184D01*
X152900500Y-99190890D01*
X152900500Y-99059106D01*
X152866392Y-98931812D01*
X152800500Y-98817684D01*
X152707314Y-98724498D01*
X152650250Y-98691552D01*
X152593187Y-98658606D01*
X152529539Y-98641552D01*
X152465892Y-98624498D01*
X152334108Y-98624498D01*
X152206812Y-98658606D01*
X152092686Y-98724498D01*
X152092682Y-98724501D01*
X152040179Y-98777004D01*
X151978856Y-98810488D01*
X151909164Y-98805503D01*
X151853231Y-98763632D01*
X151828815Y-98698167D01*
X151832723Y-98657237D01*
X151850500Y-98590892D01*
X151850500Y-98459108D01*
X151816392Y-98331814D01*
X151750500Y-98217686D01*
X151657314Y-98124500D01*
X151572442Y-98075499D01*
X151543187Y-98058608D01*
X151478931Y-98041391D01*
X151415892Y-98024500D01*
X151284108Y-98024500D01*
X151156812Y-98058608D01*
X151042686Y-98124500D01*
X151042683Y-98124502D01*
X150949502Y-98217683D01*
X150949500Y-98217686D01*
X150883608Y-98331812D01*
X150849500Y-98459108D01*
X150849500Y-98590891D01*
X150883608Y-98718187D01*
X150909846Y-98763632D01*
X150949500Y-98832314D01*
X150949502Y-98832316D01*
X150955304Y-98838118D01*
X150988789Y-98899441D01*
X150983805Y-98969133D01*
X150947678Y-99017998D01*
X150948433Y-99018753D01*
X150943399Y-99023786D01*
X150943116Y-99024170D01*
X150942686Y-99024499D01*
X150849502Y-99117683D01*
X150849500Y-99117686D01*
X150783608Y-99231812D01*
X150769730Y-99283608D01*
X150749500Y-99359108D01*
X149048731Y-99359108D01*
X149037408Y-99332617D01*
X149001444Y-99283117D01*
X148977203Y-99255372D01*
X148977202Y-99255371D01*
X148898694Y-99208464D01*
X148840504Y-99189557D01*
X148777004Y-99179500D01*
X148777000Y-99179500D01*
X147787831Y-99179500D01*
X147720792Y-99159815D01*
X147700150Y-99143181D01*
X147134562Y-98577592D01*
X147134561Y-98577591D01*
X147019823Y-98500926D01*
X146892348Y-98448125D01*
X146892338Y-98448122D01*
X146757012Y-98421204D01*
X146757010Y-98421204D01*
X146757009Y-98421204D01*
X141110796Y-98421204D01*
X141043757Y-98401519D01*
X140998002Y-98348715D01*
X140986796Y-98297204D01*
X140986796Y-97639110D01*
X146699500Y-97639110D01*
X146699500Y-97770893D01*
X146733608Y-97898189D01*
X146766554Y-97955252D01*
X146799500Y-98012316D01*
X146892686Y-98105502D01*
X147006814Y-98171394D01*
X147134108Y-98205502D01*
X147134110Y-98205502D01*
X147265890Y-98205502D01*
X147265892Y-98205502D01*
X147393186Y-98171394D01*
X147507314Y-98105502D01*
X147600500Y-98012316D01*
X147666392Y-97898188D01*
X147700500Y-97770894D01*
X147700500Y-97639110D01*
X147666392Y-97511816D01*
X147664829Y-97509108D01*
X152224500Y-97509108D01*
X152224500Y-97640891D01*
X152258608Y-97768187D01*
X152260171Y-97770894D01*
X152324500Y-97882314D01*
X152417686Y-97975500D01*
X152531814Y-98041392D01*
X152659108Y-98075500D01*
X152659110Y-98075500D01*
X152790890Y-98075500D01*
X152790892Y-98075500D01*
X152918186Y-98041392D01*
X153032314Y-97975500D01*
X153125500Y-97882314D01*
X153191392Y-97768186D01*
X153225500Y-97640892D01*
X153225500Y-97509108D01*
X153191392Y-97381814D01*
X153125500Y-97267686D01*
X153032314Y-97174500D01*
X152975250Y-97141554D01*
X152918187Y-97108608D01*
X152854539Y-97091554D01*
X152790892Y-97074500D01*
X152659108Y-97074500D01*
X152531812Y-97108608D01*
X152417686Y-97174500D01*
X152417683Y-97174502D01*
X152324502Y-97267683D01*
X152324500Y-97267686D01*
X152258608Y-97381812D01*
X152224500Y-97509108D01*
X147664829Y-97509108D01*
X147600500Y-97397688D01*
X147507314Y-97304502D01*
X147443542Y-97267683D01*
X147393187Y-97238610D01*
X147329539Y-97221556D01*
X147265892Y-97204502D01*
X147134108Y-97204502D01*
X147006812Y-97238610D01*
X146892686Y-97304502D01*
X146892683Y-97304504D01*
X146799502Y-97397685D01*
X146799500Y-97397688D01*
X146733608Y-97511814D01*
X146699500Y-97639110D01*
X140986796Y-97639110D01*
X140986796Y-95055223D01*
X141006481Y-94988184D01*
X141023115Y-94967542D01*
X141144808Y-94845849D01*
X141296444Y-94694212D01*
X141357765Y-94660729D01*
X141427456Y-94665713D01*
X141483390Y-94707584D01*
X141503897Y-94749800D01*
X141509091Y-94769184D01*
X141509091Y-94769185D01*
X141517796Y-94784262D01*
X141574984Y-94883314D01*
X141668170Y-94976500D01*
X141782298Y-95042392D01*
X141909592Y-95076500D01*
X141909594Y-95076500D01*
X142041374Y-95076500D01*
X142041376Y-95076500D01*
X142168670Y-95042392D01*
X142282798Y-94976500D01*
X142375984Y-94883314D01*
X142441876Y-94769186D01*
X142475984Y-94641892D01*
X142475984Y-94510108D01*
X142441876Y-94382814D01*
X142375984Y-94268686D01*
X142282798Y-94175500D01*
X142178593Y-94115337D01*
X142168669Y-94109607D01*
X142149284Y-94104413D01*
X142089624Y-94068048D01*
X142059096Y-94005200D01*
X142067391Y-93935825D01*
X142093695Y-93896961D01*
X142737028Y-93253629D01*
X142798351Y-93220144D01*
X142824709Y-93217310D01*
X143504994Y-93217310D01*
X143505000Y-93217310D01*
X143537144Y-93214780D01*
X143567737Y-93209935D01*
X143570371Y-93209487D01*
X143572282Y-93209163D01*
X143572282Y-93209162D01*
X143572287Y-93209162D01*
X143656383Y-93173218D01*
X143705883Y-93137254D01*
X143709484Y-93134108D01*
X154774500Y-93134108D01*
X154774500Y-93265891D01*
X154808608Y-93393187D01*
X154841554Y-93450250D01*
X154874500Y-93507314D01*
X154967686Y-93600500D01*
X155081814Y-93666392D01*
X155209108Y-93700500D01*
X155209110Y-93700500D01*
X155340890Y-93700500D01*
X155340892Y-93700500D01*
X155468186Y-93666392D01*
X155582314Y-93600500D01*
X155675500Y-93507314D01*
X155741392Y-93393186D01*
X155775500Y-93265892D01*
X155775500Y-93134108D01*
X155741392Y-93006814D01*
X155675500Y-92892686D01*
X155582314Y-92799500D01*
X155525250Y-92766554D01*
X155468187Y-92733608D01*
X155404539Y-92716554D01*
X155340892Y-92699500D01*
X155209108Y-92699500D01*
X155081812Y-92733608D01*
X154967686Y-92799500D01*
X154967683Y-92799502D01*
X154874502Y-92892683D01*
X154874500Y-92892686D01*
X154808608Y-93006812D01*
X154774500Y-93134108D01*
X143709484Y-93134108D01*
X143733628Y-93113013D01*
X143780536Y-93034503D01*
X143799443Y-92976312D01*
X143805599Y-92937439D01*
X143809500Y-92912814D01*
X143809500Y-91634108D01*
X152424500Y-91634108D01*
X152424500Y-91765891D01*
X152458608Y-91893187D01*
X152491554Y-91950250D01*
X152524500Y-92007314D01*
X152617686Y-92100500D01*
X152731814Y-92166392D01*
X152859108Y-92200500D01*
X152859110Y-92200500D01*
X152990890Y-92200500D01*
X152990892Y-92200500D01*
X153118186Y-92166392D01*
X153232314Y-92100500D01*
X153325500Y-92007314D01*
X153391392Y-91893186D01*
X153425500Y-91765892D01*
X153425500Y-91634108D01*
X153391392Y-91506814D01*
X153325500Y-91392686D01*
X153232314Y-91299500D01*
X153152936Y-91253671D01*
X153118187Y-91233608D01*
X153044026Y-91213737D01*
X152990892Y-91199500D01*
X152859108Y-91199500D01*
X152731812Y-91233608D01*
X152617686Y-91299500D01*
X152617683Y-91299502D01*
X152524502Y-91392683D01*
X152524500Y-91392686D01*
X152458608Y-91506812D01*
X152424500Y-91634108D01*
X143809500Y-91634108D01*
X143809500Y-91285816D01*
X143809500Y-91285810D01*
X143806970Y-91253666D01*
X143802125Y-91223073D01*
X143801352Y-91218523D01*
X143765408Y-91134427D01*
X143729444Y-91084927D01*
X143705203Y-91057182D01*
X143705202Y-91057181D01*
X143626694Y-91010274D01*
X143568504Y-90991367D01*
X143505004Y-90981310D01*
X143505000Y-90981310D01*
X142967767Y-90981310D01*
X142900728Y-90961625D01*
X142880086Y-90944991D01*
X140619203Y-88684108D01*
X145599500Y-88684108D01*
X145599500Y-88815892D01*
X145615472Y-88875500D01*
X145633608Y-88943187D01*
X145661439Y-88991391D01*
X145699500Y-89057314D01*
X145792686Y-89150500D01*
X145906814Y-89216392D01*
X146034108Y-89250500D01*
X146034110Y-89250500D01*
X146165890Y-89250500D01*
X146165892Y-89250500D01*
X146293186Y-89216392D01*
X146407314Y-89150500D01*
X146500500Y-89057314D01*
X146566392Y-88943186D01*
X146600500Y-88815892D01*
X146600500Y-88684108D01*
X146566392Y-88556814D01*
X146566390Y-88556811D01*
X146566391Y-88556811D01*
X146538849Y-88509108D01*
X147474500Y-88509108D01*
X147474500Y-88640892D01*
X147475809Y-88645777D01*
X147508608Y-88768187D01*
X147536151Y-88815892D01*
X147574500Y-88882314D01*
X147667686Y-88975500D01*
X147781814Y-89041392D01*
X147909108Y-89075500D01*
X147909110Y-89075500D01*
X148040890Y-89075500D01*
X148040892Y-89075500D01*
X148168186Y-89041392D01*
X148282314Y-88975500D01*
X148297762Y-88960051D01*
X148359082Y-88926566D01*
X148428774Y-88931549D01*
X148447443Y-88940345D01*
X148529906Y-88987955D01*
X148529907Y-88987955D01*
X148529910Y-88987957D01*
X148657204Y-89022065D01*
X148657206Y-89022065D01*
X148788986Y-89022065D01*
X148788988Y-89022065D01*
X148916282Y-88987957D01*
X149030410Y-88922065D01*
X149030412Y-88922062D01*
X149032715Y-88920733D01*
X149100615Y-88904260D01*
X149157726Y-88924026D01*
X149158734Y-88922281D01*
X149165770Y-88926343D01*
X149165772Y-88926345D01*
X149224156Y-88960053D01*
X149278434Y-88991391D01*
X149279900Y-88992237D01*
X149407194Y-89026345D01*
X149407196Y-89026345D01*
X149538976Y-89026345D01*
X149538978Y-89026345D01*
X149666272Y-88992237D01*
X149780400Y-88926345D01*
X149811785Y-88894959D01*
X149873105Y-88861475D01*
X149942797Y-88866459D01*
X149987146Y-88894960D01*
X150017686Y-88925500D01*
X150131814Y-88991392D01*
X150259108Y-89025500D01*
X150259110Y-89025500D01*
X150390890Y-89025500D01*
X150390892Y-89025500D01*
X150518186Y-88991392D01*
X150632314Y-88925500D01*
X150637319Y-88920495D01*
X150698642Y-88887010D01*
X150768334Y-88891994D01*
X150812681Y-88920495D01*
X150817686Y-88925500D01*
X150931814Y-88991392D01*
X151059108Y-89025500D01*
X151059110Y-89025500D01*
X151190890Y-89025500D01*
X151190892Y-89025500D01*
X151318186Y-88991392D01*
X151432314Y-88925500D01*
X151525500Y-88832314D01*
X151591392Y-88718186D01*
X151625500Y-88590892D01*
X151625500Y-88459108D01*
X151591392Y-88331814D01*
X151525500Y-88217686D01*
X151432314Y-88124500D01*
X151345712Y-88074500D01*
X151318187Y-88058608D01*
X151253931Y-88041391D01*
X151190892Y-88024500D01*
X151059108Y-88024500D01*
X150931812Y-88058608D01*
X150817686Y-88124500D01*
X150817683Y-88124502D01*
X150812681Y-88129505D01*
X150751358Y-88162990D01*
X150681666Y-88158006D01*
X150637319Y-88129505D01*
X150632316Y-88124502D01*
X150632314Y-88124500D01*
X150545712Y-88074500D01*
X150518187Y-88058608D01*
X150453931Y-88041391D01*
X150390892Y-88024500D01*
X150259108Y-88024500D01*
X150131812Y-88058608D01*
X150017686Y-88124500D01*
X150017682Y-88124503D01*
X149986300Y-88155885D01*
X149924976Y-88189370D01*
X149855285Y-88184384D01*
X149810939Y-88155884D01*
X149780402Y-88125347D01*
X149780400Y-88125345D01*
X149723336Y-88092399D01*
X149666273Y-88059453D01*
X149598863Y-88041391D01*
X149538978Y-88025345D01*
X149407194Y-88025345D01*
X149279900Y-88059453D01*
X149279899Y-88059453D01*
X149279897Y-88059454D01*
X149279896Y-88059454D01*
X149163465Y-88126676D01*
X149095565Y-88143149D01*
X149038456Y-88123382D01*
X149037448Y-88125129D01*
X149030411Y-88121066D01*
X149030410Y-88121065D01*
X148975780Y-88089524D01*
X148916283Y-88055173D01*
X148804961Y-88025345D01*
X148788988Y-88021065D01*
X148657204Y-88021065D01*
X148529908Y-88055173D01*
X148415782Y-88121065D01*
X148415778Y-88121068D01*
X148400331Y-88136515D01*
X148339007Y-88169999D01*
X148269316Y-88165013D01*
X148250652Y-88156219D01*
X148168189Y-88108609D01*
X148168186Y-88108608D01*
X148040892Y-88074500D01*
X147909108Y-88074500D01*
X147781812Y-88108608D01*
X147667686Y-88174500D01*
X147667683Y-88174502D01*
X147574502Y-88267683D01*
X147574500Y-88267686D01*
X147508608Y-88381812D01*
X147487897Y-88459108D01*
X147474500Y-88509108D01*
X146538849Y-88509108D01*
X146500502Y-88442689D01*
X146500497Y-88442683D01*
X146407316Y-88349502D01*
X146407314Y-88349500D01*
X146350250Y-88316554D01*
X146293187Y-88283608D01*
X146213293Y-88262201D01*
X146165892Y-88249500D01*
X146034108Y-88249500D01*
X145906812Y-88283608D01*
X145792686Y-88349500D01*
X145792683Y-88349502D01*
X145699502Y-88442683D01*
X145699500Y-88442686D01*
X145633608Y-88556812D01*
X145609771Y-88645775D01*
X145599500Y-88684108D01*
X140619203Y-88684108D01*
X139444203Y-87509108D01*
X152424500Y-87509108D01*
X152424500Y-87640891D01*
X152458608Y-87768187D01*
X152491554Y-87825250D01*
X152524500Y-87882314D01*
X152617686Y-87975500D01*
X152731814Y-88041392D01*
X152859108Y-88075500D01*
X152859110Y-88075500D01*
X152990890Y-88075500D01*
X152990892Y-88075500D01*
X153118186Y-88041392D01*
X153232314Y-87975500D01*
X153325500Y-87882314D01*
X153391392Y-87768186D01*
X153425500Y-87640892D01*
X153425500Y-87509108D01*
X153391392Y-87381814D01*
X153325500Y-87267686D01*
X153232314Y-87174500D01*
X153175250Y-87141554D01*
X153118187Y-87108608D01*
X153054539Y-87091554D01*
X152990892Y-87074500D01*
X152859108Y-87074500D01*
X152731812Y-87108608D01*
X152617686Y-87174500D01*
X152617683Y-87174502D01*
X152524502Y-87267683D01*
X152524500Y-87267686D01*
X152458608Y-87381812D01*
X152424500Y-87509108D01*
X139444203Y-87509108D01*
X138890342Y-86955247D01*
X156874500Y-86955247D01*
X156874500Y-88694752D01*
X156886131Y-88753229D01*
X156886132Y-88753230D01*
X156930447Y-88819552D01*
X156996769Y-88863867D01*
X156996770Y-88863868D01*
X157055247Y-88875499D01*
X157055250Y-88875500D01*
X157055252Y-88875500D01*
X158794750Y-88875500D01*
X158794751Y-88875499D01*
X158809568Y-88872552D01*
X158853229Y-88863868D01*
X158853229Y-88863867D01*
X158853231Y-88863867D01*
X158919552Y-88819552D01*
X158963867Y-88753231D01*
X158963867Y-88753229D01*
X158963868Y-88753229D01*
X158972552Y-88709568D01*
X158975500Y-88694748D01*
X158975500Y-86955252D01*
X158975500Y-86955249D01*
X158975499Y-86955247D01*
X158963868Y-86896770D01*
X158963867Y-86896769D01*
X158919552Y-86830447D01*
X158853230Y-86786132D01*
X158853229Y-86786131D01*
X158794752Y-86774500D01*
X158794748Y-86774500D01*
X157055252Y-86774500D01*
X157055247Y-86774500D01*
X156996770Y-86786131D01*
X156996769Y-86786132D01*
X156930447Y-86830447D01*
X156886132Y-86896769D01*
X156886131Y-86896770D01*
X156874500Y-86955247D01*
X138890342Y-86955247D01*
X138173757Y-86238662D01*
X138094203Y-86159108D01*
X154299500Y-86159108D01*
X154299500Y-86290891D01*
X154333608Y-86418187D01*
X154366554Y-86475250D01*
X154399500Y-86532314D01*
X154492686Y-86625500D01*
X154606814Y-86691392D01*
X154734108Y-86725500D01*
X154734110Y-86725500D01*
X154865890Y-86725500D01*
X154865892Y-86725500D01*
X154993186Y-86691392D01*
X155107314Y-86625500D01*
X155200500Y-86532314D01*
X155266392Y-86418186D01*
X155300500Y-86290892D01*
X155300500Y-86159108D01*
X155266392Y-86031814D01*
X155200500Y-85917686D01*
X155107314Y-85824500D01*
X155050250Y-85791554D01*
X154993187Y-85758608D01*
X154929539Y-85741554D01*
X154865892Y-85724500D01*
X154734108Y-85724500D01*
X154606812Y-85758608D01*
X154492686Y-85824500D01*
X154492683Y-85824502D01*
X154399502Y-85917683D01*
X154399500Y-85917686D01*
X154333608Y-86031812D01*
X154299500Y-86159108D01*
X138094203Y-86159108D01*
X135410984Y-83475888D01*
X135410983Y-83475887D01*
X135296245Y-83399222D01*
X135168770Y-83346421D01*
X135168760Y-83346418D01*
X135033434Y-83319500D01*
X135033432Y-83319500D01*
X135033431Y-83319500D01*
X128861519Y-83319500D01*
X128794480Y-83299815D01*
X128773838Y-83283181D01*
X127549765Y-82059108D01*
X151724500Y-82059108D01*
X151724500Y-82190891D01*
X151758608Y-82318187D01*
X151791554Y-82375250D01*
X151824500Y-82432314D01*
X151917686Y-82525500D01*
X152031814Y-82591392D01*
X152159108Y-82625500D01*
X152159110Y-82625500D01*
X152290890Y-82625500D01*
X152290892Y-82625500D01*
X152418186Y-82591392D01*
X152532314Y-82525500D01*
X152625500Y-82432314D01*
X152691392Y-82318186D01*
X152725500Y-82190892D01*
X152725500Y-82059108D01*
X152691392Y-81931814D01*
X152625500Y-81817686D01*
X152532314Y-81724500D01*
X152475250Y-81691554D01*
X152418187Y-81658608D01*
X152354539Y-81641554D01*
X152290892Y-81624500D01*
X152159108Y-81624500D01*
X152031812Y-81658608D01*
X151917686Y-81724500D01*
X151917683Y-81724502D01*
X151824502Y-81817683D01*
X151824500Y-81817686D01*
X151758608Y-81931812D01*
X151724500Y-82059108D01*
X127549765Y-82059108D01*
X123091819Y-77601162D01*
X123058334Y-77539839D01*
X123055500Y-77513481D01*
X123055500Y-71874008D01*
X123055499Y-71873992D01*
X123050803Y-71830316D01*
X123046897Y-71812364D01*
X123039602Y-71778825D01*
X123039348Y-71777789D01*
X123037110Y-71768627D01*
X122994100Y-71687915D01*
X122948345Y-71635111D01*
X122948339Y-71635104D01*
X122930757Y-71617160D01*
X122930756Y-71617159D01*
X122930754Y-71617157D01*
X122930752Y-71617156D01*
X122930750Y-71617154D01*
X122850940Y-71572511D01*
X122850935Y-71572509D01*
X122783903Y-71552826D01*
X122783899Y-71552825D01*
X122783898Y-71552825D01*
X122726000Y-71544500D01*
X120779272Y-71544500D01*
X120779270Y-71544500D01*
X120732057Y-71549997D01*
X120732049Y-71549998D01*
X120676603Y-71563088D01*
X120676601Y-71563088D01*
X120631914Y-71579286D01*
X119426028Y-72182228D01*
X119381255Y-72212572D01*
X119381238Y-72212585D01*
X119332970Y-72255573D01*
X119332924Y-72255617D01*
X119318201Y-72270121D01*
X119318201Y-72270122D01*
X119272913Y-72349572D01*
X119272908Y-72349581D01*
X119254286Y-72411160D01*
X119252685Y-72416454D01*
X119243894Y-72474285D01*
X119195545Y-78469686D01*
X119195515Y-78473351D01*
X118575500Y-78473351D01*
X118575500Y-78306004D01*
X118553975Y-78197794D01*
X118552199Y-78188865D01*
X118548580Y-78170671D01*
X118518777Y-78098722D01*
X118495775Y-78043189D01*
X118495534Y-78042829D01*
X118419114Y-77928458D01*
X118419111Y-77928454D01*
X118380130Y-77889474D01*
X118351805Y-77861149D01*
X118341816Y-77851159D01*
X118316476Y-77804749D01*
X118308334Y-77789838D01*
X118308333Y-77789836D01*
X118308333Y-77789831D01*
X118305500Y-77763480D01*
X118305500Y-77274008D01*
X118305499Y-77273992D01*
X118305403Y-77273096D01*
X118300803Y-77230316D01*
X118292639Y-77192786D01*
X118289602Y-77178825D01*
X118289348Y-77177789D01*
X118287110Y-77168627D01*
X118244100Y-77087915D01*
X118198345Y-77035111D01*
X118198339Y-77035104D01*
X118180757Y-77017160D01*
X118180756Y-77017159D01*
X118180754Y-77017157D01*
X118180752Y-77017156D01*
X118180750Y-77017154D01*
X118100940Y-76972511D01*
X118100935Y-76972509D01*
X118033903Y-76952826D01*
X118033899Y-76952825D01*
X118033898Y-76952825D01*
X117976000Y-76944500D01*
X114424000Y-76944500D01*
X114423992Y-76944500D01*
X114380313Y-76949197D01*
X114328825Y-76960397D01*
X114318627Y-76962890D01*
X114318624Y-76962891D01*
X114237916Y-77005899D01*
X114237913Y-77005901D01*
X114185104Y-77051660D01*
X114167160Y-77069242D01*
X114167154Y-77069249D01*
X114122511Y-77149059D01*
X114122509Y-77149064D01*
X114102826Y-77216096D01*
X114102825Y-77216101D01*
X114102825Y-77216102D01*
X114094502Y-77273992D01*
X114094500Y-77274003D01*
X112125500Y-77274003D01*
X112125500Y-71159108D01*
X117799500Y-71159108D01*
X117799500Y-71290891D01*
X117833608Y-71418187D01*
X117866554Y-71475250D01*
X117899500Y-71532314D01*
X117992686Y-71625500D01*
X118106814Y-71691392D01*
X118234108Y-71725500D01*
X118234110Y-71725500D01*
X118365890Y-71725500D01*
X118365892Y-71725500D01*
X118493186Y-71691392D01*
X118607314Y-71625500D01*
X118700500Y-71532314D01*
X118766392Y-71418186D01*
X118800500Y-71290892D01*
X118800500Y-71159108D01*
X118766392Y-71031814D01*
X118700500Y-70917686D01*
X118607314Y-70824500D01*
X118550250Y-70791554D01*
X118493187Y-70758608D01*
X118429539Y-70741554D01*
X118365892Y-70724500D01*
X118234108Y-70724500D01*
X118106812Y-70758608D01*
X117992686Y-70824500D01*
X117992683Y-70824502D01*
X117899502Y-70917683D01*
X117899500Y-70917686D01*
X117833608Y-71031812D01*
X117799500Y-71159108D01*
X112125500Y-71159108D01*
X112125500Y-54949500D01*
X112145185Y-54882461D01*
X112197989Y-54836706D01*
X112249500Y-54825500D01*
X119122748Y-54825500D01*
X119189787Y-54845185D01*
G37*
%TD.AperFunction*%
%TA.AperFunction,Conductor*%
G36*
X133103511Y-77847875D02*
G01*
X133152798Y-77867512D01*
X133221833Y-77878281D01*
X133259107Y-77878726D01*
X133259107Y-77880000D01*
X133348758Y-77880000D01*
X133350003Y-77880025D01*
X133351648Y-77880544D01*
X133379598Y-77884223D01*
X133423104Y-77895879D01*
X133452997Y-77908262D01*
X133536427Y-77956430D01*
X133545470Y-77961058D01*
X133552339Y-77964573D01*
X133564346Y-77975953D01*
X133579232Y-77983179D01*
X133589182Y-77999493D01*
X133603050Y-78012637D01*
X133607310Y-78029214D01*
X133615614Y-78042829D01*
X133619815Y-78077872D01*
X133619272Y-78100970D01*
X133619271Y-78101004D01*
X133618551Y-78131249D01*
X133620000Y-78146404D01*
X133620000Y-78197513D01*
X133615774Y-78229609D01*
X133604120Y-78273099D01*
X133591733Y-78303003D01*
X133569219Y-78341998D01*
X133549513Y-78367679D01*
X133517679Y-78399513D01*
X133491998Y-78419219D01*
X133453003Y-78441733D01*
X133423099Y-78454120D01*
X133404887Y-78459000D01*
X133379607Y-78465774D01*
X133347513Y-78470000D01*
X133302489Y-78470000D01*
X133270397Y-78465775D01*
X133226902Y-78454121D01*
X133196997Y-78441734D01*
X133157997Y-78419217D01*
X133132320Y-78399514D01*
X133100485Y-78367679D01*
X133080778Y-78341997D01*
X133058264Y-78303001D01*
X133045877Y-78273094D01*
X133032480Y-78223094D01*
X133024596Y-78193670D01*
X133018852Y-78175609D01*
X133010933Y-78154185D01*
X133010932Y-78154182D01*
X132977717Y-78099144D01*
X132971055Y-78088104D01*
X132961864Y-78077872D01*
X132951643Y-78066494D01*
X132939316Y-78040731D01*
X132924307Y-78016434D01*
X132924428Y-78009618D01*
X132921486Y-78003468D01*
X132925044Y-77975128D01*
X132925555Y-77946575D01*
X132929725Y-77937858D01*
X132930192Y-77934142D01*
X132940779Y-77914751D01*
X132954526Y-77894177D01*
X133008136Y-77849376D01*
X133077461Y-77840669D01*
X133103511Y-77847875D01*
G37*
%TD.AperFunction*%
%TA.AperFunction,Conductor*%
G36*
X130929599Y-77834223D02*
G01*
X130980457Y-77847850D01*
X130986558Y-77851569D01*
X131019808Y-77859426D01*
X131019809Y-77859426D01*
X131024052Y-77860428D01*
X131024054Y-77860429D01*
X131024070Y-77860433D01*
X131024173Y-77860457D01*
X131024175Y-77860458D01*
X131024980Y-77860648D01*
X131028533Y-77861487D01*
X131028533Y-77861488D01*
X131050653Y-77866715D01*
X131054217Y-77867613D01*
X131059261Y-77868965D01*
X131061501Y-77869279D01*
X131092118Y-77876514D01*
X131092127Y-77876515D01*
X131092129Y-77876516D01*
X131102625Y-77878327D01*
X131165342Y-77909119D01*
X131201456Y-77968931D01*
X131199560Y-78036656D01*
X131199972Y-78036777D01*
X131199513Y-78038339D01*
X131199501Y-78038773D01*
X131198950Y-78040257D01*
X131198010Y-78043455D01*
X131198010Y-78043457D01*
X131193403Y-78059145D01*
X131178324Y-78110496D01*
X131172464Y-78151250D01*
X131169501Y-78165694D01*
X131154118Y-78223101D01*
X131141731Y-78253006D01*
X131119219Y-78291998D01*
X131099513Y-78317679D01*
X131067679Y-78349513D01*
X131041998Y-78369219D01*
X131003003Y-78391733D01*
X130973099Y-78404120D01*
X130954887Y-78409000D01*
X130929607Y-78415774D01*
X130897513Y-78420000D01*
X130852489Y-78420000D01*
X130820397Y-78415775D01*
X130776902Y-78404121D01*
X130746997Y-78391734D01*
X130707997Y-78369217D01*
X130682320Y-78349514D01*
X130650485Y-78317679D01*
X130630781Y-78292002D01*
X130608263Y-78252999D01*
X130595878Y-78223097D01*
X130595877Y-78223094D01*
X130572293Y-78135074D01*
X130566549Y-78117013D01*
X130558630Y-78095589D01*
X130519960Y-78031509D01*
X130502177Y-77963941D01*
X130523747Y-77897485D01*
X130577822Y-77853239D01*
X130618777Y-77843661D01*
X130637960Y-77842521D01*
X130660188Y-77848155D01*
X130730038Y-77849818D01*
X130788116Y-77842874D01*
X130832562Y-77830964D01*
X130845137Y-77830218D01*
X130847208Y-77830695D01*
X130852488Y-77830000D01*
X130897512Y-77830000D01*
X130929599Y-77834223D01*
G37*
%TD.AperFunction*%
%TA.AperFunction,Conductor*%
G36*
X135641477Y-77798618D02*
G01*
X135645930Y-77798059D01*
X135651145Y-77799501D01*
X135654839Y-77799839D01*
X135663603Y-77801927D01*
X135702759Y-77817525D01*
X135771795Y-77828290D01*
X135774367Y-77828320D01*
X135781415Y-77830000D01*
X135809108Y-77830000D01*
X135897514Y-77830000D01*
X135929598Y-77834223D01*
X135973104Y-77845879D01*
X136002997Y-77858261D01*
X136058383Y-77890239D01*
X136058906Y-77890539D01*
X136058957Y-77890568D01*
X136058956Y-77890568D01*
X136059372Y-77890806D01*
X136059546Y-77890906D01*
X136099918Y-77906861D01*
X136119615Y-77922210D01*
X136141591Y-77934070D01*
X136146699Y-77943315D01*
X136155030Y-77949808D01*
X136163301Y-77973366D01*
X136175378Y-77995227D01*
X136175915Y-78009296D01*
X136178175Y-78015733D01*
X136178069Y-78030418D01*
X136177754Y-78035142D01*
X136170000Y-78089073D01*
X136170000Y-78151632D01*
X136169726Y-78155749D01*
X136168462Y-78159187D01*
X136165774Y-78179607D01*
X136163453Y-78188269D01*
X136154120Y-78223099D01*
X136141733Y-78253003D01*
X136119219Y-78291998D01*
X136099513Y-78317679D01*
X136067679Y-78349513D01*
X136041998Y-78369219D01*
X136003003Y-78391733D01*
X135973099Y-78404120D01*
X135954887Y-78409000D01*
X135929607Y-78415774D01*
X135897513Y-78420000D01*
X135852489Y-78420000D01*
X135820397Y-78415775D01*
X135776902Y-78404121D01*
X135746997Y-78391734D01*
X135707997Y-78369217D01*
X135682320Y-78349514D01*
X135650485Y-78317679D01*
X135630779Y-78291998D01*
X135608265Y-78253003D01*
X135595877Y-78223094D01*
X135589023Y-78197513D01*
X135584441Y-78180412D01*
X135578698Y-78162354D01*
X135570779Y-78140929D01*
X135530900Y-78074845D01*
X135523398Y-78066494D01*
X135505188Y-78046221D01*
X135475032Y-77983194D01*
X135483738Y-77913869D01*
X135494328Y-77894474D01*
X135522996Y-77851569D01*
X135540072Y-77837298D01*
X135553758Y-77819749D01*
X135566358Y-77815330D01*
X135576605Y-77806767D01*
X135598688Y-77803993D01*
X135619691Y-77796628D01*
X135641477Y-77798618D01*
G37*
%TD.AperFunction*%
%TA.AperFunction,Conductor*%
G36*
X138579606Y-77784225D02*
G01*
X138654187Y-77804209D01*
X138657061Y-77804740D01*
X138686021Y-77810099D01*
X138724750Y-77814146D01*
X138755283Y-77810541D01*
X138824165Y-77822230D01*
X138875796Y-77869305D01*
X138893779Y-77936821D01*
X138884458Y-77980950D01*
X138880753Y-77989934D01*
X138846962Y-78045374D01*
X138823937Y-78099144D01*
X138802046Y-78180841D01*
X138798984Y-78188269D01*
X138796613Y-78191221D01*
X138791732Y-78203005D01*
X138769220Y-78241997D01*
X138749514Y-78267678D01*
X138717679Y-78299513D01*
X138691998Y-78319219D01*
X138653003Y-78341733D01*
X138623099Y-78354120D01*
X138604887Y-78359000D01*
X138579607Y-78365774D01*
X138547513Y-78370000D01*
X138502489Y-78370000D01*
X138470397Y-78365775D01*
X138426902Y-78354121D01*
X138396997Y-78341734D01*
X138357997Y-78319217D01*
X138332320Y-78299514D01*
X138300484Y-78267678D01*
X138280779Y-78241998D01*
X138258263Y-78202999D01*
X138245877Y-78173094D01*
X138242999Y-78162354D01*
X138237259Y-78140928D01*
X138229108Y-78110506D01*
X138229103Y-78110491D01*
X138229100Y-78110479D01*
X138223358Y-78092424D01*
X138215441Y-78071003D01*
X138175564Y-78004918D01*
X138175561Y-78004915D01*
X138175559Y-78004911D01*
X138172237Y-78000424D01*
X138148170Y-77934830D01*
X138163387Y-77866638D01*
X138213055Y-77817497D01*
X138259781Y-77803239D01*
X138279159Y-77801335D01*
X138289005Y-77803831D01*
X138358855Y-77805494D01*
X138416933Y-77798550D01*
X138480230Y-77781589D01*
X138490369Y-77780594D01*
X138493483Y-77781185D01*
X138502488Y-77780000D01*
X138547513Y-77780000D01*
X138579606Y-77784225D01*
G37*
%TD.AperFunction*%
%TA.AperFunction,Conductor*%
G36*
X141529601Y-77434223D02*
G01*
X141573102Y-77445879D01*
X141602999Y-77458263D01*
X141642000Y-77480780D01*
X141667679Y-77500485D01*
X141699513Y-77532319D01*
X141719219Y-77558000D01*
X141741733Y-77596995D01*
X141754119Y-77626898D01*
X141765774Y-77670392D01*
X141770000Y-77702485D01*
X141770000Y-77747513D01*
X141765774Y-77779604D01*
X141760353Y-77799839D01*
X141754120Y-77823099D01*
X141741733Y-77853003D01*
X141719219Y-77891998D01*
X141699513Y-77917679D01*
X141667679Y-77949513D01*
X141641998Y-77969219D01*
X141603003Y-77991733D01*
X141573099Y-78004120D01*
X141568957Y-78005230D01*
X141529607Y-78015774D01*
X141497513Y-78020000D01*
X141452489Y-78020000D01*
X141420397Y-78015775D01*
X141376902Y-78004121D01*
X141346997Y-77991734D01*
X141307997Y-77969217D01*
X141282320Y-77949514D01*
X141250485Y-77917679D01*
X141230779Y-77891998D01*
X141230147Y-77890903D01*
X141208263Y-77852999D01*
X141195879Y-77823102D01*
X141184223Y-77779601D01*
X141180000Y-77747513D01*
X141180000Y-77702484D01*
X141184223Y-77670398D01*
X141195879Y-77626895D01*
X141208261Y-77597001D01*
X141230783Y-77557993D01*
X141250476Y-77532329D01*
X141282324Y-77500481D01*
X141307996Y-77480781D01*
X141346997Y-77458263D01*
X141376905Y-77445877D01*
X141420394Y-77434225D01*
X141452485Y-77430000D01*
X141497513Y-77430000D01*
X141529601Y-77434223D01*
G37*
%TD.AperFunction*%
%TA.AperFunction,Conductor*%
G36*
X128014196Y-76856624D02*
G01*
X128016774Y-76856347D01*
X128018749Y-76856912D01*
X128020130Y-76857000D01*
X128030657Y-76859200D01*
X128051850Y-76867643D01*
X128120885Y-76878409D01*
X128122656Y-76878430D01*
X128130168Y-76880000D01*
X128159105Y-76880000D01*
X128247514Y-76880000D01*
X128279598Y-76884223D01*
X128323104Y-76895879D01*
X128353000Y-76908263D01*
X128405751Y-76938719D01*
X128418410Y-76944500D01*
X128441276Y-76954943D01*
X128441282Y-76954945D01*
X128441286Y-76954947D01*
X128485639Y-76970298D01*
X128490949Y-76972055D01*
X128580608Y-76979387D01*
X128584266Y-76980793D01*
X128588147Y-76980236D01*
X128616608Y-76993233D01*
X128645818Y-77004469D01*
X128648135Y-77007631D01*
X128651703Y-77009261D01*
X128668621Y-77035586D01*
X128687117Y-77060826D01*
X128687969Y-77065693D01*
X128689477Y-77068039D01*
X128694500Y-77102974D01*
X128694500Y-77214650D01*
X128674815Y-77281689D01*
X128622011Y-77327444D01*
X128586915Y-77337559D01*
X128581651Y-77338261D01*
X128493643Y-77363140D01*
X128493642Y-77363140D01*
X128473879Y-77373933D01*
X128473880Y-77373934D01*
X128429829Y-77397992D01*
X128429564Y-77397532D01*
X128410131Y-77408751D01*
X128408808Y-77409474D01*
X128400883Y-77413803D01*
X128398742Y-77415326D01*
X128353001Y-77441734D01*
X128323099Y-77454120D01*
X128311760Y-77457158D01*
X128279606Y-77465774D01*
X128247513Y-77470000D01*
X128202489Y-77470000D01*
X128170397Y-77465775D01*
X128126902Y-77454121D01*
X128096997Y-77441734D01*
X128057997Y-77419217D01*
X128032320Y-77399514D01*
X128000485Y-77367679D01*
X127980778Y-77341996D01*
X127978216Y-77337559D01*
X127972377Y-77327444D01*
X127958265Y-77303001D01*
X127945878Y-77273096D01*
X127934225Y-77229605D01*
X127930000Y-77197512D01*
X127930000Y-77192786D01*
X127928398Y-77167177D01*
X127928396Y-77167163D01*
X127924546Y-77136509D01*
X127897380Y-77057259D01*
X127888119Y-77041651D01*
X127883296Y-77022758D01*
X127873813Y-77005721D01*
X127874833Y-76989603D01*
X127870839Y-76973954D01*
X127876996Y-76955451D01*
X127878229Y-76935992D01*
X127887801Y-76922984D01*
X127892902Y-76907659D01*
X127908086Y-76895422D01*
X127919643Y-76879719D01*
X127934727Y-76873952D01*
X127947304Y-76863817D01*
X127966691Y-76861732D01*
X127984906Y-76854769D01*
X128014196Y-76856624D01*
G37*
%TD.AperFunction*%
%TA.AperFunction,Conductor*%
G36*
X144529601Y-74684223D02*
G01*
X144573102Y-74695879D01*
X144602999Y-74708263D01*
X144642000Y-74730780D01*
X144667679Y-74750485D01*
X144699513Y-74782319D01*
X144719219Y-74808000D01*
X144741733Y-74846995D01*
X144754119Y-74876898D01*
X144765774Y-74920392D01*
X144770000Y-74952485D01*
X144770000Y-74997513D01*
X144765774Y-75029609D01*
X144754120Y-75073099D01*
X144741733Y-75103003D01*
X144719219Y-75141998D01*
X144699513Y-75167679D01*
X144667679Y-75199513D01*
X144641998Y-75219219D01*
X144603003Y-75241733D01*
X144573099Y-75254120D01*
X144554887Y-75259000D01*
X144529607Y-75265774D01*
X144497513Y-75270000D01*
X144452487Y-75270000D01*
X144420393Y-75265775D01*
X144420389Y-75265774D01*
X144405698Y-75261837D01*
X144380432Y-75255067D01*
X144366749Y-75251899D01*
X144366746Y-75251898D01*
X144366740Y-75251897D01*
X144356513Y-75249895D01*
X144350118Y-75248643D01*
X144348452Y-75248616D01*
X144347734Y-75248392D01*
X144344660Y-75248069D01*
X144344724Y-75247455D01*
X144330419Y-75242999D01*
X144311541Y-75242361D01*
X144297750Y-75232824D01*
X144281743Y-75227839D01*
X144269609Y-75213364D01*
X144254073Y-75202621D01*
X144242281Y-75180764D01*
X144236857Y-75174294D01*
X144236007Y-75172302D01*
X144232634Y-75164202D01*
X144231653Y-75160158D01*
X144209912Y-75105855D01*
X144204262Y-75096070D01*
X144201181Y-75088671D01*
X144200768Y-75084903D01*
X144195877Y-75073093D01*
X144184225Y-75029604D01*
X144180000Y-74997513D01*
X144180000Y-74952486D01*
X144184225Y-74920395D01*
X144195878Y-74876902D01*
X144208268Y-74846990D01*
X144225083Y-74817867D01*
X144225083Y-74817865D01*
X144225091Y-74817853D01*
X144234554Y-74799363D01*
X144244822Y-74776522D01*
X144244822Y-74776518D01*
X144245898Y-74774127D01*
X144291338Y-74721051D01*
X144344275Y-74701843D01*
X144362989Y-74699606D01*
X144378827Y-74695362D01*
X144420394Y-74684225D01*
X144452486Y-74680000D01*
X144497513Y-74680000D01*
X144529601Y-74684223D01*
G37*
%TD.AperFunction*%
%TA.AperFunction,Conductor*%
G36*
X125682455Y-72050211D02*
G01*
X125727749Y-72068973D01*
X125727751Y-72068973D01*
X125730459Y-72070095D01*
X125784863Y-72113935D01*
X125806928Y-72180229D01*
X125806154Y-72199173D01*
X125802587Y-72229432D01*
X125810232Y-72300579D01*
X125809603Y-72304060D01*
X125840775Y-72420394D01*
X125845000Y-72452484D01*
X125845000Y-72497512D01*
X125840777Y-72529595D01*
X125839269Y-72535224D01*
X125839267Y-72535233D01*
X125836456Y-72547130D01*
X125833493Y-72561578D01*
X125831397Y-72632093D01*
X125831397Y-72632105D01*
X125832606Y-72640509D01*
X125822662Y-72709667D01*
X125776906Y-72762470D01*
X125734063Y-72779771D01*
X125727750Y-72781026D01*
X125727748Y-72781027D01*
X125599634Y-72834094D01*
X125579580Y-72836250D01*
X125560664Y-72843242D01*
X125545553Y-72839908D01*
X125530164Y-72841563D01*
X125512127Y-72832534D01*
X125492435Y-72828190D01*
X125477227Y-72815064D01*
X125467685Y-72810288D01*
X125464243Y-72806957D01*
X125454061Y-72796715D01*
X125450314Y-72790424D01*
X125402098Y-72739857D01*
X125381335Y-72723529D01*
X125325485Y-72667679D01*
X125305779Y-72641998D01*
X125283263Y-72602999D01*
X125270879Y-72573102D01*
X125259223Y-72529599D01*
X125255000Y-72497513D01*
X125255000Y-72452484D01*
X125259223Y-72420398D01*
X125270879Y-72376893D01*
X125283263Y-72346997D01*
X125305780Y-72307998D01*
X125325478Y-72282327D01*
X125357323Y-72250482D01*
X125382997Y-72230782D01*
X125419520Y-72209696D01*
X125429929Y-72203265D01*
X125442238Y-72195145D01*
X125493588Y-72146762D01*
X125518476Y-72113515D01*
X125535736Y-72090461D01*
X125591670Y-72048590D01*
X125661361Y-72043606D01*
X125682455Y-72050211D01*
G37*
%TD.AperFunction*%
%TA.AperFunction,Conductor*%
G36*
X143859110Y-72033882D02*
G01*
X143859466Y-72033846D01*
X143890306Y-72049498D01*
X143921269Y-72064997D01*
X143921563Y-72065361D01*
X143921771Y-72065467D01*
X143922095Y-72066020D01*
X143943308Y-72092297D01*
X143952137Y-72107120D01*
X143989926Y-72146753D01*
X144000352Y-72157687D01*
X144046327Y-72193843D01*
X144046330Y-72193845D01*
X144059126Y-72201233D01*
X144066461Y-72205468D01*
X144066990Y-72205773D01*
X144092666Y-72225474D01*
X144124519Y-72257327D01*
X144144222Y-72283005D01*
X144158655Y-72308003D01*
X144166733Y-72321995D01*
X144179119Y-72351896D01*
X144190774Y-72395391D01*
X144195000Y-72427485D01*
X144195000Y-72472513D01*
X144190774Y-72504606D01*
X144190774Y-72504608D01*
X144190183Y-72506814D01*
X144179120Y-72548099D01*
X144166733Y-72578003D01*
X144144219Y-72616998D01*
X144124513Y-72642679D01*
X144091683Y-72675509D01*
X144069190Y-72693311D01*
X144067601Y-72694292D01*
X144055327Y-72702388D01*
X144055316Y-72702397D01*
X144003956Y-72750787D01*
X143977725Y-72785827D01*
X143955642Y-72802357D01*
X143935763Y-72821479D01*
X143928068Y-72822997D01*
X143921790Y-72827697D01*
X143894277Y-72829663D01*
X143867215Y-72835003D01*
X143856511Y-72832363D01*
X143852099Y-72832679D01*
X143832880Y-72826833D01*
X143831917Y-72826452D01*
X143722251Y-72781027D01*
X143711660Y-72778920D01*
X143701251Y-72774806D01*
X143682167Y-72759933D01*
X143660731Y-72748721D01*
X143655106Y-72738844D01*
X143646140Y-72731857D01*
X143638126Y-72709028D01*
X143626155Y-72688006D01*
X143624207Y-72669374D01*
X143622999Y-72665931D01*
X143623588Y-72663452D01*
X143622867Y-72656545D01*
X143624372Y-72593297D01*
X143617428Y-72535224D01*
X143609223Y-72504602D01*
X143605000Y-72472515D01*
X143605000Y-72427484D01*
X143609225Y-72395391D01*
X143621500Y-72349578D01*
X143630827Y-72314769D01*
X143633636Y-72302886D01*
X143636598Y-72288449D01*
X143638699Y-72217900D01*
X143636827Y-72204881D01*
X143640938Y-72176285D01*
X143642129Y-72147423D01*
X143645849Y-72142127D01*
X143646770Y-72135723D01*
X143665687Y-72113890D01*
X143682295Y-72090252D01*
X143689406Y-72086516D01*
X143692524Y-72082919D01*
X143712748Y-72072411D01*
X143720159Y-72069388D01*
X143722251Y-72068973D01*
X143789667Y-72041048D01*
X143789957Y-72040930D01*
X143824349Y-72037424D01*
X143858790Y-72033722D01*
X143859110Y-72033882D01*
G37*
%TD.AperFunction*%
%TA.AperFunction,Conductor*%
G36*
X125649564Y-69496588D02*
G01*
X125686734Y-69511984D01*
X125741138Y-69555824D01*
X125763203Y-69622118D01*
X125762432Y-69641043D01*
X125756729Y-69689485D01*
X125765127Y-69767527D01*
X125765127Y-69767529D01*
X125765591Y-69771850D01*
X125765790Y-69777150D01*
X125766410Y-69779465D01*
X125766411Y-69779471D01*
X125771107Y-69796995D01*
X125790773Y-69870389D01*
X125790775Y-69870394D01*
X125794999Y-69902484D01*
X125795000Y-69902488D01*
X125795000Y-69947511D01*
X125790775Y-69979604D01*
X125786594Y-69995205D01*
X125783777Y-70007130D01*
X125780817Y-70021558D01*
X125780816Y-70021567D01*
X125778718Y-70092103D01*
X125782353Y-70117385D01*
X125778288Y-70145654D01*
X125777269Y-70174191D01*
X125773379Y-70179792D01*
X125772409Y-70186544D01*
X125753708Y-70208124D01*
X125737421Y-70231584D01*
X125729105Y-70236517D01*
X125726654Y-70239347D01*
X125707068Y-70249593D01*
X125583624Y-70300725D01*
X125514154Y-70308194D01*
X125451675Y-70276919D01*
X125441829Y-70266032D01*
X125405896Y-70228348D01*
X125390137Y-70211820D01*
X125344158Y-70175661D01*
X125344153Y-70175657D01*
X125332998Y-70169217D01*
X125307318Y-70149512D01*
X125275485Y-70117679D01*
X125255779Y-70091998D01*
X125233263Y-70052999D01*
X125220879Y-70023102D01*
X125209223Y-69979601D01*
X125205000Y-69947513D01*
X125205000Y-69902484D01*
X125209223Y-69870398D01*
X125220879Y-69826895D01*
X125233266Y-69796993D01*
X125255780Y-69757998D01*
X125275478Y-69732327D01*
X125307323Y-69700482D01*
X125332993Y-69680784D01*
X125394879Y-69645055D01*
X125405288Y-69638624D01*
X125417597Y-69630504D01*
X125468947Y-69582121D01*
X125502846Y-69536838D01*
X125558778Y-69494967D01*
X125628470Y-69489983D01*
X125649564Y-69496588D01*
G37*
%TD.AperFunction*%
%TA.AperFunction,Conductor*%
G36*
X144679601Y-69634223D02*
G01*
X144723102Y-69645879D01*
X144752999Y-69658263D01*
X144792000Y-69680780D01*
X144817679Y-69700485D01*
X144849513Y-69732319D01*
X144869219Y-69758000D01*
X144891733Y-69796995D01*
X144904119Y-69826898D01*
X144915774Y-69870392D01*
X144920000Y-69902485D01*
X144920000Y-69947513D01*
X144915774Y-69979609D01*
X144904120Y-70023099D01*
X144891733Y-70053003D01*
X144869219Y-70091998D01*
X144849513Y-70117679D01*
X144817679Y-70149513D01*
X144791998Y-70169219D01*
X144753003Y-70191733D01*
X144723099Y-70204120D01*
X144708157Y-70208124D01*
X144679607Y-70215774D01*
X144647513Y-70220000D01*
X144602489Y-70220000D01*
X144570397Y-70215775D01*
X144526902Y-70204121D01*
X144496997Y-70191734D01*
X144457996Y-70169217D01*
X144432320Y-70149514D01*
X144400485Y-70117679D01*
X144380779Y-70091998D01*
X144358263Y-70052999D01*
X144345879Y-70023102D01*
X144334223Y-69979601D01*
X144330000Y-69947513D01*
X144330000Y-69902484D01*
X144334223Y-69870398D01*
X144345879Y-69826895D01*
X144358261Y-69797001D01*
X144380783Y-69757993D01*
X144400476Y-69732329D01*
X144432324Y-69700481D01*
X144457996Y-69680781D01*
X144496997Y-69658263D01*
X144526905Y-69645877D01*
X144570394Y-69634225D01*
X144602485Y-69630000D01*
X144647513Y-69630000D01*
X144679601Y-69634223D01*
G37*
%TD.AperFunction*%
%TA.AperFunction,Conductor*%
G36*
X123504601Y-68509223D02*
G01*
X123548102Y-68520879D01*
X123577999Y-68533263D01*
X123617000Y-68555780D01*
X123642679Y-68575485D01*
X123674513Y-68607319D01*
X123694219Y-68633000D01*
X123716733Y-68671995D01*
X123729119Y-68701898D01*
X123740774Y-68745392D01*
X123745000Y-68777485D01*
X123745000Y-68822513D01*
X123740774Y-68854609D01*
X123729120Y-68898099D01*
X123716733Y-68928003D01*
X123694219Y-68966998D01*
X123674513Y-68992679D01*
X123642679Y-69024513D01*
X123616998Y-69044219D01*
X123578003Y-69066733D01*
X123548099Y-69079120D01*
X123529887Y-69084000D01*
X123504607Y-69090774D01*
X123472513Y-69095000D01*
X123427489Y-69095000D01*
X123395397Y-69090775D01*
X123351902Y-69079121D01*
X123321997Y-69066734D01*
X123282998Y-69044218D01*
X123257320Y-69024514D01*
X123225485Y-68992679D01*
X123205778Y-68966996D01*
X123183265Y-68928001D01*
X123170878Y-68898096D01*
X123159225Y-68854605D01*
X123155000Y-68822512D01*
X123155000Y-68777484D01*
X123159223Y-68745398D01*
X123170879Y-68701895D01*
X123183261Y-68672001D01*
X123205783Y-68632993D01*
X123225476Y-68607329D01*
X123257324Y-68575481D01*
X123282996Y-68555781D01*
X123321997Y-68533263D01*
X123351905Y-68520877D01*
X123395394Y-68509225D01*
X123427485Y-68505000D01*
X123472513Y-68505000D01*
X123504601Y-68509223D01*
G37*
%TD.AperFunction*%
%TA.AperFunction,Conductor*%
G36*
X144679601Y-66984223D02*
G01*
X144723102Y-66995879D01*
X144752999Y-67008263D01*
X144792000Y-67030780D01*
X144817679Y-67050485D01*
X144849513Y-67082319D01*
X144869219Y-67108000D01*
X144891733Y-67146995D01*
X144904119Y-67176898D01*
X144915774Y-67220392D01*
X144920000Y-67252485D01*
X144920000Y-67297513D01*
X144915774Y-67329609D01*
X144904120Y-67373099D01*
X144891733Y-67403003D01*
X144869219Y-67441998D01*
X144849513Y-67467679D01*
X144817679Y-67499513D01*
X144791998Y-67519219D01*
X144753003Y-67541733D01*
X144723099Y-67554120D01*
X144704887Y-67559000D01*
X144679607Y-67565774D01*
X144647513Y-67570000D01*
X144602489Y-67570000D01*
X144570397Y-67565775D01*
X144526902Y-67554121D01*
X144496997Y-67541734D01*
X144457997Y-67519217D01*
X144432320Y-67499514D01*
X144400485Y-67467679D01*
X144380778Y-67441996D01*
X144358265Y-67403001D01*
X144345878Y-67373096D01*
X144334225Y-67329605D01*
X144330000Y-67297512D01*
X144330000Y-67252487D01*
X144334225Y-67220396D01*
X144338644Y-67203899D01*
X144345880Y-67176895D01*
X144358265Y-67146995D01*
X144390705Y-67090808D01*
X144390705Y-67090806D01*
X144392251Y-67088130D01*
X144393208Y-67088682D01*
X144403025Y-67078334D01*
X144411817Y-67061789D01*
X144430638Y-67049225D01*
X144438216Y-67041238D01*
X144439829Y-67040318D01*
X144446886Y-67036359D01*
X144451611Y-67034468D01*
X144497675Y-67007871D01*
X144498333Y-67007503D01*
X144499454Y-67007245D01*
X144526894Y-66995879D01*
X144570400Y-66984223D01*
X144602484Y-66980000D01*
X144647513Y-66980000D01*
X144679601Y-66984223D01*
G37*
%TD.AperFunction*%
%TA.AperFunction,Conductor*%
G36*
X123454601Y-65709223D02*
G01*
X123498102Y-65720879D01*
X123527999Y-65733263D01*
X123567000Y-65755780D01*
X123592679Y-65775485D01*
X123624513Y-65807319D01*
X123644219Y-65833000D01*
X123666733Y-65871995D01*
X123679119Y-65901898D01*
X123690774Y-65945392D01*
X123695000Y-65977485D01*
X123695000Y-66022513D01*
X123690774Y-66054609D01*
X123679120Y-66098099D01*
X123666733Y-66128003D01*
X123644219Y-66166998D01*
X123624513Y-66192679D01*
X123592679Y-66224513D01*
X123566998Y-66244219D01*
X123528003Y-66266733D01*
X123498099Y-66279120D01*
X123479887Y-66284000D01*
X123454607Y-66290774D01*
X123422513Y-66295000D01*
X123377489Y-66295000D01*
X123345397Y-66290775D01*
X123301902Y-66279121D01*
X123271997Y-66266734D01*
X123232997Y-66244217D01*
X123207320Y-66224514D01*
X123175485Y-66192679D01*
X123155778Y-66166996D01*
X123133265Y-66128001D01*
X123120878Y-66098096D01*
X123109225Y-66054605D01*
X123105000Y-66022512D01*
X123105000Y-65977484D01*
X123109223Y-65945398D01*
X123120879Y-65901895D01*
X123133261Y-65872001D01*
X123155783Y-65832993D01*
X123175476Y-65807329D01*
X123207324Y-65775481D01*
X123232996Y-65755781D01*
X123271997Y-65733263D01*
X123301905Y-65720877D01*
X123345394Y-65709225D01*
X123377485Y-65705000D01*
X123422513Y-65705000D01*
X123454601Y-65709223D01*
G37*
%TD.AperFunction*%
%TA.AperFunction,Conductor*%
G36*
X123454601Y-63109223D02*
G01*
X123498102Y-63120879D01*
X123527999Y-63133263D01*
X123567000Y-63155780D01*
X123592679Y-63175485D01*
X123624513Y-63207319D01*
X123644219Y-63233000D01*
X123666733Y-63271995D01*
X123679119Y-63301898D01*
X123690774Y-63345392D01*
X123695000Y-63377485D01*
X123695000Y-63422513D01*
X123690774Y-63454609D01*
X123679120Y-63498099D01*
X123666733Y-63528003D01*
X123644219Y-63566998D01*
X123624513Y-63592679D01*
X123592679Y-63624513D01*
X123566998Y-63644219D01*
X123528003Y-63666733D01*
X123498099Y-63679120D01*
X123479887Y-63684000D01*
X123454607Y-63690774D01*
X123422513Y-63695000D01*
X123377489Y-63695000D01*
X123345397Y-63690775D01*
X123301902Y-63679121D01*
X123271997Y-63666734D01*
X123232997Y-63644217D01*
X123207320Y-63624514D01*
X123175485Y-63592679D01*
X123155778Y-63566996D01*
X123133265Y-63528001D01*
X123120878Y-63498096D01*
X123109225Y-63454605D01*
X123105000Y-63422512D01*
X123105000Y-63377484D01*
X123109223Y-63345398D01*
X123120879Y-63301895D01*
X123133261Y-63272001D01*
X123155783Y-63232993D01*
X123175476Y-63207329D01*
X123207324Y-63175481D01*
X123232996Y-63155781D01*
X123271997Y-63133263D01*
X123301905Y-63120877D01*
X123345394Y-63109225D01*
X123377485Y-63105000D01*
X123422513Y-63105000D01*
X123454601Y-63109223D01*
G37*
%TD.AperFunction*%
%TA.AperFunction,Conductor*%
G36*
X123454601Y-60859223D02*
G01*
X123498102Y-60870879D01*
X123527999Y-60883263D01*
X123567000Y-60905780D01*
X123592679Y-60925485D01*
X123624513Y-60957319D01*
X123644219Y-60983000D01*
X123666733Y-61021995D01*
X123679119Y-61051898D01*
X123690774Y-61095392D01*
X123695000Y-61127485D01*
X123695000Y-61172513D01*
X123690775Y-61204604D01*
X123690774Y-61204609D01*
X123679120Y-61248099D01*
X123666733Y-61278003D01*
X123644219Y-61316998D01*
X123624513Y-61342679D01*
X123592679Y-61374513D01*
X123566998Y-61394219D01*
X123528003Y-61416733D01*
X123498099Y-61429120D01*
X123479887Y-61434000D01*
X123454607Y-61440774D01*
X123422513Y-61445000D01*
X123377489Y-61445000D01*
X123345397Y-61440775D01*
X123301902Y-61429121D01*
X123271997Y-61416734D01*
X123232997Y-61394217D01*
X123207320Y-61374514D01*
X123175485Y-61342679D01*
X123155779Y-61316998D01*
X123150188Y-61307314D01*
X123133263Y-61277999D01*
X123120879Y-61248102D01*
X123109223Y-61204601D01*
X123105000Y-61172513D01*
X123105000Y-61127484D01*
X123109223Y-61095398D01*
X123120879Y-61051895D01*
X123133261Y-61022001D01*
X123155783Y-60982993D01*
X123175476Y-60957329D01*
X123207324Y-60925481D01*
X123232996Y-60905781D01*
X123271997Y-60883263D01*
X123301905Y-60870877D01*
X123345394Y-60859225D01*
X123377485Y-60855000D01*
X123422513Y-60855000D01*
X123454601Y-60859223D01*
G37*
%TD.AperFunction*%
%TA.AperFunction,Conductor*%
G36*
X144679601Y-59484223D02*
G01*
X144723102Y-59495879D01*
X144752999Y-59508263D01*
X144792000Y-59530780D01*
X144817679Y-59550485D01*
X144849513Y-59582319D01*
X144869219Y-59608000D01*
X144891733Y-59646995D01*
X144904119Y-59676898D01*
X144915774Y-59720392D01*
X144920000Y-59752485D01*
X144920000Y-59797513D01*
X144915775Y-59829604D01*
X144915774Y-59829609D01*
X144904120Y-59873099D01*
X144891733Y-59903003D01*
X144869219Y-59941998D01*
X144849513Y-59967679D01*
X144817679Y-59999513D01*
X144791998Y-60019219D01*
X144753003Y-60041733D01*
X144723099Y-60054120D01*
X144704887Y-60059000D01*
X144679607Y-60065774D01*
X144647513Y-60070000D01*
X144602489Y-60070000D01*
X144570397Y-60065775D01*
X144526902Y-60054121D01*
X144496997Y-60041734D01*
X144457997Y-60019217D01*
X144432320Y-59999514D01*
X144400485Y-59967679D01*
X144380779Y-59941998D01*
X144358263Y-59902999D01*
X144345879Y-59873102D01*
X144334223Y-59829601D01*
X144330000Y-59797513D01*
X144330000Y-59752484D01*
X144334223Y-59720398D01*
X144345879Y-59676895D01*
X144358261Y-59647001D01*
X144380783Y-59607993D01*
X144400476Y-59582329D01*
X144432324Y-59550481D01*
X144457996Y-59530781D01*
X144496997Y-59508263D01*
X144526905Y-59495877D01*
X144570394Y-59484225D01*
X144602485Y-59480000D01*
X144647513Y-59480000D01*
X144679601Y-59484223D01*
G37*
%TD.AperFunction*%
%TA.AperFunction,Conductor*%
G36*
X127817539Y-57729685D02*
G01*
X127863294Y-57782489D01*
X127874500Y-57834000D01*
X127874500Y-59076000D01*
X127854815Y-59143039D01*
X127802011Y-59188794D01*
X127750500Y-59200000D01*
X125384000Y-59200000D01*
X125316961Y-59180315D01*
X125271206Y-59127511D01*
X125260000Y-59076000D01*
X125260000Y-57834000D01*
X125279685Y-57766961D01*
X125332489Y-57721206D01*
X125384000Y-57710000D01*
X127750500Y-57710000D01*
X127817539Y-57729685D01*
G37*
%TD.AperFunction*%
%TA.AperFunction,Conductor*%
G36*
X123454601Y-58109223D02*
G01*
X123498102Y-58120879D01*
X123527999Y-58133263D01*
X123567000Y-58155780D01*
X123592679Y-58175485D01*
X123624513Y-58207319D01*
X123644219Y-58233000D01*
X123666733Y-58271995D01*
X123679119Y-58301898D01*
X123690774Y-58345392D01*
X123695000Y-58377485D01*
X123695000Y-58422513D01*
X123690774Y-58454609D01*
X123679120Y-58498099D01*
X123666733Y-58528003D01*
X123644219Y-58566998D01*
X123624513Y-58592679D01*
X123592679Y-58624513D01*
X123566998Y-58644219D01*
X123528003Y-58666733D01*
X123498099Y-58679120D01*
X123479887Y-58684000D01*
X123454607Y-58690774D01*
X123422513Y-58695000D01*
X123377489Y-58695000D01*
X123345397Y-58690775D01*
X123301902Y-58679121D01*
X123271997Y-58666734D01*
X123232997Y-58644217D01*
X123207320Y-58624514D01*
X123175485Y-58592679D01*
X123155778Y-58566996D01*
X123133265Y-58528001D01*
X123120878Y-58498096D01*
X123109225Y-58454605D01*
X123105000Y-58422512D01*
X123105000Y-58377484D01*
X123109223Y-58345398D01*
X123120879Y-58301895D01*
X123133261Y-58272001D01*
X123155783Y-58232993D01*
X123175476Y-58207329D01*
X123207324Y-58175481D01*
X123232996Y-58155781D01*
X123271997Y-58133263D01*
X123301905Y-58120877D01*
X123345394Y-58109225D01*
X123377485Y-58105000D01*
X123422513Y-58105000D01*
X123454601Y-58109223D01*
G37*
%TD.AperFunction*%
%TD*%
%TA.AperFunction,Conductor*%
%TO.N,+5V*%
G36*
X127817539Y-54869685D02*
G01*
X127863294Y-54922489D01*
X127874500Y-54974000D01*
X127874500Y-57380500D01*
X127854815Y-57447539D01*
X127802011Y-57493294D01*
X127750500Y-57504500D01*
X125235247Y-57504500D01*
X125176770Y-57516131D01*
X125176769Y-57516132D01*
X125110447Y-57560447D01*
X125066132Y-57626769D01*
X125066131Y-57626770D01*
X125054500Y-57685247D01*
X125054500Y-59224752D01*
X125066131Y-59283229D01*
X125066132Y-59283230D01*
X125110447Y-59349552D01*
X125176769Y-59393867D01*
X125176770Y-59393868D01*
X125235247Y-59405499D01*
X125235250Y-59405500D01*
X125235252Y-59405500D01*
X127750500Y-59405500D01*
X127817539Y-59425185D01*
X127863294Y-59477989D01*
X127874500Y-59529500D01*
X127874500Y-59985355D01*
X127854815Y-60052394D01*
X127802011Y-60098149D01*
X127732853Y-60108093D01*
X127681611Y-60088458D01*
X127633230Y-60056132D01*
X127574751Y-60044500D01*
X127574748Y-60044500D01*
X125535248Y-60044500D01*
X125515754Y-60048377D01*
X125476766Y-60056132D01*
X125427196Y-60089254D01*
X125427188Y-60089260D01*
X125099264Y-60417184D01*
X125099258Y-60417191D01*
X125066132Y-60466768D01*
X125066132Y-60466769D01*
X125054500Y-60525247D01*
X125054500Y-60525252D01*
X125054500Y-61464752D01*
X125062254Y-61503738D01*
X125066132Y-61523233D01*
X125099254Y-61572803D01*
X125099260Y-61572811D01*
X125427184Y-61900735D01*
X125427191Y-61900741D01*
X125476768Y-61933867D01*
X125535247Y-61945499D01*
X125535250Y-61945500D01*
X125535252Y-61945500D01*
X127574751Y-61945500D01*
X127574752Y-61945500D01*
X127633232Y-61933868D01*
X127681609Y-61901542D01*
X127748286Y-61880665D01*
X127815667Y-61899149D01*
X127862357Y-61951128D01*
X127874500Y-62004645D01*
X127874500Y-62674018D01*
X127854815Y-62741057D01*
X127802011Y-62786812D01*
X127732853Y-62796756D01*
X127681610Y-62777120D01*
X127555242Y-62692684D01*
X127555228Y-62692676D01*
X127382251Y-62621027D01*
X127382243Y-62621025D01*
X127198620Y-62584500D01*
X127198616Y-62584500D01*
X125911384Y-62584500D01*
X125911379Y-62584500D01*
X125727756Y-62621025D01*
X125727748Y-62621027D01*
X125554771Y-62692676D01*
X125554762Y-62692681D01*
X125399092Y-62796697D01*
X125399088Y-62796700D01*
X125266700Y-62929088D01*
X125266697Y-62929092D01*
X125162681Y-63084762D01*
X125162676Y-63084771D01*
X125091027Y-63257748D01*
X125091025Y-63257756D01*
X125054500Y-63441379D01*
X125054500Y-63628620D01*
X125091025Y-63812243D01*
X125091027Y-63812251D01*
X125162676Y-63985228D01*
X125162681Y-63985237D01*
X125266697Y-64140907D01*
X125266700Y-64140911D01*
X125399088Y-64273299D01*
X125399092Y-64273302D01*
X125554762Y-64377318D01*
X125554768Y-64377321D01*
X125554769Y-64377322D01*
X125727749Y-64448973D01*
X125911379Y-64485499D01*
X125911383Y-64485500D01*
X125911384Y-64485500D01*
X127198617Y-64485500D01*
X127198618Y-64485499D01*
X127382251Y-64448973D01*
X127555231Y-64377322D01*
X127681609Y-64292879D01*
X127748286Y-64272001D01*
X127815667Y-64290485D01*
X127862357Y-64342464D01*
X127874500Y-64395981D01*
X127874500Y-65214018D01*
X127854815Y-65281057D01*
X127802011Y-65326812D01*
X127732853Y-65336756D01*
X127681610Y-65317120D01*
X127555242Y-65232684D01*
X127555228Y-65232676D01*
X127382251Y-65161027D01*
X127382243Y-65161025D01*
X127198620Y-65124500D01*
X127198616Y-65124500D01*
X125911384Y-65124500D01*
X125911379Y-65124500D01*
X125727756Y-65161025D01*
X125727748Y-65161027D01*
X125554771Y-65232676D01*
X125554762Y-65232681D01*
X125399092Y-65336697D01*
X125399088Y-65336700D01*
X125266700Y-65469088D01*
X125266697Y-65469092D01*
X125162681Y-65624762D01*
X125162676Y-65624771D01*
X125091027Y-65797748D01*
X125091025Y-65797756D01*
X125054500Y-65981379D01*
X125054500Y-66168620D01*
X125091025Y-66352243D01*
X125091027Y-66352251D01*
X125162676Y-66525228D01*
X125162681Y-66525237D01*
X125266697Y-66680907D01*
X125266700Y-66680911D01*
X125399088Y-66813299D01*
X125399092Y-66813302D01*
X125554762Y-66917318D01*
X125554768Y-66917321D01*
X125554769Y-66917322D01*
X125727749Y-66988973D01*
X125911379Y-67025499D01*
X125911383Y-67025500D01*
X125911384Y-67025500D01*
X127198617Y-67025500D01*
X127198618Y-67025499D01*
X127382251Y-66988973D01*
X127555231Y-66917322D01*
X127619319Y-66874500D01*
X127681609Y-66832879D01*
X127748286Y-66812001D01*
X127815667Y-66830485D01*
X127862357Y-66882464D01*
X127874500Y-66935981D01*
X127874500Y-67754018D01*
X127854815Y-67821057D01*
X127802011Y-67866812D01*
X127732853Y-67876756D01*
X127681610Y-67857120D01*
X127555242Y-67772684D01*
X127555228Y-67772676D01*
X127382251Y-67701027D01*
X127382243Y-67701025D01*
X127198620Y-67664500D01*
X127198616Y-67664500D01*
X125911384Y-67664500D01*
X125911379Y-67664500D01*
X125727756Y-67701025D01*
X125727748Y-67701027D01*
X125554771Y-67772676D01*
X125554762Y-67772681D01*
X125399092Y-67876697D01*
X125399088Y-67876700D01*
X125266700Y-68009088D01*
X125266697Y-68009092D01*
X125162681Y-68164762D01*
X125162676Y-68164771D01*
X125091027Y-68337748D01*
X125091025Y-68337756D01*
X125054500Y-68521379D01*
X125054500Y-68708620D01*
X125091025Y-68892243D01*
X125091027Y-68892251D01*
X125162676Y-69065228D01*
X125162681Y-69065237D01*
X125266697Y-69220907D01*
X125266700Y-69220911D01*
X125317808Y-69272019D01*
X125351293Y-69333342D01*
X125346309Y-69403034D01*
X125304437Y-69458967D01*
X125292128Y-69467087D01*
X125192686Y-69524500D01*
X125192683Y-69524502D01*
X125099502Y-69617683D01*
X125099500Y-69617686D01*
X125033608Y-69731812D01*
X124999500Y-69859108D01*
X124999500Y-69990892D01*
X125008505Y-70024500D01*
X125033608Y-70118187D01*
X125044272Y-70136657D01*
X125099500Y-70232314D01*
X125192686Y-70325500D01*
X125241409Y-70353630D01*
X125289624Y-70404197D01*
X125302848Y-70472804D01*
X125276880Y-70537668D01*
X125267100Y-70548689D01*
X125266700Y-70549088D01*
X125266697Y-70549092D01*
X125162681Y-70704762D01*
X125162676Y-70704771D01*
X125091027Y-70877748D01*
X125091025Y-70877756D01*
X125054500Y-71061379D01*
X125054500Y-71248620D01*
X125091025Y-71432243D01*
X125091027Y-71432251D01*
X125162676Y-71605228D01*
X125162681Y-71605237D01*
X125266697Y-71760907D01*
X125266700Y-71760911D01*
X125342449Y-71836660D01*
X125375934Y-71897983D01*
X125370950Y-71967675D01*
X125329078Y-72023608D01*
X125316769Y-72031728D01*
X125242686Y-72074500D01*
X125242683Y-72074502D01*
X125149502Y-72167683D01*
X125149500Y-72167686D01*
X125083608Y-72281812D01*
X125076775Y-72307314D01*
X125049500Y-72409108D01*
X125049500Y-72540892D01*
X125054381Y-72559108D01*
X125083608Y-72668187D01*
X125085816Y-72672011D01*
X125149500Y-72782314D01*
X125242686Y-72875500D01*
X125253371Y-72881669D01*
X125301587Y-72932236D01*
X125314809Y-73000843D01*
X125288841Y-73065708D01*
X125279052Y-73076737D01*
X125266700Y-73089088D01*
X125266697Y-73089092D01*
X125162681Y-73244762D01*
X125162676Y-73244771D01*
X125091027Y-73417748D01*
X125091025Y-73417756D01*
X125054500Y-73601379D01*
X125054500Y-73788620D01*
X125091025Y-73972243D01*
X125091027Y-73972251D01*
X125162676Y-74145228D01*
X125162681Y-74145237D01*
X125266697Y-74300907D01*
X125266700Y-74300911D01*
X125399088Y-74433299D01*
X125399092Y-74433302D01*
X125554762Y-74537318D01*
X125554771Y-74537323D01*
X125576272Y-74546229D01*
X125727749Y-74608973D01*
X125897237Y-74642686D01*
X125911379Y-74645499D01*
X125911383Y-74645500D01*
X125911384Y-74645500D01*
X127198617Y-74645500D01*
X127198618Y-74645499D01*
X127382251Y-74608973D01*
X127555231Y-74537322D01*
X127681609Y-74452879D01*
X127748286Y-74432001D01*
X127815667Y-74450485D01*
X127862357Y-74502464D01*
X127874500Y-74555981D01*
X127874500Y-75374018D01*
X127854815Y-75441057D01*
X127802011Y-75486812D01*
X127732853Y-75496756D01*
X127681610Y-75477120D01*
X127555242Y-75392684D01*
X127555228Y-75392676D01*
X127382251Y-75321027D01*
X127382243Y-75321025D01*
X127198620Y-75284500D01*
X127198616Y-75284500D01*
X125911384Y-75284500D01*
X125911379Y-75284500D01*
X125727756Y-75321025D01*
X125727748Y-75321027D01*
X125554771Y-75392676D01*
X125554762Y-75392681D01*
X125399092Y-75496697D01*
X125399088Y-75496700D01*
X125266700Y-75629088D01*
X125266697Y-75629092D01*
X125162681Y-75784762D01*
X125162676Y-75784771D01*
X125091027Y-75957748D01*
X125091025Y-75957756D01*
X125054500Y-76141379D01*
X125054500Y-76328620D01*
X125091025Y-76512243D01*
X125091027Y-76512251D01*
X125162676Y-76685228D01*
X125162681Y-76685237D01*
X125266697Y-76840907D01*
X125266700Y-76840911D01*
X125399088Y-76973299D01*
X125399092Y-76973302D01*
X125554762Y-77077318D01*
X125554768Y-77077321D01*
X125554769Y-77077322D01*
X125727749Y-77148973D01*
X125911379Y-77185499D01*
X125911383Y-77185500D01*
X125911384Y-77185500D01*
X127198617Y-77185500D01*
X127198618Y-77185499D01*
X127382251Y-77148973D01*
X127553049Y-77078225D01*
X127622516Y-77070757D01*
X127684995Y-77102032D01*
X127720648Y-77162121D01*
X127724500Y-77192787D01*
X127724500Y-77240891D01*
X127758608Y-77368187D01*
X127771717Y-77390892D01*
X127824500Y-77482314D01*
X127917686Y-77575500D01*
X128031814Y-77641392D01*
X128159108Y-77675500D01*
X128159110Y-77675500D01*
X128290890Y-77675500D01*
X128290892Y-77675500D01*
X128418186Y-77641392D01*
X128532314Y-77575500D01*
X128532321Y-77575492D01*
X128538760Y-77570553D01*
X128539895Y-77572032D01*
X128592146Y-77543494D01*
X128661838Y-77548470D01*
X128717776Y-77590335D01*
X128733077Y-77617201D01*
X128751425Y-77661496D01*
X128802676Y-77785228D01*
X128802681Y-77785237D01*
X128906697Y-77940907D01*
X128906700Y-77940911D01*
X129039088Y-78073299D01*
X129039092Y-78073302D01*
X129194762Y-78177318D01*
X129194771Y-78177323D01*
X129221178Y-78188261D01*
X129367749Y-78248973D01*
X129535367Y-78282314D01*
X129551379Y-78285499D01*
X129551383Y-78285500D01*
X129551384Y-78285500D01*
X129738617Y-78285500D01*
X129738618Y-78285499D01*
X129922251Y-78248973D01*
X130095231Y-78177322D01*
X130095236Y-78177318D01*
X130095239Y-78177317D01*
X130147729Y-78142244D01*
X130185130Y-78117253D01*
X130251805Y-78096375D01*
X130319186Y-78114859D01*
X130365876Y-78166837D01*
X130373795Y-78188261D01*
X130374500Y-78190891D01*
X130374500Y-78190892D01*
X130408608Y-78318186D01*
X130474500Y-78432314D01*
X130567686Y-78525500D01*
X130681814Y-78591392D01*
X130809108Y-78625500D01*
X130809110Y-78625500D01*
X130940890Y-78625500D01*
X130940892Y-78625500D01*
X131068186Y-78591392D01*
X131182314Y-78525500D01*
X131275500Y-78432314D01*
X131341392Y-78318186D01*
X131375500Y-78190892D01*
X131375500Y-78168394D01*
X131395185Y-78101355D01*
X131447989Y-78055600D01*
X131517147Y-78045656D01*
X131573613Y-78070537D01*
X131574027Y-78069918D01*
X131577551Y-78072273D01*
X131578171Y-78072546D01*
X131579094Y-78073304D01*
X131734762Y-78177318D01*
X131734771Y-78177323D01*
X131761178Y-78188261D01*
X131907749Y-78248973D01*
X132075367Y-78282314D01*
X132091379Y-78285499D01*
X132091383Y-78285500D01*
X132091384Y-78285500D01*
X132278617Y-78285500D01*
X132278618Y-78285499D01*
X132462251Y-78248973D01*
X132635231Y-78177322D01*
X132637430Y-78175853D01*
X132638756Y-78175437D01*
X132640606Y-78174449D01*
X132640793Y-78174799D01*
X132704107Y-78154973D01*
X132771487Y-78173455D01*
X132818179Y-78225433D01*
X132826098Y-78246857D01*
X132858608Y-78368186D01*
X132924500Y-78482314D01*
X133017686Y-78575500D01*
X133131814Y-78641392D01*
X133259108Y-78675500D01*
X133259110Y-78675500D01*
X133390890Y-78675500D01*
X133390892Y-78675500D01*
X133518186Y-78641392D01*
X133632314Y-78575500D01*
X133725500Y-78482314D01*
X133791392Y-78368186D01*
X133825500Y-78240892D01*
X133825500Y-78109108D01*
X133824707Y-78106148D01*
X133824768Y-78103555D01*
X133824439Y-78101052D01*
X133824829Y-78101000D01*
X133826368Y-78036300D01*
X133865530Y-77978437D01*
X133929758Y-77950931D01*
X133998660Y-77962516D01*
X134032162Y-77986373D01*
X134119088Y-78073299D01*
X134119092Y-78073302D01*
X134274762Y-78177318D01*
X134274771Y-78177323D01*
X134301178Y-78188261D01*
X134447749Y-78248973D01*
X134615367Y-78282314D01*
X134631379Y-78285499D01*
X134631383Y-78285500D01*
X134631384Y-78285500D01*
X134818617Y-78285500D01*
X134818618Y-78285499D01*
X135002251Y-78248973D01*
X135175231Y-78177322D01*
X135179531Y-78174449D01*
X135197275Y-78162593D01*
X135263952Y-78141713D01*
X135331332Y-78160196D01*
X135378024Y-78212174D01*
X135385943Y-78233599D01*
X135408608Y-78318186D01*
X135474500Y-78432314D01*
X135567686Y-78525500D01*
X135681814Y-78591392D01*
X135809108Y-78625500D01*
X135809110Y-78625500D01*
X135940890Y-78625500D01*
X135940892Y-78625500D01*
X136068186Y-78591392D01*
X136182314Y-78525500D01*
X136275500Y-78432314D01*
X136341392Y-78318186D01*
X136375500Y-78190892D01*
X136375500Y-78089073D01*
X136395185Y-78022034D01*
X136447989Y-77976279D01*
X136517147Y-77966335D01*
X136580703Y-77995360D01*
X136587181Y-78001392D01*
X136659088Y-78073299D01*
X136659092Y-78073302D01*
X136814762Y-78177318D01*
X136814771Y-78177323D01*
X136841178Y-78188261D01*
X136987749Y-78248973D01*
X137155367Y-78282314D01*
X137171379Y-78285499D01*
X137171383Y-78285500D01*
X137171384Y-78285500D01*
X137358617Y-78285500D01*
X137358618Y-78285499D01*
X137542251Y-78248973D01*
X137715231Y-78177322D01*
X137841939Y-78092658D01*
X137908614Y-78071781D01*
X137975994Y-78090265D01*
X138022685Y-78142244D01*
X138030602Y-78163665D01*
X138034261Y-78177322D01*
X138058608Y-78268187D01*
X138068604Y-78285500D01*
X138124500Y-78382314D01*
X138217686Y-78475500D01*
X138331814Y-78541392D01*
X138459108Y-78575500D01*
X138459110Y-78575500D01*
X138590890Y-78575500D01*
X138590892Y-78575500D01*
X138718186Y-78541392D01*
X138832314Y-78475500D01*
X138925500Y-78382314D01*
X138991392Y-78268186D01*
X139022435Y-78152330D01*
X139058797Y-78092674D01*
X139121644Y-78062144D01*
X139191020Y-78070438D01*
X139211099Y-78081325D01*
X139354762Y-78177318D01*
X139354771Y-78177323D01*
X139381178Y-78188261D01*
X139527749Y-78248973D01*
X139695367Y-78282314D01*
X139711379Y-78285499D01*
X139711383Y-78285500D01*
X139711384Y-78285500D01*
X139898617Y-78285500D01*
X139898618Y-78285499D01*
X140082251Y-78248973D01*
X140255231Y-78177322D01*
X140410908Y-78073302D01*
X140543302Y-77940908D01*
X140647322Y-77785231D01*
X140699564Y-77659108D01*
X140974500Y-77659108D01*
X140974500Y-77790892D01*
X140983773Y-77825500D01*
X141008608Y-77918187D01*
X141027513Y-77950931D01*
X141074500Y-78032314D01*
X141167686Y-78125500D01*
X141257437Y-78177318D01*
X141280944Y-78190890D01*
X141281814Y-78191392D01*
X141409108Y-78225500D01*
X141409110Y-78225500D01*
X141540890Y-78225500D01*
X141540892Y-78225500D01*
X141668186Y-78191392D01*
X141782314Y-78125500D01*
X141875500Y-78032314D01*
X141941392Y-77918186D01*
X141975500Y-77790892D01*
X141975500Y-77659108D01*
X141941392Y-77531814D01*
X141875500Y-77417686D01*
X141782314Y-77324500D01*
X141723606Y-77290605D01*
X141668187Y-77258608D01*
X141602065Y-77240891D01*
X141540892Y-77224500D01*
X141409108Y-77224500D01*
X141281812Y-77258608D01*
X141167686Y-77324500D01*
X141167683Y-77324502D01*
X141074502Y-77417683D01*
X141074500Y-77417686D01*
X141008608Y-77531812D01*
X140985728Y-77617204D01*
X140974500Y-77659108D01*
X140699564Y-77659108D01*
X140718973Y-77612251D01*
X140725251Y-77580692D01*
X140755499Y-77428620D01*
X140755500Y-77428617D01*
X140755500Y-76141383D01*
X140755499Y-76141379D01*
X140722145Y-75973691D01*
X140728372Y-75904099D01*
X140771236Y-75848922D01*
X140837125Y-75825678D01*
X140843762Y-75825500D01*
X141140890Y-75825500D01*
X141140892Y-75825500D01*
X141268186Y-75791392D01*
X141268192Y-75791388D01*
X141271355Y-75790079D01*
X141274244Y-75789768D01*
X141276037Y-75789288D01*
X141276111Y-75789567D01*
X141340824Y-75782610D01*
X141403304Y-75813885D01*
X141438956Y-75873974D01*
X141436463Y-75943799D01*
X141433373Y-75952084D01*
X141431028Y-75957746D01*
X141431025Y-75957756D01*
X141394500Y-76141379D01*
X141394500Y-76328620D01*
X141431025Y-76512243D01*
X141431027Y-76512251D01*
X141502676Y-76685228D01*
X141502681Y-76685237D01*
X141606697Y-76840907D01*
X141606700Y-76840911D01*
X141739088Y-76973299D01*
X141739092Y-76973302D01*
X141894762Y-77077318D01*
X141894768Y-77077321D01*
X141894769Y-77077322D01*
X142067749Y-77148973D01*
X142251379Y-77185499D01*
X142251383Y-77185500D01*
X142251384Y-77185500D01*
X143538617Y-77185500D01*
X143538618Y-77185499D01*
X143722251Y-77148973D01*
X143895231Y-77077322D01*
X144050908Y-76973302D01*
X144183302Y-76840908D01*
X144287322Y-76685231D01*
X144358973Y-76512251D01*
X144395500Y-76328616D01*
X144395500Y-76141384D01*
X144358973Y-75957749D01*
X144290065Y-75791391D01*
X144287323Y-75784771D01*
X144287318Y-75784762D01*
X144192088Y-75642240D01*
X144171210Y-75575562D01*
X144189695Y-75508182D01*
X144241674Y-75461492D01*
X144310644Y-75450316D01*
X144327262Y-75453569D01*
X144409108Y-75475500D01*
X144409111Y-75475500D01*
X144540890Y-75475500D01*
X144540892Y-75475500D01*
X144668186Y-75441392D01*
X144782314Y-75375500D01*
X144875500Y-75282314D01*
X144941392Y-75168186D01*
X144975500Y-75040892D01*
X144975500Y-74909108D01*
X144941392Y-74781814D01*
X144875500Y-74667686D01*
X144782314Y-74574500D01*
X144676263Y-74513271D01*
X144668187Y-74508608D01*
X144594791Y-74488942D01*
X144540892Y-74474500D01*
X144409108Y-74474500D01*
X144409106Y-74474500D01*
X144309802Y-74501108D01*
X144239953Y-74499445D01*
X144182090Y-74460282D01*
X144154587Y-74396053D01*
X144166174Y-74327151D01*
X144181864Y-74302659D01*
X144183292Y-74300917D01*
X144183302Y-74300908D01*
X144287322Y-74145231D01*
X144358973Y-73972251D01*
X144395500Y-73788616D01*
X144395500Y-73601384D01*
X144358973Y-73417749D01*
X144287322Y-73244769D01*
X144287321Y-73244768D01*
X144287318Y-73244762D01*
X144183302Y-73089092D01*
X144183299Y-73089088D01*
X144155098Y-73060887D01*
X144121613Y-72999564D01*
X144126597Y-72929872D01*
X144168469Y-72873939D01*
X144180770Y-72865825D01*
X144207314Y-72850500D01*
X144300500Y-72757314D01*
X144366392Y-72643186D01*
X144400500Y-72515892D01*
X144400500Y-72384108D01*
X144366392Y-72256814D01*
X144300500Y-72142686D01*
X144207314Y-72049500D01*
X144207311Y-72049498D01*
X144207307Y-72049495D01*
X144149080Y-72015877D01*
X144100865Y-71965310D01*
X144087643Y-71896702D01*
X144113611Y-71831838D01*
X144123392Y-71820817D01*
X144183302Y-71760908D01*
X144287322Y-71605231D01*
X144358973Y-71432251D01*
X144395500Y-71248616D01*
X144395500Y-71061384D01*
X144358973Y-70877749D01*
X144287322Y-70704769D01*
X144287321Y-70704768D01*
X144287318Y-70704762D01*
X144183302Y-70549092D01*
X144183299Y-70549088D01*
X144050911Y-70416700D01*
X144050907Y-70416697D01*
X143895237Y-70312681D01*
X143895228Y-70312676D01*
X143722251Y-70241027D01*
X143722243Y-70241025D01*
X143538620Y-70204500D01*
X143538616Y-70204500D01*
X142251384Y-70204500D01*
X142251379Y-70204500D01*
X142067756Y-70241025D01*
X142067748Y-70241027D01*
X141894771Y-70312676D01*
X141894757Y-70312684D01*
X141768390Y-70397120D01*
X141701713Y-70417998D01*
X141634333Y-70399513D01*
X141587643Y-70347534D01*
X141575500Y-70294018D01*
X141575500Y-69859108D01*
X144124500Y-69859108D01*
X144124500Y-69990892D01*
X144133505Y-70024500D01*
X144158608Y-70118187D01*
X144169272Y-70136657D01*
X144224500Y-70232314D01*
X144317686Y-70325500D01*
X144431814Y-70391392D01*
X144559108Y-70425500D01*
X144559110Y-70425500D01*
X144690890Y-70425500D01*
X144690892Y-70425500D01*
X144818186Y-70391392D01*
X144932314Y-70325500D01*
X145025500Y-70232314D01*
X145091392Y-70118186D01*
X145125500Y-69990892D01*
X145125500Y-69859108D01*
X145091392Y-69731814D01*
X145025500Y-69617686D01*
X144932314Y-69524500D01*
X144848277Y-69475981D01*
X144818187Y-69458608D01*
X144754539Y-69441554D01*
X144690892Y-69424500D01*
X144559108Y-69424500D01*
X144431812Y-69458608D01*
X144317686Y-69524500D01*
X144317683Y-69524502D01*
X144224502Y-69617683D01*
X144224500Y-69617686D01*
X144158608Y-69731812D01*
X144124500Y-69859108D01*
X141575500Y-69859108D01*
X141575500Y-69475981D01*
X141595185Y-69408942D01*
X141647989Y-69363187D01*
X141717147Y-69353243D01*
X141768391Y-69372879D01*
X141894762Y-69457318D01*
X141894771Y-69457323D01*
X141898740Y-69458967D01*
X142067749Y-69528973D01*
X142251379Y-69565499D01*
X142251383Y-69565500D01*
X142251384Y-69565500D01*
X143538617Y-69565500D01*
X143538618Y-69565499D01*
X143722251Y-69528973D01*
X143895231Y-69457322D01*
X144050908Y-69353302D01*
X144183302Y-69220908D01*
X144287322Y-69065231D01*
X144358973Y-68892251D01*
X144395500Y-68708616D01*
X144395500Y-68521384D01*
X144358973Y-68337749D01*
X144287322Y-68164769D01*
X144287321Y-68164768D01*
X144287318Y-68164762D01*
X144183302Y-68009092D01*
X144183299Y-68009088D01*
X144050911Y-67876700D01*
X144050907Y-67876697D01*
X143895237Y-67772681D01*
X143895228Y-67772676D01*
X143722251Y-67701027D01*
X143722243Y-67701025D01*
X143538620Y-67664500D01*
X143538616Y-67664500D01*
X142251384Y-67664500D01*
X142251379Y-67664500D01*
X142067756Y-67701025D01*
X142067748Y-67701027D01*
X141894771Y-67772676D01*
X141894757Y-67772684D01*
X141768390Y-67857120D01*
X141701713Y-67877998D01*
X141634333Y-67859513D01*
X141587643Y-67807534D01*
X141575500Y-67754018D01*
X141575500Y-66935981D01*
X141595185Y-66868942D01*
X141647989Y-66823187D01*
X141717147Y-66813243D01*
X141768391Y-66832879D01*
X141894762Y-66917318D01*
X141894768Y-66917321D01*
X141894769Y-66917322D01*
X142067749Y-66988973D01*
X142251379Y-67025499D01*
X142251383Y-67025500D01*
X142251384Y-67025500D01*
X143538617Y-67025500D01*
X143538618Y-67025499D01*
X143722251Y-66988973D01*
X143895231Y-66917322D01*
X144036460Y-66822955D01*
X144103136Y-66802078D01*
X144170516Y-66820562D01*
X144217207Y-66872541D01*
X144228383Y-66941511D01*
X144212737Y-66988058D01*
X144158609Y-67081810D01*
X144158609Y-67081811D01*
X144124500Y-67209108D01*
X144124500Y-67340891D01*
X144158608Y-67468187D01*
X144191554Y-67525250D01*
X144224500Y-67582314D01*
X144317686Y-67675500D01*
X144431814Y-67741392D01*
X144559108Y-67775500D01*
X144559110Y-67775500D01*
X144690890Y-67775500D01*
X144690892Y-67775500D01*
X144818186Y-67741392D01*
X144932314Y-67675500D01*
X145025500Y-67582314D01*
X145091392Y-67468186D01*
X145125500Y-67340892D01*
X145125500Y-67209108D01*
X145091392Y-67081814D01*
X145025500Y-66967686D01*
X144932314Y-66874500D01*
X144875250Y-66841554D01*
X144818187Y-66808608D01*
X144754539Y-66791554D01*
X144690892Y-66774500D01*
X144559108Y-66774500D01*
X144431812Y-66808608D01*
X144348861Y-66856500D01*
X144280961Y-66872972D01*
X144214934Y-66850119D01*
X144171744Y-66795197D01*
X144165103Y-66725644D01*
X144183758Y-66680225D01*
X144287322Y-66525231D01*
X144358973Y-66352251D01*
X144395500Y-66168616D01*
X144395500Y-65981384D01*
X144358973Y-65797749D01*
X144287322Y-65624769D01*
X144287321Y-65624768D01*
X144287318Y-65624762D01*
X144183302Y-65469092D01*
X144183299Y-65469088D01*
X144050911Y-65336700D01*
X144050907Y-65336697D01*
X143895237Y-65232681D01*
X143895228Y-65232676D01*
X143722251Y-65161027D01*
X143722243Y-65161025D01*
X143538620Y-65124500D01*
X143538616Y-65124500D01*
X142251384Y-65124500D01*
X142251379Y-65124500D01*
X142067756Y-65161025D01*
X142067748Y-65161027D01*
X141894771Y-65232676D01*
X141894757Y-65232684D01*
X141768390Y-65317120D01*
X141701713Y-65337998D01*
X141634333Y-65319513D01*
X141587643Y-65267534D01*
X141575500Y-65214018D01*
X141575500Y-64395981D01*
X141595185Y-64328942D01*
X141647989Y-64283187D01*
X141717147Y-64273243D01*
X141768391Y-64292879D01*
X141894762Y-64377318D01*
X141894768Y-64377321D01*
X141894769Y-64377322D01*
X142067749Y-64448973D01*
X142251379Y-64485499D01*
X142251383Y-64485500D01*
X142251384Y-64485500D01*
X143538617Y-64485500D01*
X143538618Y-64485499D01*
X143722251Y-64448973D01*
X143895231Y-64377322D01*
X144050908Y-64273302D01*
X144183302Y-64140908D01*
X144287322Y-63985231D01*
X144358973Y-63812251D01*
X144395500Y-63628616D01*
X144395500Y-63441384D01*
X144358973Y-63257749D01*
X144287322Y-63084769D01*
X144287321Y-63084768D01*
X144287318Y-63084762D01*
X144183302Y-62929092D01*
X144183299Y-62929088D01*
X144050911Y-62796700D01*
X144050907Y-62796697D01*
X143895237Y-62692681D01*
X143895228Y-62692676D01*
X143722251Y-62621027D01*
X143722243Y-62621025D01*
X143538620Y-62584500D01*
X143538616Y-62584500D01*
X142251384Y-62584500D01*
X142251379Y-62584500D01*
X142067756Y-62621025D01*
X142067748Y-62621027D01*
X141894771Y-62692676D01*
X141894757Y-62692684D01*
X141768390Y-62777120D01*
X141701713Y-62797998D01*
X141634333Y-62779513D01*
X141587643Y-62727534D01*
X141575500Y-62674018D01*
X141575500Y-61855981D01*
X141595185Y-61788942D01*
X141647989Y-61743187D01*
X141717147Y-61733243D01*
X141768391Y-61752879D01*
X141894762Y-61837318D01*
X141894768Y-61837321D01*
X141894769Y-61837322D01*
X142067749Y-61908973D01*
X142192901Y-61933867D01*
X142251379Y-61945499D01*
X142251383Y-61945500D01*
X142251384Y-61945500D01*
X143538617Y-61945500D01*
X143538618Y-61945499D01*
X143722251Y-61908973D01*
X143895231Y-61837322D01*
X144050908Y-61733302D01*
X144183302Y-61600908D01*
X144287322Y-61445231D01*
X144358973Y-61272251D01*
X144395500Y-61088616D01*
X144395500Y-60901384D01*
X144358973Y-60717749D01*
X144287322Y-60544769D01*
X144287321Y-60544768D01*
X144287318Y-60544762D01*
X144183302Y-60389092D01*
X144183299Y-60389088D01*
X144160130Y-60365919D01*
X144160042Y-60365832D01*
X144050908Y-60256698D01*
X144047011Y-60254094D01*
X144047010Y-60254093D01*
X143895237Y-60152681D01*
X143895228Y-60152676D01*
X143722251Y-60081027D01*
X143722243Y-60081025D01*
X143538620Y-60044500D01*
X143538616Y-60044500D01*
X142251384Y-60044500D01*
X142251379Y-60044500D01*
X142067756Y-60081025D01*
X142067748Y-60081027D01*
X141894771Y-60152676D01*
X141894757Y-60152684D01*
X141768390Y-60237120D01*
X141701713Y-60257998D01*
X141634333Y-60239513D01*
X141587643Y-60187534D01*
X141575500Y-60134018D01*
X141575500Y-59709108D01*
X144124500Y-59709108D01*
X144124500Y-59840892D01*
X144141554Y-59904539D01*
X144158608Y-59968187D01*
X144202668Y-60044500D01*
X144224500Y-60082314D01*
X144317686Y-60175500D01*
X144431814Y-60241392D01*
X144559108Y-60275500D01*
X144559110Y-60275500D01*
X144690890Y-60275500D01*
X144690892Y-60275500D01*
X144818186Y-60241392D01*
X144932314Y-60175500D01*
X145025500Y-60082314D01*
X145091392Y-59968186D01*
X145125500Y-59840892D01*
X145125500Y-59709108D01*
X145091392Y-59581814D01*
X145025500Y-59467686D01*
X144932314Y-59374500D01*
X144847444Y-59325500D01*
X144818187Y-59308608D01*
X144753934Y-59291392D01*
X144690892Y-59274500D01*
X144559108Y-59274500D01*
X144431812Y-59308608D01*
X144317686Y-59374500D01*
X144317683Y-59374502D01*
X144224502Y-59467683D01*
X144224500Y-59467686D01*
X144158608Y-59581812D01*
X144147170Y-59624500D01*
X144124500Y-59709108D01*
X141575500Y-59709108D01*
X141575500Y-59315981D01*
X141595185Y-59248942D01*
X141647989Y-59203187D01*
X141717147Y-59193243D01*
X141768391Y-59212879D01*
X141894762Y-59297318D01*
X141894768Y-59297321D01*
X141894769Y-59297322D01*
X142067749Y-59368973D01*
X142192901Y-59393867D01*
X142251379Y-59405499D01*
X142251383Y-59405500D01*
X142251384Y-59405500D01*
X143538617Y-59405500D01*
X143538618Y-59405499D01*
X143722251Y-59368973D01*
X143895231Y-59297322D01*
X144050908Y-59193302D01*
X144183302Y-59060908D01*
X144287322Y-58905231D01*
X144358973Y-58732251D01*
X144395500Y-58548616D01*
X144395500Y-58361384D01*
X144358973Y-58177749D01*
X144287322Y-58004769D01*
X144287321Y-58004768D01*
X144287318Y-58004762D01*
X144183302Y-57849092D01*
X144183299Y-57849088D01*
X144050911Y-57716700D01*
X144050907Y-57716697D01*
X143895237Y-57612681D01*
X143895228Y-57612676D01*
X143722251Y-57541027D01*
X143722243Y-57541025D01*
X143538620Y-57504500D01*
X143538616Y-57504500D01*
X142251384Y-57504500D01*
X142251379Y-57504500D01*
X142067756Y-57541025D01*
X142067748Y-57541027D01*
X141894771Y-57612676D01*
X141894757Y-57612684D01*
X141768390Y-57697120D01*
X141701713Y-57717998D01*
X141634333Y-57699513D01*
X141587643Y-57647534D01*
X141575500Y-57594018D01*
X141575500Y-56775981D01*
X141595185Y-56708942D01*
X141647989Y-56663187D01*
X141717147Y-56653243D01*
X141768391Y-56672879D01*
X141894762Y-56757318D01*
X141894768Y-56757321D01*
X141894769Y-56757322D01*
X142067749Y-56828973D01*
X142219249Y-56859108D01*
X142251379Y-56865499D01*
X142251383Y-56865500D01*
X142251384Y-56865500D01*
X143538617Y-56865500D01*
X143538618Y-56865499D01*
X143722251Y-56828973D01*
X143895231Y-56757322D01*
X144050908Y-56653302D01*
X144183302Y-56520908D01*
X144287322Y-56365231D01*
X144358973Y-56192251D01*
X144395500Y-56008616D01*
X144395500Y-55821384D01*
X144358973Y-55637749D01*
X144303554Y-55503956D01*
X144287323Y-55464771D01*
X144287318Y-55464762D01*
X144183302Y-55309092D01*
X144183299Y-55309088D01*
X144050911Y-55176700D01*
X144050907Y-55176697D01*
X143901853Y-55077102D01*
X143857048Y-55023490D01*
X143848341Y-54954165D01*
X143878495Y-54891137D01*
X143937939Y-54854418D01*
X143970744Y-54850000D01*
X152826000Y-54850000D01*
X152893039Y-54869685D01*
X152938794Y-54922489D01*
X152950000Y-54974000D01*
X152950000Y-57098638D01*
X152941355Y-57128078D01*
X152934832Y-57158065D01*
X152931077Y-57163080D01*
X152930315Y-57165677D01*
X152913681Y-57186319D01*
X152836319Y-57263681D01*
X152774996Y-57297166D01*
X152748638Y-57300000D01*
X146149999Y-57300000D01*
X146000000Y-57449999D01*
X146000000Y-72080533D01*
X145980315Y-72147572D01*
X145927511Y-72193327D01*
X145858353Y-72203271D01*
X145843918Y-72200310D01*
X145840892Y-72199500D01*
X145709108Y-72199500D01*
X145581812Y-72233608D01*
X145467686Y-72299500D01*
X145467683Y-72299502D01*
X145374502Y-72392683D01*
X145374500Y-72392686D01*
X145308608Y-72506812D01*
X145299477Y-72540891D01*
X145274500Y-72634108D01*
X145274500Y-72765892D01*
X145278900Y-72782313D01*
X145308608Y-72893187D01*
X145333335Y-72936014D01*
X145374500Y-73007314D01*
X145467686Y-73100500D01*
X145581814Y-73166392D01*
X145709108Y-73200500D01*
X145709110Y-73200500D01*
X145840888Y-73200500D01*
X145840892Y-73200500D01*
X145843903Y-73199693D01*
X145846542Y-73199755D01*
X145848948Y-73199439D01*
X145848997Y-73199814D01*
X145913749Y-73201352D01*
X145971614Y-73240510D01*
X145999122Y-73304737D01*
X146000000Y-73319466D01*
X146000000Y-76398638D01*
X145980315Y-76465677D01*
X145963681Y-76486319D01*
X143386319Y-79063681D01*
X143324996Y-79097166D01*
X143298638Y-79100000D01*
X126051362Y-79100000D01*
X126021921Y-79091355D01*
X125991935Y-79084832D01*
X125986919Y-79081077D01*
X125984323Y-79080315D01*
X125963681Y-79063681D01*
X125845843Y-78945843D01*
X125813750Y-78890257D01*
X125791392Y-78806814D01*
X125725500Y-78692686D01*
X125632314Y-78599500D01*
X125518186Y-78533608D01*
X125458764Y-78517686D01*
X125434741Y-78511249D01*
X125379155Y-78479155D01*
X124190605Y-77290605D01*
X124170812Y-77264774D01*
X124166532Y-77257337D01*
X124166392Y-77256814D01*
X124116525Y-77170443D01*
X124116103Y-77168690D01*
X124100000Y-77108594D01*
X124100000Y-76041405D01*
X124116612Y-75979406D01*
X124166392Y-75893186D01*
X124200500Y-75765892D01*
X124200500Y-75634108D01*
X124166392Y-75506814D01*
X124162169Y-75499500D01*
X124116613Y-75420594D01*
X124100000Y-75358594D01*
X124100000Y-74154802D01*
X124114377Y-74101146D01*
X124113282Y-74100693D01*
X124116388Y-74093192D01*
X124116392Y-74093186D01*
X124150500Y-73965892D01*
X124150500Y-73834108D01*
X124116392Y-73706814D01*
X124116388Y-73706807D01*
X124113281Y-73699304D01*
X124114375Y-73698850D01*
X124100000Y-73645196D01*
X124100000Y-70950000D01*
X124095226Y-70938475D01*
X124087757Y-70869006D01*
X124102397Y-70829026D01*
X124166392Y-70718186D01*
X124200500Y-70590892D01*
X124200500Y-70459108D01*
X124166392Y-70331814D01*
X124100500Y-70217686D01*
X124007314Y-70124500D01*
X123930784Y-70080315D01*
X123893187Y-70058608D01*
X123829539Y-70041554D01*
X123765892Y-70024500D01*
X123634108Y-70024500D01*
X123506814Y-70058608D01*
X123506813Y-70058608D01*
X123506811Y-70058609D01*
X123506810Y-70058609D01*
X123400159Y-70120184D01*
X123332258Y-70136657D01*
X123266231Y-70113804D01*
X123250478Y-70100478D01*
X123250000Y-70100000D01*
X123009177Y-70100000D01*
X122942138Y-70080315D01*
X122921496Y-70063682D01*
X122906221Y-70048407D01*
X122857314Y-69999500D01*
X122800250Y-69966554D01*
X122743187Y-69933608D01*
X122679539Y-69916554D01*
X122615892Y-69899500D01*
X122484108Y-69899500D01*
X122356812Y-69933608D01*
X122242686Y-69999500D01*
X122178504Y-70063682D01*
X122117180Y-70097166D01*
X122090823Y-70100000D01*
X121701362Y-70100000D01*
X121634323Y-70080315D01*
X121613681Y-70063681D01*
X120284108Y-68734108D01*
X122949500Y-68734108D01*
X122949500Y-68865891D01*
X122983608Y-68993187D01*
X123016554Y-69050250D01*
X123049500Y-69107314D01*
X123142686Y-69200500D01*
X123256814Y-69266392D01*
X123384108Y-69300500D01*
X123384110Y-69300500D01*
X123515890Y-69300500D01*
X123515892Y-69300500D01*
X123643186Y-69266392D01*
X123757314Y-69200500D01*
X123850500Y-69107314D01*
X123916392Y-68993186D01*
X123950500Y-68865892D01*
X123950500Y-68734108D01*
X123916392Y-68606814D01*
X123850500Y-68492686D01*
X123757314Y-68399500D01*
X123650371Y-68337756D01*
X123643187Y-68333608D01*
X123579539Y-68316554D01*
X123515892Y-68299500D01*
X123384108Y-68299500D01*
X123256812Y-68333608D01*
X123142686Y-68399500D01*
X123142683Y-68399502D01*
X123049502Y-68492683D01*
X123049500Y-68492686D01*
X122983608Y-68606812D01*
X122949500Y-68734108D01*
X120284108Y-68734108D01*
X119486319Y-67936319D01*
X119452834Y-67874996D01*
X119450000Y-67848638D01*
X119450000Y-65934108D01*
X122899500Y-65934108D01*
X122899500Y-66065891D01*
X122933608Y-66193187D01*
X122966554Y-66250250D01*
X122999500Y-66307314D01*
X123092686Y-66400500D01*
X123206814Y-66466392D01*
X123334108Y-66500500D01*
X123334110Y-66500500D01*
X123465890Y-66500500D01*
X123465892Y-66500500D01*
X123593186Y-66466392D01*
X123707314Y-66400500D01*
X123800500Y-66307314D01*
X123866392Y-66193186D01*
X123900500Y-66065892D01*
X123900500Y-65934108D01*
X123866392Y-65806814D01*
X123800500Y-65692686D01*
X123707314Y-65599500D01*
X123636487Y-65558608D01*
X123593187Y-65533608D01*
X123526662Y-65515783D01*
X123465892Y-65499500D01*
X123334108Y-65499500D01*
X123206812Y-65533608D01*
X123092686Y-65599500D01*
X123092683Y-65599502D01*
X122999502Y-65692683D01*
X122999500Y-65692686D01*
X122933608Y-65806812D01*
X122899500Y-65934108D01*
X119450000Y-65934108D01*
X119450000Y-63334108D01*
X122899500Y-63334108D01*
X122899500Y-63465891D01*
X122933608Y-63593187D01*
X122954064Y-63628617D01*
X122999500Y-63707314D01*
X123092686Y-63800500D01*
X123206814Y-63866392D01*
X123334108Y-63900500D01*
X123334110Y-63900500D01*
X123465890Y-63900500D01*
X123465892Y-63900500D01*
X123593186Y-63866392D01*
X123707314Y-63800500D01*
X123800500Y-63707314D01*
X123866392Y-63593186D01*
X123900500Y-63465892D01*
X123900500Y-63334108D01*
X123866392Y-63206814D01*
X123800500Y-63092686D01*
X123707314Y-62999500D01*
X123611288Y-62944059D01*
X123593187Y-62933608D01*
X123529539Y-62916554D01*
X123465892Y-62899500D01*
X123334108Y-62899500D01*
X123206812Y-62933608D01*
X123092686Y-62999500D01*
X123092683Y-62999502D01*
X122999502Y-63092683D01*
X122999500Y-63092686D01*
X122933608Y-63206812D01*
X122899500Y-63334108D01*
X119450000Y-63334108D01*
X119450000Y-61084108D01*
X122899500Y-61084108D01*
X122899500Y-61215892D01*
X122914599Y-61272243D01*
X122933608Y-61343187D01*
X122966554Y-61400250D01*
X122999500Y-61457314D01*
X123092686Y-61550500D01*
X123206814Y-61616392D01*
X123334108Y-61650500D01*
X123334110Y-61650500D01*
X123465890Y-61650500D01*
X123465892Y-61650500D01*
X123593186Y-61616392D01*
X123707314Y-61550500D01*
X123800500Y-61457314D01*
X123866392Y-61343186D01*
X123900500Y-61215892D01*
X123900500Y-61084108D01*
X123866392Y-60956814D01*
X123800500Y-60842686D01*
X123707314Y-60749500D01*
X123608910Y-60692686D01*
X123593187Y-60683608D01*
X123525027Y-60665345D01*
X123465892Y-60649500D01*
X123334108Y-60649500D01*
X123206812Y-60683608D01*
X123092686Y-60749500D01*
X123092683Y-60749502D01*
X122999502Y-60842683D01*
X122999500Y-60842686D01*
X122933608Y-60956812D01*
X122904381Y-61065892D01*
X122899500Y-61084108D01*
X119450000Y-61084108D01*
X119450000Y-58334108D01*
X122899500Y-58334108D01*
X122899500Y-58465891D01*
X122933608Y-58593187D01*
X122955910Y-58631814D01*
X122999500Y-58707314D01*
X123092686Y-58800500D01*
X123206814Y-58866392D01*
X123334108Y-58900500D01*
X123334110Y-58900500D01*
X123465890Y-58900500D01*
X123465892Y-58900500D01*
X123593186Y-58866392D01*
X123707314Y-58800500D01*
X123800500Y-58707314D01*
X123866392Y-58593186D01*
X123900500Y-58465892D01*
X123900500Y-58334108D01*
X123866392Y-58206814D01*
X123800500Y-58092686D01*
X123707314Y-57999500D01*
X123650250Y-57966554D01*
X123593187Y-57933608D01*
X123529539Y-57916554D01*
X123465892Y-57899500D01*
X123334108Y-57899500D01*
X123206812Y-57933608D01*
X123092686Y-57999500D01*
X123092683Y-57999502D01*
X122999502Y-58092683D01*
X122999500Y-58092686D01*
X122933608Y-58206812D01*
X122899500Y-58334108D01*
X119450000Y-58334108D01*
X119450000Y-54974000D01*
X119469685Y-54906961D01*
X119522489Y-54861206D01*
X119574000Y-54850000D01*
X127750500Y-54850000D01*
X127817539Y-54869685D01*
G37*
%TD.AperFunction*%
%TD*%
%TA.AperFunction,Conductor*%
%TO.N,3V3*%
G36*
X135950091Y-94112386D02*
G01*
X136067093Y-94229388D01*
X136070520Y-94237661D01*
X136069491Y-94242458D01*
X135843498Y-94745172D01*
X135836981Y-94751313D01*
X135828030Y-94751046D01*
X135826359Y-94750124D01*
X135589670Y-94593090D01*
X135586389Y-94589809D01*
X135429355Y-94353120D01*
X135427636Y-94344332D01*
X135432636Y-94336903D01*
X135434298Y-94335985D01*
X135937023Y-94109987D01*
X135945972Y-94109721D01*
X135950091Y-94112386D01*
G37*
%TD.AperFunction*%
%TD*%
M02*
