%TF.GenerationSoftware,KiCad,Pcbnew,9.0.7*%
%TF.CreationDate,2026-04-04T22:02:40+09:00*%
%TF.ProjectId,MAPS-010143,4d415053-2d30-4313-9031-34332e6b6963,rev?*%
%TF.SameCoordinates,Original*%
%TF.FileFunction,Soldermask,Top*%
%TF.FilePolarity,Negative*%
%FSLAX46Y46*%
G04 Gerber Fmt 4.6, Leading zero omitted, Abs format (unit mm)*
G04 Created by KiCad (PCBNEW 9.0.7) date 2026-04-04 22:02:40*
%MOMM*%
%LPD*%
G01*
G04 APERTURE LIST*
G04 Aperture macros list*
%AMRoundRect*
0 Rectangle with rounded corners*
0 $1 Rounding radius*
0 $2 $3 $4 $5 $6 $7 $8 $9 X,Y pos of 4 corners*
0 Add a 4 corners polygon primitive as box body*
4,1,4,$2,$3,$4,$5,$6,$7,$8,$9,$2,$3,0*
0 Add four circle primitives for the rounded corners*
1,1,$1+$1,$2,$3*
1,1,$1+$1,$4,$5*
1,1,$1+$1,$6,$7*
1,1,$1+$1,$8,$9*
0 Add four rect primitives between the rounded corners*
20,1,$1+$1,$2,$3,$4,$5,0*
20,1,$1+$1,$4,$5,$6,$7,0*
20,1,$1+$1,$6,$7,$8,$9,0*
20,1,$1+$1,$8,$9,$2,$3,0*%
%AMOutline5P*
0 Free polygon, 5 corners , with rotation*
0 The origin of the aperture is its center*
0 number of corners: always 5*
0 $1 to $10 corner X, Y*
0 $11 Rotation angle, in degrees counterclockwise*
0 create outline with 5 corners*
4,1,5,$1,$2,$3,$4,$5,$6,$7,$8,$9,$10,$1,$2,$11*%
%AMOutline6P*
0 Free polygon, 6 corners , with rotation*
0 The origin of the aperture is its center*
0 number of corners: always 6*
0 $1 to $12 corner X, Y*
0 $13 Rotation angle, in degrees counterclockwise*
0 create outline with 6 corners*
4,1,6,$1,$2,$3,$4,$5,$6,$7,$8,$9,$10,$11,$12,$1,$2,$13*%
%AMOutline7P*
0 Free polygon, 7 corners , with rotation*
0 The origin of the aperture is its center*
0 number of corners: always 7*
0 $1 to $14 corner X, Y*
0 $15 Rotation angle, in degrees counterclockwise*
0 create outline with 7 corners*
4,1,7,$1,$2,$3,$4,$5,$6,$7,$8,$9,$10,$11,$12,$13,$14,$1,$2,$15*%
%AMOutline8P*
0 Free polygon, 8 corners , with rotation*
0 The origin of the aperture is its center*
0 number of corners: always 8*
0 $1 to $16 corner X, Y*
0 $17 Rotation angle, in degrees counterclockwise*
0 create outline with 8 corners*
4,1,8,$1,$2,$3,$4,$5,$6,$7,$8,$9,$10,$11,$12,$13,$14,$15,$16,$1,$2,$17*%
%AMFreePoly0*
4,1,23,0.500000,-0.750000,0.000000,-0.750000,0.000000,-0.745722,-0.065263,-0.745722,-0.191342,-0.711940,-0.304381,-0.646677,-0.396677,-0.554381,-0.461940,-0.441342,-0.495722,-0.315263,-0.495722,-0.250000,-0.500000,-0.250000,-0.500000,0.250000,-0.495722,0.250000,-0.495722,0.315263,-0.461940,0.441342,-0.396677,0.554381,-0.304381,0.646677,-0.191342,0.711940,-0.065263,0.745722,0.000000,0.745722,
0.000000,0.750000,0.500000,0.750000,0.500000,-0.750000,0.500000,-0.750000,$1*%
%AMFreePoly1*
4,1,23,0.000000,0.745722,0.065263,0.745722,0.191342,0.711940,0.304381,0.646677,0.396677,0.554381,0.461940,0.441342,0.495722,0.315263,0.495722,0.250000,0.500000,0.250000,0.500000,-0.250000,0.495722,-0.250000,0.495722,-0.315263,0.461940,-0.441342,0.396677,-0.554381,0.304381,-0.646677,0.191342,-0.711940,0.065263,-0.745722,0.000000,-0.745722,0.000000,-0.750000,-0.500000,-0.750000,
-0.500000,0.750000,0.000000,0.750000,0.000000,0.745722,0.000000,0.745722,$1*%
G04 Aperture macros list end*
%ADD10RoundRect,0.155000X-0.212500X-0.155000X0.212500X-0.155000X0.212500X0.155000X-0.212500X0.155000X0*%
%ADD11RoundRect,0.155000X0.212500X0.155000X-0.212500X0.155000X-0.212500X-0.155000X0.212500X-0.155000X0*%
%ADD12RoundRect,0.237500X0.250000X0.237500X-0.250000X0.237500X-0.250000X-0.237500X0.250000X-0.237500X0*%
%ADD13RoundRect,0.250000X-1.350000X0.385000X-1.350000X-0.385000X1.350000X-0.385000X1.350000X0.385000X0*%
%ADD14RoundRect,0.250000X-1.600000X0.425000X-1.600000X-0.425000X1.600000X-0.425000X1.600000X0.425000X0*%
%ADD15RoundRect,0.237500X0.237500X-0.250000X0.237500X0.250000X-0.237500X0.250000X-0.237500X-0.250000X0*%
%ADD16R,1.000000X1.000000*%
%ADD17R,1.700000X1.700000*%
%ADD18C,1.700000*%
%ADD19RoundRect,0.237500X-0.237500X0.287500X-0.237500X-0.287500X0.237500X-0.287500X0.237500X0.287500X0*%
%ADD20RoundRect,0.250000X0.337500X0.475000X-0.337500X0.475000X-0.337500X-0.475000X0.337500X-0.475000X0*%
%ADD21RoundRect,0.237500X-0.250000X-0.237500X0.250000X-0.237500X0.250000X0.237500X-0.250000X0.237500X0*%
%ADD22RoundRect,0.237500X-0.237500X0.250000X-0.237500X-0.250000X0.237500X-0.250000X0.237500X0.250000X0*%
%ADD23RoundRect,0.250000X1.350000X-0.385000X1.350000X0.385000X-1.350000X0.385000X-1.350000X-0.385000X0*%
%ADD24RoundRect,0.250000X1.600000X-0.425000X1.600000X0.425000X-1.600000X0.425000X-1.600000X-0.425000X0*%
%ADD25RoundRect,0.250000X-0.337500X-0.475000X0.337500X-0.475000X0.337500X0.475000X-0.337500X0.475000X0*%
%ADD26FreePoly0,180.000000*%
%ADD27FreePoly1,180.000000*%
%ADD28R,0.250000X0.250000*%
%ADD29R,1.200000X1.100000*%
%ADD30R,1.000000X0.300000*%
%ADD31R,0.300000X1.000000*%
%ADD32R,2.000000X2.000000*%
%ADD33R,0.850000X0.300000*%
%ADD34R,0.300000X0.850000*%
%ADD35R,2.550000X2.550000*%
%ADD36O,2.600000X1.500000*%
%ADD37O,1.500000X2.600000*%
%ADD38Outline8P,-1.300000X0.450000X-1.000000X0.750000X1.000000X0.750000X1.300000X0.450000X1.300000X-0.450000X1.000000X-0.750000X-1.000000X-0.750000X-1.300000X-0.450000X0.000000*%
%ADD39R,2.600000X1.500000*%
%ADD40FreePoly0,90.000000*%
%ADD41FreePoly1,90.000000*%
G04 APERTURE END LIST*
%TO.C,JP11*%
G36*
X150925000Y-118825000D02*
G01*
X150625000Y-118825000D01*
X150625000Y-117325000D01*
X150925000Y-117325000D01*
X150925000Y-118825000D01*
G37*
%TO.C,JP10*%
G36*
X154075000Y-89200000D02*
G01*
X155575000Y-89200000D01*
X155575000Y-88900000D01*
X154075000Y-88900000D01*
X154075000Y-89200000D01*
G37*
%TD*%
D10*
%TO.C,C8*%
X148425000Y-114700000D03*
X149560000Y-114700000D03*
%TD*%
D11*
%TO.C,C14*%
X127125000Y-94125000D03*
X125990000Y-94125000D03*
%TD*%
D12*
%TO.C,R21*%
X147075000Y-66100000D03*
X145250000Y-66100000D03*
%TD*%
D13*
%TO.C,J7*%
X113725000Y-126075000D03*
D14*
X113975000Y-128900000D03*
X113975000Y-123250000D03*
%TD*%
D11*
%TO.C,C30*%
X143567500Y-108925000D03*
X142432500Y-108925000D03*
%TD*%
D15*
%TO.C,R6*%
X146460000Y-107942000D03*
X146460000Y-106117000D03*
%TD*%
D16*
%TO.C,TP6*%
X144050000Y-104450000D03*
%TD*%
D10*
%TO.C,C28*%
X134990000Y-108925000D03*
X136125000Y-108925000D03*
%TD*%
D17*
%TO.C,J13*%
X152675000Y-121400000D03*
D18*
X150135000Y-121400000D03*
%TD*%
D19*
%TO.C,L4*%
X129400000Y-108125000D03*
X129400000Y-109875000D03*
%TD*%
%TO.C,L2*%
X129450000Y-93325000D03*
X129450000Y-95075000D03*
%TD*%
D17*
%TO.C,J15*%
X151875000Y-56255000D03*
D18*
X151875000Y-58795000D03*
X151875000Y-61335000D03*
X151875000Y-63875000D03*
%TD*%
D10*
%TO.C,C4*%
X131307500Y-96050000D03*
X132442500Y-96050000D03*
%TD*%
D12*
%TO.C,R8*%
X147075000Y-68625000D03*
X145250000Y-68625000D03*
%TD*%
D20*
%TO.C,C26*%
X144825000Y-92300000D03*
X142750000Y-92300000D03*
%TD*%
D11*
%TO.C,C13*%
X127167500Y-109225000D03*
X126032500Y-109225000D03*
%TD*%
D21*
%TO.C,R3*%
X126112500Y-92900000D03*
X127937500Y-92900000D03*
%TD*%
D13*
%TO.C,J5*%
X113725000Y-96075000D03*
D14*
X113975000Y-98900000D03*
X113975000Y-93250000D03*
%TD*%
D13*
%TO.C,J9*%
X113725000Y-111075000D03*
D14*
X113975000Y-113900000D03*
X113975000Y-108250000D03*
%TD*%
D21*
%TO.C,R1*%
X150412500Y-87575000D03*
X152237500Y-87575000D03*
%TD*%
%TO.C,R12*%
X142400000Y-115175000D03*
X144225000Y-115175000D03*
%TD*%
D10*
%TO.C,C6*%
X131300000Y-111075000D03*
X132435000Y-111075000D03*
%TD*%
D16*
%TO.C,TP4*%
X140050000Y-104450000D03*
%TD*%
D22*
%TO.C,R14*%
X153975000Y-111825000D03*
X153975000Y-113650000D03*
%TD*%
D10*
%TO.C,C3*%
X119695000Y-96075000D03*
X120830000Y-96075000D03*
%TD*%
D23*
%TO.C,J14*%
X158725000Y-111075000D03*
D24*
X158475000Y-108250000D03*
X158475000Y-113900000D03*
%TD*%
D12*
%TO.C,R19*%
X147025000Y-61000000D03*
X145200000Y-61000000D03*
%TD*%
D10*
%TO.C,C25*%
X134990000Y-93925000D03*
X136125000Y-93925000D03*
%TD*%
D20*
%TO.C,C29*%
X144837500Y-107475000D03*
X142762500Y-107475000D03*
%TD*%
D11*
%TO.C,C15*%
X125530000Y-106350000D03*
X124395000Y-106350000D03*
%TD*%
D16*
%TO.C,TP5*%
X142050000Y-104450000D03*
%TD*%
D22*
%TO.C,R22*%
X134725000Y-79350000D03*
X134725000Y-81175000D03*
%TD*%
D19*
%TO.C,L3*%
X124625000Y-108250000D03*
X124625000Y-110000000D03*
%TD*%
D25*
%TO.C,C24*%
X133725000Y-92475000D03*
X135800000Y-92475000D03*
%TD*%
D26*
%TO.C,JP11*%
X151425000Y-118075000D03*
D27*
X150125000Y-118075000D03*
%TD*%
D17*
%TO.C,J2*%
X157925000Y-87825000D03*
D18*
X157925000Y-85285000D03*
%TD*%
D28*
%TO.C,IC3*%
X125725000Y-95075000D03*
X125725000Y-95575000D03*
X125725000Y-96075000D03*
X127425000Y-96075000D03*
X127425000Y-95575000D03*
X127425000Y-95075000D03*
D29*
X126575000Y-95575000D03*
%TD*%
D30*
%TO.C,IC6*%
X147225000Y-110575000D03*
X147225000Y-111075000D03*
X147225000Y-111575000D03*
X147225000Y-112075000D03*
X147225000Y-112575000D03*
D31*
X148125000Y-113475000D03*
X148625000Y-113475000D03*
X149125000Y-113475000D03*
X149625000Y-113475000D03*
X150125000Y-113475000D03*
D30*
X151025000Y-112575000D03*
X151025000Y-112075000D03*
X151025000Y-111575000D03*
X151025000Y-111075000D03*
X151025000Y-110575000D03*
D31*
X150125000Y-109675000D03*
X149625000Y-109675000D03*
X149125000Y-109675000D03*
X148625000Y-109675000D03*
X148125000Y-109675000D03*
D32*
X149125000Y-111575000D03*
%TD*%
D11*
%TO.C,C16*%
X125205000Y-90825000D03*
X124070000Y-90825000D03*
%TD*%
D33*
%TO.C,IC9*%
X137325000Y-109075000D03*
X137325000Y-109575000D03*
X137325000Y-110075000D03*
X137325000Y-110575000D03*
X137325000Y-111075000D03*
X137325000Y-111575000D03*
D34*
X138025000Y-112275000D03*
X138525000Y-112275000D03*
X139025000Y-112275000D03*
X139525000Y-112275000D03*
X140025000Y-112275000D03*
X140525000Y-112275000D03*
D33*
X141225000Y-111575000D03*
X141225000Y-111075000D03*
X141225000Y-110575000D03*
X141225000Y-110075000D03*
X141225000Y-109575000D03*
X141225000Y-109075000D03*
D34*
X140525000Y-108375000D03*
X140025000Y-108375000D03*
X139525000Y-108375000D03*
X139025000Y-108375000D03*
X138525000Y-108375000D03*
X138025000Y-108375000D03*
D35*
X139275000Y-110325000D03*
%TD*%
D10*
%TO.C,C5*%
X119725000Y-111075000D03*
X120860000Y-111075000D03*
%TD*%
D16*
%TO.C,TP2*%
X140850000Y-88588194D03*
%TD*%
D22*
%TO.C,R10*%
X154250000Y-100900000D03*
X154250000Y-102725000D03*
%TD*%
D23*
%TO.C,J8*%
X158725000Y-126075000D03*
D24*
X158475000Y-123250000D03*
X158475000Y-128900000D03*
%TD*%
D22*
%TO.C,R11*%
X152750000Y-100900000D03*
X152750000Y-102725000D03*
%TD*%
D36*
%TO.C,U3*%
X142895000Y-55915000D03*
X142895000Y-58455000D03*
X142895000Y-60995000D03*
X142895000Y-63535000D03*
X142895000Y-66075000D03*
X142895000Y-68615000D03*
X142895000Y-71155000D03*
X142895000Y-73695000D03*
X142895000Y-76235000D03*
D37*
X139805000Y-76785000D03*
X137265000Y-76785000D03*
X134725000Y-76785000D03*
X132185000Y-76785000D03*
X129645000Y-76785000D03*
D36*
X126555000Y-76235000D03*
X126555000Y-73695000D03*
X126555000Y-71155000D03*
X126555000Y-68615000D03*
X126555000Y-66075000D03*
X126555000Y-63535000D03*
D38*
X126555000Y-60995000D03*
D39*
X126555000Y-58455000D03*
D38*
X126555000Y-55915000D03*
%TD*%
D33*
%TO.C,IC11*%
X137322000Y-94076000D03*
X137322000Y-94576000D03*
X137322000Y-95076000D03*
X137322000Y-95576000D03*
X137322000Y-96076000D03*
X137322000Y-96576000D03*
D34*
X138022000Y-97276000D03*
X138522000Y-97276000D03*
X139022000Y-97276000D03*
X139522000Y-97276000D03*
X140022000Y-97276000D03*
X140522000Y-97276000D03*
D33*
X141222000Y-96576000D03*
X141222000Y-96076000D03*
X141222000Y-95576000D03*
X141222000Y-95076000D03*
X141222000Y-94576000D03*
X141222000Y-94076000D03*
D34*
X140522000Y-93376000D03*
X140022000Y-93376000D03*
X139522000Y-93376000D03*
X139022000Y-93376000D03*
X138522000Y-93376000D03*
X138022000Y-93376000D03*
D35*
X139272000Y-95326000D03*
%TD*%
D22*
%TO.C,R13*%
X154025000Y-96825000D03*
X154025000Y-98650000D03*
%TD*%
D25*
%TO.C,C2*%
X133725000Y-107475000D03*
X135800000Y-107475000D03*
%TD*%
D22*
%TO.C,R9*%
X151250000Y-100900000D03*
X151250000Y-102725000D03*
%TD*%
D12*
%TO.C,R20*%
X147025000Y-63550000D03*
X145200000Y-63550000D03*
%TD*%
D21*
%TO.C,R17*%
X134075000Y-105750000D03*
X135900000Y-105750000D03*
%TD*%
D12*
%TO.C,R2*%
X144350000Y-98675000D03*
X142525000Y-98675000D03*
%TD*%
D22*
%TO.C,R18*%
X155750000Y-100900000D03*
X155750000Y-102725000D03*
%TD*%
D10*
%TO.C,C1*%
X148494500Y-99697000D03*
X149629500Y-99697000D03*
%TD*%
D11*
%TO.C,C27*%
X143550000Y-93750000D03*
X142415000Y-93750000D03*
%TD*%
D19*
%TO.C,L1*%
X124475000Y-93450000D03*
X124475000Y-95200000D03*
%TD*%
D12*
%TO.C,R5*%
X144237500Y-113675000D03*
X142412500Y-113675000D03*
%TD*%
D16*
%TO.C,TP1*%
X138875000Y-88588194D03*
%TD*%
D23*
%TO.C,J6*%
X158725000Y-96075000D03*
D24*
X158475000Y-93250000D03*
X158475000Y-98900000D03*
%TD*%
D21*
%TO.C,R16*%
X134070500Y-90771000D03*
X135895500Y-90771000D03*
%TD*%
D40*
%TO.C,JP10*%
X154825000Y-89700000D03*
D41*
X154825000Y-88400000D03*
%TD*%
D28*
%TO.C,IC4*%
X125725000Y-110075000D03*
X125725000Y-110575000D03*
X125725000Y-111075000D03*
X127425000Y-111075000D03*
X127425000Y-110575000D03*
X127425000Y-110075000D03*
D29*
X126575000Y-110575000D03*
%TD*%
D16*
%TO.C,TP3*%
X142875000Y-88588194D03*
%TD*%
D21*
%TO.C,R4*%
X126103500Y-108013000D03*
X127928500Y-108013000D03*
%TD*%
D30*
%TO.C,IC2*%
X147225000Y-95575000D03*
X147225000Y-96075000D03*
X147225000Y-96575000D03*
X147225000Y-97075000D03*
X147225000Y-97575000D03*
D31*
X148125000Y-98475000D03*
X148625000Y-98475000D03*
X149125000Y-98475000D03*
X149625000Y-98475000D03*
X150125000Y-98475000D03*
D30*
X151025000Y-97575000D03*
X151025000Y-97075000D03*
X151025000Y-96575000D03*
X151025000Y-96075000D03*
X151025000Y-95575000D03*
D31*
X150125000Y-94675000D03*
X149625000Y-94675000D03*
X149125000Y-94675000D03*
X148625000Y-94675000D03*
X148125000Y-94675000D03*
D32*
X149125000Y-96575000D03*
%TD*%
D21*
%TO.C,R7*%
X142512500Y-100175000D03*
X144337500Y-100175000D03*
%TD*%
G36*
X160268039Y-124744685D02*
G01*
X160313794Y-124797489D01*
X160325000Y-124849000D01*
X160325000Y-127351000D01*
X160305315Y-127418039D01*
X160252511Y-127463794D01*
X160201000Y-127475000D01*
X112249000Y-127475000D01*
X112181961Y-127455315D01*
X112136206Y-127402511D01*
X112125000Y-127351000D01*
X112125000Y-124849000D01*
X112144685Y-124781961D01*
X112197489Y-124736206D01*
X112249000Y-124725000D01*
X160201000Y-124725000D01*
X160268039Y-124744685D01*
G37*
G36*
X160318039Y-109694685D02*
G01*
X160363794Y-109747489D01*
X160375000Y-109799000D01*
X160375000Y-112301000D01*
X160355315Y-112368039D01*
X160302511Y-112413794D01*
X160251000Y-112425000D01*
X112299000Y-112425000D01*
X112231961Y-112405315D01*
X112186206Y-112352511D01*
X112175000Y-112301000D01*
X112175000Y-109799000D01*
X112194685Y-109731961D01*
X112247489Y-109686206D01*
X112299000Y-109675000D01*
X160251000Y-109675000D01*
X160318039Y-109694685D01*
G37*
G36*
X160318039Y-94744685D02*
G01*
X160363794Y-94797489D01*
X160375000Y-94849000D01*
X160375000Y-97351000D01*
X160355315Y-97418039D01*
X160302511Y-97463794D01*
X160251000Y-97475000D01*
X112299000Y-97475000D01*
X112231961Y-97455315D01*
X112186206Y-97402511D01*
X112175000Y-97351000D01*
X112175000Y-94849000D01*
X112194685Y-94781961D01*
X112247489Y-94736206D01*
X112299000Y-94725000D01*
X160251000Y-94725000D01*
X160318039Y-94744685D01*
G37*
M02*
